<svg xmlns="http://www.w3.org/2000/svg" xmlns:xlink="http://www.w3.org/1999/xlink" viewBox="0 0 2391.38 2000"><defs><style>.cls-1{mask:url(#mask);filter:url(#luminosity-noclip-5);}.cls-2,.cls-4,.cls-6,.cls-8{mix-blend-mode:multiply;}.cls-2{fill:url(#linear-gradient);}.cls-3{mask:url(#mask-2);filter:url(#luminosity-noclip-6);}.cls-4{fill:url(#linear-gradient-2);}.cls-5,.cls-7{mask:url(#mask-3);}.cls-5{filter:url(#luminosity-noclip-7);}.cls-6{fill:url(#linear-gradient-3);}.cls-7{filter:url(#luminosity-noclip-8);}.cls-8{fill:url(#linear-gradient-4);}.cls-9{isolation:isolate;}.cls-10{fill:#e0e0e0;}.cls-11{fill:#d9d9d9;}.cls-12{fill:#b8b8b8;}.cls-13{opacity:0.43;}.cls-14{fill:url(#linear-gradient-5);}.cls-15{opacity:0.22;}.cls-16{fill:url(#linear-gradient-6);}.cls-17{fill:url(#linear-gradient-7);}.cls-18{fill:url(#linear-gradient-8);}.cls-19{fill:url(#linear-gradient-9);}.cls-20{fill:#007fe6;}.cls-21{fill:#0064b5;}.cls-22{fill:#004e8c;}.cls-23{fill:url(#linear-gradient-10);}.cls-24{fill:#6a75ba;}.cls-25{fill:#545d94;}.cls-26{fill:#eea886;}.cls-27{fill:#d9d3c8;}.cls-28{fill:#222538;}.cls-29{fill:#ffc955;}.cls-30{fill:#a77860;}.cls-31{fill:#c29941;}.cls-32{fill:#fff;}.cls-33{mask:url(#mask-5);}.cls-34{fill:url(#linear-gradient-11);}.cls-35{mask:url(#mask-6);}.cls-36{fill:url(#linear-gradient-12);}.cls-37{mask:url(#mask-7);}.cls-38{fill:url(#linear-gradient-13);}.cls-39{mask:url(#mask-8);}.cls-40{fill:url(#linear-gradient-14);}.cls-41,.cls-58{mix-blend-mode:hard-light;}.cls-41{fill:url(#linear-gradient-15);}.cls-42{fill:#616587;}.cls-43{fill:#152b3d;}.cls-44{fill:#ffc05c;}.cls-45{fill:#254380;}.cls-46{fill:#353a3d;}.cls-47{fill:#e55353;}.cls-48{fill:#eea987;}.cls-49{fill:#2f4563;}.cls-50{fill:#202338;}.cls-51{fill:#2f6b8c;}.cls-52{fill:#877d78;}.cls-53{fill:#f5e1d9;}.cls-54{fill:#4b6f9e;}.cls-55{fill:#eddad3;}.cls-56{fill:#c9bab3;}.cls-57{fill:#1e2c40;}.cls-59{fill:url(#linear-gradient-16);}.cls-60{fill:url(#linear-gradient-17);}.cls-61{fill:url(#linear-gradient-18);}.cls-62{fill:url(#linear-gradient-19);}.cls-63{fill:url(#linear-gradient-20);}.cls-64{fill:#007bde;}.cls-65{fill:#1a598c;}.cls-66{fill:#2273b5;}.cls-67{fill:#3788cc;}.cls-68{fill:#81807e;}.cls-69{fill:#292c47;}.cls-70{fill:#cac7d1;}.cls-71{fill:#1d2033;}.cls-72{fill:#323657;}.cls-73{fill:#c78d71;}.cls-74{fill:#a09ea6;}.cls-75{fill:#eae6f2;}.cls-76{fill:#3a4066;}.cls-77{fill:#f2dfd8;}.cls-78{fill:#d6c5be;}.cls-79{fill:url(#linear-gradient-21);}.cls-80{fill:url(#linear-gradient-22);}.cls-81{fill:url(#linear-gradient-23);}.cls-82{fill:#ffa855;}.cls-83{fill:#ffa555;}.cls-84{fill:#858585;}.cls-85{fill:#e2d2ca;}.cls-86{fill:#1c1e30;}.cls-87{fill:#24263d;}.cls-88{fill:#282b45;}.cls-89{fill:#1f2136;}.cls-90{fill:#4f558a;}.cls-91{fill:#d6c5bf;}.cls-92{fill:#16202e;}.cls-93{fill:#6e6760;}.cls-94{fill:#918880;}.cls-95{fill:#706865;}.cls-96{fill:#eb4747;}.cls-97{fill:#d69779;}.cls-98{fill:#12131f;}.cls-99{fill:#9e633a;}.cls-100{fill:#97a43c;}.cls-101{fill:#82522f;}.cls-102{fill:#c67b47;}.cls-103{filter:url(#luminosity-noclip-3);}.cls-104{filter:url(#luminosity-noclip-2);}.cls-105{filter:url(#luminosity-noclip);}</style><filter id="luminosity-noclip" x="35.75" y="-9036.21" width="99.79" height="32766" filterUnits="userSpaceOnUse" color-interpolation-filters="sRGB"><feFlood flood-color="#fff" result="bg"/><feBlend in="SourceGraphic" in2="bg"/></filter><mask id="mask" x="35.75" y="-9036.21" width="99.79" height="32766" maskUnits="userSpaceOnUse"><g class="cls-105"/></mask><linearGradient id="linear-gradient" x1="80.73" y1="808.32" x2="89.14" y2="1214.52" gradientUnits="userSpaceOnUse"><stop offset="0" stop-color="#fff"/><stop offset="1"/></linearGradient><filter id="luminosity-noclip-2" x="0" y="-9036.21" width="41.59" height="32766" filterUnits="userSpaceOnUse" color-interpolation-filters="sRGB"><feFlood flood-color="#fff" result="bg"/><feBlend in="SourceGraphic" in2="bg"/></filter><mask id="mask-2" x="0" y="-9036.21" width="41.59" height="32766" maskUnits="userSpaceOnUse"><g class="cls-104"/></mask><linearGradient id="linear-gradient-2" x1="15.91" y1="809.66" x2="24.32" y2="1215.86" xlink:href="#linear-gradient"/><filter id="luminosity-noclip-3" x="2076.82" y="-9036.21" width="84.72" height="32766" filterUnits="userSpaceOnUse" color-interpolation-filters="sRGB"><feFlood flood-color="#fff" result="bg"/><feBlend in="SourceGraphic" in2="bg"/></filter><mask id="mask-3" x="2076.82" y="-9036.21" width="84.72" height="32766" maskUnits="userSpaceOnUse"><g class="cls-103"/></mask><linearGradient id="linear-gradient-3" x1="2165.82" y1="6.81" x2="2068.36" y2="371.39" gradientTransform="translate(4238.36 362.57) rotate(-180)" xlink:href="#linear-gradient"/><linearGradient id="linear-gradient-4" x1="2151.53" y1="31.74" x2="2076.05" y2="314.1" gradientTransform="translate(4238.36 305.55) rotate(-180)" xlink:href="#linear-gradient"/><linearGradient id="linear-gradient-5" x1="714.66" y1="1309.6" x2="2288.75" y2="1309.6" gradientUnits="userSpaceOnUse"><stop offset="0" stop-color="#ffc05c"/><stop offset="1" stop-color="#ff3857"/></linearGradient><linearGradient id="linear-gradient-6" x1="714.66" y1="1267" x2="2289.58" y2="1267" gradientUnits="userSpaceOnUse"><stop offset="0" stop-color="#40d5e6"/><stop offset="1" stop-color="#57f"/></linearGradient><linearGradient id="linear-gradient-7" x1="1478.21" y1="767.97" x2="2039.62" y2="767.97" gradientUnits="userSpaceOnUse"><stop offset="0" stop-color="#8fd6ff"/><stop offset="1" stop-color="#bfebfe"/></linearGradient><linearGradient id="linear-gradient-8" x1="1468.88" y1="695.89" x2="2028.46" y2="695.89" xlink:href="#linear-gradient-7"/><linearGradient id="linear-gradient-9" x1="1572.92" y1="518.19" x2="1256.51" y2="1419.67" gradientUnits="userSpaceOnUse"><stop offset="0" stop-color="#c6cbcf"/><stop offset="1" stop-color="#f8f1fe"/></linearGradient><linearGradient id="linear-gradient-10" x1="1819.78" y1="1558.64" x2="2296.94" y2="2248.58" gradientUnits="userSpaceOnUse"><stop offset="0" stop-color="#57c1ff"/><stop offset="1" stop-color="#bfebfe"/></linearGradient><filter id="luminosity-noclip-5" x="35.75" y="1021.37" width="99.79" height="48.5" filterUnits="userSpaceOnUse" color-interpolation-filters="sRGB"><feFlood flood-color="#fff" result="bg"/><feBlend in="SourceGraphic" in2="bg"/></filter><mask id="mask-5" x="35.75" y="1021.37" width="99.79" height="48.5" maskUnits="userSpaceOnUse"><g class="cls-1"><polygon class="cls-2" points="59.13 1069.88 135.54 1069.88 112.15 1021.37 35.75 1021.37 59.13 1069.88"/></g></mask><linearGradient id="linear-gradient-11" x1="80.73" y1="808.32" x2="89.14" y2="1214.52" xlink:href="#linear-gradient-6"/><filter id="luminosity-noclip-6" x="0" y="1021.37" width="41.59" height="48.5" filterUnits="userSpaceOnUse" color-interpolation-filters="sRGB"><feFlood flood-color="#fff" result="bg"/><feBlend in="SourceGraphic" in2="bg"/></filter><mask id="mask-6" x="0" y="1021.37" width="41.59" height="48.5" maskUnits="userSpaceOnUse"><g class="cls-3"><polygon class="cls-4" points="23.39 1069.88 41.59 1069.88 18.2 1021.37 0 1021.37 23.39 1069.88"/></g></mask><linearGradient id="linear-gradient-12" x1="15.91" y1="809.66" x2="24.32" y2="1215.86" xlink:href="#linear-gradient-6"/><filter id="luminosity-noclip-7" x="2076.82" y="164.95" width="84.72" height="32.68" filterUnits="userSpaceOnUse" color-interpolation-filters="sRGB"><feFlood flood-color="#fff" result="bg"/><feBlend in="SourceGraphic" in2="bg"/></filter><mask id="mask-7" x="2076.82" y="164.95" width="84.72" height="32.68" maskUnits="userSpaceOnUse"><g class="cls-5"><rect class="cls-6" x="2076.82" y="164.95" width="84.72" height="32.68" transform="translate(4238.36 362.57) rotate(180)"/></g></mask><linearGradient id="linear-gradient-13" x1="2165.82" y1="6.81" x2="2068.36" y2="371.39" gradientTransform="translate(4238.36 362.57) rotate(-180)" xlink:href="#linear-gradient-6"/><filter id="luminosity-noclip-8" x="2076.82" y="149.7" width="84.72" height="6.15" filterUnits="userSpaceOnUse" color-interpolation-filters="sRGB"><feFlood flood-color="#fff" result="bg"/><feBlend in="SourceGraphic" in2="bg"/></filter><mask id="mask-8" x="2076.82" y="149.7" width="84.72" height="6.15" maskUnits="userSpaceOnUse"><g class="cls-7"><rect class="cls-8" x="2076.82" y="149.7" width="84.72" height="6.15" transform="translate(4238.36 305.55) rotate(180)"/></g></mask><linearGradient id="linear-gradient-14" x1="2151.53" y1="31.74" x2="2076.05" y2="314.1" gradientTransform="translate(4238.36 305.55) rotate(-180)" xlink:href="#linear-gradient-6"/><linearGradient id="linear-gradient-15" x1="534.91" y1="973.82" x2="534.91" y2="1506.17" gradientUnits="userSpaceOnUse"><stop offset="0" stop-color="#626e7a"/><stop offset="1" stop-color="#f5f5f5"/></linearGradient><linearGradient id="linear-gradient-16" x1="533.33" y1="1166.85" x2="533.33" y2="2306.57" gradientUnits="userSpaceOnUse"><stop offset="0" stop-color="#44607d"/><stop offset="1" stop-color="#f5f5f5"/></linearGradient><linearGradient id="linear-gradient-17" x1="657.66" y1="1071.25" x2="676.17" y2="1071.25" gradientUnits="userSpaceOnUse"><stop offset="0" stop-color="#d5e4ff"/><stop offset="1" stop-color="#edfffe"/></linearGradient><linearGradient id="linear-gradient-18" x1="690.16" y1="1057.53" x2="708.67" y2="1057.53" xlink:href="#linear-gradient-17"/><linearGradient id="linear-gradient-19" x1="724.27" y1="1064.71" x2="742.78" y2="1064.71" xlink:href="#linear-gradient-17"/><linearGradient id="linear-gradient-20" x1="759.31" y1="1081.37" x2="777.82" y2="1081.37" xlink:href="#linear-gradient-17"/><linearGradient id="linear-gradient-21" x1="593.79" y1="1459.52" x2="593.79" y2="1369.85" gradientUnits="userSpaceOnUse"><stop offset="0" stop-color="#ff9f55"/><stop offset="1" stop-color="#ffd255"/></linearGradient><linearGradient id="linear-gradient-22" x1="-3182.12" y1="1502.78" x2="-3134.4" y2="1502.78" gradientTransform="matrix(-1, 0, 0, 1, -2574, 0)" xlink:href="#linear-gradient-21"/><linearGradient id="linear-gradient-23" x1="-3131.46" y1="1301.4" x2="-3085.94" y2="1301.4" gradientTransform="matrix(-1, 0, 0, 1, -2574, 0)" xlink:href="#linear-gradient-21"/></defs><title>analytics</title><g class="cls-9"><g id="Layer_2" data-name="Layer 2"><g id="Слой_1" data-name="Слой 1"><rect class="cls-10" x="1105.41" y="1030.26" width="5.53" height="580.66"/><rect class="cls-10" x="1498.93" y="1030.26" width="5.53" height="580.66"/><rect class="cls-10" x="1892.46" y="1030.26" width="5.54" height="580.66"/><rect class="cls-11" x="714.66" y="958.7" width="94.26" height="15.14"/><rect class="cls-11" x="714.66" y="986.68" width="133.7" height="15.14"/><rect class="cls-11" x="1103.94" y="958.7" width="110.66" height="15.14"/><rect class="cls-11" x="1103.94" y="986.68" width="70.76" height="15.14"/><rect class="cls-11" x="1504.47" y="958.7" width="68.57" height="15.14"/><rect class="cls-11" x="1504.47" y="986.68" width="79.93" height="15.14"/><rect class="cls-11" x="1897.99" y="958.7" width="99.89" height="15.14"/><rect class="cls-11" x="1897.99" y="986.68" width="79.93" height="15.14"/><rect class="cls-12" x="1108.18" y="1645.32" width="62.61" height="20.18"/><rect class="cls-12" x="1504.47" y="1645.32" width="62.61" height="20.18"/><rect class="cls-12" x="1897.99" y="1645.32" width="62.61" height="20.18"/><g class="cls-13"><path class="cls-14" d="M2152.37,1438.39c-122.74,0-229.44-53.06-340.67-108.37-137.33-68.29-279.32-138.9-468.51-119.56-120.81,12.34-196.64,61.54-263.55,105-60.57,39.3-117.85,73.87-195.41,76.82-125.36,4.77-168.85-48.7-169.57-52V1306h0c.15.59,27.52,60.6,169.43,59.89,69.89-.35,121.47-33.82,181.2-72.57,69.4-45,148.07-96.07,275.21-109.07,196.78-20.11,342.26,52.23,482.94,122.19,147.21,73.2,287.68,141.85,465.31,82.29v28.21C2238.12,1433.88,2197.62,1438.39,2152.37,1438.39Z"/></g><g class="cls-15"><path class="cls-16" d="M1415.62,1431.82c-90.6,0-162.46-60.93-232.81-120.58-53.34-45.22-108.68-91.46-172.56-114.27-195-69.6-294.7,57.5-295.59,58.62v-38.67c1.05-1.32,18.84-24.42,70.31-46.48,46.87-20.08,125.49-36.1,233.94,1.62,68.71,23.9,125.77,72.28,181,119.06,111.94,94.91,208.62,176.88,376.51,48.49,127.17-97.24,247-189.9,365-223.76,115.36-33.11,235.63-8.87,348.21,103.71l-.83,35.11c-239.14-240.19-442.76-88-696.34,105.89C1525.24,1411.93,1467.36,1431.81,1415.62,1431.82Z"/></g><polygon class="cls-17" points="1482.21 891.54 1478.21 886.85 1544.5 830.38 1584.76 830.38 1676.11 752.56 1733.24 801.23 1775.37 801.23 1796.66 819.37 1862.82 763.01 1896.4 763.01 2035.62 644.4 2039.62 649.09 1898.67 769.17 1865.09 769.17 1796.66 827.46 1773.1 807.39 1730.97 807.39 1676.11 760.65 1587.03 836.54 1546.77 836.54 1482.21 891.54"/><polygon class="cls-18" points="1491.79 813.53 1468.88 813.53 1468.88 807.37 1489.23 807.37 1523.64 772.97 1548.65 797.99 1608.4 738.23 1626.78 756.61 1687.37 696.03 1723.67 732.33 1765.06 732.33 1828.95 668.45 1884.04 668.45 1924.78 627.72 1974.63 627.72 2024.11 578.24 2028.46 582.6 1977.19 633.88 1927.33 633.88 1886.6 674.61 1831.5 674.61 1767.61 738.49 1721.12 738.49 1687.37 704.74 1626.78 765.33 1608.4 746.95 1548.65 806.7 1523.64 781.68 1491.79 813.53"/><path class="cls-19" d="M2103.61,827.54c0-.13-.08-.27-.11-.4-58.92-205.48-206-381.11-409.14-471.49h0a740.35,740.35,0,0,0-391.55-58.73l-.24,0-.13,0a736.5,736.5,0,0,0-179.21,45.79l-.33.14c-210.12,82.63-379.6,260.49-442.77,495.23-106,394,127.34,799.15,521.16,905.14,202.24,54.41,407.44,19.38,573.61-80.89l31,43.09,146.19-105.28-35.29-49a735.18,735.18,0,0,0,189.65-329.22C2142.58,1087.66,2139.31,952.06,2103.61,827.54Zm-540.75,674.75c-261.11,93.58-548.66-42.23-642.23-303.34-91.84-256.25,37.25-538,288.91-636.81q7.14-2.8,14.43-5.42a500.46,500.46,0,0,1,374.24,14.21c120.6,53.87,219.91,155,268,289.13q5.65,15.84,10.24,31.8C1948.57,1144.11,1813.41,1412.49,1562.86,1502.29Z"/><path class="cls-20" d="M2249.07,785.67,2103.5,827.14l-227.06,64.72q-4.57-16-10.24-31.8c-48.08-134.17-147.39-235.26-268-289.13l96.13-215.28h0L1704.47,333l51.67-115.7C2001,326.21,2178.19,538,2249.07,785.67Z"/><path class="cls-21" d="M1704.47,333l-10.11,22.66-96.15,215.28a501.19,501.19,0,0,0-266.46-40l-29-234-3-24.54A765.79,765.79,0,0,1,1704.47,333Z"/><path class="cls-22" d="M1331.75,531A504.28,504.28,0,0,0,1224,556.72q-7.29,2.61-14.43,5.42l-86.33-219.43-26.13-66.41A806,806,0,0,1,1293.88,226l.15,0,5.73,46.38,3,24.54Z"/><polygon class="cls-23" points="2274.59 2000 1983.48 2000 1781.16 1719.05 1972.87 1581.02 2274.59 2000"/><path class="cls-24" d="M1235.87,175.07s-10.49-19.25-16.46-26.18-25.79-12.13-23.1-21,29.26-5,36.57,3.66,29.65,11.74,30.41,15.39-7.75,23.68-12.53,26.95S1235.87,175.07,1235.87,175.07Z"/><path class="cls-25" d="M1191.28,191.38s-17.09-13.55-25.32-17.54-28.48-.89-29.53-10.08,24.87-16.21,35-11.17,31.87-1,34,2.06,2.28,24.81-.81,29.71S1191.28,191.38,1191.28,191.38Z"/><path class="cls-26" d="M1229.23,226.65s7.45-51,7.12-59.86c-.1-2.53,15.35-1.59,14.63,3.27-1.57,10.58,5.55,51.59,4.31,59.09S1228.59,231.38,1229.23,226.65Z"/><path class="cls-26" d="M1205.85,241.31s-14-49.53-17.23-57.77c-1.45-3.66,12.79-9.34,14.72-2.8,3,10.26,25.59,45.14,27.43,52.52S1207.15,245.9,1205.85,241.31Z"/><path class="cls-27" d="M1215.56,275.73s-15-50.62-17.32-56l23.67-14.63s11,32.34,12.51,40.42S1215.56,275.73,1215.56,275.73Z"/><path class="cls-28" d="M1634.64,142s-22.86,5.78-33.74,23.07-20.28,37.21-40.72,46.24-20.57,32.31-19,35.9,64.38,74.17,78.08,76.9,39.36.83,36.61-17.3-29.63-57.15-14.54-76.84,18.9-37.81,18.9-37.81Z"/><path class="cls-26" d="M1630.65,226.4a8.33,8.33,0,0,0-1.79-.33,13.09,13.09,0,0,0-5.34.64,12.47,12.47,0,0,0-2.1,1c-5.43,3.2-18.28,11.89-20,12.1-2,.24-.31-29.75-.31-29.75s6.84-12.11,7.7-20.08S1630.65,226.4,1630.65,226.4Z"/><path class="cls-27" d="M1469.83,257.74s-25.12-17.62-54.57-12.13-32.63,19.25-42.73,19.88-43.89-2.27-71.61,5.82-51.1,8.95-54.27,6.64S1264,229.44,1264,223.09l-34.36-9s-9.82,41-13.66,50.24c-4.12,9.88-12,28.48-.78,44.65s42.74,8.89,61.79,12.14,104.35,1.17,119.24.37c16.17-.86,65-3.17,65-3.17Z"/><path class="cls-26" d="M1676.13,166.45s1.6,24.82-3.91,32.26a35.1,35.1,0,0,1-4.7,5.47,10.92,10.92,0,0,0-3.14,4.55c-1.7,4.77-2.75,11.49-4.1,12.92s-5.77-2.41-7.32-2.42-16.67,13-20.28,10.36-25.67-25-23.81-40.38,8.62-38.25,33.45-38.11S1674.23,160.28,1676.13,166.45Z"/><path class="cls-29" d="M1601.1,284.88c-.48,1-9.61,15.59-19.61,24.05-4.15,3.52-8.45,6-12.34,6-1.19,0-2.35,0-3.48.05-11.48.31-20.29,2.07-35.79,2.84-16.09.8-55.14-1.44-56.3-1.44s-12.42,2-12.42,2c-4-4.91,6.65-60.34,8.67-60.63s15,4.62,27.43,2.6,17.32-3.18,35.8-24.83,37-27.14,44.75-25.41,23.29,0,23.29,0S1601.77,283.43,1601.1,284.88Z"/><path class="cls-28" d="M1665.7,184.22s4.63,12,7.08,13.64c0,0,8.93-9.44,3.19-32.75s-27.37-25.49-41.33-23.13c-17.39,3-34.89,61.77-34,67.5S1621,179.08,1638.1,182,1655.3,185.85,1665.7,184.22Z"/><path class="cls-30" d="M1628.86,226.07a13.42,13.42,0,0,0-5.33.74,11.16,11.16,0,0,0-2.11.94c-4-6.22-7.69-21-7.81-21.49C1616.28,212,1628.86,226.07,1628.86,226.07Z"/><path class="cls-31" d="M1581.49,308.93c-4.15,3.52-8.45,6-12.34,6-1.19,0-2.35,0-3.48.05l5.67-45.95Z"/><path class="cls-26" d="M1671.33,388.07l-11.08,10.08c-9.56-5.13-33.53-22.37-38.13-26.3-4.84-4.11-37.08-31.08-41.5-37.22s-10.12-69.66-9.55-72.57,28-4.34,31.14,2.38c0,0,1.44,36.22,2.18,42.28a31.37,31.37,0,0,0,7.17,16.65c5.76,7.06,18,23.45,29.88,36.7C1644.27,363.23,1667.67,384.92,1671.33,388.07Z"/><path class="cls-29" d="M1604.47,265.24s1.73-48.23-14-47.64c-19.83.76-22.81,25-20.11,51.4C1570.4,269,1600,269.29,1604.47,265.24Z"/><path class="cls-26" d="M1666,383.34a8.21,8.21,0,0,0,3.62,3.05c3.69,1.25,9.15-1.15,11.84,3.68s-10.31,16.92-13.8,17.66-9.09-4.71-13.47-15.43S1666,383.34,1666,383.34Z"/><path class="cls-26" d="M1680.31,388.56a168.78,168.78,0,0,1,13.34,11.54c5.88,5.69,11.87,13.15,10.36,14.56-2.06,1.93-6.08-4.48-12.29-9.75-5.71-4.85-5.39-3-5.39-3s-.06-.54,5.15,5.91c5.61,6.93,11.4,15.15,9.67,16.34-1.08.74-1.13.94-3.58-1.26,1.14,1.55.87,2.07.27,2.57-3.13,2.62-12.95-6.34-16.85-9.91,3,2.76,4.87,5.08,1.84,5.44-3.46.41-16.78-12.87-22-17.19C1655.12,399.12,1680.31,388.56,1680.31,388.56Z"/><path class="cls-10" d="M1481.11,260s-5.29,37.95-2.68,56.63c0,0,2.76,2.05,8.25.39,0,0,1.37-41.44,4.45-56.15C1491.13,260.82,1489.44,259.54,1481.11,260Z"/><rect class="cls-10" x="1482.37" width="4.1" height="288.65"/><rect class="cls-32" x="2123.2" y="1495.11" width="79.47" height="5.57" transform="translate(4325.87 2995.79) rotate(180)"/><rect class="cls-32" x="2123.2" y="1505.61" width="79.47" height="23.42" transform="translate(4325.87 3034.63) rotate(180)"/><rect class="cls-32" x="2085.87" y="1536.9" width="46.88" height="3.5" transform="translate(4218.62 3077.3) rotate(180)"/><rect class="cls-32" x="2085.87" y="1541.93" width="46.88" height="9.48" transform="translate(4218.62 3093.34) rotate(180)"/><rect class="cls-32" x="2215.72" y="1465.09" width="3.5" height="65.62" transform="translate(4434.93 2995.79) rotate(180)"/><g class="cls-33"><polygon class="cls-34" points="59.13 1069.88 135.54 1069.88 112.15 1021.37 35.75 1021.37 59.13 1069.88"/></g><g class="cls-35"><polygon class="cls-36" points="23.39 1069.88 41.59 1069.88 18.2 1021.37 0 1021.37 23.39 1069.88"/></g><g class="cls-37"><rect class="cls-38" x="2076.82" y="164.95" width="84.72" height="32.68" transform="translate(4238.36 362.57) rotate(180)"/></g><g class="cls-39"><rect class="cls-40" x="2076.82" y="149.7" width="84.72" height="6.15" transform="translate(4238.36 305.55) rotate(180)"/></g><rect class="cls-41" x="235.55" y="854.23" width="598.71" height="52.47" rx="23.29"/><polygon class="cls-42" points="1151.88 1626.93 1455.9 1626.93 1360.08 1921.18 1369.04 1924.1 1468.88 1617.51 1145.04 1617.51 1046.16 1921.18 1055.12 1924.1 1151.88 1626.93"/><polygon class="cls-42" points="1255.35 1921.18 1159.54 1626.93 1463.55 1626.93 1560.32 1924.1 1569.28 1921.18 1470.39 1617.51 1146.56 1617.51 1246.39 1924.1 1255.35 1921.18"/><rect class="cls-42" x="1123.6" y="1710.17" width="372.1" height="9.42"/><rect class="cls-42" x="1085.27" y="1812.48" width="445.19" height="9.42"/><path class="cls-26" d="M1304.22,955.36s7.58-13.26-4.44-48.81c-11.62-34.37-51.86-31.26-64.65-9.23s-8.47,35.7,10.36,60.57S1296.41,966.73,1304.22,955.36Z"/><path class="cls-26" d="M1210.76,1566.9s-2,14.59-2.24,16.79-22.15-1.3-22.15-1.3L1184.6,1565S1208,1564.84,1210.76,1566.9Z"/><path class="cls-43" d="M1208.76,1581.83s6.93,8.8,13.65,12.63,17.25,5.35,21.22,9.32c2.87,2.87,10.44,15.2-17.44,15s-41.31,1.74-44.3-3,4.32-34.9,4.32-34.9S1193,1582.77,1208.76,1581.83Z"/><path class="cls-26" d="M1362.4,1566.9s-2,14.59-2.24,16.79-22.15-1.3-22.15-1.3l-1.77-17.37S1359.67,1564.84,1362.4,1566.9Z"/><path class="cls-43" d="M1360.4,1581.83s6.94,8.8,13.65,12.63,31.41,7,35.37,11c2.87,2.87,7.63,14.4-31.59,13.32-27.86-.77-41.31,1.74-44.29-3s4.32-34.9,4.32-34.9A115.69,115.69,0,0,0,1360.4,1581.83Z"/><path class="cls-44" d="M1218.14,1203.42s-11.23,34.9-9.75,65-5.81,63-8.79,94.39c-3.32,35-16.91,117.93-17.4,136.67s2.11,78.55,2.11,78.55l27.2.65s22.84-144.94,28.76-159.73,35.25-120.22,36.24-132.06S1218.14,1203.42,1218.14,1203.42Z"/><path class="cls-44" d="M1330.9,1199.79s16.51,92.26,18.48,110.67,3.29,89.07,4.28,100.57,6.57,150.53,11.83,167.62h-30.33S1304,1477.59,1304,1429.77s-20.62-104-33.93-135.51-43.78-32.3-52-90.84C1218.14,1203.42,1319.82,1181.22,1330.9,1199.79Z"/><path class="cls-26" d="M1293.22,964.75s-3.42,10,0,17.06-43.7,2.84-43.7,2.84,2.13-14.69-4-26.76S1293.22,964.75,1293.22,964.75Z"/><path class="cls-44" d="M1216,1211s17,17.41,116.47-2.72l-1.52-8.52-113.13,4.26Z"/><path class="cls-26" d="M1300.36,984.11s17.4,1.78,22.38,2.73,38.44-6,45.31-6.7,36.15-20.78,37.1-23.14,17.82-45.08,18.76-54.32,16.43-4.47,15.11,1.9c-2.49,11.9-5.68,40.8-7.42,49.18-1.89,9-6.95,29.53-9.79,32s-29.21,22.58-55,31.1a219.71,219.71,0,0,0-45.24,21.08H1194.32s-49.48-70.73-50.55-81.39,34.57-81.49,41.67-90.37,17.38,2.9,17.38,2.9-21.29,62.47-24.13,71.35,24.76,47.9,32.34,48,27-2.36,35.68-2.72,17.77-4.14,17.77-4.14Z"/><path class="cls-45" d="M1355.18,1031.36s-15.57,10.35-17,28.11-7.11,45.83-10,55.42,2.49,79.21,3.2,84.19-98.44,16.79-113.67,5c0,0-4.27-65-6-83.48s-10.3-63.23-13.15-69.27-37.29-54.37-38.71-60.74c0,0,17.82-28.42,30.61-28.77,0,0,20.31,23.8,26.93,24.86s47.21-6.37,47.22-6.43,4.43,6,28-1.07c0,0,28.05,3.16,32.61,3.74,5.53.71,43.93-4.82,43.93-4.82s15.41,26,12.71,39.16Z"/><path class="cls-26" d="M1423,908.23s3.48-16.46-.71-21.19c-2.38-2.69-8.11-9.81-8.63-10.86s-6.68-4.58-6.68-6.28,6-3.8,11.26,1.05,8.5,5.89,10.6,5.36,5.1-17.93,5.36-22.24,1.93-15.71,4.63-14.92,2.57,5.76,2.57,5.76,3.14-8.64,5.23-6.94,1.83,5.89,1.83,5.89,3.93-4.84,5-1.31a12.32,12.32,0,0,1,0,6.68s4-2.23,4.31,3.27-1.17,21.59-4,27.35-13.66,20.81-14.94,26.69S1423,908.23,1423,908.23Z"/><path class="cls-26" d="M1199.35,879.32s11.84-19.9,15.87-21.67,9.71-2.78,14.68-6.34,11.54-6.51,11.19-7.69-6.22-.71-12.49,2-9,1.41-9.62,0,3.34-11.46,5.24-13.83,15.39-15.94,13.14-17.95-11,5.44-12.43,7c0,0,7-14.68,4.26-15.39s-7.82,4.5-7.82,4.5.6-12.55-12.9,7.81c0,0,2.84-6.75-1.31-4.5s-8.17,14.92-9.47,21.32-7.21,26.76-12.25,31.67S1199.35,879.32,1199.35,879.32Z"/><path class="cls-46" d="M1245.49,957.89s6.24.55,19.5-4,14.25-27.77,17.12-25c5.85,5.6,11.38,1.73,13.59-1.58,0,0-6.47-8.53-3.48-12.63a31.64,31.64,0,0,1,7.89-7.1s-9.33-45-51.78-24.48C1198.6,907.05,1245.49,957.89,1245.49,957.89Z"/><path class="cls-45" d="M1293.22,981.81l-1.49-6.5s-27.1-.55-41.88,1.59l-1.55,7.77S1267.22,993.25,1293.22,981.81Z"/><path class="cls-26" d="M1286.54,923.15c-2.46-4.09-11.56-6.84-12.63,4.74-.83,9,16.26,18.79,16.42,10.42S1288.18,925.87,1286.54,923.15Z"/><path class="cls-47" d="M1423.67,904.49s9.77.24,14.51,4.53a9.61,9.61,0,0,1-.79,4.86s-8.47-4-15-4.69C1422.42,909.19,1422.53,905.63,1423.67,904.49Z"/><path class="cls-46" d="M1435.19,906.93a4.2,4.2,0,1,1-5.51-2.24A4.21,4.21,0,0,1,1435.19,906.93Z"/><path class="cls-48" d="M2207.44,1134.93s-8.68,1.16-8.61-2.52.66-8.46.66-8.46Z"/><path class="cls-48" d="M2256.21,1095.11l-28.49,22c3.63-.69,9.71-1.56,9.85.34.19,2.71-10.83,6-14.32,8.44-3.2,2.26-6.56,6.29-7.46,6.48l-6.23,5.33L2199.49,1124s16.63-18.81,20.64-22.83c6.51-6.52,32.86-10.35,34.3-9.4C2257,1093.43,2256.21,1095.11,2256.21,1095.11Z"/><path class="cls-49" d="M2221.05,1138.67l-23-19.46-78.79,79.61c-12.34,8.48,24.05,37.71,34.33,44.08,26.41,16.38,57.56,54.28,89.88,31.17,35-25.06-16-42.89-33-42.45-14.73.38-46.83-28.6-46.83-28.6Z"/><path class="cls-50" d="M2179.47,1853.1s-13.09,13.74-26.38,16.62-22.59,6.55-22.69,14.44,38.25,13.09,53.45,5.13c22.7-11.86,25-8.29,27.52-14.22s-3-21.79-2.86-23.68C2208.72,1849.06,2179.47,1853.1,2179.47,1853.1Z"/><path class="cls-51" d="M2180.94,1846.52s-1.73,6.44-1.47,6.58,29.94,3.46,29-1.71c-.72-4.19-1.76-8.74-1.76-8.74Z"/><path class="cls-50" d="M2327.33,1856.68s-9.63,13.39-22.51,16.48c-12.7,3-20.93,8.84-21.55,16.5s29.94,17.71,51.42,4.24c14.11-8.85,19.37-8.34,22.21-14s-1.49-21.38-1.2-23.21C2356.05,1854.48,2327.33,1856.68,2327.33,1856.68Z"/><path class="cls-51" d="M2327.73,1850.06s-.64,6.47-.4,6.62,28.54,5.15,28.37,0a39.26,39.26,0,0,0-1.79-9.09Z"/><path class="cls-52" d="M2210.88,1459.79s-13.74,99.87-19.36,133.63c-6.57,39.48-8.79,72.09-10.62,92.52-2.31,25.7-5.36,157.21-7,164.73s40,3.6,40,3.6,21.83-171.44,28.69-198.81c6.38-25.48,25-135.55,30.81-128.6s23.67,131.65,28,151.75,15.89,178.31,15.89,178.31,39.29,6.3,47.2,0c0,0-6.19-141.08-8.94-178.76-1-14.36,9.08-171.91-15.2-235.45C2327.56,1409.14,2210.88,1459.79,2210.88,1459.79Z"/><path class="cls-44" d="M2251.22,1220.27s-36.38,7.53-40.7,11.35c-4.68,4.07-12.95,43.92-13.44,55s4.39,57.46,9.07,74.73,4.75,92,1.79,115.89c0,0,70.07,14.34,142.1,5,0,0-9.82-72.66-6.94-96.32,3.7-30.31,12.58-100.14,12.58-100.14s.06-39.31-5.51-45.6c-12-13.48-57.88-19.89-57.88-19.89Z"/><path class="cls-49" d="M2305.85,1293.17c1.71,36,13.16,44.72,24.44,41.92a24.88,24.88,0,0,0,10.07-5.53c4.8-4.18,8.56-10,9.9-15.42,4.94-20.05,5-75.31-20.31-82.42C2330,1231.72,2302.53,1222.84,2305.85,1293.17Z"/><path class="cls-53" d="M2197.05,1309.51s20.3-3.37,21.53,26.07,14,84.13,34.75,105.92l-81.68,3.1c-20.76-21.8-31-74-32.51-103.41-1.43-27-21.54-26.07-21.54-26.07Z"/><path class="cls-49" d="M2244.7,1242.09a11.35,11.35,0,0,0,1.5.87,20.79,20.79,0,0,0,7.13,2,25.16,25.16,0,0,0,3.25.13c.66,0,1.32,0,2-.12,19.25-1.88,38.37-23.91,38.37-23.91-38.67-5.86-55.24,1.34-55.24,1.34S2235.51,1235.9,2244.7,1242.09Z"/><path class="cls-26" d="M2253,1108.83s-45.75-9.18-34,47.84,22.81,61.26,50,48.76,23.84-49.14,24.79-67.17S2267.5,1109.11,2253,1108.83Z"/><path class="cls-26" d="M2245.5,1228.15s9,5.95,43.15-9.09a119.66,119.66,0,0,1,1.87-42.53c5.07-21.42-42,26.41-42,26.41.55.38.66,2.57.34,5.62-.08.83-.19,1.71-.34,2.63-.24,1.57-.57,3.27-1,5-.11.47-.23.94-.35,1.41C2245.3,1224.9,2245.5,1221.77,2245.5,1228.15Z"/><path class="cls-46" d="M2292.23,1167.7s-2.29-15.36-8.9-15.77-8.49,9-8.49,9l-5.18.54s2.14-16.28-4.51-18.88-42.55,6.26-47.94,1.74-2.73-34.53,6.72-39.15,34.66-17.2,54.3-4.58c0,0,15-2.08,17.55,10S2296.11,1158.56,2292.23,1167.7Z"/><path class="cls-26" d="M2275.08,1146.55c1.11-5.36,12-6.42,12.16,1.78s-6.81,22-10.75,20.21S2273.55,1154,2275.08,1146.55Z"/><path class="cls-54" d="M2288.64,1212.59s-17.85,10.77-35.51,13.19l9.39,15,29.77-20.5Z"/><path class="cls-54" d="M2247.22,1217.6s1.88,6.17,5.91,8.18l-8.83,12.31.33-16.32Z"/><path class="cls-32" d="M2253.13,1225.78l-7,9.74s4.42,5.6,13.94,1.36Z"/><path class="cls-32" d="M2246.2,1243a20.79,20.79,0,0,0,7.13,2,25.16,25.16,0,0,0,3.25.13l-1.06-9.08h-6.46A29.74,29.74,0,0,0,2246.2,1243Z"/><path class="cls-30" d="M2247.37,1217c20.24,1.07,33.2-19.93,33.59-20.55-12.71,13.89-32.4,14.72-32.4,14.72C2248.32,1212.76,2247.78,1215.28,2247.37,1217Z"/><path class="cls-55" d="M2197.05,1309.51s-24.31,2.26-19.17,36.19l-72.16,3.9s-10-23.11,11.88-34.48Z"/><rect class="cls-56" x="2112.57" y="1332.97" width="56.43" height="2.94" transform="translate(4350.18 2551.92) rotate(176.92)"/><rect class="cls-56" x="2117.41" y="1319.93" width="56.43" height="2.94" transform="translate(4359.13 2525.64) rotate(176.92)"/><rect class="cls-56" x="2147.64" y="1348.88" width="56.43" height="2.94" transform="translate(-69.39 118.83) rotate(-3.08)"/><rect class="cls-56" x="2154.7" y="1368.61" width="56.43" height="2.94" transform="translate(-70.46 119.27) rotate(-3.08)"/><rect class="cls-56" x="2161.77" y="1388.34" width="56.43" height="2.94" transform="translate(-71.49 119.64) rotate(-3.08)"/><rect class="cls-56" x="2168.83" y="1408.07" width="56.43" height="2.94" transform="translate(-72.56 120.09) rotate(-3.08)"/><rect class="cls-56" x="2175.89" y="1427.8" width="56.43" height="2.94" transform="translate(-73.59 120.46) rotate(-3.08)"/><path class="cls-26" d="M2259.59,1372.92s-3.13,1.48-5.84.74c-4.69-1.28-8.7-7.79-14.83-4.45s-1,25.79,2.13,29.08,12.67,1.37,24.61-7.19S2259.59,1372.92,2259.59,1372.92Z"/><path class="cls-26" d="M2241.15,1368.39a200.14,200.14,0,0,0-21.78,3c-10,2-22.19,5.87-21.72,8.4.71,3.84,10.32-.48,20.39-1.79,9.28-1.2,7.65.61,7.65.61s.43-.54-9.42,2.76c-10.59,3.54-21.81,7.79-21.47,9.87.43,2.58.7,2.86,4.76,2.21-2.25.88-2.33,1.63-2.06,2.61,1.44,5.09,17.81,2.33,24.31,1.24-5,.87-8.56,2.05-5.67,4.6,3.31,2.91,26.28-2,34.68-3C2260,1397.86,2241.15,1368.39,2241.15,1368.39Z"/><path class="cls-49" d="M2321.88,1232.43c-7.43,2.44-11.4,12.94-6.88,34.74,5,24.11,10.6,35.83,13.82,41.51s20.64,34.75,17.46,39.36-45.27,15.55-48.13,16.36c-5.71,1.62-43.89,9.24-43.89,9.24l9.35,32.7s116.25-19.83,121.91-25.49,8.61-13.33,2.35-33.09c-6.36-20.09-17.79-67.13-19.82-70.8S2355.37,1221.42,2321.88,1232.43Z"/><path class="cls-57" d="M2316,1271.93s2.62,36.93,14.26,63.16a24.88,24.88,0,0,0,10.07-5.53s-13.45-24.28-14.66-27S2317.39,1278.35,2316,1271.93Z"/><g class="cls-58"><rect class="cls-59" x="237.27" y="940.67" width="592.11" height="422.13" rx="33.85"/></g><rect class="cls-60" x="657.66" y="1019.8" width="18.51" height="102.9"/><rect class="cls-61" x="690.16" y="992.36" width="18.51" height="130.33"/><rect class="cls-62" x="724.27" y="1006.71" width="18.51" height="115.98"/><rect class="cls-63" x="759.31" y="1040.04" width="18.51" height="82.66"/><rect class="cls-64" x="657.66" y="1057.44" width="18.51" height="65.26"/><rect class="cls-64" x="690.16" y="1040.04" width="18.51" height="82.66"/><rect class="cls-64" x="724.27" y="1049.14" width="18.51" height="73.56"/><rect class="cls-64" x="759.31" y="1071.25" width="18.51" height="51.45"/><rect class="cls-32" x="662.74" y="1157.93" width="110" height="29.33" rx="7.3"/><rect class="cls-32" x="662.74" y="1212.85" width="110" height="29.33" rx="7.3"/><rect class="cls-32" x="662.74" y="1267.77" width="110" height="29.33" rx="7.3"/><path class="cls-32" d="M609.55,1092.5a163.43,163.43,0,1,0-307.76,110.07c1.23,3.46,2.58,6.86,4,10.19A163.43,163.43,0,0,0,609.55,1092.5ZM496.93,1262.91a122.39,122.39,0,0,1-153.61-66.48q-1.63-3.73-3-7.64a122.53,122.53,0,1,1,156.63,74.12Z"/><path class="cls-65" d="M338.7,1111l-39-12.19A163.69,163.69,0,0,1,450.78,984.13L452,1025a122.74,122.74,0,0,0-113.3,86Z"/><path class="cls-66" d="M343.32,1196.43l-37.51,16.33c-1.44-3.33-2.79-6.73-4-10.19a162.65,162.65,0,0,1-2.13-103.75l39,12.19a122,122,0,0,0,1.6,77.78Q341.68,1192.69,343.32,1196.43Z"/><path class="cls-67" d="M331.14,1253.44a162.36,162.36,0,0,1-25.33-40.68l37.51-16.33a121.56,121.56,0,0,0,19,30.51Z"/><path class="cls-50" d="M776.3,1840.9s-6,11.17-9.91,15.61-18.89,12.36-19,25.53c-.08,14.29,25.27,10.32,35.18,9.8s10.66-8.15,14.84-16.24,8.38-6.72,9.16-13.24-4-21.46-4-21.46Z"/><path class="cls-68" d="M802.21,1836.59s1.16,6.09.93,6.24-28.1,5.12-27.94.06c.13-4,2.57-8.7,2.57-8.7Z"/><path class="cls-26" d="M1057.45,1311.41s29.24-6.15,31.42-4.88,2.33,2.92-.39,3.61-28.13,6.79-28.13,6.79,35.45-1.29,37.48-.67c1.19.36,1.64,3.53.21,4s-36.61,3.88-36.61,3.88,33.1-1.14,34.62-.08a2.46,2.46,0,0,1-1.42,4.24c-2.46.26-33.22,3.13-33.22,3.13s24.06.74,24.79,2.46c.46,1,1,3.76-5.22,3.36s-21,.28-21,.28Z"/><path class="cls-50" d="M927.31,1838.79s12.22,13.63,24.62,16.49,21.08,6.5,21.17,14.33-35.69,13-49.88,5.09c-21.18-11.77-23.34-8.22-25.68-14.11s2.82-21.62,2.66-23.5C900,1834.78,927.31,1838.79,927.31,1838.79Z"/><path class="cls-68" d="M925.94,1832.26s1.61,6.39,1.37,6.53-27.94,3.43-27.11-1.7c.68-4.15,1.65-8.67,1.65-8.67Z"/><path class="cls-69" d="M900.75,1449.76s10.08,97.86,15.32,131.36c6.12,39.17,8.2,71.53,9.91,91.81,2.15,25.5,2.56,150.93,4.07,158.38s-33.38,2.06-33.38,2.06-17.16-163.89-23.56-191c-6-25.29-28.08-134.16-33.52-127.25s-12.19,127-16.21,147-16.28,176.07-16.28,176.07-27.76,5.53-35.15-.72c0,0-3.36-134.55-.79-171.94,1-14.25-16.7-170.85,6-233.89C789.1,1398.26,900.75,1449.76,900.75,1449.76Z"/><path class="cls-70" d="M728,1463.66s17,5.16,24.11,3.85,3.51-88.61,3.79-106.78c.22-14.73,8.28-53.64,8.28-53.64a.23.23,0,0,0,0,.07.06.06,0,0,1,0,0s0,0,0,.07c.8,2.91,11.68,43.28,12,62.68.4,20.13-2.62,97.14-2.62,97.14l30,2.92,86.2,2.11,18-2.12s-2.15-32.93-3-48.57c-.5-9.94-2.43-27.74-1.93-45.08,0,0-.32-18.27,1.5-26.14.19-34.74,2.3-69.14,2.3-69.14q1.74-23.62,2.44-44.22c-3.8-2-8.37-4.36-12-6.1-11.31-5.38-27.07-12.64-37.19-17.28-5.92-2.72-11.72-4.71-11.72-4.71s-40.42-3.87-43.71-3.67c-1,.07-6.08,1.83-12.71,4.36-14.34,5.43-42,16.51-46.37,19.67-6.46,4.62-20.1,114.42-20.72,122.11C723.66,1365.08,728,1463.66,728,1463.66Z"/><path class="cls-71" d="M905.26,1456.24s-59.16,5-111,0v17s77.81,11.24,113.57-3.24Z"/><path class="cls-72" d="M854.8,1211.23s9.63,22.61,16.85,73.14c2.77,19.41,7.91,52.08,11.65,85.43h0c3,26.28,9.67,53.26,11.81,73.38,2.21,20.85,8.88,82.26,8.88,82.26l16.18-10.21c2.31-2.13,5.55-4.91,4.61-7.91-4.44-14.37-13-61.86-18-103.26,0,0,0,0,0-.09-.24-2-.48-4-.7-5.93,0-.1,0-.21,0-.32-.95-8.27-1.73-16.21-2.3-23.47a74,74,0,0,1,.73-16.34c2.25-37.16,3.37-76.33,3.37-76.33,1.19-16,1.87-31,2.32-45a88.12,88.12,0,0,0-12.46-7S861.57,1213.19,854.8,1211.23Z"/><path class="cls-70" d="M851.77,1223s1.08,15.48-12,15.84-23.48-12.21-23.48-12.21l21.72,5.6L851.23,1221Z"/><path class="cls-26" d="M1024.62,1323.9s9.54-2.65,10.81-8.35c1.08-4.85,5.81-10.5,7.26-12.24,1.94-2.33,5.46-11.64,8.17-9.28s-5.11,15.6-6.24,18.68,12.08-2.33,15.14-1.38,9.21,23.74-.2,26.39-20.81-.9-22.4-.09a60.49,60.49,0,0,1-6.79,2.21Z"/><path class="cls-48" d="M834.1,1104.51s30,5.06,24.92,52.06-31.58,42.85-33.36,42.78-26.65.57-28-56.89C797.7,1142.46,797.32,1100,834.1,1104.51Z"/><path class="cls-48" d="M847.25,1185.73s0,19.36.79,23.55c.86,4.5-24.1,17.52-40.21,2.35,0,0,3.26-21.14,2.24-28.6S847.25,1185.73,847.25,1185.73Z"/><path class="cls-48" d="M859.14,1145.62s3.33-3.48,4.5.09-4.22,18.68-4.91,20.14c0,0-.62,1.37-1.4.6S859.14,1145.62,859.14,1145.62Z"/><path class="cls-48" d="M798.05,1142s-3.19-3.62-4.5-.1,3.48,19.34,4.08,20.32c0,0,1,1.62,1.85.89S798.05,1142,798.05,1142Z"/><path class="cls-46" d="M861.55,1139.29c-1,6.43-2,11.21-2,11.21l-4.37,5.71s.26-12.62-.4-14.6c-.26-.75-.55-2.08-.86-3.52-.5-2.38-1-5.06-1.37-6-.56-1.43-25.72-8.78-48.14,1.54,0,0,.19,1.94.18,4.11,0,2.52-.29,5.34-1.44,5.76-2.15.79-1.25,14.77-1.25,14.77l-3.5-4s-1-7.3-2-15.69a.15.15,0,0,1,0-.06c-.22-2-.45-4-.67-6-.5-8.44.33-23.77,11.32-32.77,7.42-3.18,19.26-5.88,39,.17,0,0,4.92,1.4,6.19,2.62C864.52,1116.1,861.55,1139.29,861.55,1139.29Z"/><path class="cls-73" d="M812.13,1193.07s4.79,6.65,15.93,6.4,16-6.06,16-6.06-5.27,11-16,10.91S812.13,1193.07,812.13,1193.07Z"/><path class="cls-74" d="M849.21,1224,838,1232.25s9.41-19.94,9.61-27.93Z"/><polygon class="cls-75" points="847.61 1204.32 855.23 1211.4 863.24 1235.3 849.21 1223.97 847.61 1204.32"/><path class="cls-72" d="M1037.23,1346s-66.1,17.41-82.25,13.43c-7.47-1.84-17.31-12.15-26.66-24.27-3.08-4-6.11-8.18-9-12.33v0c-11.47-16.56-20.46-32.43-20.46-32.43s-33.9-39.73-6.7-57.45c0,0,11.47-1.15,18,3.66,6,4.44,20.67,32.41,23.05,37.6s28.14,53.33,29.87,54.41,23.82-2.87,35.48-3.84a186.73,186.73,0,0,0,34.85-6.42Z"/><path class="cls-48" d="M846.17,1211.45a132,132,0,0,1-8.17,20.8s-11.75-10.29-15.45-14S846.17,1211.45,846.17,1211.45Z"/><path class="cls-74" d="M825.71,1220.74,838,1232.25s-14.53-1-17.25-3.38Z"/><path class="cls-75" d="M809.4,1199.53s9.83,16,16.31,21.21l-10.91,18.12-17.5-31.78Z"/><path class="cls-72" d="M757.18,1361.56c-1.25,16.86,5.88,110.15-1.24,111.46s-33.27-4.44-33.27-4.44-3.28-100.61-2.23-111.15c.76-7.68,13-122.81,19.44-127.44,3.72-2.67,31.34-12.46,44.88-17.8,2.48-1,10.32-4.27,12.54-5.11,2.88,3.2,27.91,62,30.29,107.77.73,14-2.54,43.41-5,67.47-2.65,25.67-5.59,45.71-7.74,67.17-4.24,42.3-7.21,76-7.21,76l-42.1-18.74c-6.81-3.41-16.24-17.4-13.68-24.57,9.73-27.26,22-73.82,22-97.74,0,0-4.7-58.57-8.42-71.44C765.41,1313,758.77,1340.12,757.18,1361.56Z"/><rect class="cls-76" x="835.27" y="1457.29" width="27.88" height="20.73"/><polygon class="cls-55" points="772.76 1566.76 681.02 1566.76 702.55 1505.67 794.29 1505.67 772.76 1566.76"/><polygon class="cls-77" points="772.76 1566.76 681.02 1566.76 702.55 1505.67 794.29 1505.67 772.76 1566.76"/><polygon class="cls-78" points="702.55 1627.85 794.29 1627.85 772.76 1566.76 681.02 1566.76 702.55 1627.85"/><polygon class="cls-77" points="772.76 1688.94 681.02 1688.94 702.55 1627.85 794.29 1627.85 772.76 1688.94"/><polygon class="cls-78" points="702.55 1750.04 794.29 1750.04 772.76 1688.94 681.02 1688.94 702.55 1750.04"/><rect class="cls-56" x="707.93" y="1515.87" width="52.32" height="2.26"/><rect class="cls-56" x="704.82" y="1524.07" width="52.32" height="2.26"/><rect class="cls-56" x="701.42" y="1532.27" width="42.33" height="2.26"/><rect class="cls-56" x="707.93" y="1637.63" width="52.32" height="2.26"/><rect class="cls-56" x="704.82" y="1645.83" width="26.16" height="2.26"/><path class="cls-26" d="M750.71,1474.18s.49,1.56,1.35,4.18c1.49,4.52,6.28,9.67,3.33,15.84s-25.15,2.28-28.53-.59-2-12.31,5.77-24.42S750.71,1474.18,750.71,1474.18Z"/><path class="cls-26" d="M756.08,1492a196.29,196.29,0,0,1-1.85,21.45c-1.43,9.9-4.6,22-7.09,21.65-3.79-.5-.07-10.11.69-20,.7-9.13-1-7.44-1-7.44s.5-.46-2.21,9.34c-2.92,10.54-6.5,21.73-8.55,21.5-2.54-.29-2.83-.54-2.4-4.54-.75,2.25-1.47,2.36-2.45,2.14-5-1.14-3.19-17.28-2.46-23.69-.59,4.92-1.57,8.47-4.2,5.77-3-3.08.64-25.78,1.16-34C726.31,1475.09,756.08,1492,756.08,1492Z"/><path class="cls-72" d="M758.29,1408.72l-.43,74.14s-14.8-.66-35.19-8.19l-1.42-104.55Z"/><path class="cls-79" d="M639.75,1374.66l-51.49,116-1.38,3.11a13.88,13.88,0,0,1-5.73-.59l1.14-2.56,51-114.85L559,1295.85l-11.15-2.43,1.16-5.35,12.83,2.8Z"/><path class="cls-80" d="M560.46,1513.05h47.65a18.44,18.44,0,0,0-.52-2.9c-1.43-5.66-6.65-17.63-25.2-17.63s-21.55,12-21.94,17.63A17.72,17.72,0,0,0,560.46,1513.05Z"/><path class="cls-81" d="M511.94,1270.18l3.22,9.12,19.51,55.28a34.15,34.15,0,0,0-22.73-64.4Z"/><path class="cls-82" d="M589.46,1490.64v2.54a12.74,12.74,0,0,1-2.58.56,13.88,13.88,0,0,1-5.73-.59l-.33-.12v-2.45h1.47l6,0Z"/><path class="cls-83" d="M560.46,1513.05h47.65a18.44,18.44,0,0,0-.52-2.9H560.45A17.72,17.72,0,0,0,560.46,1513.05Z"/><path class="cls-82" d="M511.94,1270.18l3.22,9.12c11.38,9,29.05,24.49,37.63,40.3a34.15,34.15,0,0,0-40.85-49.42Z"/><path class="cls-26" d="M351.17,1368s8.3-10.5,9.61-12.06,6.47-3,12.5-4.17,14.52.28,15.2,1.12a5.66,5.66,0,0,1,2,4.25,12.54,12.54,0,0,1-1,5.65,7.35,7.35,0,0,1,.13,6.6,6.51,6.51,0,0,1-.88,6.6s1.52,3.23-.49,5.49c0,0-5.17,1.49-7,2.65s-12.7,3.45-23.39,3.89C357.94,1388.05,347.87,1384.7,351.17,1368Z"/><polygon class="cls-84" points="111.64 1692.01 64.33 1889.23 53.91 1889.23 94.03 1691.58 111.64 1692.01"/><polygon class="cls-84" points="163.24 1692.01 115.94 1889.23 105.52 1889.23 145.63 1691.58 163.24 1692.01"/><polygon class="cls-84" points="246.7 1692.01 294 1889.23 304.42 1889.23 264.31 1691.58 246.7 1692.01"/><path class="cls-85" d="M291.47,1693.93H87.65s-14.2-.33-23.7-42.39c-10.7-47.3-32.3-205.32-32.3-205.32s5.73-14.7,95.33-12.82l160.45,208.17S292.9,1674.39,291.47,1693.93Z"/><path class="cls-26" d="M297.74,1496.72s10.38-4.51,18.17-2.69,26,8.62,35,9.76,17.59,6.36,17.42,9.36-69.56,5.44-69.89-1.38S297.74,1496.72,297.74,1496.72Z"/><path class="cls-26" d="M351.17,1368s-13.56,8.92-13.86,11.65c-.49,4.52,2.31,18.56,2.64,18.36s20.45-10.12,20.45-10.12Z"/><path class="cls-69" d="M350.88,1855.65s17.47,10.38,25.38,14.24,38.67,5,41.71,7.94,1.89,12.1-3.21,13-42.51,4.21-55,1.27-35.82,1.9-41,.13-1.75-29.63.26-35.87S350.88,1855.65,350.88,1855.65Z"/><path class="cls-86" d="M350.61,1843.86l.27,11.79s-23.39,4.31-31.83.73l.59-13Z"/><path class="cls-72" d="M391.78,1855.65s17.46,10.38,25.37,14.24,38.68,5,41.71,7.94,1.9,12.1-3.21,13-42.5,4.21-55,1.27-35.82,1.9-41,.13-1.76-29.63.25-35.87S391.78,1855.65,391.78,1855.65Z"/><path class="cls-86" d="M391.51,1843.86l.27,11.79s-23.4,4.31-31.84.73l.59-13Z"/><polygon class="cls-87" points="254.09 1569.44 227.52 1564.8 245.23 1520.19 254.09 1569.44"/><path class="cls-88" d="M174.48,1578.58s133.52,28.35,154.36,37.21,33.34,12.5,34.9,16.92,34.12,216.19,34.12,216.19H353.58S319.2,1689,315,1679.08s-169.31-10.42-181.29-22.4-22.4-44.8-9.38-74.23S174.48,1578.58,174.48,1578.58Z"/><path class="cls-88" d="M242.11,1563.69s153.12,43.08,165.65,62.77c12.77,20.06-51.05,222.44-51.05,222.44H313s42.2-189.62,37-198-236-.26-193-68.5S242.11,1563.69,242.11,1563.69Z"/><path class="cls-72" d="M226.19,1350.89c5.76-3,25,3.57,30.66,12.41C270,1383.85,295,1409.23,295,1409.23l55.61-46.74,11.14,27.86-66,55.63a14.32,14.32,0,0,1-19.2-.67c-17.35-16.84-53-52.23-55.78-61.08C217.1,1372.51,215.18,1356.62,226.19,1350.89Z"/><path class="cls-48" d="M207.37,1231.86s26.57,4.43,26.83,49.49-16.84,49.31-42.72,42.71c-15.58-4-30.21-26-24.48-64.85S207.37,1231.86,207.37,1231.86Z"/><path class="cls-55" d="M210.85,1339.43s36.61,13.3,42.08,21.63,1.94,83.34-1.19,110.17-11.72,84.65-9.63,92.46l-85.18,18.76s-27.35-99.5-28.13-115.39-20.84-89.86-11.2-95.85,51.57-29.44,51.57-29.44Z"/><polygon class="cls-89" points="156.93 1582.44 152.76 1567.08 242.3 1549.64 242.1 1563.69 156.93 1582.44"/><polygon class="cls-90" points="201.47 1556.79 222.7 1552.36 222.7 1569.16 201.47 1574.11 201.47 1556.79"/><path class="cls-72" d="M192,1513.06c-.22,4.39-.51,8.84-.74,13.35l-.06.06c-3,49.43-7.53,101.15-7.53,101.15-6.22,5.19-85.11-13.13-85.11-13.13s9.7-13.18,19.07-49.72,2-71.52-7.71-130.88-1.66-59-1.66-59l61-33.11c4,15.18,20.15,70.26,24,101.83C194.52,1455.12,193.67,1482.69,192,1513.06Z"/><path class="cls-72" d="M211.44,1339.54s17.75,45.85,25.28,92.62c7.68,47.68,7.3,134,15.63,136.12s5.76.7,5.76.7-1.56-52.16-2.32-69.45c-1.7-38.59,5.5-125.58,2.17-134.37S230.71,1343,211.44,1339.54Z"/><path class="cls-48" d="M210,1332.34a22.3,22.3,0,0,0,.86,7.08s-4.68,18.26-41.67,2.34c0,0,7.3-27.23,0-50.06l41.67,25.86s-.52,4.11-.74,8.9C210,1328.4,209.93,1330.46,210,1332.34Z"/><path class="cls-91" d="M170.69,1334.52s14.54,7,29.21,8.39l-7.15,15.21-23.58-16.35Z"/><path class="cls-91" d="M199.9,1342.91s10.23-3.39,10.15-8.39l1.39,5-4.17,16Z"/><path class="cls-92" d="M231,1257.93s7.43-16,2-27.65-19.45-6.84-25.87-5.46-18.58-12.85-40.12,4.52-15.1,35.6-5.55,57.3S172.24,1310,172.24,1310s.07-22,2.67-25.94c3.05-4.59,14.23-7,14.23-7s-8.51-11.63-.18-16S214.55,1264.81,231,1257.93Z"/><path class="cls-48" d="M178.2,1272.58c-1.14-3.33-6.74-7.11-9.55-.87s4.51,17.19,8.51,17.19S180.8,1280.22,178.2,1272.58Z"/><path class="cls-20" d="M199.9,1342.91l5.34,9.18s-2.47,2.84-10.41,1.6Z"/><path class="cls-20" d="M204.1,1352.9s21.86,64.32,22,110-3.43,72.93-3.43,72.93l-4.81,9-7-8.22s5-132.61-14.48-182.71C196.37,1353.89,203.29,1350.59,204.1,1352.9Z"/><path class="cls-72" d="M115,1371.21c16-6.53,32.57,15.62,41.42,37.76s25.79,62.43,25.79,62.43l118.28,19.16,1.67,22.49h-138s-52.58-94.18-56.23-105.9S103.5,1375.89,115,1371.21Z"/><rect class="cls-85" x="260.23" y="1513.05" width="390" height="13.43"/><rect class="cls-93" x="488.76" y="1277.92" width="9.39" height="208.19"/><path class="cls-94" d="M511.79,1513.05h70.28v-4.26H511.79c-3.66,0-6.3-.87-7.84-2.59a6.93,6.93,0,0,1-1.56-4.89l0-.13v-90.94h-4.26V1501a11.15,11.15,0,0,0,2.57,8C503.1,1511.68,506.82,1513.05,511.79,1513.05Z"/><path class="cls-93" d="M411.1,1505.59h79.1a0,0,0,0,1,0,0v.61a6.85,6.85,0,0,1-6.85,6.85H411.1a0,0,0,0,1,0,0v-7.46A0,0,0,0,1,411.1,1505.59Z" transform="translate(901.3 3018.64) rotate(180)"/><rect class="cls-95" x="609.67" y="1526.48" width="11.08" height="364.99" transform="translate(1230.43 3417.96) rotate(180)"/><rect class="cls-95" x="289.7" y="1526.48" width="11.08" height="364.99" transform="translate(590.48 3417.96) rotate(180)"/><path class="cls-89" d="M192,1513.06c-.22,4.39-.51,8.84-.74,13.35l-.06.06s-15.37,2-28.25-3.82-21.92-50.41-22.55-52.75c1.31,2.57,22,43.16,27.06,43.16Z"/><path class="cls-30" d="M210.11,1326.46c-.12,1.94-.18,4-.12,5.88-29.4.46-29.85-16.32-29.85-16.32C184.7,1328.17,210.11,1326.46,210.11,1326.46Z"/><rect class="cls-96" x="363.59" y="1349.27" width="44.67" height="3.78" transform="translate(-830.11 647) rotate(-43.99)"/><polygon class="cls-26" points="400.68 1334.29 406.72 1331.09 403.31 1337.01 400.68 1334.29"/><path class="cls-97" d="M386.89,1353.15s-15.24,3.29-15.17,6,1.6,3.63,1.6,3.63l-5.84,4.47s-2.46,5.28,3.37,6.42c0,0-2.75,4.7,3,5.06,0,0-.59,3.93,2,4.61s12.37-1.87,12.37-1.87,2.33-1.53.94-5.48a6.44,6.44,0,0,0,.83-6.58,7.09,7.09,0,0,0-.11-6.64s3-6.5-1.47-9.89C388.48,1352.92,387.53,1353,386.89,1353.15Z"/><path class="cls-26" d="M361.25,1355.81s10,3.21,14.69,7.64c1.06,1,1.9,2.2,1.41,3.7s-3.06,2.72-7.48,1.58-10.69-.37-10.69-.37S355,1365.71,361.25,1355.81Z"/><path class="cls-98" d="M374.09,1695.86s-9.36-58.41-9.85-60.78-10-10.88-55.55-25.79c0,0,50.61,9.83,63.88,18.48C382.79,1634.42,374.09,1695.86,374.09,1695.86Z"/><path class="cls-99" d="M564.62,1513.05c5-2.08,13.07-25.68,17-37.9,1.37-4.33,2.22-7.23,2.22-7.23H538.11c3.95,28.2,13.54,45.13,13.54,45.13Z"/><path class="cls-100" d="M568.29,1453.86c0-1.64,7.33-8.51,11-13s-1.41-13-1.41-13c-16.36,6.77-13.54,26-13.54,26S568.29,1455.5,568.29,1453.86Z"/><path class="cls-100" d="M559,1454.59h2s1.41-33.22-10.72-37.73-12.13-13.54-12.13-13.54-3.67,12.41,2.25,18.9,12.7,14.1,11.57,20.31S559,1454.59,559,1454.59Z"/><path class="cls-101" d="M581.58,1475.15c1.37-4.33,2.22-7.23,2.22-7.23H538.11c3.95,28.2,13.54,45.13,13.54,45.13h3C554.08,1486.64,571.47,1478,581.58,1475.15Z"/><polygon class="cls-102" points="583.79 1453.86 537.76 1453.86 535.14 1467.92 585.67 1467.92 583.79 1453.86"/></g></g></g></svg>