<?xml version="1.0"?>
<svg xmlns="http://www.w3.org/2000/svg" xmlns:xlink="http://www.w3.org/1999/xlink" version="1.1" id="Capa_1" x="0px" y="0px" viewBox="0 0 489.413 489.413" style="enable-background:new 0 0 489.413 489.413;" xml:space="preserve" width="200px" height="200px"><g><g>
	<g>
		<path d="M319.426,137.713c-3.8-3.8-5.7-5.7-10-8.8c-16.3-12-36.3-20.1-36.3-20.1l-15.2,48.2l-8.9-25.3c16-22.3-1.9-22.9-4.3-22.9    s-20.3,0.6-4.3,22.9l-8.9,25.3l-15.2-48.2c0,0-20,8.1-36.3,20.1c-4.3,3.1-6.2,5-10,8.8c-9,9-5.2,61.3,0,80.5s20.5,46.6,20.5,46.6    c3.1,7,5,14.4,5.8,22l19.5,191.9c0.6,6.1,5.8,10.7,11.9,10.7h17h16.9c6.1,0,11.3-4.6,11.9-10.7l19.5-191.9c0.8-7.6,2.7-15,5.8-22    c0,0,15.3-27.4,20.5-46.6S328.426,146.713,319.426,137.713z" data-original="#000000" class="active-path" data-old_color="#000000" fill="#549F8D"/>
		<path d="M244.426,97.913L244.426,97.913c0.1,0,0.2,0,0.3,0s0.2,0,0.3,0l0,0c43.9-0.5,37.6-59.1,37.6-59.1    c-1.9-39.2-34.7-38.9-37.9-38.8c-3.2-0.1-36-0.5-37.8,38.7C206.926,38.813,200.526,97.413,244.426,97.913z" data-original="#000000" class="active-path" data-old_color="#000000" fill="#549F8D"/>
	</g>
</g></g> </svg>
