<?xml version="1.0" encoding="UTF-8"?>
<svg width="852px" height="716px" viewBox="0 0 852 716" version="1.1" xmlns="http://www.w3.org/2000/svg" xmlns:xlink="http://www.w3.org/1999/xlink">
    <!-- Generator: Sketch 61 (89581) - https://sketch.com -->
    <title>details-1-office-worker</title>
    <desc>Created with Sketch.</desc>
    <defs>
        <linearGradient x1="-8.55540343e-05%" y1="49.9998776%" x2="99.9998213%" y2="49.9998776%" id="linearGradient-1">
            <stop stop-color="#00BFC2" offset="0%"></stop>
            <stop stop-color="#00BBC5" offset="24.6%"></stop>
            <stop stop-color="#00AFCF" offset="49%"></stop>
            <stop stop-color="#009BDF" offset="73.2%"></stop>
            <stop stop-color="#0080F5" offset="97.2%"></stop>
            <stop stop-color="#007CF8" offset="100%"></stop>
        </linearGradient>
        <linearGradient x1="-8.55540343e-05%" y1="49.9998776%" x2="99.9998213%" y2="49.9998776%" id="linearGradient-2">
            <stop stop-color="#21FACF" offset="0%"></stop>
            <stop stop-color="#1EE6BE" offset="24.6%"></stop>
            <stop stop-color="#12CEA9" offset="49%"></stop>
            <stop stop-color="#057861" offset="73.2%"></stop>
            <stop stop-color="#4BCAB1" offset="97.2%"></stop>
            <stop stop-color="#4BCAB1" offset="100%"></stop>
        </linearGradient>
        <linearGradient x1="-0.000472911993%" y1="50.0009571%" x2="99.9996054%" y2="50.0009571%" id="linearGradient-3">
            <stop stop-color="#BAFFF1" offset="0%"></stop>
            <stop stop-color="#4AF5D3" offset="24.6%"></stop>
            <stop stop-color="#23FFD4" offset="49%"></stop>
            <stop stop-color="#20FFD3" offset="73.2%"></stop>
            <stop stop-color="#00F3C3" offset="97.2%"></stop>
            <stop stop-color="#07FBCA" offset="100%"></stop>
        </linearGradient>
    </defs>
    <g id="Page-1" stroke="none" stroke-width="1" fill="none" fill-rule="evenodd">
        <g id="details-1-office-worker">
            <path d="M541.297014,300.868843 C409.876908,221.54919 347.866522,-22.1412424 145.002069,123.482363 C-57.8623841,269.105969 26.2583716,568.291995 220.656645,640.650913 C415.054918,713.00983 665.16919,672.132161 735.554312,537.712713 C855.822074,308.027478 629.448922,354.077175 541.297014,300.868843 Z" id="Path" fill="#F0F0F0" fill-rule="nonzero"></path>
            <path d="M541.297014,300.868843 C409.876908,221.54919 347.866522,-22.1412424 145.002069,123.482363 C-57.8623841,269.105969 26.2583716,568.291995 220.656645,640.650913 C415.054918,713.00983 665.16919,672.132161 735.554312,537.712713 C855.822074,308.027478 629.448922,354.077175 541.297014,300.868843 Z" id="Path" fill="#F0F0F0" fill-rule="nonzero"></path>
            <path d="M8,582.786494 C8,582.786494 119.965958,470.487343 306.974347,523.76585 C493.982736,577.044357 604.0871,531.381417 580.868563,249 C580.868563,249 843.715035,285.680378 810.015988,472.490237 C769.121822,699.213282 241.22466,785.722316 8,582.786494 Z" id="Path" fill="#F0F0F0" fill-rule="nonzero"></path>
            <path d="M555.283215,285.868843 C423.890322,206.54919 361.864952,-37.1412424 159.001336,108.482363 C-43.8622803,254.105969 40.2581284,553.291995 234.65941,625.650913 C429.060691,698.00983 679.17012,657.132161 749.554952,522.712713 C869.822218,293.027478 643.446189,339.077175 555.283215,285.868843 Z" id="Path" fill="url(#linearGradient-1)" fill-rule="nonzero"></path>
            <path d="M555.283215,285.868843 C423.890322,206.54919 361.864952,-37.1412424 159.001336,108.482363 C-43.8622803,254.105969 40.2581284,553.291995 234.65941,625.650913 C429.060691,698.00983 679.17012,657.132161 749.554952,522.712713 C869.822218,293.027478 643.446189,339.077175 555.283215,285.868843 Z" id="Path" fill="url(#linearGradient-2)" fill-rule="nonzero"></path>
            <path d="M23,567.786494 C23,567.786494 134.965958,455.487343 321.974347,508.76585 C508.982736,562.044357 619.0871,516.381417 595.868563,234 C595.868563,234 858.715035,270.680378 825.015988,457.490237 C784.114208,684.213282 256.217046,770.722316 23,567.786494 Z" id="Path" fill="url(#linearGradient-3)" fill-rule="nonzero"></path>
            <path d="M268,106.000356 L268,215.003429 C267.99697,219.516183 266.190619,223.842742 262.978646,227.030541 C259.766673,230.21834 255.412424,232.006015 250.874559,232 L17.1254409,232 C12.5872674,232.007022 8.23242957,230.219671 5.02023681,227.031654 C1.80804404,223.843637 0,219.516493 0,215.003429 L0,106.000356 C0,101.486945 1.8079236,97.1594118 5.02000627,93.9707933 C8.23208894,90.7821747 12.5869164,88.9939795 17.1254409,89 L250.874559,89 C255.413084,88.9939795 259.767911,90.7821747 262.979994,93.9707933 C266.192076,97.1594118 268,101.486945 268,106.000356 Z" id="Path" fill="#D1E8E6" fill-rule="nonzero"></path>
            <path d="M268,106.363785 L268,116 L0,116 L0,106.363785 C0,101.753888 1.8079236,97.3338419 5.02000627,94.0770578 C8.23208894,90.8202736 12.5869164,88.9938508 17.1254409,89 L250.874559,89 C255.413084,88.9938508 259.767911,90.8202736 262.979994,94.0770578 C266.192076,97.3338419 268,101.753888 268,106.363785 Z" id="Path" fill="#00BFD8" fill-rule="nonzero"></path>
            <circle id="Oval" fill="#FFFFFF" fill-rule="nonzero" cx="15.5" cy="103.5" r="3.5"></circle>
            <circle id="Oval" fill="#FFFFFF" fill-rule="nonzero" cx="28.5" cy="103.5" r="3.5"></circle>
            <circle id="Oval" fill="#FFFFFF" fill-rule="nonzero" cx="43.5" cy="103.5" r="3.5"></circle>
            <path d="M37.1737004,132 L90.8301027,132 C92.5807887,132 94,133.397309 94,135.120974 L94,177.879029 C94,179.602694 92.5807887,181 90.8301027,181 L37.1737004,181 C35.4209153,181 34,179.601018 34,177.875287 L34,135.124716 C33.9989921,134.295686 34.3330384,133.500325 34.9284414,132.914111 C35.5238444,132.327898 36.331674,131.999008 37.1737004,132 Z" id="Path" fill="#FFFFFF" fill-rule="nonzero"></path>
            <path d="M231.223444,205 L33.7765562,205 C31.6908218,205 30,203.432997 30,201.5 L30,201.5 C30,199.567003 31.6908218,198 33.7765562,198 L231.223444,198 C233.309178,198 235,199.567003 235,201.5 L235,201.5 C235,203.432997 233.309178,205 231.223444,205 L231.223444,205 Z" id="Path" fill="#FFFFFF" fill-rule="nonzero"></path>
            <path d="M231.203779,176 L110.796221,176 C108.699626,176 107,174.432997 107,172.5 L107,172.5 C107,170.567003 108.699626,169 110.796221,169 L231.203779,169 C233.300374,169 235,170.567003 235,172.5 L235,172.5 C235,173.428258 234.600042,174.318496 233.888113,174.974874 C233.176183,175.631251 232.210599,176 231.203779,176 L231.203779,176 Z" id="Path" fill="#FFFFFF" fill-rule="nonzero"></path>
            <path d="M185.211448,149 L110.788552,149 C108.696193,149 107,147.432997 107,145.5 L107,145.5 C107,143.567003 108.696193,142 110.788552,142 L185.211448,142 C187.303807,142 189,143.567003 189,145.5 L189,145.5 C189,147.432997 187.303807,149 185.211448,149 Z" id="Path" fill="#FFFFFF" fill-rule="nonzero"></path>
            <path d="M554,92 C558.352152,86.9115294 562.966933,82.0589345 567.825078,77.4624735 C577.285343,69.2355726 588.134585,54.6903501 622.836177,65.4107178 C625.522666,66.2883442 628.162126,67.3068633 630.743832,68.4621361 C633.788165,69.7742845 643.278874,69.805068 652.982685,62.0168325 C668.402233,49.6341538 674.433817,40.2951975 695.561489,40.0027539 C720.144479,39.6641349 724.010782,70.6516154 743.129194,78.5822247 C755.306526,83.6307252 787.367159,88.6484421 794,90.8956405 L554,92 Z" id="Path" fill="#D1E8E6" fill-rule="nonzero"></path>
            <path d="M364.245502,183.04281 L362.492476,178 L360.73945,183.04281 C358.997634,187.56738 355.473908,191.169885 351,193 L351,193 C355.474162,194.829734 358.998018,198.432371 360.73945,202.95719 L362.492476,208 L364.245502,202.95719 C365.991625,198.431086 369.521138,194.829599 374,193.003777 L374,193.003777 C369.519643,191.176231 365.989897,187.571772 364.245502,183.04281 L364.245502,183.04281 Z" id="Path" fill="#FFFFFF" fill-rule="nonzero"></path>
            <path d="M203.235352,474.04281 L201.481178,469 L199.745827,474.04281 C198.00287,478.56738 194.476837,482.169885 190,484 L190,484 C194.476837,485.830115 198.00287,489.43262 199.745827,493.95719 L201.5,499 L203.254173,493.95719 C204.996746,489.432371 208.522909,485.829734 213,484 L213,484 C208.515777,482.174557 204.982229,478.571334 203.235352,474.04281 L203.235352,474.04281 Z" id="Path" fill="#FFFFFF" fill-rule="nonzero"></path>
            <path d="M685.220541,443.362595 L683.998015,440 L682.779459,443.362595 C681.566977,446.378631 679.114184,448.780029 676,450 L676,450 C679.114184,451.219971 681.566977,453.621369 682.779459,456.637405 L683.998015,460 L685.220541,456.637405 C686.433023,453.621369 688.885816,451.219971 692,450 L692,450 C688.885816,448.780029 686.433023,446.378631 685.220541,443.362595 Z" id="Path" fill="#FFFFFF" fill-rule="nonzero"></path>
            <path d="M126.220541,274.362595 L124.998015,271 L123.779459,274.362595 C122.567382,277.378882 120.114452,279.780414 117,281 L117,281 C120.114184,282.219971 122.566977,284.621369 123.779459,287.637405 L124.998015,291 L126.220541,287.637405 C127.433023,284.621369 129.885816,282.219971 133,281 L133,281 C129.885816,279.780029 127.433023,277.378631 126.220541,274.362595 L126.220541,274.362595 Z" id="Path" fill="#FFFFFF" fill-rule="nonzero"></path>
            <path d="M506.044462,0 L394.966954,0 C392.060046,-0.00304085046 389.271106,1.15602994 387.214184,3.22202134 C385.157262,5.28801273 384,8.09153108 384,11.0153151 L384,71.3698699 C384,74.2936539 385.157262,77.0971722 387.214184,79.1631636 C389.271106,81.229155 392.060046,82.3882258 394.966954,82.385179 L400.945123,82.385179 L400.945123,110 L428.400561,82.385179 L506.029241,82.385179 C508.936807,82.3892423 511.726726,81.2306204 513.784472,79.1645188 C515.842217,77.0984172 517,74.2943178 517,71.3698699 L517,11.0153151 C516.997899,4.93110878 512.093553,0 506.044462,0 L506.044462,0 Z" id="Path" fill="#C5E0E2" fill-rule="nonzero"></path>
            <path d="M410.712599,59 L437.287401,59 C439.337813,59 441,60.5670034 441,62.5 L441,62.5 C441,64.4329966 439.337813,66 437.287401,66 L410.712599,66 C408.662187,66 407,64.4329966 407,62.5 L407,62.5 C407,60.5670034 408.662187,59 410.712599,59 Z" id="Path" fill="#FFFFFF" fill-rule="nonzero"></path>
            <path d="M411.619758,41 L459.380242,41 C461.379379,41 463,42.5670034 463,44.5 L463,44.5 C463,46.4329966 461.379379,48 459.380242,48 L411.619758,48 C409.620621,48 408,46.4329966 408,44.5 L408,44.5 C408,42.5670034 409.620621,41 411.619758,41 L411.619758,41 Z" id="Path" fill="#FFFFFF" fill-rule="nonzero"></path>
            <path d="M411.647317,23 L494.352683,23 C496.367041,23 498,24.5670034 498,26.5 L498,26.5 C498,28.4329966 496.367041,30 494.352683,30 L411.647317,30 C409.632959,30 408,28.4329966 408,26.5 L408,26.5 C408,24.5670034 409.632959,23 411.647317,23 Z" id="Path" fill="#FFFFFF" fill-rule="nonzero"></path>
            <path d="M437,516 L565.970342,516 C591.846126,515.993607 613.573499,496.501622 616.402324,470.756636 L635,277 L506.105972,277 L503.473146,389.344552 L437,516 Z" id="Path" fill="#DFE2EF" fill-rule="nonzero"></path>
            <path d="M437.059669,513.165652 L454.055926,512.544694 L473.56157,511.950403 C481.093528,511.676115 489.593554,511.599924 498.860444,511.394208 L528.79466,510.811345 L562.202536,510.5142 L564.377845,510.5142 L565.247209,510.5142 L566.340558,510.453247 C567.741411,510.342769 569.377637,510.361817 570.607654,510.140863 C571.837672,509.919908 573.086671,509.801812 574.37743,509.516095 C575.668188,509.230378 576.989318,508.898947 578.280077,508.517991 C583.496911,506.926656 588.384175,504.402249 592.706205,501.066495 C601.626772,494.275017 607.76811,484.447742 609.9758,473.431958 L610.613586,469.317635 L611.065352,464.692831 L611.968883,455.454652 L613.76076,437.107818 L617.291365,401.427494 L623.995719,338.211681 L629.098013,293.510323 L631.132856,276.573026 C631.338729,274.993481 632.754811,273.861676 634.335042,274.013676 C635.915273,274.165676 637.091313,275.546813 636.99442,277.136841 L635.779588,294.154138 L632.279353,338.988831 L626.877148,402.32655 L623.574324,438.025922 L621.850781,456.380374 L620.985213,465.622363 L620.55243,470.250977 C620.336038,472.003373 620.051311,473.633864 619.79316,475.332927 C615.93114,495.708311 600.94783,512.155905 581.070394,517.83998 C579.498705,518.281889 577.896646,518.601892 576.317364,518.982848 C574.738083,519.363804 572.987966,519.474281 571.336554,519.702854 C569.685142,519.931428 568.341234,519.862856 566.834083,519.958095 L565.740734,520 L564.427197,520 L562.251889,520 L528.844013,519.702854 L498.909796,519.119992 C489.63911,518.914276 481.14288,518.834275 473.610923,518.563796 L454.105278,517.969505 L437.109021,517.348547 C435.957952,517.362223 435.013777,516.436936 435,515.281862 C434.986521,514.126787 435.908599,513.179328 437.059669,513.165652 L437.059669,513.165652 Z" id="Path" fill="#3D415B" fill-rule="nonzero"></path>
            <line x1="510" y1="520" x2="510" y2="656" id="Path" stroke="#3D415B" stroke-width="2.496"></line>
            <rect id="Rectangle" fill="#3D415B" fill-rule="nonzero" transform="translate(327.500000, 395.000000) rotate(180.000000) translate(-327.500000, -395.000000) " x="120" y="392" width="415" height="6"></rect>
            <polygon id="Path" fill="#FFE0BC" fill-rule="nonzero" points="486.616831 681 491 696.58537 469.671357 703 463 683.75611"></polygon>
            <polygon id="Path" fill="#FFE0BC" fill-rule="nonzero" points="357 669 357 682 376.788486 682 379 669"></polygon>
            <path d="M502.744272,303.438131 L474.11925,373.744162 L473.484237,375.306771 C471.818822,379.371214 467.837872,382.020464 463.426694,382 L381.916867,381.417213 C378.800255,381.389571 376.229476,378.980974 376.014423,375.887136 C375.79937,372.793298 378.012421,370.055478 381.095533,369.601169 L461.753605,357.872146 L451.061049,366.124081 L470.331986,292.723101 C471.877272,286.83765 476.460725,282.219568 482.355803,280.608441 C488.250881,278.997314 494.561981,280.637912 498.911774,284.912236 C503.261566,289.18656 504.989213,295.44524 503.443927,301.33069 C503.252435,302.046212 503.018813,302.749907 502.744272,303.438131 Z" id="Path" fill="#EFC9A3" fill-rule="nonzero"></path>
            <path d="M389.654868,368.583173 L361.58414,368 C354.259717,368.414713 348.645095,374.669745 349.017505,382 L390,382 L389.654868,368.583173 Z" id="Path" fill="#EFC9A3" fill-rule="nonzero"></path>
            <path d="M458,312.002396 L502.421797,323 L509.709837,282.859898 C510.614766,277.644747 509.382716,272.280975 506.298337,268.007821 C503.213959,263.734666 498.54409,260.92181 493.367649,260.219129 L493.367649,260.219129 C484.264185,258.838717 475.446202,264.091955 472.204667,272.826794 L458,312.002396 Z" id="Path" fill="#129093" fill-rule="nonzero"></path>
            <path d="M504.104418,389 L365.807527,458.868745 C352.973396,465.353244 345.22006,478.793938 346.062317,493.097797 L356.47872,670 L377.69831,670 L406.328099,480.72608 L514,405.46258 L504.104418,389 Z" id="Path" fill="#303348" fill-rule="nonzero"></path>
            <path d="M479.121402,148.256713 C479.121402,148.256713 517.491967,135.33666 537.654198,171.324991 C538.792765,173.427296 540.137535,175.413505 541.669055,177.254886 C545.76421,182.041213 554.287179,190.86411 563.712534,193.723031 C601.054531,205.082984 624.688658,274.999708 550.356442,281.221176 C457.334109,289.010317 430.920172,270.841965 444.226556,234.119024 C453.716914,207.930546 445.243653,189.33809 445.243653,189.33809 L479.121402,148.256713 Z" id="Path" fill="#282C3C" fill-rule="nonzero"></path>
            <path d="M509.918294,242 L490.161467,250.811771 C478.393601,256.046135 470.860886,267.799656 471.001947,280.706943 C471.306308,306.715018 477.191887,371.288895 499.105873,396 L565.901679,396 C576.257559,350.251269 570.288281,279.928761 570.288281,279.928761 C570.95642,262.689884 558.312522,247.824788 541.229423,245.765029 L509.918294,242 Z" id="Path" fill="#007C86" fill-rule="nonzero"></path>
            <path d="M511.652942,263.912581 L511.652942,263.912581 C504.674447,264.727793 498.341684,259.75128 497.44834,252.750095 L492,209.974619 L517.482819,207 L522.896821,249.480314 C523.330504,252.89569 522.385883,256.343409 520.273599,259.054667 C518.161314,261.765925 515.05702,263.515257 511.652942,263.912581 Z" id="Path" fill="#EFC9A3" fill-rule="nonzero"></path>
            <path d="M454.319622,173.524492 L517.255357,173.525426 L517.255357,210.848903 C517.255357,227.947331 503.393252,241.807886 486.292912,241.807886 L485.260688,241.807886 C477.051845,241.807886 469.179167,238.547047 463.374553,232.743081 C457.569939,226.939116 454.308872,219.067318 454.308196,210.859394 L454.308196,173.524492 L454.319622,173.524492 Z" id="Path" fill="#FFE0BC" fill-rule="nonzero" transform="translate(485.781776, 207.666189) rotate(-7.437000) translate(-485.781776, -207.666189) "></path>
            <path d="M519,192.777552 L513.658721,203.796211 C513.658721,203.796211 506.554819,209.924865 504.544209,194.525339 C502.838815,181.481526 493.331338,183.746051 493.331338,183.746051 C493.331338,183.746051 460.757165,208.287264 441.620125,191.447713 C426.519565,178.149332 450.925396,153.83229 478.852656,148 L515.478571,163.939061 L519,192.777552 Z" id="Path" fill="#282C3C" fill-rule="nonzero"></path>
            <ellipse id="Oval" fill="#FFE0BC" fill-rule="nonzero" transform="translate(520.671625, 202.799195) rotate(-6.898000) translate(-520.671625, -202.799195) " cx="520.671625" cy="202.799195" rx="10.3222408" ry="10.3210811"></ellipse>
            <circle id="Oval" fill="#FFFFFF" fill-rule="nonzero" transform="translate(520.672052, 207.398748) rotate(-6.895000) translate(-520.672052, -207.398748) " cx="520.672052" cy="207.398748" r="1"></circle>
            <path d="M466,223.039664 L483.980777,219 C483.980777,219 484.844636,227.261072 474.990388,228.739804 C473.081348,229.277367 471.047643,228.974526 469.35353,227.900414 C467.659417,226.826303 466.449507,225.072608 466,223.039664 L466,223.039664 Z" id="Path" fill="#FFFFFF" fill-rule="nonzero"></path>
            <path d="M566.521111,395 L499.824674,395 L393.12633,459.602257 C380.547261,467.218981 375.562131,483.005647 381.479051,496.486294 L463.382291,683 L487.064331,680.209907 L443.043239,500.231794 C479.987071,498.667363 548.590531,493.075758 566.505915,473.057889 C596.858739,439.169491 566.521111,395 566.521111,395 Z" id="Path" fill="#3D415B" fill-rule="nonzero"></path>
            <path d="M337.976407,279.015155 L376,381 L252.441349,381 L217.267912,284.917985 C216.773655,283.567061 216.970921,282.060346 217.796371,280.881619 C218.621821,279.702892 219.971561,279 221.412214,279 L337.976407,279 L337.976407,279.015155 Z" id="Path" fill="#C2DFF1" fill-rule="nonzero"></path>
            <path d="M338,279 L343.808271,279 C346.932314,279.002014 349.723054,280.966229 350.796992,283.918893 L386,380 L375.330827,380 L338,279 Z" id="Path" fill="#A5C3D3" fill-rule="nonzero"></path>
            <path d="M252.007643,381 L375,381 L375,391 L260.980334,391 C256.020632,391 252,386.907698 252,381.859588 L252,381 L252.007643,381 Z" id="Path" fill="#A5C3D3" fill-rule="nonzero"></path>
            <path d="M376,391 L453.016829,391 C455.768958,391 458,388.761424 458,386 L458,386 C458,383.238576 455.768958,381 453.016829,381 L376,381 L376,391 Z" id="Path" fill="#A5C3D3" fill-rule="nonzero"></path>
            <ellipse id="Oval" fill="#ECF2F5" fill-rule="nonzero" transform="translate(296.021567, 333.173359) rotate(-18.308068) translate(-296.021567, -333.173359) " cx="296.021567" cy="333.173359" rx="11.1289666" ry="13.5073236"></ellipse>
            <path d="M555.738614,300.987762 L526.88448,373.507766 L526.249735,375.108176 C524.57736,379.287405 520.525155,382.019707 516.02881,382 L434.047278,381.460042 C430.871077,381.454909 428.238327,378.993901 428.015175,375.82143 C427.792023,372.648958 430.054275,369.842741 433.198402,369.39188 L514.296644,357.369663 L503.440974,365.850303 L522.766285,290.240512 C524.256455,284.168635 528.887313,279.365173 534.894962,277.659767 C540.902612,275.95436 547.362154,277.609563 551.813146,281.994907 C556.264139,286.380251 558.021336,292.820597 556.415421,298.862816 C556.231188,299.58368 556.005203,300.293196 555.738614,300.987762 L555.738614,300.987762 Z" id="Path" fill="#FFE0BC" fill-rule="nonzero"></path>
            <path d="M440.632761,367.581275 L412.579596,367 C405.19257,367.486033 399.586974,373.736452 400.023901,381 L441,381 L440.632761,367.581275 Z" id="Path" fill="#FCD8B6" fill-rule="nonzero"></path>
            <path d="M510,310.822202 L554.405222,322 L561.690543,281.210239 C562.627077,275.956689 561.417521,270.543452 558.338486,266.208478 C555.259451,261.873504 550.57429,258.987569 545.354452,258.210655 L545.354452,258.210655 C536.189334,256.84848 527.343771,262.205039 524.199366,271.021423 L510,310.822202 Z" id="Path" fill="#129093" fill-rule="nonzero"></path>
            <path d="M455.279497,688.154753 L444.877641,698.574805 L421.506744,704.363723 C419.098871,704.958676 417.151057,706.749303 416.330538,709.122213 L415.143927,712.553112 C414.866937,713.354236 414.994533,714.242251 415.485421,714.929765 C415.976308,715.61728 416.768129,716.016957 417.604622,715.999448 L492.836471,714.146994 C494.008848,714.122227 495.1191,713.60726 495.904701,712.723862 C496.690303,711.840464 497.081504,710.667066 496.985803,709.481126 L491.052752,687.869167 L479.684874,690.628551 C475.887915,691.906547 471.73303,691.469477 468.275161,689.428315 L464.232319,687.039422 C461.342885,685.31391 457.671793,685.77125 455.279497,688.154753 L455.279497,688.154753 Z" id="Path" fill="#29323D" fill-rule="nonzero"></path>
            <path d="M347.362482,673.158466 L336.939196,683.577129 L313.52015,689.365275 C311.107316,689.960148 309.155489,691.750536 308.333279,694.12313 L307.144224,697.553572 C306.866663,698.354588 306.994522,699.242485 307.486421,699.929908 C307.97832,700.617331 308.771772,701.016955 309.609988,700.999448 L377.828203,699.540835 C379.002276,699.516 380.114171,699.001631 380.90127,698.119217 C381.688368,697.236804 382.080875,696.064593 381.986084,694.879448 L380.213935,672.788025 L371.802896,675.616499 C367.998114,676.894325 363.834669,676.457313 360.369676,674.416423 L356.318505,672.027848 C353.423366,670.314558 349.753497,670.777846 347.362482,673.158466 L347.362482,673.158466 Z" id="Path" fill="#29323D" fill-rule="nonzero"></path>
            <rect id="Rectangle" fill="#C5E0E2" fill-rule="nonzero" transform="translate(744.500000, 192.000000) rotate(180.000000) translate(-744.500000, -192.000000) " x="637" y="153" width="215" height="78" rx="3.086"></rect>
            <path d="M785.707621,170 L825.296185,170 C826.278498,170 827.220578,170.393538 827.915178,171.094039 C828.609778,171.794541 829,172.744625 829,173.735284 L829,211.260877 C829,213.325938 827.340041,215 825.292379,215 L785.703815,215 C783.658254,215 782,213.327656 782,211.264716 L782,173.739123 C782,171.674062 783.659959,170 785.707621,170 L785.707621,170 Z" id="Path" fill="#FFFFFF" fill-rule="nonzero" transform="translate(805.500000, 192.500000) rotate(180.000000) translate(-805.500000, -192.500000) "></path>
            <path d="M665.179922,180 L766.820078,180 C767.663446,180 768.472271,179.683929 769.068622,179.12132 C769.664973,178.558711 770,177.795649 770,177 L770,177 C770,175.343146 768.5763,174 766.820078,174 L665.179922,174 C663.4237,174 662,175.343146 662,177 L662,177 C662,177.795649 662.335027,178.558711 662.931378,179.12132 C663.527729,179.683929 664.336554,180 665.179922,180 Z" id="Path" fill="#FFFFFF" fill-rule="nonzero"></path>
            <rect id="Rectangle" fill="#FFFFFF" fill-rule="nonzero" transform="translate(749.000000, 192.000000) rotate(-180.000000) translate(-749.000000, -192.000000) " x="728" y="189" width="42" height="6" rx="0.84"></rect>
            <rect id="Rectangle" fill="#FFFFFF" fill-rule="nonzero" transform="translate(685.500000, 192.000000) rotate(-180.000000) translate(-685.500000, -192.000000) " x="661" y="189" width="49" height="6" rx="0.84"></rect>
            <path d="M690.197139,212 L766.802861,212 C768.568592,212 770,210.656854 770,209 L770,209 C770,207.343146 768.568592,206 766.802861,206 L690.197139,206 C688.431408,206 687,207.343146 687,209 L687,209 C687,210.656854 688.431408,212 690.197139,212 L690.197139,212 Z" id="Path" fill="#FFFFFF" fill-rule="nonzero"></path>
            <path d="M189.316832,361 C189.316832,361 221.831336,361.112583 215.076452,328 C215.076452,328.011647 180.964482,331.342705 189.316832,361 Z" id="Path" fill="#33D18D" fill-rule="nonzero"></path>
            <path d="M185.683411,358 C185.683411,358 153.16928,358.115111 159.923348,325 C159.923348,324.996166 194.034883,328.334537 185.683411,358 Z" id="Path" fill="#33D18D" fill-rule="nonzero"></path>
            <path d="M187.18335,359 C187.18335,359 163.965153,335.083427 191.365439,314 C191.34643,314 213.348019,341.814578 187.18335,359 Z" id="Path" fill="#33D18D" fill-rule="nonzero"></path>
            <polygon id="Path" fill="#8B4200" fill-rule="nonzero" points="212 356 161 356 169.120728 391 203.228548 391"></polygon>
            <line x1="314" y1="398" x2="314" y2="648" id="Path" stroke="#3D415B" stroke-width="2"></line>
        </g>
    </g>
</svg>