<svg xmlns="http://www.w3.org/2000/svg" viewBox="0 0 689.93 420"><defs><style>.cls-1,.cls-18{fill:#e1e8f6;}.cls-1,.cls-10,.cls-14,.cls-15,.cls-16,.cls-17,.cls-19,.cls-2,.cls-20,.cls-21,.cls-24,.cls-28,.cls-3,.cls-30,.cls-31,.cls-32,.cls-34,.cls-35,.cls-36,.cls-37,.cls-38,.cls-4,.cls-40,.cls-41,.cls-42,.cls-44,.cls-45,.cls-5,.cls-6,.cls-7,.cls-8,.cls-9{fill-rule:evenodd;}.cls-2{fill:#9fb2d9;}.cls-3{fill:#8f9dd0;}.cls-4{fill:#d2dbf0;}.cls-13,.cls-42,.cls-5{fill:#fff;}.cls-6{fill:#0e2d34;}.cls-7{fill:#1b7154;}.cls-8{fill:#a6c86b;}.cls-9{fill:#5f9850;}.cls-10{fill:#f18a00;}.cls-11,.cls-15{fill:#00000f;}.cls-12,.cls-14{fill:#101537;}.cls-16{fill:#c0cdea;}.cls-17{fill:#d64c47;}.cls-19{fill:#f29c94;}.cls-20{fill:#fcc100;}.cls-21{fill:#aeabba;}.cls-22{font-size:41.66px;font-family:Futura-Medium, Futura;font-weight:500;letter-spacing:0.02em;}.cls-22,.cls-39{fill:#b4c5e6;}.cls-23{letter-spacing:-0.04em;}.cls-24{fill:#db4a46;}.cls-25{fill:#1874ba;}.cls-26,.cls-40{fill:#f5c890;}.cls-27{fill:#f8b243;}.cls-28,.cls-29{fill:#e4e1e8;}.cls-30{fill:#294d3c;}.cls-31{fill:#4a9075;}.cls-32,.cls-33{fill:#3b405f;}.cls-34{fill:#f5ac83;}.cls-35{fill:#0d1431;}.cls-36{fill:#070725;}.cls-37{fill:#ed7c67;}.cls-38{fill:#fcb187;}.cls-41{fill:#b72e2e;}.cls-42{stroke:#1e1f31;stroke-miterlimit:10;stroke-width:0.57px;}.cls-43,.cls-45{fill:#1e1f31;}.cls-44{fill:#1f223f;}</style></defs><title>review_1</title><g id="Layer_2" data-name="Layer 2"><g id="OBJECTS"><path class="cls-1" d="M150.68,295H91a58.55,58.55,0,0,0-58.37,58.37h0A58.55,58.55,0,0,0,91,411.78H595.41c52,0,94.52-42.53,94.52-94.52h0c0-52-42.53-94.52-94.52-94.52h0a40.07,40.07,0,0,1-40-40h0a40.08,40.08,0,0,1,40-40h48.1a41.66,41.66,0,0,0,41.55-41.55h0a41.67,41.67,0,0,0-41.55-41.55H582.69a16.22,16.22,0,0,1-16.17-16.17h0a16.22,16.22,0,0,1,16.17-16.18h10.72A11.2,11.2,0,0,0,604.58,16.2h0A11.21,11.21,0,0,0,593.41,5H523.06c-14.82,0-16.47,17.51-53.89,17.51H382.38A14.6,14.6,0,0,0,367.82,37.1h0a14.6,14.6,0,0,0,14.56,14.57h14a21.17,21.17,0,0,1,21.11,21.11h0a21.17,21.17,0,0,1-21.11,21.11h-42.1c-56.86,0-64.89,14.86-74.84,44.41s-61.68,31.93-61.68,31.93H147A31.9,31.9,0,0,0,115.23,202h0A31.9,31.9,0,0,0,147,233.85h3.64a30.69,30.69,0,0,1,30.6,30.59h0a30.69,30.69,0,0,1-30.6,30.6ZM624.74,27.36A11.17,11.17,0,1,1,635.91,16.2,11.16,11.16,0,0,1,624.74,27.36Z"/><path class="cls-2" d="M457.69,373.27c-.56-7.65-.81-15.09-.79-22.3s.36-14.38,1-21.19c2.27-25.45,8.45-47.4,17.67-66.16a150.05,150.05,0,0,1,39.45-50,170.72,170.72,0,0,1,49.71-28.17,223.76,223.76,0,0,1,61.2-12.88q10.67-.78,21.46-.68T669.07,173h0a3,3,0,0,1,2.7,3.21l0,.21c-.3,2.8-6.77,62.93-36.06,117.25-29.63,54.95-82.51,104-175.7,82.39a2.92,2.92,0,0,1-1.63-1,3,3,0,0,1-.66-1.73ZM668.5,177.66c-3.49,1.36-17.82,7.19-37.93,18.54,7.84,1.4,25.62,4.7,33.6,7.25,2.65-12.77,3.89-22.12,4.33-25.79Zm-4.92,28.58h0c-9.22-3-33.26-7.2-36.85-7.82-10,5.79-21.27,12.88-33.24,21.37l62.39,16.41c3.32-11,5.85-21.18,7.73-29.95ZM655,238.9l-64.55-17a429.83,429.83,0,0,0-34.63,27.84c12.8,3.9,74,22.66,84.37,27.9A317.26,317.26,0,0,0,655,238.9Zm-16,41.34c-10.43-5.35-78-25.94-85.63-28.26-9.44,8.56-18.93,18-28.26,28.23l96.15,30.69a1.26,1.26,0,0,1,.33.16c4.13-6.15,7.92-12.48,11.38-18.9q3.19-5.93,6-11.92Zm-19.06,33.23L523,282.53c-7.25,8.11-14.4,16.77-21.33,26,15.67,5.3,95.91,30.27,96.15,30.34a1.5,1.5,0,0,1,.57.34,177.42,177.42,0,0,0,21.53-25.71ZM596.2,341.3c-8.5-2.64-83.6-26-96.29-30.4q-8.91,12-17.24,25.31c18.95,9.36,82.68,25.91,82.87,26a1.43,1.43,0,0,1,.87.66A138,138,0,0,0,596.2,341.3Zm-33,23.19c-10.21-2.69-64.73-17.23-82-25.85q-5.3,8.61-10.27,17.78c7.27,2.87,39.88,15.38,60.94,17.54a1.41,1.41,0,0,1,1.22,1,129.1,129.1,0,0,0,30.12-10.5Zm-36.34,11.68c-21.57-3.37-51.08-14.77-57.29-17.23q-3.77,7.05-7.3,14.42c24.22,5.42,45.65,6,64.59,2.81Zm-66.25-5.91q3.27-6.75,6.75-13.22c-2.91-8.07-5.07-22.05-6.12-29.89-.1,1-.19,1.93-.28,2.9Q460,340.13,460,351q0,9.31.6,19.29Zm1.5-50.43a1.42,1.42,0,0,1,1.23,1.25c0,.07,2.27,20.59,5.87,32.52q4.81-8.78,9.92-17a279.44,279.44,0,0,1-9.4-50.41,190.67,190.67,0,0,0-7.62,33.68Zm9.25-38.41a1.42,1.42,0,0,1,.95,1.24,273,273,0,0,0,8.85,50.64q8.06-12.76,16.68-24.35c-1.67-4.94-11.38-34.41-12.73-56.31q-3.63,5.91-6.79,12.33a161.43,161.43,0,0,0-7,16.45Zm15.82-32.08a1.44,1.44,0,0,1,.67,1.16c.76,19.81,9.3,47.25,12.07,55.68,6.83-9,13.87-17.55,21-25.54-12.77-27.07-14.7-49.12-15-54.61a146.26,146.26,0,0,0-18.78,23.31Zm21.16-25.66a1.44,1.44,0,0,1,.41,1c0,.07.26,23.5,14.26,53.69,9.35-10.3,18.87-19.73,28.34-28.32-5.73-12.91-11.27-45-12-49.44A157.57,157.57,0,0,0,516.93,216q-4.44,3.66-8.62,7.69Zm33.56-24.51a1.67,1.67,0,0,1,.16.46c0,.1,5.65,34.34,11.52,48.39a433,433,0,0,1,35.06-28.24c-4.15-16.54-4.05-34.48-4-37.37q-9.6,2.52-18.85,5.92a179.19,179.19,0,0,0-23.88,10.84Zm45.54-17.47a1.2,1.2,0,0,1,0,.38S587,200.66,591.1,218c12.18-8.68,23.65-15.92,33.84-21.83a103.36,103.36,0,0,1-.4-20.4,231.5,231.5,0,0,0-37.13,5.94Zm40-6.15a1.62,1.62,0,0,1,0,.22,102.21,102.21,0,0,0,.22,18.85,333.43,333.43,0,0,1,38-18.87q-9.11-.7-18.3-.79C640.71,174.9,634.05,175.09,627.4,175.55Z"/><path class="cls-3" d="M272.85,251.9c-2.65-5.78-8.11-14.78-19-24.32-18.47-16.19-31.2-36.39-22.56-46.62,8.32-9.86,34.49,13.1,51.44,65.63l-9.86,5.29Z"/><path class="cls-4" d="M235.71,186.2a.83.83,0,0,1,.92-1.39,59.83,59.83,0,0,1,5.84,4.54l-1.86-4.41a.55.55,0,0,1,.29-.72.55.55,0,0,1,.73.29l2.76,6.56c1.61,1.47,3.41,3.21,5.32,5.23l-1.31-5.61a.55.55,0,0,1,.41-.67.56.56,0,0,1,.67.42l1.76,7.52c1.95,2.15,4,4.57,6.09,7.28l-1-4.91a.55.55,0,0,1,.43-.65.56.56,0,0,1,.66.43l1.4,7.17c2.13,2.91,4.28,6.1,6.37,9.61l-.39-4.78a.55.55,0,0,1,1.1-.1l.59,7.11c1.92,3.36,3.78,7,5.52,10.89l.4-2.82a.54.54,0,0,1,.63-.47.55.55,0,0,1,.47.62L272.9,232c1.29,3,2.52,6.16,3.64,9.49l.51-2.8a.55.55,0,1,1,1.09.19l-.87,4.82c.53,1.65,1,3.33,1.52,5.06l-1.51.81c-.47-1.73-1-3.42-1.5-5.07-1.2-.68-4.11-2.25-5.67-2.39a.56.56,0,0,1,.1-1.11,17.28,17.28,0,0,1,5.07,2c-.43-1.29-.87-2.56-1.33-3.8a23.52,23.52,0,0,0-6.91-2,.56.56,0,0,1-.52-.59.55.55,0,0,1,.59-.52,22.37,22.37,0,0,1,6.32,1.66c-1-2.54-2-5-3-7.3-2-.37-8.23-1.48-11.19-1.16a.55.55,0,0,1-.12-1.1c2.77-.31,8.2.57,10.75,1q-1.72-3.71-3.56-7.07c-1.93-.42-8.31-1.66-13.35-1.2a.56.56,0,0,1-.6-.5.55.55,0,0,1,.5-.6,49.74,49.74,0,0,1,12.75,1c-.61-1.1-1.23-2.16-1.85-3.21a54.36,54.36,0,0,0-16-1.83.54.54,0,0,1-.58-.52.56.56,0,0,1,.52-.59,54.84,54.84,0,0,1,15.25,1.58,118.16,118.16,0,0,0-7-10.08c-2.49-.06-12.2-.22-17.08.68a.56.56,0,1,1-.2-1.1c4.52-.83,13-.77,16.4-.71-1.74-2.21-3.46-4.22-5.1-6-2.4.18-11.25.85-13.39,1.14a.56.56,0,0,1-.15-1.1c2-.27,9.38-.84,12.57-1.08-2.17-2.33-4.2-4.3-6-5.92-2.25.32-7.67,1.07-9,1.35a.55.55,0,0,1-.66-.42.55.55,0,0,1,.43-.66c1.19-.25,5.57-.88,8.14-1.23A60.7,60.7,0,0,0,235.71,186.2Z"/><path class="cls-4" d="M298.72,311.24c-7.8-9.32-23.74-24.55-52.81-38.48-46-22-82.21-53.53-69.62-75.34C188.65,176,256,208.84,318.06,300.83A117.09,117.09,0,0,1,298.72,311.24Z"/><path class="cls-5" d="M306.4,301.58a27.21,27.21,0,0,0-8.48,2,.55.55,0,0,1-.41-1,28.78,28.78,0,0,1,8.13-2c-1.09-1.52-2.18-3-3.26-4.47-1.93.14-8.14.6-10.46.94a.55.55,0,0,1-.63-.47.56.56,0,0,1,.47-.63c2.12-.32,7.39-.72,9.83-.9q-3-4.08-6.08-7.94a128.46,128.46,0,0,0-13.92,2.37.56.56,0,0,1-.25-1.09c5.72-1.31,11-2,13.36-2.31q-3.06-3.87-6.09-7.5a182.12,182.12,0,0,0-19.87,3.37.55.55,0,1,1-.25-1.08,185.59,185.59,0,0,1,19.26-3.32q-4-4.75-7.91-9.11c-2.68.13-13.76.88-21.81,4.32a.57.57,0,0,1-.74-.29.55.55,0,0,1,.3-.73c7.5-3.21,17.54-4.12,21.3-4.36q-4.81-5.32-9.53-10.08c-3.61.55-18.14,3-24.54,8.51a.55.55,0,1,1-.72-.84c6.21-5.33,19.61-7.88,24.29-8.64q-5-5-9.81-9.42a115.6,115.6,0,0,0-23.41,10.81.55.55,0,0,1-.76-.18.54.54,0,0,1,.17-.76A117.1,117.1,0,0,1,257.64,246c-1.9-1.72-3.79-3.38-5.64-5-2.5.76-13.08,4.24-26.76,12.51a.55.55,0,0,1-.76-.19.55.55,0,0,1,.19-.76A128.61,128.61,0,0,1,251,240.18c-4.4-3.74-8.68-7.11-12.79-10.15-3.11,1.36-18.87,8.39-26.92,14.64a.57.57,0,0,1-.78-.1.56.56,0,0,1,.1-.78c7.73-6,22.38-12.67,26.56-14.51q-3.58-2.62-7-4.92a163,163,0,0,0-25.75,14.56.58.58,0,0,1-.78-.13.57.57,0,0,1,.13-.78,163.68,163.68,0,0,1,25.31-14.37c-5.33-3.53-10.31-6.46-14.88-8.91-2.66.9-14.67,5.12-23.39,11.34a.56.56,0,0,1-.65-.91c8-5.71,18.74-9.75,22.69-11.14q-2.84-1.47-5.43-2.71A86.05,86.05,0,0,0,187,218.6a.56.56,0,0,1-.74-.25.55.55,0,0,1,.25-.75,90,90,0,0,1,19.26-7.06c-14-6.42-22.38-7.6-22.44-7.61a.83.83,0,1,1,.25-1.64A62,62,0,0,1,193.83,204a49.54,49.54,0,0,0-5.33-5.12.56.56,0,0,1,.49-1c1.06.52,5.58,5.27,7.13,6.91,2.66,1,5.7,2.17,9.08,3.68l-6.47-10.34a.55.55,0,0,1,.17-.77.57.57,0,0,1,.77.18L207,209.32c2.32,1.08,4.79,2.31,7.39,3.69l-7.09-12.32a.56.56,0,1,1,1-.56l8,13.88c3.9,2.13,8.08,4.6,12.51,7.49l-6.35-12.86a.56.56,0,0,1,.25-.75.57.57,0,0,1,.75.25l7.19,14.58q3,2,6.21,4.3L231.4,215.4a.56.56,0,0,1,.26-.74.57.57,0,0,1,.75.27l6.3,13.44q5.89,4.32,12.2,9.59l-4.35-11.43a.55.55,0,0,1,.32-.72.57.57,0,0,1,.72.32l5.06,13.31c1.67,1.42,3.36,2.9,5.06,4.42l-2.66-8.79a.55.55,0,0,1,.37-.69.56.56,0,0,1,.69.37l3.2,10.55q4.76,4.33,9.68,9.25l-2.64-9.83a.56.56,0,0,1,1.08-.29l3.13,11.69q4.32,4.36,8.74,9.21l-1.94-8.77a.55.55,0,0,1,.42-.66.56.56,0,0,1,.67.42L280.81,267q3.87,4.29,7.79,8.95l-.8-8a.56.56,0,0,1,.5-.61.56.56,0,0,1,.61.5l1,9.63q2.85,3.41,5.72,7l.22-6.91a.56.56,0,0,1,1.11,0l-.27,8.23q2.66,3.36,5.31,6.89l.39-4.49a.56.56,0,0,1,.61-.5.55.55,0,0,1,.5.6l-.5,5.72q2,2.67,4,5.44l1.49-3.8a.55.55,0,1,1,1,.41l-1.75,4.46c1.09,1.51,2.17,3,3.26,4.6-.49.29-1,.56-1.46.83Q308,303.76,306.4,301.58Z"/><path class="cls-4" d="M307.05,417.43a209.44,209.44,0,0,0-.61-26.66C302.63,348,285.15,317.46,260.38,297s-56.73-30.73-89.63-33.14a216,216,0,0,0-35,.31,1.16,1.16,0,0,0-1.05,1.26.34.34,0,0,0,0,.1C135,268,146.56,378,216.38,417.43Z"/><path class="cls-5" d="M142.08,270a1.08,1.08,0,1,0-.77,2c.11,0,11.85,4.4,29.41,14.31-6,1.07-19.73,3.62-25.69,5.56a1.08,1.08,0,1,0,.67,2.05c7-2.28,25.23-5.46,28-5.93,7.59,4.39,16.14,9.77,25.22,16.21l-47.36,12.46a1.08,1.08,0,0,0,.55,2.08l49.09-12.91A326,326,0,0,1,227.43,327c-9.75,3-56.45,17.29-64.1,21.22a1.07,1.07,0,0,0-.47,1.44,1.08,1.08,0,0,0,1.45.47c7.89-4.05,59.19-19.68,65-21.44,7.16,6.49,14.36,13.62,21.44,21.41l-73,23.29a1.08,1.08,0,0,0,.65,2.06l73.88-23.58c5.51,6.15,10.93,12.72,16.19,19.7-11.89,4-72.77,23-73,23a1.08,1.08,0,0,0,.64,2.06c.19-.06,63.47-19.75,73.67-23.26q6.76,9.12,13.08,19.21c-14.38,7.1-62.74,19.65-62.88,19.69a1.08,1.08,0,0,0,.54,2.09c.15,0,49-12.72,63.48-19.94q4,6.54,7.8,13.49c-3.65,1.44-15.68,6.07-28,9.52h7.56c10-3.14,18.76-6.52,21.5-7.61,1.33,2.5,2.63,5,3.91,7.61h2.41q-2.26-4.6-4.65-9.05c3.19-8.83,5.19-27,5.19-27a1.08,1.08,0,0,0-2.14-.24s-1.72,15.62-4.46,24.67q-3.65-6.66-7.52-12.93A209.91,209.91,0,0,0,293,352.1a1.08,1.08,0,0,0-2.15-.15,207,207,0,0,1-6.71,38.42c-4.07-6.46-8.31-12.61-12.66-18.48,1.31-3.87,9.1-27.52,9.74-44.27a1.08,1.08,0,0,0-1-1.12,1.09,1.09,0,0,0-1.13,1c-.57,15-7,35.85-9.15,42.25-5.19-6.86-10.53-13.32-16-19.38,11.2-23.73,11.41-42.38,11.41-42.43a1.08,1.08,0,1,0-2.15-.05c0,.05-.21,17.84-10.82,40.74-7.1-7.82-14.32-15-21.51-21.49,4.67-10.5,9.16-37.81,9.18-37.89a1.08,1.08,0,1,0-2.13-.35c0,.08-4.29,26.06-8.74,36.72a330.33,330.33,0,0,0-26.6-21.43c3.43-13.68,3-28.61,3-28.66a1.08,1.08,0,0,0-2.16.05,120.64,120.64,0,0,1-2.76,27.26c-9.24-6.59-17.95-12.08-25.68-16.57a79.14,79.14,0,0,0,.29-15.67,1.08,1.08,0,0,0-2.15.2,76.88,76.88,0,0,1-.17,14.3C154.58,274.66,142.18,270.06,142.08,270Z"/><path class="cls-6" d="M325.47,231.26a164.07,164.07,0,0,1-50.19-54.59c-21.21-37.81,42.33,1.6,88.38,45.75l-30,8.84Z"/><path class="cls-7" d="M264.16,319.41c9.86,13.26,36.83,41,62.63,70l30.56,18.44,9.87-18.95C350.63,348,326.52,305,303.12,281.1,262.07,239.23,229.57,272.85,264.16,319.41Z"/><path class="cls-6" d="M357.84,406.88c-27.32-66.71-90.14-127.72-90.37-127.95a1.05,1.05,0,0,0-1.55.08,1.25,1.25,0,0,0,.08,1.67c.22.22,62,60.26,89.36,125.93l2,1.21Z"/><path class="cls-6" d="M313.81,418.05a187.81,187.81,0,0,1-57.42-62.45c-24.26-43.27,48.43,1.82,101.12,52.34l-34.32,10.11Z"/><path class="cls-8" d="M327.11,98.92c6.1,16.18,15.36,54.28,26.3,93.68a73.75,73.75,0,0,1-28.3,39.48c-24.45-37-46-79.66-53.88-113.28C255.76,53,303.89,37.31,327.11,98.92Z"/><path class="cls-9" d="M339.26,219.05c-34.45-62.5-50.48-138.43-50.55-138.74a1.32,1.32,0,0,1,.92-1.58,1.22,1.22,0,0,1,1.47,1C291.17,80,307,155.07,340.93,217,340.38,217.68,339.83,218.37,339.26,219.05Z"/><path class="cls-8" d="M348.46,410.78a119.86,119.86,0,0,0-12.32-29.71c-14-23.33-37.81-24.52-43.2-17.74-3.86,4.86-9.05,25-1,48.45h45.55A60,60,0,0,0,348.46,410.78Z"/><path class="cls-9" d="M335.3,411.78q-1.37-2.36-2.84-4.76c.23-4.24.75-16.16-.16-22.62-.07-.46-.38-.76-.69-.66a.91.91,0,0,0-.45,1c.79,5.59.47,15.53.23,20.56a167.62,167.62,0,0,0-13.92-19,112.35,112.35,0,0,0-2.12-20.54c-.1-.45-.42-.69-.73-.54a1,1,0,0,0-.37,1.08,107.1,107.1,0,0,1,2,18.62A137.31,137.31,0,0,0,295.7,365.6c-.57-.43-1.26-.09-1.56.76a2.16,2.16,0,0,0,.51,2.3,129.26,129.26,0,0,1,10.68,9,26.22,26.22,0,0,0-9.26,3.16,1,1,0,0,0-.32,1.12c.11.43.45.65.75.47a25.84,25.84,0,0,1,10.41-3.23A147.08,147.08,0,0,1,320.86,395a73.36,73.36,0,0,0-23,11,1.08,1.08,0,0,0-.26,1.14c.15.42.49.6.78.38A72.5,72.5,0,0,1,322,396.41a173.81,173.81,0,0,1,10.29,15.37Z"/><path class="cls-10" d="M588.64,182.74c-14.57,2.18-39.86,5.22-43,4.13-4.25-1.48-28.21-26.35-30.29-32.79,0,0-.2-.71.65-.84s3.84.24,4.76-.85,1.6-.22,2.26,1.18,19.8,17.57,24.76,20.79S582.1,164.07,586,162.89C603.77,157.46,610.18,179.5,588.64,182.74Z"/><rect class="cls-11" x="337.46" y="38.53" width="207.12" height="373.25" rx="25.89"/><rect class="cls-11" x="328.94" y="38.53" width="207.12" height="373.25" rx="25.89"/><rect class="cls-12" x="333.06" y="42.64" width="198.89" height="365.02" rx="21.77"/><rect class="cls-13" x="341.29" y="50.87" width="182.43" height="348.56" rx="13.54"/><path class="cls-14" d="M432.5,63.22H386.06a6,6,0,0,1-5.94-5.95V55a6,6,0,0,0-5.66-4.12l5.66-2.06V46.65H484.89v2.16l5.66,2.06A6,6,0,0,0,484.89,55v2.28a6,6,0,0,1-5.95,5.95Z"/><path class="cls-15" d="M420.8,55a1.63,1.63,0,1,1,0-3.26H451A1.63,1.63,0,0,1,451,55Zm-5.45-3.26a1.63,1.63,0,1,1,0,3.26H414a1.63,1.63,0,1,1,0-3.26Z"/><path class="cls-16" d="M504.4,376.31H493.51a1.92,1.92,0,0,0-1.36.57h0a1.92,1.92,0,0,0-.57,1.36v11.13c0,.32,0,.5.4.62.58.26.59.05.78-.31l0,0a7.19,7.19,0,0,1,1.79-2.06,3.06,3.06,0,0,1,1.82-.67h.85v.71a1.57,1.57,0,0,0,1.59,1.59h5.94a2.15,2.15,0,0,1,1.27.47,5.23,5.23,0,0,1,1.26,1.44l0,.06c.18.36.33.51.8.31s.39-.32.37-.61c.08-2.69,0-5.58,0-8.27a1.55,1.55,0,0,0-.46-1.12,1.59,1.59,0,0,0-1.12-.47h-.6v-2.78a1.92,1.92,0,0,0-.57-1.36,1.88,1.88,0,0,0-1.35-.57Zm-9.36,6.9h-.66a.37.37,0,0,1-.37-.37.38.38,0,0,1,.37-.37H495a.38.38,0,0,1,.37.37.37.37,0,0,1-.37.37Zm1.4-.74h6a.38.38,0,0,1,.37.37.37.37,0,0,1-.37.37h-6a.37.37,0,0,1-.37-.37.38.38,0,0,1,.37-.37Zm6.42-2.86h.66a.38.38,0,0,1,0,.75h-.66a.38.38,0,0,1,0-.75Zm-1.4.75h-7.08a.38.38,0,0,1,0-.75h7.08a.38.38,0,0,1,0,.75Zm-3,6.55h5.93a1.93,1.93,0,0,0,1.92-1.92v-2.74h.6a.36.36,0,0,1,.35.36v6.5a5.34,5.34,0,0,0-.5-.43,3.41,3.41,0,0,0-2-.7h-5.94a.38.38,0,0,1-.36-.36v-.71Zm-5-9.36H504.4a.68.68,0,0,1,.68.69V385a.66.66,0,0,1-.2.48.67.67,0,0,1-.48.21h-8a4.31,4.31,0,0,0-2.55.9,7.1,7.1,0,0,0-1,.93v-9.27a.7.7,0,0,1,.2-.49A.68.68,0,0,1,493.51,377.55Z"/><path class="cls-16" d="M454.23,370.84a4.48,4.48,0,0,0-3.17,7.65l0,0a4.49,4.49,0,0,0,6.3,0h0a4.48,4.48,0,0,0-3.17-7.65Zm-5,16.07v-.44a5,5,0,0,1,1.43-3.49l0,0a5,5,0,0,1,8.51,3.52v3.61a.29.29,0,0,1-.07.19h0a.27.27,0,0,1-.18.07H449.5a.32.32,0,0,1-.19-.07.29.29,0,0,1-.07-.19v-3.17Zm-1.24,0v3.2a1.51,1.51,0,0,0,.44,1.06h0a1.46,1.46,0,0,0,1.05.44H459a1.48,1.48,0,0,0,1.05-.44h0a1.51,1.51,0,0,0,.43-1.06v-3.61a6.22,6.22,0,0,0-10.62-4.39l0,0a6.21,6.21,0,0,0-1.8,4.36v.41ZM451.93,373a3.25,3.25,0,0,1,4.6,4.6h0a3.26,3.26,0,0,1-4.57,0l0,0a3.26,3.26,0,0,1,0-4.6Z"/><path class="cls-16" d="M406.29,377a5.66,5.66,0,0,0-1.12.51,6,6,0,0,0-1,.72l-1.27-.74-.06,0a1,1,0,0,0-.66-.06.92.92,0,0,0-.57.44l-1.16,2a.93.93,0,0,0,.34,1.29l1.27.73-.06.38a6.18,6.18,0,0,0-.06.85,6.33,6.33,0,0,0,.06.86l.06.38-1.27.73a.93.93,0,0,0-.34,1.29l1.16,2a.95.95,0,0,0,1.29.35l1.27-.74a6.6,6.6,0,0,0,1,.72,5.66,5.66,0,0,0,1.12.51v1.47a1,1,0,0,0,.95.95h2.32a1,1,0,0,0,.67-.28l0-.06a.94.94,0,0,0,.23-.61v-1.47a5.94,5.94,0,0,0,1.12-.51,7,7,0,0,0,1-.72l1.27.74.06,0a1,1,0,0,0,.66.06,1,1,0,0,0,.58-.44l1.16-2a1,1,0,0,0,.09-.72A.92.92,0,0,0,416,385l-1.27-.73.06-.38a6.33,6.33,0,0,0,.06-.86,6.18,6.18,0,0,0-.06-.85c0-.13,0-.25-.06-.37l1.27-.74a.92.92,0,0,0,.44-.57,1,1,0,0,0-.09-.72l-1.16-2a.94.94,0,0,0-.58-.44.92.92,0,0,0-.72.09l-1.27.74a6.33,6.33,0,0,0-1-.72,5.94,5.94,0,0,0-1.12-.51v-1.47a1,1,0,0,0-.95-1h-2.32a.94.94,0,0,0-.67.28l-.06.06a.93.93,0,0,0-.22.61V377Zm-.51,1.57A5.39,5.39,0,0,1,407,378a.62.62,0,0,0,.5-.61v-1.63h1.75v1.63a.64.64,0,0,0,.46.6,5.29,5.29,0,0,1,1.28.52,5.56,5.56,0,0,1,1.09.84.61.61,0,0,0,.75.11l1.42-.82.88,1.52-1.38.8a.61.61,0,0,0-.33.71,4.33,4.33,0,0,1,.14.68,4.86,4.86,0,0,1,0,1.39,5.87,5.87,0,0,1-.14.68h0a.59.59,0,0,0,.28.69l1.42.82-.88,1.52-1.42-.82a.61.61,0,0,0-.74.1,5.67,5.67,0,0,1-1.1.85,5.39,5.39,0,0,1-1.24.51.63.63,0,0,0-.5.61v1.63h-1.75v-1.63a.63.63,0,0,0-.46-.6,5.73,5.73,0,0,1-1.28-.52,5.22,5.22,0,0,1-1.08-.84.62.62,0,0,0-.76-.11l-1.42.82-.88-1.52,1.37-.79a.62.62,0,0,0,.34-.72,5.87,5.87,0,0,1-.14-.68,5.18,5.18,0,0,1,0-.7,5.12,5.12,0,0,1,0-.69,5.87,5.87,0,0,1,.14-.68h0a.61.61,0,0,0-.29-.69l-1.42-.82.88-1.52,1.42.82a.61.61,0,0,0,.74-.1,5.67,5.67,0,0,1,1.1-.85Zm2.62,1.24a3.25,3.25,0,0,1,2.29.93l0,0a3.31,3.31,0,0,1,0,4.66h0a3.33,3.33,0,0,1-2.33,1,3.31,3.31,0,0,1-3.3-3.3,3.28,3.28,0,0,1,3.3-3.29Zm-1.46,1.84a2,2,0,0,1,1.46-.61,2.05,2.05,0,0,1,1.43.58l0,0a2.06,2.06,0,0,1,0,2.91h0a2.08,2.08,0,0,1-1.46.6,2.06,2.06,0,0,1-1.46-3.52Z"/><path class="cls-16" d="M358.06,381a5.46,5.46,0,0,0,0,7.72l0,0a5.47,5.47,0,0,0,7.23.37l2.28,2.29a.62.62,0,0,0,.87,0,.63.63,0,0,0,0-.88l-2.28-2.28a5.46,5.46,0,0,0-8.13-7.26Zm6.87,6.84h0a4.23,4.23,0,0,1-5.94,0l0,0a4.22,4.22,0,1,1,6,0Z"/><path class="cls-17" d="M492,379.88a3.25,3.25,0,1,0-3.25-3.25A3.25,3.25,0,0,0,492,379.88Z"/><path class="cls-5" d="M492.38,378.18h-.63v-2.4a2.19,2.19,0,0,1-.82.48v-.58a1.86,1.86,0,0,0,.54-.3,1.33,1.33,0,0,0,.4-.53h.51Z"/><path class="cls-2" d="M353.52,57.77a.55.55,0,0,1,0-1.09h12a.55.55,0,1,1,0,1.09Zm0,7.86a.54.54,0,0,1-.54-.54.55.55,0,0,1,.54-.55h12a.55.55,0,0,1,.55.55.55.55,0,0,1-.55.54Zm0-3.93a.55.55,0,0,1,0-1.09h12a.55.55,0,1,1,0,1.09Z"/><path class="cls-2" d="M497.15,58.33h7V64h-7a.56.56,0,0,1-.57-.56V58.9a.58.58,0,0,1,.57-.57Zm13.22-1.1H497.15a1.66,1.66,0,0,0-1.66,1.67v4.52a1.61,1.61,0,0,0,.49,1.17,1.65,1.65,0,0,0,1.17.49h13.22a1.6,1.6,0,0,0,1.13-.46l0,0a1.65,1.65,0,0,0,.49-1.17V58.9a1.69,1.69,0,0,0-.49-1.18A1.67,1.67,0,0,0,510.37,57.23Z"/><path class="cls-15" d="M32.64,420H27.22a4.12,4.12,0,0,1-4.11-4.11h0a4.12,4.12,0,0,1,4.11-4.11h5.42a4.12,4.12,0,0,1,4.11,4.11h0A4.12,4.12,0,0,1,32.64,420Z"/><rect class="cls-18" x="354.84" y="261.14" width="85.18" height="5.94" rx="1.51"/><rect class="cls-18" x="354.84" y="250.06" width="85.18" height="5.94" rx="1.51"/><rect class="cls-18" x="354.84" y="238.98" width="85.18" height="5.94" rx="1.51"/><path class="cls-15" d="M647.86,420h-5.41a4.12,4.12,0,0,1-4.11-4.11h0a4.12,4.12,0,0,1,4.11-4.11h5.41a4.12,4.12,0,0,1,4.11,4.11h0A4.12,4.12,0,0,1,647.86,420Z"/><path class="cls-19" d="M359.13,153.09H508.89a5,5,0,0,1,5,5V174a4.92,4.92,0,0,1-1.47,3.52l0,0a5,5,0,0,1-3.48,1.43H359.13a4.94,4.94,0,0,1-3.51-1.47h0a4.94,4.94,0,0,1-1.47-3.52V158.07a5,5,0,0,1,5-5Zm149.76,1.36H359.13a3.63,3.63,0,0,0-2.55,1.06h0a3.6,3.6,0,0,0-1.06,2.56V174a3.6,3.6,0,0,0,1.06,2.56h0a3.63,3.63,0,0,0,2.55,1.06H508.89a3.6,3.6,0,0,0,2.53-1l0,0a3.64,3.64,0,0,0,1.06-2.56V158.07a3.62,3.62,0,0,0-3.62-3.62Z"/><path class="cls-20" d="M401.66,162.84H407a.79.79,0,0,1,.46,1.43l-4.32,3.13,1.66,5.07a.78.78,0,0,1-.29.89.77.77,0,0,1-.93,0l-4.31-3.14L395,173.35a.77.77,0,0,1-.93,0,.78.78,0,0,1-.29-.89l1.66-5.07-4.32-3.13a.78.78,0,0,1-.29-.89.77.77,0,0,1,.75-.54h5.34l1.64-5.08a.78.78,0,0,1,.76-.55.77.77,0,0,1,.75.55Z"/><path class="cls-20" d="M424.83,162.84h5.33a.79.79,0,0,1,.47,1.43l-4.32,3.13,1.65,5.07a.79.79,0,0,1-1.22.89l-4.31-3.14-4.31,3.14a.79.79,0,0,1-1.22-.89l1.66-5.07-4.33-3.13a.8.8,0,0,1-.29-.89.79.79,0,0,1,.76-.54H420l1.64-5.08a.76.76,0,0,1,.75-.55.78.78,0,0,1,.76.55Z"/><path class="cls-20" d="M448,162.84h5.34a.79.79,0,0,1,.46,1.43l-4.32,3.13,1.66,5.07a.79.79,0,0,1-1.22.89l-4.31-3.14-4.31,3.14a.78.78,0,0,1-.94,0,.8.8,0,0,1-.29-.89l1.66-5.07-4.32-3.13a.79.79,0,0,1,.47-1.43h5.33l1.64-5.08a.78.78,0,0,1,.76-.55.77.77,0,0,1,.75.55Z"/><path class="cls-20" d="M471.16,162.84h5.33a.79.79,0,0,1,.47,1.43l-4.32,3.13,1.66,5.07a.8.8,0,0,1-.29.89.77.77,0,0,1-.93,0l-4.32-3.14-4.31,3.14a.77.77,0,0,1-.93,0,.78.78,0,0,1-.29-.89l1.66-5.07-4.32-3.13a.79.79,0,0,1,.46-1.43h5.34l1.64-5.08a.77.77,0,0,1,.75-.55.78.78,0,0,1,.76.55Z"/><path class="cls-21" d="M494.32,162.84h5.34a.79.79,0,0,1,.76.54.8.8,0,0,1-.29.89l-4.33,3.13,1.66,5.07a.79.79,0,0,1-1.22.89l-4.31-3.14-4.31,3.14a.79.79,0,0,1-1.22-.89l1.66-5.07-4.33-3.13a.79.79,0,0,1,.47-1.43h5.34l1.63-5.08a.78.78,0,0,1,.76-.55.76.76,0,0,1,.75.55Z"/><path class="cls-20" d="M378.49,162.84h5.34a.79.79,0,0,1,.47,1.43L380,167.39l1.66,5.07a.79.79,0,0,1-1.22.89l-4.31-3.14-4.31,3.14a.79.79,0,0,1-1.22-.89l1.66-5.07-4.33-3.13a.8.8,0,0,1-.29-.89.79.79,0,0,1,.76-.54h5.34l1.64-5.08a.76.76,0,0,1,.75-.55.78.78,0,0,1,.76.55Z"/><rect class="cls-18" x="354.84" y="273.03" width="158.36" height="5.94" rx="1.51"/><text class="cls-22" transform="translate(352.25 111.44)">REVIE<tspan class="cls-23" x="117.18" y="0">W</tspan></text><rect class="cls-18" x="354.84" y="115.63" width="158.36" height="5.94" rx="1.51"/><path class="cls-24" d="M482.94,251.86a26.71,26.71,0,1,0-26.71-26.7A26.75,26.75,0,0,0,482.94,251.86Z"/><path class="cls-5" d="M482.94,239.4l11.31-13.53c8.8-10.51-6-17.31-11.31-9.36-5.3-7.95-20.11-1.15-11.32,9.36Z"/><path class="cls-24" d="M638.54,44.06H580.09a7.74,7.74,0,0,0-7.72,7.71v54.45a.87.87,0,0,0,1.48.61L587,93.68h51.54A7.74,7.74,0,0,0,646.25,86V51.77A7.73,7.73,0,0,0,638.54,44.06Z"/><path class="cls-5" d="M627.54,74.37a5.51,5.51,0,1,0-5.5-5.5A5.52,5.52,0,0,0,627.54,74.37Z"/><path class="cls-5" d="M609.32,74.37a5.51,5.51,0,1,0-5.51-5.5A5.51,5.51,0,0,0,609.32,74.37Z"/><path class="cls-5" d="M591.09,74.37a5.51,5.51,0,1,0-5.51-5.5A5.51,5.51,0,0,0,591.09,74.37Z"/><rect class="cls-25" x="354.84" y="288.61" width="66.48" height="53.64" rx="5.48"/><rect class="cls-18" x="354.84" y="227.9" width="85.18" height="5.94" rx="1.51"/><rect class="cls-18" x="354.84" y="216.81" width="85.18" height="5.94" rx="1.51"/><rect class="cls-18" x="354.84" y="205.73" width="85.18" height="5.94" rx="1.51"/><rect class="cls-26" x="354.84" y="183.97" width="85.18" height="15.18" rx="3.85"/><path class="cls-15" d="M45.84,420H641.55a4.12,4.12,0,0,0,4.11-4.11h0a4.12,4.12,0,0,0-4.11-4.11H45.84a4.12,4.12,0,0,0-4.11,4.11h0A4.12,4.12,0,0,0,45.84,420Z"/><path class="cls-5" d="M380,309.58a8.8,8.8,0,0,1,3.68-4.18,6.13,6.13,0,0,0,3-4,23.74,23.74,0,0,0,.57-6.22.8.8,0,0,1,.81-.8h2.38a2.14,2.14,0,0,1,.54.08,4.46,4.46,0,0,1,2.24,2.14,8.3,8.3,0,0,1,1.05,4.12,9.13,9.13,0,0,1-.44,2.83c-.64,2.07-.72,3.19-.48,3.75.13.32.5.39.92.39h6a7.27,7.27,0,0,1,1.87.24,4.19,4.19,0,0,1,2.12,1.24,4.05,4.05,0,0,1,.94,2.75,7.61,7.61,0,0,1-.25,1.84c.41,1,1.58,4.42-.7,6.51.09,1,.11,3.6-1.79,4.81a5.36,5.36,0,0,1-5.24,4H386.27c-2.18,0-4.37-1.51-5.73-2.68v.32a2.51,2.51,0,0,1-.74,1.77l-.05.05a2.51,2.51,0,0,1-1.72.69h-5a2.47,2.47,0,0,1-1.77-.74,2.51,2.51,0,0,1-.74-1.77v-15.7a2.55,2.55,0,0,1,.74-1.78l.05-.05a2.52,2.52,0,0,1,1.72-.68h5a2.54,2.54,0,0,1,1.77.73l.24.28Zm.5,14.68c.73.77,3.32,3.27,5.73,3.27h10.94a3.87,3.87,0,0,0,3.76-3.12.75.75,0,0,1,.42-.55c1.61-.81,1.27-3.37,1.21-3.73a.82.82,0,0,1,.31-.82c2-1.48.68-4.64.48-5.08a.75.75,0,0,1-.07-.59,6.46,6.46,0,0,0,.26-1.7,2.46,2.46,0,0,0-.54-1.69,2.64,2.64,0,0,0-1.32-.75,5.65,5.65,0,0,0-1.46-.17h-6a2.29,2.29,0,0,1-2.41-1.39c-.37-.89-.34-2.37.44-4.84a7.86,7.86,0,0,0,.37-2.36,6.82,6.82,0,0,0-.84-3.33,3,3,0,0,0-1.33-1.39h-1.64a23.23,23.23,0,0,1-.63,5.85,7.59,7.59,0,0,1-3.77,4.95c-3.11,1.68-3.86,5.94-3.94,6.51v10.94ZM378,310.18h-5a.91.91,0,0,0-.6.23l0,0a.89.89,0,0,0-.27.64v15.7a.89.89,0,0,0,.27.64.9.9,0,0,0,.63.26h5a.91.91,0,0,0,.6-.23l0,0a.93.93,0,0,0,.26-.64v-15.7a.93.93,0,0,0-.26-.64A.9.9,0,0,0,378,310.18Z"/><rect class="cls-18" x="354.84" y="348.19" width="158.36" height="5.94" rx="1.51"/><rect class="cls-18" x="354.84" y="358.63" width="158.36" height="5.94" rx="1.51"/><rect class="cls-18" x="428.01" y="336.31" width="85.18" height="5.94" rx="1.51"/><rect class="cls-18" x="428.01" y="325.23" width="85.18" height="5.94" rx="1.51"/><rect class="cls-18" x="428.01" y="314.14" width="85.18" height="5.94" rx="1.51"/><rect class="cls-27" x="428.01" y="288.61" width="85.18" height="19.43" rx="4.93"/><path class="cls-28" d="M356.91,126.07h0a1.36,1.36,0,0,1,1.36,1.36v20.41a1.36,1.36,0,0,1-1.36,1.36h0a1.36,1.36,0,0,1-1.35-1.36V127.43A1.36,1.36,0,0,1,356.91,126.07Z"/><path class="cls-28" d="M363.34,126.07h0a1.36,1.36,0,0,1,1.35,1.36v20.41a1.36,1.36,0,0,1-1.35,1.36h0a1.36,1.36,0,0,1-1.36-1.36V127.43A1.36,1.36,0,0,1,363.34,126.07Z"/><path class="cls-29" d="M369.76,126.07h0a1.35,1.35,0,0,1,1.35,1.35v20.42a1.35,1.35,0,0,1-1.35,1.35h0a1.36,1.36,0,0,1-1.36-1.36V127.43a1.36,1.36,0,0,1,1.36-1.36Z"/><path class="cls-29" d="M376.19,126.07h0a1.36,1.36,0,0,1,1.36,1.36v20.42a1.36,1.36,0,0,1-1.36,1.36h0a1.35,1.35,0,0,1-1.35-1.35V127.43A1.35,1.35,0,0,1,376.19,126.07Z"/><path class="cls-28" d="M382.61,126.07h0a1.36,1.36,0,0,1,1.36,1.36v20.41a1.36,1.36,0,0,1-1.36,1.36h0a1.36,1.36,0,0,1-1.35-1.36V127.43A1.36,1.36,0,0,1,382.61,126.07Z"/><rect class="cls-29" x="387.68" y="126.07" width="2.71" height="23.13" rx="1.35"/><path class="cls-28" d="M395.46,126.07h0a1.36,1.36,0,0,1,1.36,1.36v20.41a1.36,1.36,0,0,1-1.36,1.36h0a1.36,1.36,0,0,1-1.36-1.36V127.43A1.36,1.36,0,0,1,395.46,126.07Z"/><path class="cls-29" d="M401.88,126.07h0a1.35,1.35,0,0,1,1.35,1.35v20.42a1.35,1.35,0,0,1-1.35,1.35h0a1.36,1.36,0,0,1-1.36-1.36V127.43a1.36,1.36,0,0,1,1.36-1.36Z"/><path class="cls-28" d="M408.31,126.07h0a1.36,1.36,0,0,1,1.35,1.36v20.41a1.36,1.36,0,0,1-1.35,1.36h0a1.36,1.36,0,0,1-1.36-1.36V127.43A1.36,1.36,0,0,1,408.31,126.07Z"/><path class="cls-28" d="M414.73,126.07h0a1.36,1.36,0,0,1,1.36,1.36v20.41a1.36,1.36,0,0,1-1.36,1.36h0a1.36,1.36,0,0,1-1.35-1.36V127.43A1.36,1.36,0,0,1,414.73,126.07Z"/><path class="cls-28" d="M421.16,126.07h0a1.36,1.36,0,0,1,1.35,1.36v20.41a1.36,1.36,0,0,1-1.35,1.36h0a1.36,1.36,0,0,1-1.36-1.36V127.43A1.36,1.36,0,0,1,421.16,126.07Z"/><path class="cls-28" d="M427.58,126.07h0a1.36,1.36,0,0,1,1.36,1.36v20.41a1.36,1.36,0,0,1-1.36,1.36h0a1.35,1.35,0,0,1-1.35-1.36V127.43A1.35,1.35,0,0,1,427.58,126.07Z"/><path class="cls-28" d="M434,126.07h0a1.36,1.36,0,0,1,1.35,1.36v20.41A1.36,1.36,0,0,1,434,149.2h0a1.36,1.36,0,0,1-1.36-1.36V127.43A1.36,1.36,0,0,1,434,126.07Z"/><path class="cls-28" d="M440.43,126.07h0a1.37,1.37,0,0,1,1.36,1.36v20.41a1.37,1.37,0,0,1-1.36,1.36h0a1.36,1.36,0,0,1-1.36-1.36V127.43A1.36,1.36,0,0,1,440.43,126.07Z"/><path class="cls-28" d="M446.85,126.07h0a1.36,1.36,0,0,1,1.36,1.36v20.41a1.36,1.36,0,0,1-1.36,1.36h0a1.36,1.36,0,0,1-1.35-1.36V127.43A1.36,1.36,0,0,1,446.85,126.07Z"/><path class="cls-28" d="M453.28,126.07h0a1.36,1.36,0,0,1,1.35,1.36v20.41a1.36,1.36,0,0,1-1.35,1.36h0a1.36,1.36,0,0,1-1.36-1.36V127.43A1.36,1.36,0,0,1,453.28,126.07Z"/><path class="cls-28" d="M459.7,126.07h0a1.36,1.36,0,0,1,1.36,1.36v20.41a1.36,1.36,0,0,1-1.36,1.36h0a1.36,1.36,0,0,1-1.35-1.36V127.43A1.36,1.36,0,0,1,459.7,126.07Z"/><path class="cls-28" d="M466.13,126.07h0a1.36,1.36,0,0,1,1.35,1.36v20.41a1.36,1.36,0,0,1-1.35,1.36h0a1.36,1.36,0,0,1-1.36-1.36V127.43A1.36,1.36,0,0,1,466.13,126.07Z"/><path class="cls-28" d="M472.55,126.07h0a1.36,1.36,0,0,1,1.36,1.36v20.41a1.36,1.36,0,0,1-1.36,1.36h0a1.36,1.36,0,0,1-1.35-1.36V127.43A1.36,1.36,0,0,1,472.55,126.07Z"/><path class="cls-28" d="M479,126.07h0a1.36,1.36,0,0,1,1.36,1.36v20.41A1.36,1.36,0,0,1,479,149.2h0a1.36,1.36,0,0,1-1.35-1.36V127.43A1.36,1.36,0,0,1,479,126.07Z"/><path class="cls-28" d="M485.4,126.07h0a1.35,1.35,0,0,1,1.35,1.36v20.41a1.35,1.35,0,0,1-1.35,1.36h0a1.36,1.36,0,0,1-1.36-1.36V127.43A1.36,1.36,0,0,1,485.4,126.07Z"/><path class="cls-28" d="M491.82,126.07h0a1.36,1.36,0,0,1,1.36,1.36v20.41a1.36,1.36,0,0,1-1.36,1.36h0a1.36,1.36,0,0,1-1.35-1.36V127.43A1.36,1.36,0,0,1,491.82,126.07Z"/><path class="cls-28" d="M498.25,126.07h0a1.36,1.36,0,0,1,1.35,1.36v20.41a1.36,1.36,0,0,1-1.35,1.36h0a1.36,1.36,0,0,1-1.36-1.36V127.43A1.36,1.36,0,0,1,498.25,126.07Z"/><path class="cls-29" d="M504.67,126.07h0a1.35,1.35,0,0,1,1.35,1.35v20.42a1.35,1.35,0,0,1-1.35,1.35h0a1.36,1.36,0,0,1-1.36-1.36V127.43A1.35,1.35,0,0,1,504.67,126.07Z"/><path class="cls-29" d="M511.1,126.07h0a1.35,1.35,0,0,1,1.35,1.35v20.42a1.36,1.36,0,0,1-1.36,1.36h0a1.36,1.36,0,0,1-1.36-1.36V127.43A1.35,1.35,0,0,1,511.1,126.07Z"/><path class="cls-30" d="M112.55,280.07c16.09-8.55,20.17,10.05,13.91,25.45s-38.33,67.2-40,87.74c-.65,8-2.13,7.1-3.4,1.51C76.71,366.92,90.41,291.84,112.55,280.07Z"/><path class="cls-31" d="M78.5,209.51c-18.44-16.6-30,6.64-26.78,29.06S80.23,340,75.67,367.75c-1.76,10.74.48,10.08,4,3.12C97.24,336.14,103.89,232.37,78.5,209.51Z"/><path class="cls-7" d="M75.29,375.45c.39,1,1.27.52,2.44-1.2,19.22-64-10.72-159.67-10.81-160a1,1,0,0,0-1.91.59C65.1,215.17,95.45,312.13,75.29,375.45Z"/><path class="cls-8" d="M38.22,262.7C20.36,254.92,17.55,275.11,25.51,291S72,359.5,75.5,381.28c1.36,8.44,2.87,7.39,3.76,1.32C83.7,352.37,62.82,273.41,38.22,262.7Z"/><path class="cls-9" d="M77.13,387.11c.55.67,1.08.07,1.53-1.5C77,333.14,30.93,269.34,30.78,269.13a.78.78,0,1,0-1.27.92C29.65,270.25,76.39,334.92,77.13,387.11Z"/><polygon class="cls-32" points="63.38 375.49 97.71 375.49 106.67 383.58 99.35 411.78 80.55 411.78 61.74 411.78 54.42 383.58 63.38 375.49"/><rect class="cls-33" x="51.58" y="364.99" width="57.94" height="18.58" rx="2.84"/><polygon class="cls-14" points="106.67 383.58 105.17 389.37 55.93 389.37 54.42 383.58 106.67 383.58"/><path class="cls-2" d="M223.51,140.5a1.14,1.14,0,1,0-2.27,0v2.67h-2.67a1.14,1.14,0,0,0,0,2.27h2.67v2.66a1.14,1.14,0,1,0,2.27,0v-2.66h2.67a1.14,1.14,0,0,0,0-2.27h-2.67Z"/><path class="cls-16" d="M75.11,179.67a6.61,6.61,0,1,1-1.94,4.68,6.59,6.59,0,0,1,1.94-4.68Zm1.43-6.56A11.5,11.5,0,0,0,74,174.22a11.61,11.61,0,0,0-2.28,1.71.39.39,0,0,1-.48.06l-3.08-1.77h0a.73.73,0,0,0-.56-.07.74.74,0,0,0-.46.36v0l-2.16,3.74a.74.74,0,0,0-.08.58.73.73,0,0,0,.35.46l0,0,3,1.76a.42.42,0,0,1,.19.45h0a10.65,10.65,0,0,0-.26,1.39,11.2,11.2,0,0,0-.09,1.43,11,11,0,0,0,.09,1.42,10.49,10.49,0,0,0,.26,1.4.41.41,0,0,1-.22.46l-3,1.76h0a.78.78,0,0,0-.35.47.72.72,0,0,0,.08.57l2.17,3.77h0a.82.82,0,0,0,.46.36.74.74,0,0,0,.58-.08h0l3.06-1.76a.39.39,0,0,1,.48.06A12,12,0,0,0,74,194.48a11.65,11.65,0,0,0,2.61,1.11.41.41,0,0,1,.29.39v3.55a.76.76,0,0,0,.22.53.76.76,0,0,0,.54.23H82a.76.76,0,0,0,.54-.23.72.72,0,0,0,.22-.53V196a.43.43,0,0,1,.32-.4,11.4,11.4,0,0,0,2.59-1.1,12,12,0,0,0,2.27-1.71.41.41,0,0,1,.51-.05l3,1.76a.74.74,0,0,0,.58.08.79.79,0,0,0,.46-.36l0,0,2.16-3.75h0a.77.77,0,0,0,.07-.57.78.78,0,0,0-.35-.47l-3.07-1.77a.41.41,0,0,1-.19-.45h0a10.49,10.49,0,0,0,.25-1.4,11,11,0,0,0,.09-1.42,11.2,11.2,0,0,0-.09-1.43,10.63,10.63,0,0,0-.25-1.39.42.42,0,0,1,.21-.47l3.05-1.76a.73.73,0,0,0,.35-.46.79.79,0,0,0-.07-.58v0L92.5,174.5h0a.72.72,0,0,0-.46-.36.79.79,0,0,0-.58.07h0L88.39,176a.39.39,0,0,1-.49-.07,12.12,12.12,0,0,0-2.27-1.7A11.39,11.39,0,0,0,83,173.11a.41.41,0,0,1-.3-.39v-3.55a.76.76,0,0,0-.22-.54.8.8,0,0,0-.54-.22H77.61a.75.75,0,0,0-.76.76v3.55A.4.4,0,0,1,76.54,173.11Z"/><path class="cls-16" d="M130.38,162.42a15.55,15.55,0,0,1,22,0,15.58,15.58,0,1,1-22,22,15.58,15.58,0,0,1,0-22Zm5.61-2.06a14.2,14.2,0,0,0-4.59,3.08,13.91,13.91,0,0,0-3.07,4.59,14.14,14.14,0,1,0,26.14,0,13.91,13.91,0,0,0-3.07-4.59A14.15,14.15,0,0,0,136,160.36Zm-1.72-11.47a24.68,24.68,0,0,0-2.88,1,22.79,22.79,0,0,0-2.75,1.38A23.87,23.87,0,0,0,126,153a27.27,27.27,0,0,0-2.38,2,1.57,1.57,0,0,1-.93.45,1.66,1.66,0,0,1-1-.21c-2.29-1.32-4.69-2.63-6.94-4a1,1,0,0,0-.33-.1,1.29,1.29,0,0,0-.39,0,1,1,0,0,0-.35.17,1,1,0,0,0-.25.29c-1.67,2.52-3.34,5.79-4.89,8.46a1.27,1.27,0,0,0-.12.36.91.91,0,0,0,0,.4,1,1,0,0,0,.17.35,1,1,0,0,0,.29.25c2.06,1.36,4.71,2.72,6.89,4a1.62,1.62,0,0,1,.69.78,1.33,1.33,0,0,1,.1.34l.15,0-.16.65c-.13.5-.24,1-.33,1.51s-.17,1-.23,1.54-.11,1-.14,1.55-.05,1-.05,1.57,0,1.06.05,1.56.07,1,.14,1.56.14,1,.23,1.53.2,1,.33,1.52a1.66,1.66,0,0,1-.11,1.08,1.63,1.63,0,0,1-.73.76L109.65,185h0l-.72.42a1,1,0,0,0-.46.6.86.86,0,0,0,0,.39,1.09,1.09,0,0,0,.12.36l4.52,7.84h0l.36.63a1,1,0,0,0,.25.28,1.29,1.29,0,0,0,.35.18,1.35,1.35,0,0,0,.4,0,.93.93,0,0,0,.35-.13c2.19-1.37,4.66-2.68,6.92-4a1.63,1.63,0,0,1,1-.2,1.62,1.62,0,0,1,.94.44h0a25.73,25.73,0,0,0,2.38,2,26.43,26.43,0,0,0,2.59,1.72,27.72,27.72,0,0,0,2.78,1.39,25.34,25.34,0,0,0,2.93,1,1.61,1.61,0,0,1,.85.59,1.63,1.63,0,0,1,.33,1v8a1,1,0,0,0,.08.38,1.08,1.08,0,0,0,.22.32,1.21,1.21,0,0,0,.32.22,1.11,1.11,0,0,0,.37.07h9.78a1.11,1.11,0,0,0,.37-.07,1.12,1.12,0,0,0,.33-.22,1.26,1.26,0,0,0,.21-.32,1,1,0,0,0,.08-.38v-8a1.63,1.63,0,0,1,.35-1,1.7,1.7,0,0,1,.9-.58,24.63,24.63,0,0,0,2.88-1,27.32,27.32,0,0,0,2.76-1.38,26.43,26.43,0,0,0,2.59-1.72,25.73,25.73,0,0,0,2.38-2,1.7,1.7,0,0,1,1-.45,1.65,1.65,0,0,1,1,.27l6.82,3.93a1,1,0,0,0,.36.13,1.35,1.35,0,0,0,.4,0,1.29,1.29,0,0,0,.35-.18,1,1,0,0,0,.25-.28c1.62-2.83,3.27-5.64,4.89-8.47a1.09,1.09,0,0,0,.12-.36.86.86,0,0,0,0-.39.88.88,0,0,0-.17-.35.84.84,0,0,0-.28-.25l-6.9-4a1.6,1.6,0,0,1-.69-.77,1.14,1.14,0,0,1-.09-.26l-.18,0,.18-.73c.13-.51.24-1,.33-1.52s.17-1,.23-1.53.12-1,.15-1.56,0-1,0-1.56,0-1.07,0-1.57-.08-1-.14-1.55-.15-1-.24-1.54-.2-1-.33-1.51a1.65,1.65,0,0,1,.11-1.08,1.63,1.63,0,0,1,.73-.76l6.84-4a1,1,0,0,0,.28-.25.88.88,0,0,0,.17-.35.91.91,0,0,0,0-.4,1.27,1.27,0,0,0-.12-.36c-1.67-2.48-3.34-5.79-4.89-8.46a1,1,0,0,0-.25-.29,1,1,0,0,0-.35-.17.91.91,0,0,0-.4,0,1.27,1.27,0,0,0-.36.12l-6.9,4a1.68,1.68,0,0,1-1,.21,1.71,1.71,0,0,1-.93-.46,24.94,24.94,0,0,0-2.36-2,25.2,25.2,0,0,0-2.59-1.71,25.74,25.74,0,0,0-2.78-1.39,24,24,0,0,0-2.92-1,1.71,1.71,0,0,1-.86-.59,1.66,1.66,0,0,1-.33-1v-8a.92.92,0,0,0-.08-.38,1,1,0,0,0-.21-.32,1,1,0,0,0-.33-.22.9.9,0,0,0-.37-.07h-9.78a.9.9,0,0,0-.37.07,1.19,1.19,0,0,0-.33.22,1,1,0,0,0-.29.7v8a1.64,1.64,0,0,1-1.25,1.59Zm-3.44-.3a27.42,27.42,0,0,0-2.92,1.46,27.54,27.54,0,0,0-5.25,4,.22.22,0,0,1-.11.05.27.27,0,0,1-.12,0c-2.32-1.34-4.64-2.67-7-4a2.32,2.32,0,0,0-.87-.27,2.38,2.38,0,0,0-.92.07,2.41,2.41,0,0,0-.85.42,2.14,2.14,0,0,0-.62.71c-1.69,2.72-3.29,5.67-4.89,8.46a2.3,2.3,0,0,0-.31.9,2.52,2.52,0,0,0,.07.95,2.41,2.41,0,0,0,.42.85,2.28,2.28,0,0,0,.71.63c2.22,1.37,4.63,2.67,6.9,4a.24.24,0,0,1,.08.09.25.25,0,0,1,0,.12l-.16.65h0c-.07.31-.14.63-.2,1-.1.55-.18,1.1-.25,1.63s-.11,1.07-.14,1.64,0,1.11,0,1.65,0,1.09,0,1.65.08,1.11.14,1.64.15,1.07.25,1.62.22,1.09.35,1.6a.28.28,0,0,1,0,.13.2.2,0,0,1-.09.09c-2.54,1.36-5.11,3-7.62,4.4l.09.11-.07.09a2.38,2.38,0,0,0-.42.86,2.5,2.5,0,0,0-.07,1,2.31,2.31,0,0,0,.31.89l5.25,9.1.1-.06a1.07,1.07,0,0,0,.16.14,2.41,2.41,0,0,0,.85.42,2.52,2.52,0,0,0,.95.06,2.3,2.3,0,0,0,.87-.29c2.3-1.22,4.67-2.69,6.94-4a.2.2,0,0,1,.11,0,.26.26,0,0,1,.12.05,25.43,25.43,0,0,0,2.5,2.14,28.3,28.3,0,0,0,2.74,1.82,28.71,28.71,0,0,0,2.94,1.46,25.78,25.78,0,0,0,3.09,1.1.14.14,0,0,1,.1.07.15.15,0,0,1,0,.11v8a2.41,2.41,0,0,0,.19.93,2.24,2.24,0,0,0,.53.79,2.63,2.63,0,0,0,.78.53,2.44,2.44,0,0,0,.93.18h9.78a2.41,2.41,0,0,0,.93-.18,2.81,2.81,0,0,0,.79-.53,2.36,2.36,0,0,0,.52-.79,2.41,2.41,0,0,0,.19-.93v-8a.21.21,0,0,1,0-.12.17.17,0,0,1,.11-.06h0a27.18,27.18,0,0,0,3.07-1.1,25.59,25.59,0,0,0,2.92-1.45,28.3,28.3,0,0,0,2.74-1.82,27,27,0,0,0,2.51-2.14.2.2,0,0,1,.24,0l6.9,4a2.41,2.41,0,0,0,.89.3,2.52,2.52,0,0,0,1-.06,2.33,2.33,0,0,0,.85-.42,2.58,2.58,0,0,0,.62-.69c1.81-2.92,3.52-6.11,5.25-9.1l-.09-.06c0-.07,0-.15,0-.23a2.28,2.28,0,0,0-.07-.94,2.38,2.38,0,0,0-.42-.86,2.33,2.33,0,0,0-.7-.62l-6.91-4a.18.18,0,0,1-.07-.08.2.2,0,0,1,0-.13l.18-.73h0c.07-.28.12-.57.18-.87.1-.55.18-1.09.25-1.62s.11-1.08.14-1.64.06-1.12.06-1.65,0-1.09-.06-1.65-.08-1.11-.14-1.64-.15-1.07-.25-1.63-.22-1.08-.35-1.6a.21.21,0,0,1,0-.13.16.16,0,0,1,.08-.08l6.9-4a2.53,2.53,0,0,0,.71-.63,2.57,2.57,0,0,0,.41-.85,2.33,2.33,0,0,0,.07-.95,2.6,2.6,0,0,0-.29-.88c-1.65-3-3.53-6.11-5.27-9.12l-.1.06-.16-.13a2.33,2.33,0,0,0-.85-.42,2.52,2.52,0,0,0-1-.07,2.41,2.41,0,0,0-.89.3l-.51.3h0l-6.4,3.69a.19.19,0,0,1-.13,0,.17.17,0,0,1-.1-.06h0a27.31,27.31,0,0,0-5.23-3.94,25.12,25.12,0,0,0-2.94-1.46,25.78,25.78,0,0,0-3.09-1.1.18.18,0,0,1-.1-.07.19.19,0,0,1,0-.12v-8a2.41,2.41,0,0,0-.19-.93,2.24,2.24,0,0,0-.53-.79,2.3,2.3,0,0,0-.78-.53,2.41,2.41,0,0,0-.93-.19h-9.78a2.46,2.46,0,0,0-1.72.72,2.43,2.43,0,0,0-.71,1.72v8a.21.21,0,0,1,0,.12.14.14,0,0,1-.11.07h0A27.15,27.15,0,0,0,130.83,148.59Z"/><path class="cls-2" d="M309.3,9.44a1.14,1.14,0,0,0-2.27,0v2.67h-2.67a1.14,1.14,0,1,0,0,2.27H307v2.67a1.14,1.14,0,0,0,2.27,0V14.38H312a1.14,1.14,0,1,0,0-2.27H309.3Z"/><path class="cls-2" d="M656.2,26.15a1.14,1.14,0,1,0-2.27,0v2.67h-2.66a1.14,1.14,0,1,0,0,2.27h2.66v2.66a1.14,1.14,0,1,0,2.27,0V31.09h2.67a1.14,1.14,0,1,0,0-2.27H656.2Z"/><path class="cls-2" d="M675.48,149.49a1.14,1.14,0,0,0-2.27,0v2.67h-2.67a1.14,1.14,0,1,0,0,2.27h2.67v2.67a1.14,1.14,0,0,0,2.27,0v-2.67h2.66a1.14,1.14,0,1,0,0-2.27h-2.66Z"/><path class="cls-2" d="M674.19,333.22a1.14,1.14,0,0,0-2.27,0v2.67h-2.67a1.14,1.14,0,0,0,0,2.27h2.67v2.67a1.14,1.14,0,1,0,2.27,0v-2.67h2.67a1.14,1.14,0,0,0,0-2.27h-2.67Z"/><path class="cls-2" d="M141,385.9a1.14,1.14,0,0,0-2.27,0v2.67H136a1.14,1.14,0,0,0,0,2.27h2.67v2.67a1.14,1.14,0,0,0,2.27,0v-2.67h2.67a1.14,1.14,0,0,0,0-2.27H141Z"/><path class="cls-2" d="M18.92,362.78a1.14,1.14,0,1,0-2.27,0v2.67H14a1.13,1.13,0,0,0,0,2.26h2.67v2.67a1.14,1.14,0,1,0,2.27,0v-2.67h2.67a1.13,1.13,0,1,0,0-2.26H18.92Z"/><path class="cls-2" d="M121.71,248.43a1.14,1.14,0,1,0-2.27,0v2.66h-2.67a1.14,1.14,0,0,0,0,2.27h2.67V256a1.14,1.14,0,1,0,2.27,0v-2.67h2.67a1.14,1.14,0,0,0,0-2.27h-2.67Z"/><path class="cls-2" d="M6.07,238.15a1.14,1.14,0,1,0-2.27,0v2.67H1.13a1.13,1.13,0,0,0,0,2.26H3.8v2.67a1.14,1.14,0,1,0,2.27,0v-2.67H8.74a1.13,1.13,0,1,0,0-2.26H6.07Z"/><path class="cls-16" d="M255.45,42.86a6.61,6.61,0,1,1-1.94,4.68,6.59,6.59,0,0,1,1.94-4.68Zm1.43-6.56a11.5,11.5,0,0,0-2.59,1.11A11.23,11.23,0,0,0,252,39.12a.39.39,0,0,1-.48.06l-3.08-1.77,0,0a.77.77,0,0,0-.56-.06.76.76,0,0,0-.46.35v0l-2.17,3.74a.79.79,0,0,0-.07.58.73.73,0,0,0,.35.46l0,0,3,1.76a.4.4,0,0,1,.2.44h0a10.8,10.8,0,0,0-.26,1.4,11.2,11.2,0,0,0-.09,1.43,11,11,0,0,0,.09,1.42,10.49,10.49,0,0,0,.26,1.4.41.41,0,0,1-.22.46l-3.05,1.76h0a.78.78,0,0,0-.35.47.76.76,0,0,0,.07.57l2.18,3.77h0a.82.82,0,0,0,.46.36.74.74,0,0,0,.58-.08h0l3.06-1.76A.38.38,0,0,1,252,56a12.28,12.28,0,0,0,2.27,1.71,12.06,12.06,0,0,0,2.61,1.11.41.41,0,0,1,.3.39v3.55a.77.77,0,0,0,.22.53.76.76,0,0,0,.54.23h4.35a.76.76,0,0,0,.54-.23.73.73,0,0,0,.22-.53V59.17a.43.43,0,0,1,.32-.4,11.4,11.4,0,0,0,2.59-1.1A12,12,0,0,0,268.24,56a.41.41,0,0,1,.51-.05l3.05,1.76a.74.74,0,0,0,.58.08.79.79,0,0,0,.46-.36l0,0L275,53.62h0a.77.77,0,0,0-.28-1l-3.07-1.77a.41.41,0,0,1-.19-.45h0a10.49,10.49,0,0,0,.25-1.4,11,11,0,0,0,.09-1.42,11.2,11.2,0,0,0-.09-1.43,10.78,10.78,0,0,0-.25-1.4.4.4,0,0,1,.21-.46l3.05-1.76a.73.73,0,0,0,.35-.46.79.79,0,0,0-.07-.58v0l-2.17-3.75h0a.73.73,0,0,0-.46-.35.79.79,0,0,0-.58.07h0l-3.07,1.77a.41.41,0,0,1-.5-.07,11.73,11.73,0,0,0-2.26-1.7,11.39,11.39,0,0,0-2.61-1.11.41.41,0,0,1-.3-.39V32.36a.76.76,0,0,0-.22-.54.8.8,0,0,0-.54-.22H258a.75.75,0,0,0-.76.76v3.55A.4.4,0,0,1,256.88,36.3Z"/><path class="cls-16" d="M616.49,120a6.61,6.61,0,1,1-1.94,4.68,6.59,6.59,0,0,1,1.94-4.68Zm1.43-6.56a11.5,11.5,0,0,0-2.59,1.11,11.61,11.61,0,0,0-2.28,1.71.39.39,0,0,1-.48.06l-3.08-1.77h0a.73.73,0,0,0-.56-.07.79.79,0,0,0-.46.35v0l-2.16,3.74a.74.74,0,0,0-.08.58.72.72,0,0,0,.36.46l0,0,3,1.76a.39.39,0,0,1,.2.44h0a12.63,12.63,0,0,0-.26,1.39,11.2,11.2,0,0,0-.09,1.43,11,11,0,0,0,.09,1.42,12.38,12.38,0,0,0,.26,1.4.41.41,0,0,1-.22.46l-3.05,1.76h0a.76.76,0,0,0-.36.47.72.72,0,0,0,.08.57l2.17,3.77h0a.81.81,0,0,0,.46.36.74.74,0,0,0,.58-.08h0l3.06-1.76a.38.38,0,0,1,.48.06,11.81,11.81,0,0,0,4.89,2.82.41.41,0,0,1,.29.39v3.55a.77.77,0,0,0,.22.53.76.76,0,0,0,.54.23h4.35a.76.76,0,0,0,.54-.23.73.73,0,0,0,.22-.53v-3.55a.43.43,0,0,1,.32-.4,11.4,11.4,0,0,0,2.59-1.1,11.92,11.92,0,0,0,2.28-1.71.39.39,0,0,1,.5-.05l3.05,1.76a.75.75,0,0,0,1-.28l0,0,2.16-3.75h0a.76.76,0,0,0,.07-.57.78.78,0,0,0-.35-.47l-3.07-1.77a.41.41,0,0,1-.19-.45h0a10.49,10.49,0,0,0,.25-1.4,11,11,0,0,0,.09-1.42,11.2,11.2,0,0,0-.09-1.43,10.63,10.63,0,0,0-.25-1.39.42.42,0,0,1,.21-.47l3-1.76a.73.73,0,0,0,.35-.46.79.79,0,0,0-.07-.58v0l-2.17-3.75h0a.73.73,0,0,0-.46-.35.74.74,0,0,0-.58.08h0l-3.07,1.77a.39.39,0,0,1-.49-.07,12.12,12.12,0,0,0-2.27-1.7,11.39,11.39,0,0,0-2.61-1.11.41.41,0,0,1-.3-.39v-3.55a.76.76,0,0,0-.22-.54.8.8,0,0,0-.54-.22H619a.75.75,0,0,0-.76.76V113A.4.4,0,0,1,617.92,113.39Z"/><path class="cls-16" d="M466.48,11.26a6.64,6.64,0,1,1-1.93,4.68,6.61,6.61,0,0,1,1.93-4.68Zm1.43-6.56A11.91,11.91,0,0,0,463,7.52a.39.39,0,0,1-.48.06l-3.07-1.77h0a.74.74,0,0,0-.56-.07.72.72,0,0,0-.46.36l0,0-2.16,3.74a.79.79,0,0,0-.07.58.73.73,0,0,0,.35.46l0,0,3.05,1.76a.4.4,0,0,1,.19.45h0a10.63,10.63,0,0,0-.25,1.39,11.32,11.32,0,0,0-.09,1.43,11,11,0,0,0,.09,1.42,10.49,10.49,0,0,0,.25,1.4.4.4,0,0,1-.21.46L456.55,21h0a.78.78,0,0,0-.35.47.79.79,0,0,0,.07.58l2.18,3.76h0a.75.75,0,0,0,1,.28h0l3.05-1.76a.39.39,0,0,1,.48.06,11.81,11.81,0,0,0,4.89,2.82.41.41,0,0,1,.3.39v3.55a.72.72,0,0,0,.22.53.76.76,0,0,0,.54.23h4.35a.79.79,0,0,0,.76-.76V27.57a.42.42,0,0,1,.31-.4,11,11,0,0,0,2.59-1.1,11.61,11.61,0,0,0,2.28-1.71.4.4,0,0,1,.5-.05l3.06,1.76a.73.73,0,0,0,.57.08.8.8,0,0,0,.47-.36v0L486.06,22h0a.72.72,0,0,0,.08-.57.78.78,0,0,0-.35-.47l-3.07-1.77a.4.4,0,0,1-.2-.45h0a12.38,12.38,0,0,0,.26-1.4,11,11,0,0,0,.09-1.42,11.32,11.32,0,0,0-.09-1.43,12.63,12.63,0,0,0-.26-1.39.41.41,0,0,1,.22-.46l3-1.77a.73.73,0,0,0,.35-.46.74.74,0,0,0-.08-.58v0l-2.16-3.74h0a.76.76,0,0,0-.47-.36.73.73,0,0,0-.57.08h0l-3.08,1.77a.4.4,0,0,1-.49-.07A11.5,11.5,0,0,0,477,5.81a11.21,11.21,0,0,0-2.61-1.11.42.42,0,0,1-.29-.39V.76a.76.76,0,0,0-.23-.54.76.76,0,0,0-.53-.22H469a.8.8,0,0,0-.54.22.76.76,0,0,0-.22.54V4.31A.41.41,0,0,1,467.91,4.7Z"/><path class="cls-17" d="M623.86,403.55s-1.2-2.1-3-1.16-2.08.83-3.75-.28-5.14.17-5.14.17-10.12,3.49-11.43,4.05-2.34,1.6-2.34,4.66l1.41,1.49H623.5s1.19-1.05,1.25-1.94S624.8,404.88,623.86,403.55Z"/><rect class="cls-13" x="597.34" y="410.6" width="28.21" height="2.88" rx="0.83"/><path class="cls-17" d="M565.23,403s-1.26-2.23-3.13-1.23-2.19.88-4-.29-5.42.17-5.42.17-10.67,3.69-12,4.27-2.47,1.7-2.47,4.91l1.48,1.58h25.15s1.26-1.11,1.32-2.05S566.22,404.42,565.23,403Z"/><rect class="cls-13" x="537.29" y="410.44" width="29.73" height="3.04" rx="0.88"/><path class="cls-34" d="M516.42,170.28a7.11,7.11,0,0,1-1.83-4.72,16.41,16.41,0,0,0-.34-5.88c-.77-2.65-1.63-1.78-1.88-.19a23.65,23.65,0,0,1-1,3.61s-4.05-3.37-5.59-4.91-3.18-1.4-3.08-.15.58,1.26.09,1.45a1,1,0,0,0-.72,1.35l.19.87s-1.06.14-1.1,1a3.86,3.86,0,0,0,.67,1.88s-1.2.63-1,1.2a22.56,22.56,0,0,0,5,5c2,1.31,5.2,2.9,6.16,4.15S516.42,170.28,516.42,170.28Z"/><path class="cls-15" d="M578.13,241.93c-1.92-.48-3.68-1-4.31,1.42A406.24,406.24,0,0,0,561,317.07c-.7,10.65,8.41,13.2,12,11.31,10.66-5.68,32.08-73.08,32.14-73.46C606.64,244.19,578.13,241.93,578.13,241.93Z"/><path class="cls-35" d="M586,246c-2,.13-3.8.2-3.65,2.69a406.07,406.07,0,0,0,10.77,74.05c2.65,10.34,12.1,9.92,14.89,7,8.36-8.71,7.72-79.43,7.65-79.82C613.78,239.25,586,246,586,246Z"/><path class="cls-15" d="M560.3,322.74c-.61,18.17.34,57.35-4.83,79.2,1.56,1.9,6.56,3.29,8.77,1.31,1.94-1.75,12.16-51.83,14.16-79.69,0,0,.67-9.94-3-13.42S561,307,560.3,322.74Z"/><path class="cls-35" d="M594.22,328.33c4.83,16.55,16.88,50.65,19.72,73.2.84,6.69,8.46,2,8.69,1.63,1.3-2.27-4.17-52.6-11-79.69,0,0-2.46-9.66-7-11.82S590,313.17,594.22,328.33Z"/><path class="cls-20" d="M615.8,250.76c-6.13,14.63-41.74,12.7-44.84,6.64h0c-1-2-.44-5,0-7.74,6-34.53-8.86-76.47,15.28-88.37l3.31-1.63a7.59,7.59,0,0,0-.53-4.12c2.72-.47,5.07,3.4,8,3.52L599.8,158c19.45,10.27,9.15,37.24,12.17,61.91C613.28,230.61,618.59,244.12,615.8,250.76Z"/><path class="cls-20" d="M591.79,192.49c-16.14,3.79-35,8.82-38.6,8-4.65-1-36.76-18-42.48-25.23-.09-.11,3.68-4.86,4.18-5.5,1-1.23.23-2,1.09-.67s31.53,12.42,37.38,15.21,27.56-11.13,31.78-12.74C604.66,164.11,615.68,186.88,591.79,192.49Z"/><path class="cls-34" d="M565.35,127.35l-1.16,7s5.72,17.56,8.64,20.54,5.32,4,9.43,2.44,2.83-8.27,2.81-10.3S579.16,127.36,565.35,127.35Z"/><path class="cls-34" d="M581.19,148.65l-4,2.48s6.94,13,7.79,13.36,15-6.13,13.65-7.93-3.07-3.27-4.08-5.32-2-4.91-2-4.91Z"/><path class="cls-5" d="M583.58,162.56a2,2,0,0,0-.42,1.48c.13.51.41,1.89.58,2.77.09.44.15.76.15.76s1.16.93,5-1,10.69-6.32,11.08-7.07-1.52-3.93-1.52-3.93S588.86,161,583.58,162.56Z"/><path class="cls-36" d="M564.19,134.34s1.86-4.21,5.09-1.23,2.32,9.07,2.74,9.77.78-4,3.14-3.81,1.29,6.14,1,8.37,3.11,4.48,5.5,5.77,11.79-.88,12.88-2,4.79-17,.5-27.86-15.57-11.51-22.33-6.86c-6,4.1-6.14-1.44-10.89,3.23C557.69,123.79,560.87,132,564.19,134.34Z"/><path class="cls-36" d="M564.27,133.16a.24.24,0,0,1,.14.3.23.23,0,0,1-.29.13s-6.25-2.22-5.67-10.35a.23.23,0,0,1,.24-.21.23.23,0,0,1,.21.25C558.35,131.05,564.25,133.16,564.27,133.16Z"/><path class="cls-36" d="M577.93,116.2a.23.23,0,0,1,.33,0,.22.22,0,0,1,0,.32s-4.57,4.8-11.76,1a.22.22,0,0,1-.09-.3.22.22,0,0,1,.31-.1C573.6,120.75,577.92,116.21,577.93,116.2Z"/><path class="cls-34" d="M564.32,131.41s-.32,7.18-.26,8.5,1.18,2.23,1.47,4.06-.13,5.64,0,6.59,2.24.43,2.8.94c.07.06,4.65,5.92,4.7,6,1.66,4,5.64.86,7.8-.36l-6.3-7.55-5.56-21.84C566.67,128.61,564.86,129.78,564.32,131.41Z"/><path class="cls-37" d="M319.77,259c.15,3.7.54,4.94,2.08,6.38,2.13,2-1,3.85-.64,6,.15.84,1.27.11,2-.48s-.84,1.83.21,1.44a5.58,5.58,0,0,0,1.87-1.41s-.34,1.83.35,1.59c3.25-1.16,2-9.61.58-11.66-.11-.19-3.76-4.87-5.59-6.06-1.1-.71-.78,1.79-.78,1.79Z"/><path class="cls-38" d="M320.52,252.34c5.53,7.31,6.92,6.52,6.71,11.67,0,1.34,0,2.29,0,3,.08,3.16-2.71.93-2.54-3.37a7.4,7.4,0,0,1-3.57-6c-.19-4.24-.58-5.23-.58-5.23Z"/><path class="cls-39" d="M381.17,147.84a22.53,22.53,0,1,0,9.2,14.57,22.4,22.4,0,0,0-9.2-14.57Z"/><path class="cls-20" d="M371.77,159.49l8.31,0a1.24,1.24,0,0,1,.74,2.25l-6.75,4.88,2.58,7.89a1.23,1.23,0,0,1-.42,1.39,1.29,1.29,0,0,1-1.48,0l-6.7-4.91-6.73,4.91a1.29,1.29,0,0,1-1.48,0,1.23,1.23,0,0,1-.42-1.39l2.58-7.89-6.76-4.88a1.32,1.32,0,0,1-.45-1.4,1.25,1.25,0,0,1,1.19-.85l8.32,0,2.56-7.92a1.24,1.24,0,0,1,2.35,0Z"/><path class="cls-40" d="M351.82,179.85h34.29a22.5,22.5,0,0,1-30.89,4.77,23.27,23.27,0,0,1-4.75-4.53,4,4,0,0,1,1.35-.24Z"/><path class="cls-36" d="M307.71,163.34a12.31,12.31,0,0,0,2,14.42c10.75,11.72,13.86,32-5.7,27s-16.94-24.89-15.2-28.16.49-15.54,4.58-16.19,14.32,3,14.32,3Z"/><path class="cls-36" d="M261.27,398.72l-1,.89s1.27,10.31.53,14.14h2.15l1.57-11Z"/><path class="cls-36" d="M218.68,392.58l-1,1.26s1.27,14.51.54,19.91h2.13l1.57-15.48Z"/><path class="cls-37" d="M285,289.79s-13.37,30.51-15.67,34.79-22.59,35-29.52,50.13-7.26,14.92-7.18,19.13a63.86,63.86,0,0,0,1.74,10.86c.07.49,1,5.42.33,5.59s-6.6-5.89-6.6-5.89-3.14-4.1-3.72-5.16-4.07-3.81-4.07-3.81l-2.6-5.78A15.84,15.84,0,0,0,225.5,383c3.05-5.12,25.41-58.56,27.9-62.35S263.87,305.7,266.26,301s2.06-21.21,2.06-21.21Z"/><path class="cls-38" d="M278.55,283.19s-3.63,28.53-4,31.67-5.77,69.91-5.1,73.54,5.61,15.74,8.82,18.8-1.66,3.71-2.8,3.78-13.78-13.42-14.27-14.1a2.68,2.68,0,0,1-.5-1.47s2.22-7.84,2.15-9.15-3.29-52.1-2.64-57.23,1.65-14,1.82-16.65-1.33-34.63-1-36.61,17.49,7.42,17.49,7.42Z"/><path class="cls-35" d="M296,222.56l-3.06,8.07s1.08,3,.41,9.24-4.77,43-2.47,62.82c0,0-29,14.51-56.73-11.71,0,0,9.58-11.55,13.52-26.54s15-43.21,26.72-47.25S296,222.56,296,222.56Z"/><path class="cls-41" d="M298.42,184.21s-5.25,5.44-6.17,11,5.09,35.69,5.33,37.41,20.6,28.57,20.6,28.57l4.45-6.79s-16.51-23.2-17.12-26.36.26-23.69.26-23.69L305,190.13Z"/><path class="cls-42" d="M297.34,158.87l1.1,6.85s-4.34,6.6-2.58,12-10.85-3.07-14.3-7-2-5.93-2-5.93,6-5.23,7.42-10.9,10.4,5,10.4,5Z"/><path class="cls-37" d="M301.34,175.63c-.08-.66-.15-4.87-.15-4.87s.65-4.61,2.63-5.44-5.23-4.61-5.23-4.61-7.22-1.31-8-.36-1.74,5.5-1.74,5.5.67,7.33,1.83,7.48,10.68,2.3,10.68,2.3Z"/><path class="cls-38" d="M308.44,136.83c1.37,1,3.2,2.21,3.83,5.23.7,3.41.06,8.79.7,11.2.88,3.31,1.79,3.8,1.6,4.45s-1.1.47-2.13,1.07c-.58.36-.59,1.87-.78,2.51-.81,2.61.26,5.94-6.92,5.14a27,27,0,0,1-14.17-6.08c-3.87-3.18-4.66-14-1.39-17s10.51-11.35,19.26-6.51Z"/><path class="cls-24" d="M288.83,165.85s-13.24,10-15,18.69,3.54,23.58-3.21,33.47a9.52,9.52,0,0,0-1.41,2c0,.42,11,15.26,24.33,14.44a1.32,1.32,0,0,0,.52-.88c.06-.53,9-19.07,11.63-22.38s4.86-8.42,5.2-11-7.45-14.31-8.28-17.79a111.29,111.29,0,0,1-1.44-11.57,15.29,15.29,0,0,1-12.36-4.91Z"/><path class="cls-5" d="M301.19,170.76a14.71,14.71,0,0,1-9.93-2.82,10.57,10.57,0,0,1-1.63.28c-.5-.05-7.17,5.06,3.34,7.9,6.95,1.87,8.19,2.36,8.75,1.13Z"/><path class="cls-41" d="M311,221.62s-15.38-30.35-17.57-34.22-7.87-5.32-10.83-3.36-1.29,11.7,3.95,19.42,18.86,24.65,20.26,25.21,3.48.18,4.12-1,.73-4.94.07-6.06Z"/><path class="cls-43" d="M358,185.68l-10.29,19a1.46,1.46,0,1,0,2.56,1.4l10.38-19.2a8.87,8.87,0,0,1-2.65-1.24Z"/><path class="cls-41" d="M340.25,201.2c-6.72,4-30.69,17.93-32.48,19.05-2.08,1.29-4.4,5.76-1.25,8.19s9-.73,11.81-2.84C320.8,223.79,337,210,341.82,206a6.51,6.51,0,0,1-1.57-4.77Z"/><path class="cls-38" d="M357.41,196.08a13.91,13.91,0,0,0-1.61-3.8c-.52-.65-1.08-1.62-3.29-1.3s-2.79.33-3.74.93-5.94,7.52-6.8,8.23c-.12.09-.73.46-1.72,1.06a6.51,6.51,0,0,0,1.57,4.77c.76-.63,1.25-1,1.32-1.1.64-.45,4.17-.66,4.86-1s2.25-3.57,2.94-4,2.22.72,2.06,1.25a3.36,3.36,0,0,0,1.29-.84,4.32,4.32,0,0,0,.37-1.26,3.47,3.47,0,0,0,1.12-.39,2.73,2.73,0,0,0,.32-.93,3.9,3.9,0,0,0,1.31-1.63Z"/><path class="cls-36" d="M312.26,141.91s2.93-8.3-1.18-11.32c-4.53-3.33-23.13-9.84-23.67,1,0,0-6-.11-7.67,4.81s1,10.43-6.54,15.11-20,17-14.77,29.76,21.71,16.25,31.61,9,8.16-13.61,7.8-17.39,2.84-7.31,6.43-10,4.08-6.34,1.63-9.94,1.36-9.58,6.36-11Z"/><path class="cls-44" d="M234.35,404.7a10.61,10.61,0,0,1,2.15.6c.73.35,5.14,4.13,5.64,4.52s1.93,3.93-1.9,3.93h-6.92c-1.4,0-5.57-5.27-7.09-7.39s-8.82-11.35-9.23-12-1.05-4.9.69-4.75c0,0,13.18,16.38,13.46,16.69a3.7,3.7,0,0,0,2,.88c1.21.25,1.18-1,1.18-2.52Z"/><path class="cls-44" d="M277.57,406.42a9.34,9.34,0,0,1,2.17.15c.73.2,5.14,3.1,5.65,3.38s2,3.8-1.91,3.8h-9.35c-1.9,0-3.14-2.23-4.65-4s-8.83-9.57-9.24-10.1-1.05-4.69.69-4.89c0,0,13.18,13.74,13.46,14a3.08,3.08,0,0,0,2,.47c1.22,0,1.16-1.22,1.16-2.75Z"/><path class="cls-45" d="M382.35,146.18a24.55,24.55,0,1,0,10,15.89,24.43,24.43,0,0,0-10-15.89Zm-17.78-1a21.36,21.36,0,1,1-13.84,8.73,21.25,21.25,0,0,1,13.84-8.73Z"/></g></g></svg>