<svg xmlns="http://www.w3.org/2000/svg" width="261.759" height="34.323" viewBox="0 0 261.759 34.323">
  <g id="Group_42" data-name="Group 42" transform="translate(762 3927.816)">
    <g id="Group_41" data-name="Group 41" transform="translate(-762 -3927.816)">
      <g id="Group_37" data-name="Group 37">
        <path id="Path_27" data-name="Path 27" d="M55.688,137.764a16.9,16.9,0,0,1,5.625.857,13.941,13.941,0,0,1,4.052,2.146,9.284,9.284,0,0,1,2.455,2.836,7.317,7.317,0,0,1,.93,2.931,1.053,1.053,0,0,1-.359.93,1.363,1.363,0,0,1-.929.358H64.127a1.979,1.979,0,0,1-1.216-.31,3.207,3.207,0,0,1-.74-.834A6.2,6.2,0,0,0,60,144.605a8.462,8.462,0,0,0-4.314-.882,10.385,10.385,0,0,0-2.36.262,6.791,6.791,0,0,0-1.954.763,4.052,4.052,0,0,0-1.311,1.216,2.855,2.855,0,0,0-.477,1.621,3.207,3.207,0,0,0,.453,1.789,3.559,3.559,0,0,0,1.526,1.192,15.6,15.6,0,0,0,2.837.93q1.764.428,4.385,1a31.02,31.02,0,0,1,4.934,1.455,11.476,11.476,0,0,1,3.385,2,7.476,7.476,0,0,1,1.954,2.694,8.887,8.887,0,0,1,.643,3.48,8.516,8.516,0,0,1-.953,3.981,9.174,9.174,0,0,1-2.717,3.146,13.74,13.74,0,0,1-4.339,2.074,20.29,20.29,0,0,1-5.768.763,19.864,19.864,0,0,1-5.1-.643,14.938,14.938,0,0,1-4.314-1.859,10.262,10.262,0,0,1-3.026-2.931A7.709,7.709,0,0,1,42.2,162.84a1.054,1.054,0,0,1,.358-.93,1.362,1.362,0,0,1,.93-.358h3.337a2.24,2.24,0,0,1,1.239.287,2.167,2.167,0,0,1,.715.858,9,9,0,0,0,.81,1.24,4.423,4.423,0,0,0,1.287,1.1,7.788,7.788,0,0,0,2.026.786,12.474,12.474,0,0,0,3.028.309,17.272,17.272,0,0,0,2.765-.214,8.034,8.034,0,0,0,2.336-.715,4.976,4.976,0,0,0,1.622-1.239,2.763,2.763,0,0,0,.619-1.835,2.326,2.326,0,0,0-.666-1.717,5.365,5.365,0,0,0-2.026-1.144,28.362,28.362,0,0,0-3.361-.905q-2-.43-4.624-1.1a24.838,24.838,0,0,1-4.172-1.358,9.822,9.822,0,0,1-2.955-1.931,7.208,7.208,0,0,1-1.741-2.693,10.681,10.681,0,0,1-.571-3.7,8.359,8.359,0,0,1,.953-3.956,9.431,9.431,0,0,1,2.622-3.1,12.837,12.837,0,0,1,3.98-2.026A16.292,16.292,0,0,1,55.688,137.764Z" transform="translate(-42.192 -137.764)" fill="#549f8d"/>
        <path id="Path_28" data-name="Path 28" d="M140,138.9a1.3,1.3,0,0,1,1.286,1.288v30.8A1.3,1.3,0,0,1,140,172.272h-3.861a1.3,1.3,0,0,1-1.288-1.287V158.4h-14.4v12.586a1.3,1.3,0,0,1-1.287,1.287H115.3a1.278,1.278,0,0,1-.905-.357,1.215,1.215,0,0,1-.382-.929v-30.8A1.3,1.3,0,0,1,115.3,138.9h3.862a1.3,1.3,0,0,1,1.287,1.288V152.44h14.4V140.189a1.3,1.3,0,0,1,1.288-1.288Z" transform="translate(-83.931 -138.425)" fill="#549f8d"/>
        <path id="Path_29" data-name="Path 29" d="M341.719,138.9a1.3,1.3,0,0,1,1.287,1.288v3.385a1.3,1.3,0,0,1-1.287,1.286h-8.581v26.125a1.3,1.3,0,0,1-1.287,1.287h-3.862a1.3,1.3,0,0,1-1.287-1.287V144.86h-8.581a1.3,1.3,0,0,1-1.286-1.286v-3.385a1.3,1.3,0,0,1,1.286-1.288Z" transform="translate(-199.281 -138.425)" fill="#549f8d"/>
        <path id="Path_30" data-name="Path 30" d="M385.152,172.272a1.3,1.3,0,0,1-1.286-1.287v-30.8a1.3,1.3,0,0,1,1.286-1.288h14.064a12.367,12.367,0,0,1,5.1.929,9.609,9.609,0,0,1,3.289,2.337,8.8,8.8,0,0,1,1.787,3.051,9.746,9.746,0,0,1,.548,3.074,7.922,7.922,0,0,1-.381,2.551,7.628,7.628,0,0,1-.93,1.907,8.679,8.679,0,0,1-1.1,1.311,5.055,5.055,0,0,1-.882.715,10.363,10.363,0,0,1,2.718,2.837,8.142,8.142,0,0,1,1.239,4.647,10.221,10.221,0,0,1-.668,3.6,10.029,10.029,0,0,1-1.954,3.219,9.668,9.668,0,0,1-3.218,2.311,10.623,10.623,0,0,1-4.458.882Zm18.354-23.741a3.325,3.325,0,0,0-1.144-2.741,5.729,5.729,0,0,0-3.624-.93H390.3V152.2h8.437a5.73,5.73,0,0,0,3.624-.929A3.324,3.324,0,0,0,403.506,148.531Zm-13.2,17.781h8.819a5.536,5.536,0,0,0,3.838-1.12,4.115,4.115,0,0,0-.047-5.887,5.488,5.488,0,0,0-3.79-1.144H390.3Z" transform="translate(-238.234 -138.425)" fill="#549f8d"/>
        <path id="Path_31" data-name="Path 31" d="M452.246,150.683a16.83,16.83,0,0,1,1.025-5.029,11.475,11.475,0,0,1,2.6-4.1,12.366,12.366,0,0,1,4.291-2.766,16.474,16.474,0,0,1,6.1-1.025,16.658,16.658,0,0,1,6.054,1,11.924,11.924,0,0,1,4.29,2.764,12.08,12.08,0,0,1,2.622,4.1,16.218,16.218,0,0,1,1.049,5.053q.048.906.072,2t.023,2.264q0,1.17-.023,2.265t-.072,2a16.852,16.852,0,0,1-1.025,5.029,11.5,11.5,0,0,1-2.6,4.1,12.049,12.049,0,0,1-4.314,2.742,19.039,19.039,0,0,1-12.18,0,12.078,12.078,0,0,1-4.291-2.742,11.484,11.484,0,0,1-2.6-4.1,16.825,16.825,0,0,1-1.025-5.029q-.048-.9-.072-2t-.023-2.265q0-1.168.023-2.264T452.246,150.683Zm21.595.239a7.58,7.58,0,0,0-15.159,0q-.1,1.813-.095,4.028t.095,4.028a7.414,7.414,0,0,0,2.216,5.293,8.671,8.671,0,0,0,10.727,0,7.417,7.417,0,0,0,2.216-5.293q.095-1.811.1-4.028T473.841,150.921Z" transform="translate(-277.916 -137.764)" fill="#549f8d"/>
        <path id="Path_32" data-name="Path 32" d="M524.626,150.683a16.831,16.831,0,0,1,1.025-5.029,11.471,11.471,0,0,1,2.6-4.1,12.364,12.364,0,0,1,4.291-2.766,16.475,16.475,0,0,1,6.1-1.025,16.656,16.656,0,0,1,6.054,1,11.916,11.916,0,0,1,4.29,2.764,12.074,12.074,0,0,1,2.622,4.1,16.231,16.231,0,0,1,1.049,5.053q.047.906.072,2t.023,2.264q0,1.17-.023,2.265t-.072,2a16.865,16.865,0,0,1-1.025,5.029,11.5,11.5,0,0,1-2.6,4.1,12.045,12.045,0,0,1-4.314,2.742,19.039,19.039,0,0,1-12.18,0,12.077,12.077,0,0,1-4.291-2.742,11.48,11.48,0,0,1-2.6-4.1,16.826,16.826,0,0,1-1.025-5.029q-.048-.9-.072-2t-.023-2.265q0-1.168.023-2.264T524.626,150.683Zm21.595.239a7.58,7.58,0,0,0-15.159,0q-.1,1.813-.1,4.028t.1,4.028a7.411,7.411,0,0,0,2.216,5.293,8.671,8.671,0,0,0,10.727,0,7.415,7.415,0,0,0,2.216-5.293q.095-1.811.1-4.028T546.221,150.921Z" transform="translate(-319.978 -137.764)" fill="#549f8d"/>
        <path id="Path_33" data-name="Path 33" d="M625.186,170.27a1.029,1.029,0,0,1,.286.428,1.411,1.411,0,0,1,.047.287,1.3,1.3,0,0,1-1.288,1.287H619.7a2.232,2.232,0,0,1-1.526-.5c-.381-.334-.6-.531-.666-.6l-11.2-12.632v12.442a1.3,1.3,0,0,1-1.286,1.287h-3.862a1.3,1.3,0,0,1-1.286-1.287v-30.8a1.3,1.3,0,0,1,1.286-1.288h3.862a1.3,1.3,0,0,1,1.286,1.288v11.2L616.7,139.95a4.039,4.039,0,0,1,.906-.763,2.391,2.391,0,0,1,1.239-.286h4.386a1.3,1.3,0,0,1,1.287,1.288,1.077,1.077,0,0,1-.287.715l-12.823,13.967Z" transform="translate(-363.761 -138.425)" fill="#549f8d"/>
      </g>
    </g>
  </g>
</svg>
