<svg xmlns="http://www.w3.org/2000/svg" width="300" height="63" viewBox="0 0 247 75.818">
  <g id="Group_48" data-name="Group 48" transform="translate(777 4314.818)">
    <text id="Business" transform="translate(-620 -4269)" fill="#5d5d5e" font-size="20" font-family="Helvetica-Bold, Helvetica" font-weight="700"><tspan x="0" y="15">Business</tspan></text>
    <g id="Group_46" data-name="Group 46" transform="translate(159 396.915)">
      <path id="Path_27" data-name="Path 27" d="M55.883,137.764a17.143,17.143,0,0,1,5.707.87,14.14,14.14,0,0,1,4.111,2.177,9.418,9.418,0,0,1,2.49,2.877,7.423,7.423,0,0,1,.943,2.974,1.068,1.068,0,0,1-.364.943,1.382,1.382,0,0,1-.943.363H64.444a2.007,2.007,0,0,1-1.234-.314,3.255,3.255,0,0,1-.75-.846,6.289,6.289,0,0,0-2.2-2.1,8.584,8.584,0,0,0-4.377-.895,10.534,10.534,0,0,0-2.394.266,6.888,6.888,0,0,0-1.983.774,4.11,4.11,0,0,0-1.33,1.234,2.9,2.9,0,0,0-.484,1.644,3.253,3.253,0,0,0,.46,1.814,3.611,3.611,0,0,0,1.548,1.209,15.825,15.825,0,0,0,2.878.943q1.789.434,4.448,1.015a31.471,31.471,0,0,1,5.006,1.476,11.641,11.641,0,0,1,3.434,2.031,7.584,7.584,0,0,1,1.982,2.733,9.015,9.015,0,0,1,.653,3.53,8.639,8.639,0,0,1-.966,4.038,9.307,9.307,0,0,1-2.757,3.191,13.939,13.939,0,0,1-4.4,2.1,20.584,20.584,0,0,1-5.851.774,20.152,20.152,0,0,1-5.175-.653,15.156,15.156,0,0,1-4.377-1.886,10.411,10.411,0,0,1-3.07-2.974A7.82,7.82,0,0,1,42.2,163.2a1.069,1.069,0,0,1,.363-.943,1.382,1.382,0,0,1,.943-.363h3.385a2.272,2.272,0,0,1,1.257.291,2.2,2.2,0,0,1,.725.87,9.132,9.132,0,0,0,.822,1.258A4.486,4.486,0,0,0,51,165.426a7.9,7.9,0,0,0,2.055.8,12.654,12.654,0,0,0,3.071.314,17.517,17.517,0,0,0,2.8-.218,8.151,8.151,0,0,0,2.369-.725,5.048,5.048,0,0,0,1.645-1.257,2.8,2.8,0,0,0,.628-1.862,2.359,2.359,0,0,0-.676-1.741,5.442,5.442,0,0,0-2.055-1.16,28.765,28.765,0,0,0-3.41-.918q-2.03-.436-4.691-1.112a25.2,25.2,0,0,1-4.232-1.378,9.964,9.964,0,0,1-3-1.959,7.313,7.313,0,0,1-1.766-2.731,10.835,10.835,0,0,1-.58-3.749,8.479,8.479,0,0,1,.966-4.013,9.567,9.567,0,0,1,2.66-3.143,13.022,13.022,0,0,1,4.038-2.055A16.529,16.529,0,0,1,55.883,137.764Z" transform="translate(-978.192 -4844.109)" fill="#549f8d"/>
      <path id="Path_28" data-name="Path 28" d="M140.373,138.9a1.321,1.321,0,0,1,1.3,1.306v31.241a1.321,1.321,0,0,1-1.3,1.305h-3.917a1.322,1.322,0,0,1-1.307-1.305V158.68h-14.6v12.768a1.321,1.321,0,0,1-1.305,1.305h-3.918a1.3,1.3,0,0,1-.918-.362,1.233,1.233,0,0,1-.387-.943V140.207a1.321,1.321,0,0,1,1.305-1.306h3.918a1.321,1.321,0,0,1,1.305,1.306v12.428h14.6V140.207a1.321,1.321,0,0,1,1.307-1.306Z" transform="translate(-1019.497 -4844.763)" fill="#549f8d"/>
      <path id="Path_29" data-name="Path 29" d="M342.079,138.9a1.321,1.321,0,0,1,1.305,1.306v3.434a1.321,1.321,0,0,1-1.305,1.3h-8.705v26.5a1.321,1.321,0,0,1-1.305,1.305H328.15a1.322,1.322,0,0,1-1.305-1.305v-26.5H318.14a1.321,1.321,0,0,1-1.3-1.3v-3.434a1.321,1.321,0,0,1,1.3-1.306Z" transform="translate(-1155.771 -4844.763)" fill="#549f8d"/>
      <path id="Path_30" data-name="Path 30" d="M385.171,172.754a1.321,1.321,0,0,1-1.3-1.305V140.207a1.32,1.32,0,0,1,1.3-1.306h14.267a12.546,12.546,0,0,1,5.174.943,9.748,9.748,0,0,1,3.337,2.371,8.928,8.928,0,0,1,1.813,3.1,9.887,9.887,0,0,1,.556,3.118,8.035,8.035,0,0,1-.387,2.588,7.737,7.737,0,0,1-.943,1.934,8.808,8.808,0,0,1-1.112,1.33,5.13,5.13,0,0,1-.895.725,10.512,10.512,0,0,1,2.757,2.878A8.259,8.259,0,0,1,411,162.6a10.367,10.367,0,0,1-.677,3.651,10.174,10.174,0,0,1-1.982,3.266,9.808,9.808,0,0,1-3.264,2.345,10.776,10.776,0,0,1-4.522.895ZM403.79,148.67a3.373,3.373,0,0,0-1.16-2.781,5.812,5.812,0,0,0-3.676-.943h-8.559v7.448h8.559a5.813,5.813,0,0,0,3.676-.943A3.372,3.372,0,0,0,403.79,148.67Zm-13.4,18.038h8.946a5.616,5.616,0,0,0,3.893-1.136,4.175,4.175,0,0,0-.048-5.972,5.568,5.568,0,0,0-3.845-1.16h-8.946Z" transform="translate(-1194.574 -4844.763)" fill="#549f8d"/>
      <path id="Path_31" data-name="Path 31" d="M452.247,150.869a17.072,17.072,0,0,1,1.039-5.1,11.641,11.641,0,0,1,2.635-4.159,12.544,12.544,0,0,1,4.353-2.806,16.71,16.71,0,0,1,6.19-1.039,16.9,16.9,0,0,1,6.141,1.016,12.1,12.1,0,0,1,4.352,2.8,12.255,12.255,0,0,1,2.66,4.159,16.451,16.451,0,0,1,1.064,5.126q.048.919.073,2.032t.023,2.3q0,1.187-.023,2.3t-.073,2.031a17.094,17.094,0,0,1-1.039,5.1,11.665,11.665,0,0,1-2.635,4.159,12.223,12.223,0,0,1-4.377,2.781,19.314,19.314,0,0,1-12.356,0,12.252,12.252,0,0,1-4.353-2.781,11.649,11.649,0,0,1-2.635-4.159,17.066,17.066,0,0,1-1.039-5.1q-.049-.918-.073-2.031t-.023-2.3q0-1.185.023-2.3T452.247,150.869Zm21.907.242a7.689,7.689,0,0,0-15.378,0q-.1,1.839-.1,4.086t.1,4.086a7.521,7.521,0,0,0,2.248,5.369,8.8,8.8,0,0,0,10.882,0,7.524,7.524,0,0,0,2.248-5.369q.1-1.837.1-4.086T474.154,151.111Z" transform="translate(-1234.077 -4844.109)" fill="#549f8d"/>
      <path id="Path_32" data-name="Path 32" d="M524.627,150.869a17.076,17.076,0,0,1,1.039-5.1,11.635,11.635,0,0,1,2.635-4.159,12.541,12.541,0,0,1,4.353-2.806,16.712,16.712,0,0,1,6.19-1.039,16.9,16.9,0,0,1,6.141,1.016,12.088,12.088,0,0,1,4.352,2.8,12.249,12.249,0,0,1,2.66,4.159,16.463,16.463,0,0,1,1.064,5.126q.048.919.073,2.032t.024,2.3q0,1.187-.024,2.3t-.073,2.031a17.1,17.1,0,0,1-1.039,5.1,11.661,11.661,0,0,1-2.635,4.159,12.217,12.217,0,0,1-4.377,2.781,19.314,19.314,0,0,1-12.356,0,12.248,12.248,0,0,1-4.353-2.781,11.644,11.644,0,0,1-2.635-4.159,17.07,17.07,0,0,1-1.039-5.1q-.049-.918-.073-2.031t-.023-2.3q0-1.185.023-2.3T524.627,150.869Zm21.907.242a7.689,7.689,0,0,0-15.378,0q-.1,1.839-.1,4.086t.1,4.086a7.517,7.517,0,0,0,2.248,5.369,8.8,8.8,0,0,0,10.882,0,7.523,7.523,0,0,0,2.248-5.369q.1-1.837.1-4.086T546.534,151.111Z" transform="translate(-1274.563 -4844.109)" fill="#549f8d"/>
      <path id="Path_33" data-name="Path 33" d="M625.552,170.723a1.046,1.046,0,0,1,.291.435,1.426,1.426,0,0,1,.048.291,1.321,1.321,0,0,1-1.307,1.305H619.99a2.264,2.264,0,0,1-1.547-.508c-.387-.339-.612-.539-.676-.6L606.4,158.826v12.622a1.321,1.321,0,0,1-1.3,1.305h-3.918a1.321,1.321,0,0,1-1.3-1.305V140.207a1.321,1.321,0,0,1,1.3-1.306H605.1a1.32,1.32,0,0,1,1.3,1.306v11.365l10.542-11.607a4.094,4.094,0,0,1,.919-.774,2.426,2.426,0,0,1,1.257-.29h4.449a1.32,1.32,0,0,1,1.305,1.306,1.092,1.092,0,0,1-.291.726L611.575,155.1Z" transform="translate(-1317.89 -4844.763)" fill="#549f8d"/>
      <g id="Group_45" data-name="Group 45" transform="translate(-874.98 -4711.733)">
        <path id="Path_21" data-name="Path 21" d="M222.756,124.213a10.654,10.654,0,0,0-10.668,0h0l-.014.012a10.6,10.6,0,0,0-.983.648h0l0,0h0a12.887,12.887,0,0,1-5.407,1.776c-.415.041-.841.062-1.266.062A13.33,13.33,0,0,1,191.193,113.3a13.611,13.611,0,0,1,.656-4.185,13.467,13.467,0,0,1,3.574-5.651,15.511,15.511,0,0,1,4.7-2.859c.011-.008.068-.035.139-.069a11.791,11.791,0,0,0,3.709-2.66,9.1,9.1,0,0,0,2.344-7.536,27.2,27.2,0,0,0-.663-3.86l0-.018s-.82-.035-1.243-.035a22.7,22.7,0,0,0-9.08,1.877,23.037,23.037,0,0,0-7.392,5.115,23.57,23.57,0,0,0-6.662,15.662h-.034l.033.062a44.268,44.268,0,0,0,.588,5.078,39.192,39.192,0,0,0,4.618,12.629l.2.369c2.828,5.2,7.4,12.173,13.356,20.984,1.41,2.086,2.871,4.233,4.342,6.38l.022.033.021-.034c.168-.283,16.8-28.276,18.347-30.329l.018-.024Z" transform="translate(-181.237 -86.426)" fill="#549f8d"/>
        <g id="Group_38" data-name="Group 38" transform="translate(16.937 13.446)">
          <path id="Path_22" data-name="Path 22" d="M267.017,133.476l-.134.688,3.346.652.134-.688a.894.894,0,0,0-.707-1.049l-1.59-.31A.894.894,0,0,0,267.017,133.476Z" transform="translate(-259.205 -132.753)" fill="#549f8d"/>
          <path id="Path_23" data-name="Path 23" d="M307.146,165.656l.675-.191a.894.894,0,0,0,.617-1.1L308,162.8a.9.9,0,0,0-1.1-.617l-.675.191Z" transform="translate(-288.649 -154.76)" fill="#549f8d"/>
          <path id="Path_24" data-name="Path 24" d="M254.433,151.755a10.77,10.77,0,0,0-2.933-7.392l.042.036.542-.633-1.922-1.643-.541.633.048.041a10.8,10.8,0,0,0-12.566.333l-.76.575.871-.385a10.591,10.591,0,0,1,10.659,18.141l-.758.575.87-.384A10.821,10.821,0,0,0,254.433,151.755Z" transform="translate(-236.343 -138.884)" fill="#549f8d"/>
          <path id="Path_25" data-name="Path 25" d="M289.616,138.657l2.526,2.157-.6.7.336.288,1.274-1.49-.02-.034a6.282,6.282,0,0,0-3.142-2.685l-.037-.014-1.273,1.491.337.288Z" transform="translate(-275.523 -136.364)" fill="#549f8d"/>
          <path id="Path_26" data-name="Path 26" d="M251.7,163.284h10.368l-8.3-1.083,3.183-8.137Z" transform="translate(-247.839 -148.706)" fill="#549f8d"/>
        </g>
      </g>
    </g>
  </g>
</svg>
