<svg xmlns="http://www.w3.org/2000/svg" xmlns:xlink="http://www.w3.org/1999/xlink" viewBox="0 0 385.21 408.84"><defs><style>.cls-1{fill:#019cde;}.cls-2{fill:#0075aa;}.cls-3{fill:#52afa5;}.cls-4{clip-path:url(#clip-path);}.cls-5{fill:#333;}.cls-6{fill:#f0f7fb;}.cls-7{fill:#5b5b5b;}.cls-17,.cls-8{fill:#fff;}.cls-15,.cls-8,.cls-9{opacity:0.1;}.cls-10,.cls-18{font-size:12.03px;}.cls-10,.cls-14,.cls-15,.cls-22{fill:#231f20;}.cls-10,.cls-14,.cls-18,.cls-19{font-family:OpenSans-Bold, OpenSans Bold;font-weight:700;}.cls-11{letter-spacing:-0.03em;}.cls-12{letter-spacing:-0.02em;}.cls-13{letter-spacing:-0.08em;}.cls-14,.cls-19{font-size:13.64px;}.cls-16{fill:#a9d3e1;}.cls-18,.cls-19{fill:#4a6e88;}.cls-20{fill:none;stroke:#a9d3e1;stroke-miterlimit:10;stroke-width:2px;}.cls-21{fill:#bad2db;}.cls-23{fill:#ffd87d;}.cls-24{fill:#eeaf22;}.cls-25{clip-path:url(#clip-path-2);}.cls-26{fill:#fadd5f;}.cls-27{fill:#009ce3;}.cls-28{fill:#df5d67;}</style><clipPath id="clip-path"><path class="cls-1" d="M184.51,262.29,40,310.3a8,8,0,0,1-10.12-5.07L2.38,222.49a8,8,0,0,1,5.07-10.11l144.53-48a8,8,0,0,1,10.11,5.07l27.49,82.74A8,8,0,0,1,184.51,262.29Z"/></clipPath><clipPath id="clip-path-2"><path class="cls-2" d="M156.11,378.28,6.5,349.78a8,8,0,0,1-6.36-9.36l16.32-85.65a8,8,0,0,1,9.36-6.36l149.6,28.51a8,8,0,0,1,6.36,9.35l-16.32,85.65A8,8,0,0,1,156.11,378.28Z"/></clipPath></defs><title>sharepay</title><g id="Layer_2" data-name="Layer 2"><g id="OBJECTS"><circle class="cls-3" cx="196.61" cy="184.37" r="184.37" transform="translate(-72.79 193.02) rotate(-45)"/><path class="cls-1" d="M184.51,262.29,40,310.3a8,8,0,0,1-10.12-5.07L2.38,222.49a8,8,0,0,1,5.07-10.11l144.53-48a8,8,0,0,1,10.11,5.07l27.49,82.74A8,8,0,0,1,184.51,262.29Z"/><g class="cls-4"><circle class="cls-1" cx="152.07" cy="218.7" r="84.41"/></g><rect class="cls-5" x="2.08" y="198.92" width="168.3" height="18.13" transform="translate(-61.18 37.8) rotate(-18.38)"/><rect class="cls-6" x="18.64" y="220.51" width="148.6" height="15.36" transform="translate(-67.21 40.94) rotate(-18.38)"/><rect class="cls-2" x="27" y="254.45" width="87.91" height="7.59" transform="matrix(0.95, -0.32, 0.32, 0.95, -77.8, 35.54)"/><rect class="cls-7" x="25.97" y="236.57" width="60.7" height="7.59" transform="translate(-72.91 30.02) rotate(-18.38)"/><rect class="cls-2" x="31.63" y="270.6" width="60.7" height="7.59" transform="translate(-83.35 33.54) rotate(-18.38)"/><polygon class="cls-8" points="146.91 274.78 104.43 288.89 110.42 178.17 152.9 164.05 146.91 274.78"/><g class="cls-9"><text class="cls-10" transform="translate(174.51 264.78)"><tspan class="cls-11">T</tspan><tspan class="cls-12" x="5.66" y="0">O</tspan><tspan class="cls-13" x="13.65" y="0">T</tspan><tspan x="18.73" y="0">AL</tspan></text><text class="cls-14" transform="translate(180.01 64.75)">RECEIPT</text></g><g class="cls-9"><text class="cls-10" transform="translate(154.95 260.51)"><tspan class="cls-11">T</tspan><tspan class="cls-12" x="5.66" y="0">O</tspan><tspan class="cls-13" x="13.65" y="0">T</tspan><tspan x="18.73" y="0">AL</tspan></text><text class="cls-14" transform="translate(174.45 60.49)">RECEIPT</text></g><polygon class="cls-15" points="273.64 104.99 273.64 24.09 273.64 17.14 268.65 13.93 263.66 17.14 258.67 13.93 253.68 17.14 248.69 13.93 243.71 17.14 238.72 13.93 233.72 17.14 228.74 13.93 223.74 17.14 218.75 13.93 213.76 17.14 208.77 13.93 203.78 17.14 198.79 13.93 193.79 17.14 188.8 13.93 183.81 17.14 178.82 13.93 173.82 17.14 168.83 13.93 163.84 17.14 158.85 13.93 153.86 17.14 148.86 13.93 143.87 17.14 138.88 13.93 133.88 17.14 128.88 13.93 123.88 17.14 123.88 24.09 123.88 104.99 123.88 153 123.88 165.97 123.88 165.97 133.11 165.97 146.78 165.97 146.78 305.05 146.78 305.76 146.78 312 151.78 315.21 156.76 312 161.75 315.21 166.74 312 171.73 315.21 176.72 312 181.71 315.21 186.7 312 191.69 315.21 196.68 312 201.67 315.21 206.66 312 211.66 315.21 216.65 312 221.64 315.21 226.63 312 231.63 315.21 236.62 312 241.61 315.21 246.6 312 251.59 315.21 256.58 312 261.58 315.21 266.57 312 271.56 315.21 276.56 312 281.55 315.21 286.55 312 291.55 315.21 296.55 312 296.55 305.76 296.55 305.05 296.55 104.99 273.64 104.99"/><path class="cls-6" d="M109.92,119.25h61a0,0,0,0,1,0,0V137.7a0,0,0,0,1,0,0H119.15a9.23,9.23,0,0,1-9.23-9.23v-9.23A0,0,0,0,1,109.92,119.25Z" transform="translate(11.93 268.89) rotate(-90)"/><rect class="cls-6" x="131.18" y="17.09" width="149.76" height="128.9"/><polygon class="cls-6" points="280.94 10.14 275.95 6.93 270.96 10.14 265.98 6.93 260.99 10.14 255.99 6.93 251.01 10.14 246.02 6.93 241.03 10.14 236.04 6.93 231.04 10.14 226.05 6.93 221.06 10.14 216.07 6.93 211.08 10.14 206.09 6.93 201.1 10.14 196.1 6.93 191.11 10.14 186.12 6.93 181.12 10.14 176.13 6.93 171.14 10.14 166.15 6.93 161.16 10.14 156.16 6.93 151.17 10.14 146.18 6.93 141.18 10.14 136.18 6.93 131.18 10.14 131.18 17.09 280.94 17.09 280.94 10.14"/><rect class="cls-16" x="203.65" y="104.41" width="25.15" height="5.35"/><rect class="cls-16" x="252.33" y="76.33" width="18.45" height="5.35"/><rect class="cls-16" x="141.34" y="76.33" width="42.79" height="5.35"/><rect class="cls-16" x="245.11" y="90.37" width="25.67" height="5.35"/><rect class="cls-16" x="141.34" y="90.37" width="64.72" height="5.35"/><rect class="cls-16" x="245.11" y="104.41" width="25.67" height="5.35"/><rect class="cls-16" x="141.34" y="104.41" width="56.71" height="5.35"/><rect class="cls-16" x="245.11" y="118.45" width="25.67" height="5.35"/><rect class="cls-16" x="141.34" y="118.45" width="42.79" height="5.35"/><rect class="cls-16" x="189.21" y="76.33" width="42.79" height="5.35"/><rect class="cls-16" x="189.21" y="118.45" width="42.79" height="5.35"/><rect class="cls-16" x="252.33" y="132.49" width="18.45" height="5.35"/><rect class="cls-16" x="141.34" y="132.49" width="64.72" height="5.35"/><rect class="cls-17" x="154.09" y="97.99" width="149.76" height="200.77"/><polygon class="cls-17" points="154.09 305 159.08 308.21 164.07 305 169.05 308.21 174.04 305 179.03 308.21 184.02 305 189.01 308.21 194 305 198.99 308.21 203.98 305 208.97 308.21 213.97 305 218.96 308.21 223.95 305 228.94 308.21 233.93 305 238.93 308.21 243.92 305 248.91 308.21 253.9 305 258.89 308.21 263.88 305 268.88 308.21 273.87 305 278.86 308.21 283.86 305 288.85 308.21 293.85 305 298.85 308.21 303.85 305 303.85 298.05 154.09 298.05 154.09 305"/><rect class="cls-16" x="214.07" y="30.33" width="56.71" height="5.35"/><rect class="cls-16" x="200.61" y="274.05" width="56.71" height="5.35"/><rect class="cls-16" x="268.01" y="111.5" width="25.67" height="5.35"/><rect class="cls-16" x="164.25" y="111.5" width="56.71" height="5.35"/><rect class="cls-16" x="226.56" y="111.5" width="25.15" height="5.35"/><rect class="cls-16" x="226.56" y="153.62" width="25.15" height="5.35"/><rect class="cls-16" x="275.23" y="125.54" width="18.45" height="5.35"/><rect class="cls-16" x="164.25" y="125.54" width="42.79" height="5.35"/><rect class="cls-16" x="268.01" y="139.58" width="25.67" height="5.35"/><rect class="cls-16" x="164.25" y="139.58" width="64.72" height="5.35"/><rect class="cls-16" x="268.01" y="153.62" width="25.67" height="5.35"/><rect class="cls-16" x="164.25" y="153.62" width="56.71" height="5.35"/><rect class="cls-16" x="268.01" y="167.66" width="25.67" height="5.35"/><rect class="cls-16" x="164.25" y="167.66" width="42.79" height="5.35"/><rect class="cls-16" x="212.12" y="125.54" width="42.79" height="5.35"/><rect class="cls-16" x="212.12" y="167.66" width="42.79" height="5.35"/><rect class="cls-16" x="275.23" y="181.7" width="18.45" height="5.35"/><rect class="cls-16" x="268.01" y="248.61" width="25.67" height="5.35"/><rect class="cls-16" x="164.25" y="181.7" width="64.72" height="5.35"/><rect class="cls-16" x="226.56" y="194.38" width="25.15" height="5.35"/><rect class="cls-16" x="268.01" y="194.38" width="25.67" height="5.35"/><rect class="cls-16" x="164.25" y="194.38" width="56.71" height="5.35"/><rect class="cls-16" x="268.01" y="208.42" width="25.67" height="5.35"/><rect class="cls-16" x="164.25" y="208.42" width="42.79" height="5.35"/><rect class="cls-16" x="212.12" y="208.42" width="42.79" height="5.35"/><rect class="cls-16" x="275.23" y="222.46" width="18.45" height="5.35"/><rect class="cls-16" x="164.25" y="222.46" width="64.72" height="5.35"/><text class="cls-18" transform="translate(164.25 254.51)"><tspan class="cls-11">T</tspan><tspan class="cls-12" x="5.66" y="0">O</tspan><tspan class="cls-13" x="13.65" y="0">T</tspan><tspan x="18.73" y="0">AL</tspan></text><text class="cls-19" transform="translate(183.75 54.49)">RECEIPT</text><line class="cls-20" x1="141.74" y1="62.86" x2="271.18" y2="62.86"/><line class="cls-20" x1="164.25" y1="239.18" x2="293.68" y2="239.18"/><line class="cls-20" x1="164.25" y1="263.39" x2="293.68" y2="263.39"/><polygon class="cls-21" points="154.09 97.99 154.09 158.97 131.18 158.97 154.09 97.99"/><g class="cls-9"><path class="cls-22" d="M325.38,74.41a22.47,22.47,0,1,0-30.73,8.08A22.46,22.46,0,0,0,325.38,74.41Z"/><circle class="cls-22" cx="329.98" cy="133.56" r="22.47" transform="translate(-11.57 33.22) rotate(-5.66)"/><circle class="cls-22" cx="357.17" cy="89.77" r="22.47" transform="translate(-10.52 110.5) rotate(-17.34)"/></g><circle class="cls-23" cx="311.54" cy="58.65" r="22.47" transform="translate(59.77 251.29) rotate(-48.08)"/><circle class="cls-24" cx="311.54" cy="58.65" r="18.24" transform="translate(12.06 162.62) rotate(-29.81)"/><path class="cls-23" d="M302.93,70.47l1.89-3.23A10.71,10.71,0,0,1,300.75,63l2-1.69a9.81,9.81,0,0,0,3.8,4.06c2.27,1.33,4.57.91,5.63-.91s.41-3.57-1.39-5.91c-2.52-3.19-3.67-5.83-2.05-8.61s4.61-3.57,7.83-2.33l1.89-3.23,2,1.16-1.81,3.1a9.87,9.87,0,0,1,3.5,3.54l-2,1.65a8.94,8.94,0,0,0-3.39-3.44c-2.46-1.44-4.25-.51-5,.77-1,1.66-.28,3.18,1.83,6,2.51,3.26,3.2,5.89,1.54,8.74-1.47,2.52-4.61,3.86-8.22,2.48L305,71.65Z"/><circle class="cls-23" cx="335.54" cy="129.12" r="22.47" transform="translate(-22.11 92.46) rotate(-15.2)"/><circle class="cls-24" cx="335.54" cy="129.12" r="18.24" transform="translate(28.62 316.36) rotate(-52.43)"/><path class="cls-23" d="M339.45,143.22l-1.36-3.49a10.72,10.72,0,0,1-5.86.54l-.08-2.63a9.94,9.94,0,0,0,5.55-.45c2.45-1,3.55-3,2.79-5s-2.54-2.55-5.5-2.59c-4.05,0-6.84-.75-8-3.75s.07-5.83,3-7.58l-1.36-3.48,2.14-.84,1.3,3.35a9.8,9.8,0,0,1,4.95-.54l0,2.61a9,9,0,0,0-4.8.52c-2.66,1-3,3-2.51,4.39.7,1.8,2.33,2.2,5.81,2.27,4.12.07,6.61,1.16,7.8,4.23,1.07,2.73.16,6-3.16,8l1.39,3.59Z"/><path class="cls-23" d="M383.67,77.18a22.47,22.47,0,1,1-29.09-12.79A22.46,22.46,0,0,1,383.67,77.18Z"/><path class="cls-24" d="M379.73,78.72a18.24,18.24,0,1,1-23.62-10.39A18.24,18.24,0,0,1,379.73,78.72Z"/><path class="cls-23" d="M366.64,99.43,365.28,96a10.74,10.74,0,0,1-5.87.53l-.07-2.63a9.94,9.94,0,0,0,5.55-.45c2.45-1,3.55-3,2.79-5s-2.54-2.54-5.5-2.59c-4.05,0-6.85-.75-8-3.75s.07-5.83,3-7.58L355.86,71l2.14-.83,1.3,3.34a9.91,9.91,0,0,1,4.95-.54l0,2.62a9,9,0,0,0-4.81.51c-2.65,1-3,3-2.5,4.39.7,1.8,2.33,2.2,5.81,2.27,4.12.07,6.61,1.16,7.8,4.23,1.06,2.73.16,6-3.16,8l1.39,3.58Z"/><path class="cls-2" d="M156.11,378.28,6.5,349.78a8,8,0,0,1-6.36-9.36l16.32-85.65a8,8,0,0,1,9.36-6.36l149.6,28.51a8,8,0,0,1,6.36,9.35l-16.32,85.65A8,8,0,0,1,156.11,378.28Z"/><g class="cls-25"><circle class="cls-2" cx="149.03" cy="324.41" r="84.41" transform="translate(-185.74 200.4) rotate(-45)"/></g><polygon class="cls-8" points="117.19 370.87 73.21 362.49 132.4 268.72 176.37 277.1 117.19 370.87"/><rect class="cls-6" x="16.5" y="304.68" width="33.32" height="8.16" transform="translate(58.37 -0.75) rotate(10.79)"/><rect class="cls-6" x="110.68" y="336.33" width="17.64" height="8.16" transform="translate(65.82 -16.35) rotate(10.79)"/><rect class="cls-6" x="87.72" y="331.96" width="17.64" height="8.16" transform="translate(64.6 -12.13) rotate(10.79)"/><rect class="cls-6" x="53.42" y="311.71" width="33.32" height="8.16" transform="translate(60.34 -7.54) rotate(10.79)"/><rect class="cls-6" x="129.66" y="326.24" width="33.32" height="8.16" transform="translate(64.41 -21.55) rotate(10.79)"/><rect class="cls-6" x="90.34" y="318.75" width="33.32" height="8.16" transform="translate(62.31 -14.32) rotate(10.79)"/><rect class="cls-1" x="95.97" y="282.47" width="73.87" height="7.59" transform="translate(55.93 -19.82) rotate(10.79)"/><rect class="cls-1" x="10.73" y="336.53" width="60.7" height="7.59" transform="translate(64.42 -1.68) rotate(10.79)"/><rect class="cls-26" x="20.61" y="275" width="30.35" height="24.09" rx="7.08" transform="translate(54.36 -1.62) rotate(10.79)"/><circle class="cls-27" cx="148.91" cy="362.66" r="7.86" transform="translate(-178.14 146.49) rotate(-34.21)"/><path class="cls-28" d="M147.26,362.35a7.86,7.86,0,1,1-6.25-9.2A7.86,7.86,0,0,1,147.26,362.35Z"/></g></g></svg>