<svg xmlns="http://www.w3.org/2000/svg" xmlns:xlink="http://www.w3.org/1999/xlink" viewBox="0 0 214.02 125.91"><defs><style>.cls-1{fill:none;}.cls-2{isolation:isolate;}.cls-3,.cls-7{fill:#ffb884;}.cls-4{fill:#404352;}.cls-10,.cls-48,.cls-5{fill:#f2f2f2;}.cls-6{fill:#ed582f;}.cls-16,.cls-17,.cls-23,.cls-24,.cls-30,.cls-34,.cls-38,.cls-47,.cls-51,.cls-7{opacity:0.3;}.cls-10,.cls-16,.cls-17,.cls-23,.cls-24,.cls-30,.cls-33,.cls-34,.cls-36,.cls-38,.cls-41,.cls-42,.cls-47,.cls-50,.cls-51,.cls-56,.cls-58,.cls-59,.cls-62,.cls-7{mix-blend-mode:multiply;}.cls-8{fill:#58341f;}.cls-42,.cls-9{fill:#505366;}.cls-11{clip-path:url(#clip-path);}.cls-12{fill:#a6a7ab;}.cls-13{fill:#727375;}.cls-14,.cls-23{fill:#006c8a;}.cls-15,.cls-16,.cls-20,.cls-36{fill:#ffb647;}.cls-18{fill:#30221b;}.cls-19,.cls-51{fill:#35afd4;}.cls-20,.cls-31,.cls-33,.cls-36,.cls-42,.cls-48,.cls-56,.cls-62{opacity:0.5;}.cls-20{mix-blend-mode:screen;}.cls-21{fill:#381f14;}.cls-22,.cls-24{fill:#a3b848;}.cls-25{fill:#995f36;}.cls-26,.cls-50{fill:#e6e7e8;}.cls-27,.cls-34{fill:#d44326;}.cls-28,.cls-30,.cls-59{fill:#9e291d;}.cls-29{fill:#120a05;}.cls-32{fill:#fff;}.cls-35{clip-path:url(#clip-path-2);}.cls-37,.cls-38{fill:#db8546;}.cls-39{clip-path:url(#clip-path-3);}.cls-40{fill:#0f0b0f;}.cls-43{fill:#f04e2e;}.cls-44{fill:#8a5d3b;}.cls-45{fill:#c49a6b;}.cls-46,.cls-47{fill:#27aae1;}.cls-49{fill:#403d3d;}.cls-52,.cls-62{fill:#1c84a3;}.cls-53{fill:#8f4225;}.cls-54,.cls-56{fill:#70802d;}.cls-55{fill:#dae3e6;}.cls-57{fill:#522d20;}.cls-58{fill:url(#linear-gradient);}.cls-59{opacity:0.2;}.cls-60{fill:#7b1e1c;}.cls-61{fill:#e98e3b;}</style><clipPath id="clip-path"><polygon class="cls-1" points="66.23 55.29 151.08 57.44 151.08 19.55 66.23 26.04 66.23 55.29"/></clipPath><clipPath id="clip-path-2"><path class="cls-1" d="M14.62,30.08c-3,2.65-3.69,6.7-1.6,9.05s6.2,2.13,9.17-.51,3.7-6.69,1.6-9S17.59,27.44,14.62,30.08Z"/></clipPath><clipPath id="clip-path-3"><path class="cls-1" d="M174.75,66.93c3.17,2.4,4.2,6.39,2.3,8.9s-6,2.61-9.19.2-4.2-6.38-2.3-8.89S171.58,64.53,174.75,66.93Z"/></clipPath><linearGradient id="linear-gradient" x1="81.35" y1="83.9" x2="82.77" y2="80.08" gradientUnits="userSpaceOnUse"><stop offset="0" stop-color="#fdd0b0"/><stop offset="1" stop-color="#fff"/></linearGradient></defs><title>shareplay</title><g class="cls-2"><g id="Layer_2" data-name="Layer 2"><g id="Layer_1-2" data-name="Layer 1"><path class="cls-3" d="M122.38,71.68c-1.67,3.07-2.89,6.08-2.46,7S122,82,124.06,85.52s3.26,5.85,3.11,6.43a2.49,2.49,0,0,0,2.39-2A22.23,22.23,0,0,1,128,86c-.44-1.8-1.38-6.32-3-7.76L126.93,73Z"/><path class="cls-4" d="M126.8,90.63A4.31,4.31,0,0,0,129,88.77a3.26,3.26,0,0,0,1.58,1.37c1.08.44,1.3,1.38,1.59,2.25s-1.09,2-2.17,2-2.39,1.37-2.82,2.17a4.85,4.85,0,0,1-4.54,1.88c-2.16-.36-1.15-2,0-2.24s2.84-3,3-3.4S126.8,90.63,126.8,90.63Z"/><path class="cls-3" d="M131,73.84c-.36,3.9-.29,7.64.39,8.41s3.43,2.62,6.39,5.42,4.82,4.66,4.85,5.25a2.49,2.49,0,0,0,1.71-2.56A22.63,22.63,0,0,1,141.75,87c-.94-1.61-3.55-5.44-5.49-6.36l.21-5.89Z"/><path class="cls-4" d="M143.61,89.52s-1.29,1.75-2,1.89a21.09,21.09,0,0,1-.31,4.3c-.36,1.23-2.53,3-1.95,3.9s3.26.8,4.49,0,.86-2.89,1.37-3.83,1.24-1.48,1.53-2.27.57-1.66-.58-2.46S143.61,89.52,143.61,89.52Z"/><path class="cls-5" d="M124.41,62.9A80.5,80.5,0,0,0,119.78,74s3.81,3.25,7,3.39l2.7-6v7s3.32,1.66,8.52-.07A64.37,64.37,0,0,1,137.42,68a12.46,12.46,0,0,0-1.32-5.78Z"/><path class="cls-3" d="M123.34,46.21c-.16-1.93-1.85-6.59-2.92-9s-.21-5.37.46-8,1.21-4,.67-5.33-2.2-6.86-.9-5.73,1.73,3.74,2.26,3.5.9-1.17,1.37-.8-.55,1.46-.75,4.42-.08,10-.08,10l3.89,7.36Z"/><path class="cls-6" d="M120.86,39.37c.94,1.74,2.19,4,2.19,6.47v15.9c0,.58,4.87,3.62,14.33,1.16,0,0,.38-.72-.87-4.19s-2.66-5.35-1.72-8.82c.7-2.6,1-3.68,1.81-6.46.19-.64-1.41-1.06-1.71-1.84-1.2-3.12-7.85-1.21-10.36-4.68Z"/><path class="cls-3" d="M132.16,39.77c-.93.84-.53,2.06-1.16,2.6s-3.7,1.23-4.36.51-.08-.84.47-2.8S132.16,39.77,132.16,39.77Z"/><path class="cls-7" d="M132.16,39.77a1.86,1.86,0,0,0-.65,1.21c-1.34.76-3.86,1.92-4.94.62.13-.32.38-1,.54-1.52C127.65,38.13,132.16,39.77,132.16,39.77Z"/><path class="cls-3" d="M132.2,30.67a4.33,4.33,0,0,0-5.26,2.72c-1,2.44-.21,1.92-.73,2.64s-.76,2.23.56,4.44,5.59.05,5.93-.71c0,0,.87.3,1.32-.25s1.06-1.79-.12-1.77a1,1,0,0,0,1.31-.62A4.7,4.7,0,0,0,132.2,30.67Z"/><path class="cls-8" d="M133.08,38.88a2.34,2.34,0,0,1-1.36.27,17.59,17.59,0,0,1,1-3.36,5.41,5.41,0,0,1-2.5-.37,4.72,4.72,0,0,0,1.07-.7,11.93,11.93,0,0,1-3-.23,2.84,2.84,0,0,1-2-1.64c.23-.13,1.17-.3,1.28-.93.17-1,1.71-1.8,2.26-1.8.83,0,1.56.27,2.33.19s2.46.45,2.68,1.72a2.58,2.58,0,0,1,1.4,1.66c.27,1.19-.43,3.14-1,4.37-.87,2-2.18,2.46-3.28,2.32Z"/><path class="cls-3" d="M133.08,38.88s.37-.75.71-.88.87,0,.6.51-.77,1.84-1.82,1.48a11.19,11.19,0,0,1-1.38.84s.95-1.13,1-1.18S133.08,38.88,133.08,38.88Z"/><path class="cls-3" d="M132.59,40.82a53.28,53.28,0,0,0,5.09-6.23,15.6,15.6,0,0,1-.88-4.45c.11-1.63,0-6.08-.54-6.9s-2.53-2.33-2.09-2.73,1.54,1.21,2.2,1.21.11-2.83.21-3.75.77-2.33,1.1-1.92.66,4.86.77,6.89,2.3,8.92,2.41,11.15-6,12.36-6,12.36Z"/><polygon class="cls-6" points="134.16 39.08 137.48 43.62 134.79 49.89 132.54 40.63 134.16 39.08"/><path class="cls-9" d="M127.34,76.15h0a17.49,17.49,0,0,1-7.06-3.57c-.31.88-.5,1.45-.5,1.45s3.81,3.25,7,3.39Z"/><path class="cls-9" d="M137.8,76.74a17.52,17.52,0,0,1-8.33.39v1.31s3.32,1.66,8.52-.07C138,78.37,137.91,77.73,137.8,76.74Z"/><path class="cls-4" d="M137.38,62.9s.25-.47-.31-2.47a12,12,0,0,1-5.75,2,12.67,12.67,0,0,1-8.27-1.95v1.22C123.05,62.32,127.92,65.36,137.38,62.9Z"/><polygon class="cls-10" points="131.19 78.95 129.58 66.4 129.47 78.44 131.18 78.95 131.19 78.95"/><g class="cls-11"><polygon class="cls-12" points="66.24 26.09 66.23 26 151.08 19.5 151.08 19.6 66.24 26.09"/><rect class="cls-12" x="66.14" y="25.8" width="85.04" height="0.1" transform="translate(-1.51 7.46) rotate(-3.91)"/><rect class="cls-12" x="66.16" y="28.85" width="84.99" height="0.1" transform="translate(-1.5 6.37) rotate(-3.33)"/><rect class="cls-12" x="66.18" y="31.9" width="84.95" height="0.1" transform="translate(-1.44 5.37) rotate(-2.81)"/><rect class="cls-12" x="66.2" y="34.95" width="84.91" height="0.1" transform="translate(-1.29 4.28) rotate(-2.24)"/><polygon class="cls-12" points="66.24 39.39 66.23 39.29 151.08 36.72 151.08 36.82 66.24 39.39"/><rect class="cls-12" x="66.23" y="41.06" width="84.86" height="0.1" transform="translate(-0.8 2.19) rotate(-1.15)"/><polygon class="cls-12" points="66.24 44.71 66.23 44.61 151.08 43.61 151.08 43.71 66.24 44.71"/><polygon class="cls-12" points="66.23 47.37 66.23 47.27 151.08 47.06 151.08 47.16 66.23 47.37"/><polygon class="cls-12" points="151.08 50.6 66.23 50.03 66.24 49.93 151.08 50.5 151.08 50.6"/><polygon class="cls-12" points="151.08 54.04 66.23 52.69 66.24 52.59 151.08 53.95 151.08 54.04"/><polygon class="cls-12" points="151.08 57.49 66.23 55.34 66.24 55.24 151.08 57.39 151.08 57.49"/><rect class="cls-12" x="68.58" y="18.13" width="0.1" height="43.12"/><rect class="cls-12" x="71.64" y="18.13" width="0.1" height="43.12"/><rect class="cls-12" x="74.71" y="18.13" width="0.1" height="43.12"/><rect class="cls-12" x="77.78" y="18.13" width="0.1" height="43.12"/><rect class="cls-12" x="80.85" y="18.13" width="0.1" height="43.12"/><rect class="cls-12" x="83.92" y="18.13" width="0.1" height="43.12"/><rect class="cls-12" x="86.99" y="18.13" width="0.1" height="43.12"/><rect class="cls-12" x="90.06" y="18.13" width="0.1" height="43.12"/><rect class="cls-12" x="93.13" y="18.13" width="0.1" height="43.12"/><rect class="cls-12" x="96.2" y="18.13" width="0.1" height="43.12"/><rect class="cls-12" x="99.27" y="18.13" width="0.1" height="43.12"/><rect class="cls-12" x="102.33" y="18.13" width="0.1" height="43.12"/><rect class="cls-12" x="105.4" y="18.13" width="0.1" height="43.12"/><rect class="cls-12" x="108.47" y="18.13" width="0.1" height="43.12"/><rect class="cls-12" x="111.54" y="18.13" width="0.1" height="43.12"/><rect class="cls-12" x="114.61" y="18.13" width="0.1" height="43.12"/><rect class="cls-12" x="117.68" y="18.13" width="0.1" height="43.12"/><rect class="cls-12" x="120.75" y="18.13" width="0.1" height="43.12"/><rect class="cls-12" x="123.82" y="18.13" width="0.1" height="43.12"/><rect class="cls-12" x="126.89" y="18.13" width="0.1" height="43.12"/><rect class="cls-12" x="129.96" y="18.13" width="0.1" height="43.12"/><rect class="cls-12" x="133.02" y="18.13" width="0.1" height="43.12"/><rect class="cls-12" x="136.09" y="18.13" width="0.1" height="43.12"/><rect class="cls-12" x="139.16" y="18.13" width="0.1" height="43.12"/><rect class="cls-12" x="142.23" y="18.13" width="0.1" height="43.12"/><rect class="cls-12" x="145.3" y="18.13" width="0.1" height="43.12"/><rect class="cls-12" x="148.37" y="18.13" width="0.1" height="43.12"/></g><rect class="cls-13" x="66.11" y="22.3" width="85.09" height="1" transform="translate(-1.42 8.35) rotate(-4.37)"/><rect class="cls-13" x="108.16" y="13.93" width="1" height="84.87" transform="translate(49.56 163.57) rotate(-88.55)"/><path class="cls-3" d="M79.61,72.82a13.69,13.69,0,0,0-3.29,5.47c-.76,2.21-.41,6.62-1.3,10s-1.93,4.39-1.93,4.39L76.24,94,83.45,74Z"/><path class="cls-7" d="M79.61,72.82a20.88,20.88,0,0,0-1.78,2.26c.75.29,3.42,1.24,4.87,1h0L83.45,74Z"/><path class="cls-14" d="M69,95.06a6.87,6.87,0,0,1,2.74-1.9c1.13-.29,2.09-1.89,2.09-1.89A3,3,0,0,0,76.7,93a11.45,11.45,0,0,0-1.25,3.83,8.4,8.4,0,0,0,1.46,4.28,1.73,1.73,0,0,1,.06,2.47c-.7.84-2.73-1.12-4.28-2.87C70.19,97.89,68.12,95.88,69,95.06Z"/><path class="cls-15" d="M89.28,51.68c.64,8.11-.4,9.16-1.79,14.1A38,38,0,0,1,83.28,75s-5.53-1.39-5.66-2.79S85.23,49,85.23,49Z"/><path class="cls-16" d="M89.28,51.68c.64,8.11-.4,9.16-1.79,14.1A38,38,0,0,1,83.28,75s-5.53-1.39-5.66-2.79S85.23,49,85.23,49Z"/><path class="cls-3" d="M75.81,71.58a13.59,13.59,0,0,0-5.07,3.89c-1.52,1.77-2.82,6-4.87,8.78s-3.41,3.38-3.41,3.38L64.91,90l14-15.89Z"/><path class="cls-14" d="M63.12,87.21c-1.34.78-4.25,2.13-4.06,2.79a31.73,31.73,0,0,1,1.71,3.63c.51,1.71,1.9,5,3.23,4.88s1-2.54.7-4.18a7.13,7.13,0,0,1,1.17-5.42s-1.66-2.16-1.6-2.74Z"/><path class="cls-3" d="M79.46,32A14,14,0,0,1,81.3,29a10.76,10.76,0,0,0,1.56-3.56c.7-2.42.71-3.58,1.63-5.36s2.46-4.58,2.64-5.68.49-3.59,2.33-5.12,1.76-2.52,2.24-1.94c.26.3-1.48,2.11-1.36,2.27s.84-.47,1.38-1.07.81-.76,1-.56S91,9.92,91.16,10.12s1.76-1.31,2-.86-1.59,1.43-1.55,1.6,1.41-.7,1.58-.41-1.5,1.23-1.82,1.51a20.82,20.82,0,0,0-2.09,2.21c-.44.63-.94,2-1.31,5.28A17.35,17.35,0,0,1,85.92,26c-.73,1.51-2.46,8.45-2.23,9.05,0,0-3-.3-3.74-1A2.79,2.79,0,0,1,79.46,32Z"/><path class="cls-3" d="M88.09,11.54s.19-.4.67-.76c.11-.09.24-.19.35-.3a2.43,2.43,0,0,0,.31-.38l.18-.24c.1-.07,0-.17.4-.26.34.11.24.27.28.31a.62.62,0,0,1,0,.24,2.73,2.73,0,0,1-.14.33c-.21.36-.45.67-.65,1-.09.14-.23.33-.21.35s0,.32,0,.46a1.26,1.26,0,0,1-.24,1,.76.76,0,0,0,.07-.26,1.93,1.93,0,0,0-.11-.68c0-.15-.09-.27-.13-.48a1.07,1.07,0,0,1,.21-.61c.19-.32.41-.66.58-1L89.8,10s0-.09,0,0-.09,0,.15.07,0,0,0,.1l-.17.21a1.77,1.77,0,0,1-.42.4c-.15.1-.3.18-.43.25s-.49.24-.63.34A.45.45,0,0,0,88.09,11.54Z"/><path class="cls-3" d="M73.42,36.83A14.34,14.34,0,0,1,75,33.61a11.33,11.33,0,0,0,1.22-3.82c.47-2.56.36-3.76,1.12-5.68s2-5,2.11-6.12.12-3.73,1.85-5.5,1.55-2.77,2.1-2.23c.3.28-1.3,2.32-1.16,2.48s.82-.58,1.31-1.25.75-.87,1-.68S83,13,83.15,13.16s1.67-1.53,2-1.1-1.49,1.64-1.43,1.8,1.37-.86,1.58-.59S83.9,14.69,83.59,15a22.5,22.5,0,0,0-1.91,2.49c-.39.69-.75,2.16-.79,5.56A18.05,18.05,0,0,1,79.44,30c-.6,1.63-1.65,8.94-1.35,9.53,0,0-3.15,0-4-.67A2.83,2.83,0,0,1,73.42,36.83Z"/><path class="cls-7" d="M73.79,37A13.28,13.28,0,0,1,75,33.61a11.33,11.33,0,0,0,1.22-3.82c.47-2.56.36-3.76,1.12-5.68s2-5,2.11-6.12.12-3.73,1.85-5.5,1.55-2.77,2.1-2.23c.3.28-1.3,2.32-1.16,2.48s.82-.58,1.31-1.25.75-.87,1-.68S83,13,83.15,13.16s1.67-1.53,2-1.1-1.49,1.64-1.43,1.8,1.37-.86,1.58-.59S83.9,14.69,83.59,15a22.5,22.5,0,0,0-1.91,2.49c-.39.69-.75,2.16-.79,5.56A18.05,18.05,0,0,1,79.44,30c-.6,1.63-1.65,8.94-1.35,9.53,0,0-3.15,0-4-.67A1.79,1.79,0,0,1,73.79,37Z"/><g class="cls-17"><path class="cls-3" d="M80.15,14.93c-.06,0,.14-.42.6-.84l.33-.35a2.91,2.91,0,0,0,.28-.43l.15-.25c.11-.09,0-.18.39-.32.36.08.27.26.32.29a.7.7,0,0,1,0,.25,3.19,3.19,0,0,1-.1.35c-.18.39-.39.74-.57,1.08a2.12,2.12,0,0,0-.18.38c0,.17.07.33.1.47a1.33,1.33,0,0,1-.14,1,.82.82,0,0,0,0-.28,1.81,1.81,0,0,0-.18-.68c0-.15-.12-.27-.19-.48a1.1,1.1,0,0,1,.16-.65c.16-.35.35-.72.49-1.08l.09-.22s0-.1,0-.06-.09,0,.16.06,0,0,0,.1l-.16.24a1.86,1.86,0,0,1-.39.45,4.92,4.92,0,0,1-.41.31,7,7,0,0,0-.61.41A.43.43,0,0,0,80.15,14.93Z"/></g><path class="cls-7" d="M76.41,72.06,75,72c-.55.31-1,.59-1.44.86a12.46,12.46,0,0,0,3,3.95l2.38-2.71Z"/><path class="cls-15" d="M79.65,55c-1.9,2.28-1.52,4.31-1.52,6.72S73.52,72,73.52,72a11.84,11.84,0,0,0,5.88,3,66.09,66.09,0,0,0,8.69-16.53,52.48,52.48,0,0,0,1.19-6.79Z"/><path class="cls-15" d="M75,35.79c-1.06.34-1.84.06-2.37.44A3.71,3.71,0,0,0,72,41.37c.88,1.34,5.24,5.69,6.25,7.72s.51,6.21.89,6.34,6.33,1.14,9.88-2,2.28-2.92,1.52-4.44-1.77-7.73-3.8-10.64-3.2-4.27-3.2-4.27-2.86-.36-3.77-2.45l-1.53,1.49a8,8,0,0,1-1.84,2.15A9.42,9.42,0,0,1,75,35.79Z"/><path class="cls-3" d="M80.77,35.7A11.74,11.74,0,0,1,78.22,33c-.2-.65.66-.9,1-1.46s-1.12-3.6-1.62-3.85-1.06-.46-1.24-1.07a3.3,3.3,0,0,0-2.62-1.72C72.43,24.78,71.36,35,71.36,35s2.51,1.22,3.06,2.63,3.41,0,4.53-.91A7.1,7.1,0,0,1,80.77,35.7Z"/><path class="cls-18" d="M66.67,28.94a6.7,6.7,0,0,1,3.41-4.41c1.07-.72,4.25-1.49,4.19-.51A6,6,0,0,0,75,26.61a8,8,0,0,0,1.37,1.73.92.92,0,0,1,.15.16.8.8,0,0,1,.11.65c0,.2-.1.09-.23,0s-.6-.47-.85,0c-.33.66-.05,1.08.73,2.15s-.14,3.45-.55,3.93-.78.13-1.55.57-.58.73-.58.73c-1-.78-2.25-.91-3.31-1.53S66.1,32.19,66.67,28.94Z"/><path class="cls-19" d="M75,35.79c-1.06.34-1.84.06-2.37.44A3.71,3.71,0,0,0,72,41.37c.88,1.34,5.24,5.69,6.25,7.72s.51,6.21.89,6.34,6.33,1.14,9.88-2,2.28-2.92,1.52-4.44-1.77-7.73-3.8-10.64-3.2-4.27-3.2-4.27-2.86-.36-3.77-2.45l-1.53,1.49a8,8,0,0,1-1.84,2.15A9.42,9.42,0,0,1,75,35.79Z"/><path class="cls-15" d="M73.29,36c1.69,2.39,4.38,8.22,4.54,12.33a7.36,7.36,0,0,1,.45.74l.09.21c.27-4.15-2.54-10.49-4.45-13.33Z"/><path class="cls-15" d="M89.47,45.33c-.07-.26-.14-.53-.22-.8a48.4,48.4,0,0,1-11.3-11c-.1.15-.22.3-.34.47A49.08,49.08,0,0,0,89.47,45.33Z"/><path class="cls-15" d="M106.62,5.88A5.88,5.88,0,1,1,100.74,0,5.87,5.87,0,0,1,106.62,5.88Z"/><path class="cls-20" d="M106.62,5.88A5.88,5.88,0,1,1,100.74,0,5.87,5.87,0,0,1,106.62,5.88Z"/><path class="cls-16" d="M105.1,2a5.87,5.87,0,0,1-9.78,6.19A5.87,5.87,0,1,0,105.1,2Z"/><path class="cls-14" d="M103.34,7.85a5.23,5.23,0,0,1,3.26-1.57c0-.14,0-.27,0-.4a5.87,5.87,0,0,0-.42-2.18c-.84-.08-1.93,0-4,1.74S96.83,8,94.87,5.88A5.88,5.88,0,0,0,95.79,9,6.78,6.78,0,0,0,103.34,7.85Z"/><path class="cls-14" d="M100.74,11.75a5.88,5.88,0,0,0,5.87-5.69l-.82.36A6.16,6.16,0,0,1,100.74,11.75Z"/><path class="cls-14" d="M102.49.28a11.6,11.6,0,0,1-3.56,1.24,4.73,4.73,0,0,1-1.86-.23,5.86,5.86,0,0,0-1.73,2.27c1.84.91,3.06.9,5.4-.23,2.55-1.23,5.46.37,5.46.37A5.69,5.69,0,0,0,102.49.28Z"/><path class="cls-14" d="M100.74,11.75a5.88,5.88,0,0,0,5.87-5.69l-.82.36A6.16,6.16,0,0,1,100.74,11.75Z"/><path class="cls-14" d="M102.49.28a11.6,11.6,0,0,1-3.56,1.24,4.73,4.73,0,0,1-1.86-.23,5.86,5.86,0,0,0-1.73,2.27c1.84.91,3.06.9,5.4-.23,2.55-1.23,5.46.37,5.46.37A5.69,5.69,0,0,0,102.49.28Z"/><g class="cls-17"><path class="cls-14" d="M101.54,11.69l.36,0,.26-.07.29-.07.3-.11.22-.08.33-.15.16-.08.36-.2a.41.41,0,0,1,.11-.07,3.18,3.18,0,0,0,.37-.27l.06,0c.13-.11.26-.21.38-.33h0a5.9,5.9,0,0,0,1.83-3.88h0v0a1.28,1.28,0,0,1,0-.19h0c0-.06,0-.12,0-.18a5.87,5.87,0,0,0-.42-2.18,3.7,3.7,0,0,0-.67,0,4.53,4.53,0,0,1,0,.52A5.85,5.85,0,0,1,105,6.72a4.72,4.72,0,0,1,.8-.3h0a6.16,6.16,0,0,1-5.05,5.33,5.68,5.68,0,0,0,.59,0A1.52,1.52,0,0,0,101.54,11.69Z"/><path class="cls-14" d="M105.75,2.81l0-.05A5.43,5.43,0,0,0,105.1,2a5.66,5.66,0,0,1,.39,1.44c.44.17.71.31.71.31-.08-.19-.17-.37-.26-.54A3.9,3.9,0,0,0,105.75,2.81Z"/></g><path class="cls-5" d="M50.49,48a11.32,11.32,0,0,0-3.67,3.65c-.78,1.62-6.72,11.27-6,12.59a1.67,1.67,0,0,0,2.7.42c.66-.6,8.16-11.22,8.16-11.22Z"/><polygon class="cls-5" points="51.32 46.9 48.15 49.84 56.31 53.42 56.31 53.42 57.97 45.47 56.1 45.96 55.19 47.24 51.32 46.9"/><path class="cls-3" d="M56.6,44.13c-.52.06-.74,1.76-.2,2.54A2.94,2.94,0,0,1,54.72,48a6.14,6.14,0,0,1-3.17-.35c-.09-.13-.15-4.25-.61-4.8s-1.34-3,1.83-2.48A4.93,4.93,0,0,1,56.6,44.13Z"/><path class="cls-7" d="M51.92,41.91A8,8,0,0,0,51,43a36.25,36.25,0,0,1,.51,4.59,3.11,3.11,0,0,0,.9.27.59.59,0,0,0,0-.27c-.24-1.24-.2-3.58,0-3.36a25,25,0,0,0,3.69.58h0c.09-.38.24-.68.45-.7,0,0-2.33-1.65-2.36-1.73A12.64,12.64,0,0,0,51.92,41.91Z"/><path class="cls-21" d="M56.71,34.74c-1.09-.88-1.45-1.63-2.87-1.63S51,32.89,49.78,34a8.23,8.23,0,0,0-2,5.07c.14,1,0,2.55,3.51,5.52,0,0,.37-1.66,1.47-2s-.32-2.53-.32-2.53Z"/><path class="cls-3" d="M52.81,42.6c-.39,1.4,2.95,2.06,4.3,2.09s1.51-.43,1.4-.88,0-.71.24-.74.32-.39.11-.59c0,0,.31-.28.07-.55s0-.44,0-.54.54-.2.5-.52-.43-.37-.7-.84-.42-.58-.4-1a3.31,3.31,0,0,0-.22-1.81,4,4,0,0,0-1.66-2c-.49-.23-3,.21-3.7,1.4s-.3,4.07-.3,4.07a.69.69,0,0,0-.82-.09c-.45.27-.16.81,0,1.23s.14,1.12.58,1.14A.5.5,0,0,0,52.81,42.6Z"/><path class="cls-21" d="M57.11,34.87c-.57-.26-2.77,1.37-2.77,2,0,.86-.87,1.61-1.24,2.44a4.53,4.53,0,0,0-.29,1.74l-.36-.49a1.28,1.28,0,0,0-.25-.45,1.19,1.19,0,0,1-.35-.56L50.94,36a1.07,1.07,0,0,1,.62-1.25,19.25,19.25,0,0,0,2-1,7.25,7.25,0,0,1,2,.08,1,1,0,0,1,.53.21Z"/><path class="cls-21" d="M57.11,35a4.49,4.49,0,0,0-3.2-1.83l-1.1,1.5s2.92-.06,3.39,0A2.55,2.55,0,0,1,57.11,35Z"/><path class="cls-21" d="M48.46,35.22c.18-.26.67-1.55-1.34-2.32s-4.61.6-4.2,2.23,1,3.65-1.32,3.23c-1.74-.32-1.5,3,.08,4.26s-.87,1.29-.87,1.29,2.65.78,3.1-1c.38-1.49-1.12-3,0-2.37a1.76,1.76,0,0,0,2.59-1.24c0-1.47-.28-5.7,1.69-3.65Z"/><path class="cls-14" d="M56.9,34.86s-2.06,0-2.79,2.78a34.68,34.68,0,0,0,5.63.32,2.65,2.65,0,0,0,2.56-2.48C62.24,35.31,56.9,34.86,56.9,34.86Z"/><path class="cls-14" d="M57.36,35a5.21,5.21,0,0,0-4.55-2.15c-3.29,0-6.65,3.56-4.66,8.07,0,0,4.36-1.56,6-3.26Z"/><path class="cls-22" d="M49.45,100c-.89.8-4.78,2.9-6.37,2.83-1-.05-1,1.73-.59,2a20.32,20.32,0,0,0,7-.08c1.67-.56,3.35-.4,4-.64s.24-2.64-.48-3.68S49.45,100,49.45,100Z"/><path class="cls-22" d="M80.84,96.84c-.29.71.77,1,.85,2.64s-.24,3.76,1.36,4a2.67,2.67,0,0,0,3-2.4c.08-1.28-.61-3.74-.66-5.11S84.22,94.51,83,94.36C81.93,94.24,80.84,96.84,80.84,96.84Z"/><path class="cls-14" d="M54.4,69.42c-1.76,2.48-7.81,10.77-8.19,12s-.61.64,1.23,7.28a50.64,50.64,0,0,1,2,11.37c0,.4,1.91,1,3.51.4,0,0-.24-5.37,0-7.85A14.9,14.9,0,0,0,51.36,84S60.73,74,62,73.63s3.4-.3,6.48,5c1.42,2.42,2.8,4.29,4.16,6.93s5.71,6.38,8.5,11.58a2.19,2.19,0,0,0,2.3-1.87s-2.8-5.2-3.36-6.88a14.53,14.53,0,0,0-2.8-4.76c-1.65-1.83-3.92-9.72-4.64-11.48a31.9,31.9,0,0,0-5.52-8C65.45,62.38,54.4,69.42,54.4,69.42Z"/><path class="cls-23" d="M69.41,67.18a23.12,23.12,0,0,0-2.28-3c-1.68-1.76-12.73,5.28-12.73,5.28-.27.39-.67,1-1.12,1.64C55.33,71.82,61.86,73.45,69.41,67.18Z"/><path class="cls-5" d="M49.45,56.55c.63-.09,1.67,4.17,2.23,5.91.74,2.3,1.35,7.57,1.6,8.21s4.94,1.71,8.63-.69a49.6,49.6,0,0,0,6.42-4.85c.16-.19-3.91-9.17-4.33-10.8-1.58-6,.33-7.81-3-9.25-1.82-.79-3.75.76-4.95.88a4.88,4.88,0,0,1-1.65.85,12.7,12.7,0,0,1-3.13.09L50.49,48l1.19,5.44-2.15,3Z"/><path class="cls-22" d="M53.28,46.94h0a15.16,15.16,0,0,1-2,0l-2.66,2.47-.31.28-.2.19h0a6.53,6.53,0,0,0-1.33,1.77c-.78,1.62-6.72,11.27-6,12.59a1.56,1.56,0,0,0,1.49.92h0A1.87,1.87,0,0,0,43,65h0a2.44,2.44,0,0,0,.28-.14l.26-.2.1-.11,0-.05.11-.13.06-.08.16-.19.06-.08.24-.32.08-.1.21-.28.11-.16a3.15,3.15,0,0,0,.22-.29l.11-.15c.24-.31.49-.66.75-1l.07-.09.34-.47.1-.14.35-.49a.36.36,0,0,0,.07-.1c.15-.2.3-.4.44-.61l0-.06c.13-.18.26-.37.4-.55a.44.44,0,0,1,.08-.11l.4-.57,0,0L49,57.18l0-.07.4-.55h0S50.53,50.37,53.28,46.94Z"/><path class="cls-24" d="M43.52,64.62c.42-.38,3.66-4.89,5.93-8.07V55.09s-5.71,6.56-6.34,7l-1,1.25.2,1.78A2,2,0,0,0,43.52,64.62Z"/><path class="cls-3" d="M41.85,65.16c-.73,0-1.76-.81-1.7-2.91.06-2.25.83-5.43.62-5.87s-2.85-.75-3-1.61.25-2.66.82-2.84,2.74.25,2.79.6-.19,1.38-.65,1.43.6.11.87.37a5.63,5.63,0,0,1,1,2.56C43,58.85,45.38,65.19,41.85,65.16Z"/><path class="cls-14" d="M55.07,57.44a1.75,1.75,0,0,1,2.13,1.21,2.37,2.37,0,0,1-1.73,2.85,2.11,2.11,0,0,1-2.55-.87l1-1a1.26,1.26,0,0,0,1.3.32.57.57,0,0,0,.36-.78c-.16-.5-.64-.63-1.39-.39l-.38.14-.36-1.09.79-1.45L52,57.14l-.42-1.32,3.86-1.24.38,1.31ZM60,55.88a1.75,1.75,0,0,1,2.14,1.2,2.38,2.38,0,0,1-1.74,2.85,2.09,2.09,0,0,1-2.54-.87l1-1a1.23,1.23,0,0,0,1.29.32.56.56,0,0,0,.37-.78c-.16-.49-.64-.63-1.39-.39l-.39.14-.35-1.09.78-1.45-2.18.73-.43-1.32L60.38,53l.37,1.31Z"/><g class="cls-17"><polygon class="cls-14" points="58.48 55.05 58.73 54.59 56.83 55.23 56.94 55.57 58.48 55.05"/><path class="cls-14" d="M58.69,57l-.11,0,.11.35.39-.14a1.72,1.72,0,0,1,.87-.08C59.72,56.86,59.3,56.8,58.69,57Z"/><path class="cls-14" d="M53.9,59.66h0l0,0Z"/><path class="cls-14" d="M53.78,58.56l-.11,0,.12.35.38-.14a1.64,1.64,0,0,1,.87-.09C54.82,58.43,54.4,58.36,53.78,58.56Z"/><path class="cls-14" d="M58.81,58.09l0,0,.06,0S58.82,58.1,58.81,58.09Z"/><path class="cls-14" d="M56.28,57.56a1.87,1.87,0,0,1,.53.84,2.36,2.36,0,0,1-1.73,2.85,2.18,2.18,0,0,1-1.69-.09,2.12,2.12,0,0,0,2.08.34,2.37,2.37,0,0,0,1.73-2.85A1.8,1.8,0,0,0,56.28,57.56Z"/><path class="cls-14" d="M62.11,57.08A1.77,1.77,0,0,0,61.18,56a1.85,1.85,0,0,1,.54.83A2.37,2.37,0,0,1,60,59.68a2.22,2.22,0,0,1-1.69-.08,2.13,2.13,0,0,0,2.07.33A2.38,2.38,0,0,0,62.11,57.08Z"/><polygon class="cls-14" points="53.83 56.16 51.92 56.79 52.03 57.14 53.58 56.62 53.83 56.16"/><path class="cls-14" d="M60.36,54.07l-.78,1.56a1.7,1.7,0,0,1,.54-.05l.63-1.26L60.38,53l-.29.09Z"/><path class="cls-14" d="M55.46,55.64l-.78,1.55a1.93,1.93,0,0,1,.53,0l.64-1.26-.38-1.31-.29.09Z"/></g><path class="cls-7" d="M40.77,56.38a1.06,1.06,0,0,1,0,.4,2.27,2.27,0,0,0,1.62-.69,4.68,4.68,0,0,0-.83-1.76c-.27-.26-1.34-.31-.87-.37s.69-1.09.65-1.43-2.23-.79-2.79-.6-1,2-.82,2.84S40.55,55.93,40.77,56.38Z"/><path class="cls-25" d="M37.72,61.75c1-1.49,10.07-18.37,10.26-19.62a1.34,1.34,0,0,0-2.2-1.25c-1,.83-9.06,19.79-9,20.51A.53.53,0,0,0,37.72,61.75Z"/><path class="cls-3" d="M61.05,45.08a2.52,2.52,0,0,0-1.89-.1l0,.1a77,77,0,0,0-5.55,9.86,8.23,8.23,0,0,0-.87-.15c-.74-.1-4.92-.39-7-.85-1.61-.37-2.27-1-3.18-1s-1.32.55-1.77.59a1.65,1.65,0,0,1-.88-.31h0l.23-.49s-1-.22-1.3.3a.43.43,0,0,0-.08.19c-.32.83,0,2.54,1,2.67s3.2-1.12,4-1c.5.1,4.93,2,8,3,1.26.39,2.8.81,3.21.45,1-.85,7.15-7.92,7.83-9.21.12-.23.27-.51.42-.82A3.21,3.21,0,0,0,61.05,45.08Z"/><path class="cls-26" d="M68.33,65.13c.14-.16-2.92-6.78-4.08-10l2.36,9.43a26.17,26.17,0,0,1-5.87,4.57,14,14,0,0,1-7.45,1.6c.33.64,5,1.67,8.62-.71A49.6,49.6,0,0,0,68.33,65.13Z"/><g class="cls-17"><polygon class="cls-14" points="60.81 74.47 60.81 74.47 60.81 74.47 60.81 74.47"/><path class="cls-14" d="M59.09,76.05a101.93,101.93,0,0,1-8.84,7.41,22.56,22.56,0,0,1,2.59,10.17c0,.25,0,.47,0,.68,0-.64.05-1.23.09-1.72A14.9,14.9,0,0,0,51.36,84S55.9,79.1,59.09,76.05Z"/></g><path class="cls-23" d="M81.46,91.39a32.59,32.59,0,0,1-1.37-3,14.53,14.53,0,0,0-2.8-4.76c-1.65-1.83-3.92-9.72-4.64-11.48-.31-.76-.77-.7-1.31-1.7,1.59,3.44,4.92,13.24,4.77,13.93-.12.52,1.89-.1,5.35,7Z"/><path class="cls-23" d="M59.21,37.32c-2.06.09-4.12,0-4.15-.23-.22-1.31,1.56-2.19,1.56-2.19a3.31,3.31,0,0,0-2.51,2.74,34.68,34.68,0,0,0,5.63.32,2.65,2.65,0,0,0,2.56-2.48A4,4,0,0,1,59.21,37.32Z"/><path class="cls-26" d="M44.6,43a2.38,2.38,0,0,1,2.57,1l-.39.82a3.16,3.16,0,0,0-2.62-1Z"/><path class="cls-22" d="M56.1,46a6.2,6.2,0,0,1-.94.59h0s2.68.18,2.6,2.23,3.29-3.7,3.29-3.7C59.23,44.29,57.3,45.84,56.1,46Z"/><path class="cls-24" d="M56.1,46a6.2,6.2,0,0,1-.94.59h0s2.68.18,2.6,2.23,3.29-3.7,3.29-3.7C59.23,44.29,57.3,45.84,56.1,46Z"/><path class="cls-22" d="M63.19,48.35a3.21,3.21,0,0,0-2.14-3.27,2.52,2.52,0,0,0-1.89-.1l0,.1a77,77,0,0,0-5.55,9.86s1.56,2.17,1.37,3.44c1-.85,7.15-7.92,7.83-9.21C62.89,48.94,63,48.66,63.19,48.35Z"/><path class="cls-24" d="M55.34,56.55c-.27-.38-1.42-1.61-1.42-1.61l1.12-3-1.43,3s1.56,2.17,1.37,3.44a77.1,77.1,0,0,0,6.93-8Z"/><path class="cls-27" d="M154.46,107.1a2.19,2.19,0,0,1,1.35,2c.1,1.56.22,3.34-1.35,3.44l-1,0c-.44,0-.57-.49-1.14-.48s-1.5.54-2.09.55c-2.79,0-5.92,0-6.36-.11s-1.29-1.73-.39-2.32,1.59-.06,2.58-.33c2.92-.79,5.27-3.58,6-3.59A8.38,8.38,0,0,1,154.46,107.1Z"/><path class="cls-27" d="M186.08,99.19c.76,0,3.76-.58,4.35.93a34.84,34.84,0,0,1,1.67,5.32c.68,2.71.63,4.39-.88,5.43a7.92,7.92,0,0,1-3.81,0,1.13,1.13,0,0,1-.29-1.53c.42-.62,1.37-1,1.34-1.36-.11-1.14-3.3-4.66-3.79-7.29C184.45,99.52,186.08,99.19,186.08,99.19Z"/><path class="cls-28" d="M191.22,110.87c1.27-.87,1.5-2.21,1.14-4.22a4.21,4.21,0,0,1-1.46,3.49,10.43,10.43,0,0,1-3.94,0,1,1,0,0,0,.45.74A7.92,7.92,0,0,0,191.22,110.87Z"/><path class="cls-5" d="M187,101.44l-1.87.56c1,2.39,3.28,5,3.37,6C191.28,107.27,188.06,103.51,187,101.44Z"/><path class="cls-28" d="M154.46,112.52c.93-.06,1.26-.71,1.36-1.55-.46.64-2.7.35-3,.57a2.45,2.45,0,0,1-1.7,0c-.17-.06-1.11.21-2.35.23a43.09,43.09,0,0,1-5.62-.23,1.55,1.55,0,0,0,.69.94c.48.13,4.15.14,7.09.1.41,0,.73-.31,1.1-.32s.73.28,1,.27C153.68,112.56,154.18,112.54,154.46,112.52Z"/><path class="cls-5" d="M151.73,107.84s-.59-.39-1.09-.68a13.63,13.63,0,0,1-4.62,2.71,1.19,1.19,0,0,1-.26,0h0c.48.67,2.28.75,3.28,0S151.73,107.84,151.73,107.84Z"/><path class="cls-9" d="M189,99.29c-.91-.64-6-7.17-8.25-9.41-1.52-1.52-3.78-9.62-3.74-12.25.06-3.7.09-6.37-2-8.33l-7.4-.73s0,.61-.05,1.47l-4.47,1.14s-12.87,14.89-12.87,16.55c0,2.41,1.32,17,0,19.15-.64,1.05,2,1.74,2.87,1.77,3.17.09,2.7-.26,2.7-2.69,0-2.91.26-5.55.58-9.06a16,16,0,0,0-.53-6.77,1.56,1.56,0,0,1,.35-1c.14-.12,4.62-4.49,6.75-6.55,1.25-1.21,3.38-3.38,4.5-3.35,1.89,0,3,3.32,3.76,4.89s2.93,6.89,4.27,9c.71,1.12,9.05,9.33,10.76,11.15C187.7,105.75,190,100,189,99.29Z"/><path class="cls-4" d="M179.08,86.46h0a34,34,0,0,1-2-8.84c0-3,.06-5.28-1-7.09a23.13,23.13,0,0,0-5-.61,43.75,43.75,0,0,0-8.35,1.8c-.4.48-1.65,2-2.45,2.88.66.35,4.74-.3,7.28,0,1.51.16,6.88.67,7.65.69C175.38,75.27,176.39,82.72,179.08,86.46Z"/><path class="cls-3" d="M177.17,54c1-.31,11.78-2.43,12.34-2.55.91-.2.34-6.42.29-7.26s-.56-4-.13-4.84c.71-1.41,2.3-2.08,2.54-3.4a3.77,3.77,0,0,0-1.47-3.75c-1.17-.68-2.05,0-1.84.32s1,1.52,1,2.11-.64,1.52-.88,1.42-.15-2.33-.35-2.38c-.4-.1-.48,1-.65,1.92s-.64,1.57-.4,2.29c.49,1.47-1.33,9.65-1,10.81,0,0-9.37,0-9.8,0S177.17,54,177.17,54Z"/><path class="cls-3" d="M157.36,51.12s-3.81.63-4.17.82-.29-.79-6.55-2.86c-3.86-1.27-4.06-2-4.79-2.95s-3-3.54-3.81-2.81-1.72,3.13-.36,4.15,5.89,2.92,7.44,3.74,6.43,4.83,8.07,4.63,9.25-1.55,9.25-1.55Z"/><path class="cls-5" d="M173.69,48.54s.93-.22,2-.35,4.15.34,8.22,0c.19,0,.8,5.72.49,5.9s-5.5,1-6.72,1.73-.81,14-.7,15c.24,2.14-.31,2.17-2.36,2-1.86-.16-4,.43-5.95.12s-7.57.53-7.84.07.35-8.19.35-9.55.53-7.35-.14-7.53-5,.59-5.74.59-.82-5.24-.82-5.83c0,0,5.65-1,8-1.7a8,8,0,0,1,4.68-.22Z"/><path class="cls-3" d="M172.45,43.2c-.08,1.2.05,4.32.07,4.95s-.83,1.94-2.86,1.66c-1.79-.25-1.77-1.15-1.79-1.37a7,7,0,0,0,0-1.29c-.18-.6,2.34-4.74,2.34-4.74Z"/><path class="cls-7" d="M172.43,43.79h0c0-.22,0-.42,0-.58l-2.22-.79s-2.52,4.14-2.34,4.74a1.82,1.82,0,0,1,0,.63C168.22,47.82,171.64,48.17,172.43,43.79Z"/><path class="cls-29" d="M173.43,40.31c.23-.93.76-6-3.54-5.76,0,0-.87-.62-3,.26S164,36,163.66,35.7a12.91,12.91,0,0,0,2.82,1.19,43.78,43.78,0,0,1,4.59.83l.57,3.19A2.82,2.82,0,0,1,173.43,40.31Z"/><path class="cls-3" d="M171.64,40.91c.35-.67,1.28-1,1.79-.6s-.23,1.19-.23,1.8-.52,1.34-1.28,1a3.88,3.88,0,0,1-.87,2.33c-.9,1.1-3,2.36-4.13,1.87s-2.26-3.15-2.41-4,0-1.44-.19-1.77a3.12,3.12,0,0,1,0-2.54c.45-1.11.24-1,1.25-1.12s3.74-1.23,4.64-.24A9.49,9.49,0,0,1,171.64,40.91Z"/><path class="cls-29" d="M164.3,39a3.55,3.55,0,0,1-1-3.58,9.32,9.32,0,0,0,4.28-.09c1.91-.63,3.5.77,3.17,1.7,0,0,1.8,2.41,1.49,3.26a3.78,3.78,0,0,0-.71,1.11s-.48-.18-.66.07c0,0-.22-3-2.32-3.56C166.67,37.39,164.56,38.34,164.3,39Z"/><path class="cls-28" d="M143.48,50.73a1.94,1.94,0,0,0,1.73-2.88c-.82-2-1.64-6-4.54-7.32s-4.9-.35-6.08,2.45S133.05,50.73,143.48,50.73Z"/><path class="cls-30" d="M145.21,47.85c-.82-2-1.64-6-4.54-7.32a5.1,5.1,0,0,0-.57-.22c2.51,1.31,3.25,4.82,4,6.58s-1.12,2.82-2,2.82c-3.48,0-5.89-.75-7.39-1.76.7,1,2,1.9,4.32,2.38a21.55,21.55,0,0,0,3.06.37h.14c.4,0,.81,0,1.24,0A1.94,1.94,0,0,0,145.21,47.85Z"/><path class="cls-27" d="M164.56,48.62a12.53,12.53,0,0,0-2.12.41c-2.33.66-8,1.7-8,1.7,0,.59.09,5.83.82,5.83s5.06-.77,5.74-.59A12.6,12.6,0,0,0,164.56,48.62Z"/><path class="cls-27" d="M183.89,48.21c-3.43.27-7.44-.05-8.22,0-.4,2,.83,4.92,2,7.65,1.22-.68,6.4-1.54,6.72-1.73S184.08,48.2,183.89,48.21Z"/><g class="cls-31"><path class="cls-27" d="M172.74,48.62c0,.2-.42,19.8-.05,24.14h.11c-.38-4.32,0-23.93,0-24.13Z"/><path class="cls-27" d="M171.61,72.87h.11c-.39-4.12,0-24,0-24.24h-.11C171.65,48.82,171.22,68.74,171.61,72.87Z"/><path class="cls-27" d="M161.08,65.19c0,2.82,0,6.39-.05,8l.1,0c0-2,.05-6.72.06-10.56,0,.38,0,.69,0,.9S161.13,64.44,161.08,65.19Z"/><path class="cls-27" d="M173.91,48.49l-.1,0c-.08,4-.35,20.35,0,24.23h.11C173.56,68.89,173.84,52.42,173.91,48.49Z"/><path class="cls-27" d="M177,58.09c0-.29.07-.57.11-.82,0-4.63.07-8.56.07-8.65h-.1C177.1,48.71,177.05,53.11,177,58.09Z"/><path class="cls-27" d="M161.1,56.05a.64.64,0,0,1,.11.22V49.35l-.1,0C161.11,50.56,161.11,53.07,161.1,56.05Z"/><path class="cls-27" d="M176.11,48.62H176c0,.2-.43,20.13,0,24.25l.1,0C175.69,68.69,176.11,48.82,176.11,48.62Z"/><path class="cls-27" d="M175,48.28l-.11,0c-.07,3.63-.37,20.94,0,24.6l.1,0C174.63,69.33,174.94,51.89,175,48.28Z"/><path class="cls-27" d="M162.26,49.08l-.11,0c-.07,3.08-.4,21,0,24.07h.1C161.85,70.12,162.19,52.07,162.26,49.08Z"/><path class="cls-27" d="M167.48,72.91c-.38-3.8,0-22.3,0-24.12h-.1c0,1.85-.41,20.29,0,24.12Z"/><path class="cls-27" d="M168.56,48.75h-.1c0,1.63-.42,20.44,0,24.21h.11C168.15,69.26,168.53,50.34,168.56,48.75Z"/><path class="cls-27" d="M169.6,73c-.41-3.57,0-23,0-24.33h-.1c0,1.4-.43,20.73,0,24.33Z"/><path class="cls-27" d="M170.66,48.66h-.1c0,.87-.43,20.54,0,24.32h.1C170.23,69.21,170.65,49.45,170.66,48.66Z"/><path class="cls-27" d="M165.39,48.58h-.1c-.08,4.17-.36,21,0,24.42h.1C165,69.64,165.31,52.75,165.39,48.58Z"/><path class="cls-27" d="M164.36,48.64l-.1,0c0,.74-.44,20.78,0,24.4h.1C163.92,69.43,164.35,49.1,164.36,48.64Z"/><path class="cls-27" d="M166.46,48.66h-.1c0,.55-.43,20.36,0,24.29h.11C166,69.06,166.45,49.46,166.46,48.66Z"/><path class="cls-27" d="M163.31,48.82l-.1,0c-.05,2.17-.42,21,0,24.28h.11C162.89,69.83,163.27,50.85,163.31,48.82Z"/></g><path class="cls-27" d="M172.49,47.31a4.91,4.91,0,0,1-4.61.46s-1,.75-1,1c0,.48,1.31,1.42,3.74,1.41,1.77,0,3.18-1.38,3.05-1.64S172.65,47.14,172.49,47.31Z"/><path class="cls-28" d="M173.2,47.89a1.84,1.84,0,0,1,.12.18c.13.26-1.28,1.62-3,1.63a5.55,5.55,0,0,1-3.35-.86c.11.49,1.39,1.35,3.72,1.34,1.77,0,3.18-1.38,3.05-1.64A4.66,4.66,0,0,0,173.2,47.89Z"/><path class="cls-32" d="M135.1,45.93c.24-.42,1.15.28,1.15.28s-.1.55-.36.55S134.91,46.28,135.1,45.93Z"/><path class="cls-32" d="M137.56,47.3c-.23.42-1.1-.25-1.1-.25s.09-.54.36-.54S137.76,47,137.56,47.3Z"/><path class="cls-32" d="M135.5,44.8c.24-.42,1.15.28,1.15.28s-.1.55-.36.54S135.31,45.15,135.5,44.8Z"/><path class="cls-32" d="M138,46.17c-.23.42-1.1-.25-1.1-.25s.09-.55.36-.54S138.16,45.82,138,46.17Z"/><g class="cls-33"><path class="cls-28" d="M137.7,48a33.73,33.73,0,0,1-3.65-1.82c0,.11,0,.22.06.33a25.41,25.41,0,0,0,3.6,1.76h0c.23,0,.45-.4.59-.72.22-.5.56-1.56.22-2a22,22,0,0,0-4.07-2.22l-.09.25a22.26,22.26,0,0,1,3.95,2.12,2,2,0,0,1-.13,1.48A1.79,1.79,0,0,1,137.7,48Z"/><path class="cls-28" d="M136.85,40.27a19,19,0,0,1,4.17,2.8.14.14,0,0,0,.09,0,.11.11,0,0,0,.09,0,.13.13,0,0,0,0-.18,19.21,19.21,0,0,0-4-2.74Z"/><path class="cls-28" d="M140,43.81l.09,0a.16.16,0,0,0,.1-.05.15.15,0,0,0,0-.19c-.82-.66-3.15-2.05-4.21-2.68a1.8,1.8,0,0,0-.2.19A48.37,48.37,0,0,1,140,43.81Z"/><path class="cls-28" d="M139.18,44.75a.14.14,0,0,0,.1,0,.18.18,0,0,0,.09,0,.13.13,0,0,0,0-.18c-.19-.21-2.92-1.8-4.29-2.59l-.12.23C136.73,43.24,139,44.59,139.18,44.75Z"/></g><g class="cls-33"><path class="cls-28" d="M139,48.47a4.91,4.91,0,0,1,.08-.88,5.83,5.83,0,0,1,.68-1.83,6.76,6.76,0,0,1,.62-.84,4.72,4.72,0,0,1,.68-.62,2.55,2.55,0,0,1,.54-.34l.21-.12A7.35,7.35,0,0,0,140,45.9,8.76,8.76,0,0,0,139,48.47Z"/></g><path class="cls-28" d="M155.06,50.62l-.6.11c0,.59.09,5.83.82,5.83a8.14,8.14,0,0,0,.82-.08A54,54,0,0,1,155.06,50.62Z"/><path class="cls-28" d="M183.89,48.21l-.68,0c-.09,1.41.08,4,.18,6.1a4.7,4.7,0,0,0,1-.25C184.69,53.93,184.08,48.2,183.89,48.21Z"/><path class="cls-34" d="M177.66,55.84c1.22-.68,6.4-1.54,6.72-1.73.06,0,.09-.32.08-.73-.69.14-5.77,1.5-6.3,1-2.13-1.84-2.49-6.24-2.49-6.24C175.27,50.2,176.5,53.11,177.66,55.84Z"/><path class="cls-34" d="M160.8,54.58c-.73.25-4,.76-6,1,.12.56.26.94.46.94.72,0,5.06-.77,5.74-.59a12.6,12.6,0,0,0,3.54-7.35C164.5,48.63,163.66,53.61,160.8,54.58Z"/><path class="cls-7" d="M191.56,35.67h0a2.59,2.59,0,0,0,.09-.63,2.48,2.48,0,0,0-.06-.54.65.65,0,0,1,0-.13,2.5,2.5,0,0,0-.15-.38l-.06-.11a2.92,2.92,0,0,0-.24-.37l0,0a2.4,2.4,0,0,0-1.84-.85h-.12l-.19,0h0a2.42,2.42,0,0,0-1.74,1.09h0a2.45,2.45,0,0,0-.38,1.31,2.28,2.28,0,0,0,.11.7l.06.2.1.21.1.19.13.18.14.17.16.15.18.15a.91.91,0,0,0,.16.11,1.71,1.71,0,0,0,.23.13l.17.08.28.08.15,0a2.31,2.31,0,0,0,.46,0A2.43,2.43,0,0,0,191.45,36h0a1.83,1.83,0,0,0,.11-.33Z"/><path class="cls-5" d="M191.06,34.55A2.54,2.54,0,1,1,188.52,32,2.54,2.54,0,0,1,191.06,34.55Z"/><path class="cls-26" d="M190,32.53a2.37,2.37,0,1,1-4,2.5,2.54,2.54,0,1,0,4-2.5Z"/><path class="cls-27" d="M188,35.32a3,3,0,0,0,0-.79A2,2,0,0,0,186.52,33c0,.06-.09.11-.13.18a1.76,1.76,0,0,1,1.41,1.38,2.63,2.63,0,0,1,0,.73,2.19,2.19,0,0,0,.33,1.74,2,2,0,0,0,.35,0C187.85,36.69,187.91,36,188,35.32Z"/><path class="cls-27" d="M191,35.2a2.39,2.39,0,0,0-1.44-1.45,5,5,0,0,1-.6-.33,1.46,1.46,0,0,1-.53-1.39l-.2,0a1.68,1.68,0,0,0,.62,1.53,5.45,5.45,0,0,0,.62.35,2.14,2.14,0,0,1,1.42,1.62A2,2,0,0,0,191,35.2Z"/><path class="cls-27" d="M160.75,72.49a59,59,0,0,1,8.69-.09c3.25.36,7.25-.26,7.57-.7l.1,1.43a11.67,11.67,0,0,1-4.57.58,51.35,51.35,0,0,0-11.72.18A8.28,8.28,0,0,1,160.75,72.49Z"/><path class="cls-4" d="M164.45,63.34a1.1,1.1,0,0,1-.9-.35l-.06,0a1.44,1.44,0,0,1-1-.83,9.6,9.6,0,0,1,1-2.34h0s0,0,0-.09v-.11l.14-.07c.22-.38.44-.81.63-1.2a1.74,1.74,0,0,1-.55.1.6.6,0,0,1-.66-.67c0-.14,0-.47.19-.47a1.63,1.63,0,0,0,.4.13,3.1,3.1,0,0,0,1.06-.28,3.42,3.42,0,0,1,1.18-.3c.93,0,1.45.37,1.45,1a2.52,2.52,0,0,1-1.13,1.63,1.5,1.5,0,0,1,1.09,1c.42-1,1.22-1.92,1.7-1.92a2.14,2.14,0,0,1,1.22.58.45.45,0,0,1,.2,0,1.08,1.08,0,0,1,.85.8h0c.12-.19.24-.36.36-.52l.32-.68a14.45,14.45,0,0,0,.85-2,.28.28,0,0,0-.07-.21l-.06,0,0-.09c.05-.13.35-.14.44-.14a.88.88,0,0,1,.77,1,8,8,0,0,1-1,2.5c-.25.5-.49,1-.62,1.3a1.94,1.94,0,0,0-.13.53A16.84,16.84,0,0,0,173.38,60c.17-.37.36-.79.55-1.18a15,15,0,0,0,.86-2,.26.26,0,0,0-.08-.21l-.06,0,0-.09c.05-.13.35-.14.44-.14a.88.88,0,0,1,.77,1,8,8,0,0,1-1,2.5c-.25.5-.49,1-.61,1.3a1.4,1.4,0,0,0-.14.54,16.92,16.92,0,0,0,1.61-2.19.22.22,0,0,1,.19-.12H176l.06.07c.05.08,0,.19-.08.34-.35.51-.63,1-.88,1.39-.52.88-.84,1.4-1.22,1.4s-1.12-.42-1.14-.83c-.34.54-.59.83-.87.83s-1.14-.43-1.14-.84a1,1,0,0,1,0-.26,6.74,6.74,0,0,1-.85,1.07l0,0h-.11a.78.78,0,0,1-.87-.75,4.37,4.37,0,0,1,.39-1.19,5.63,5.63,0,0,0-.59,1c-.28.52-.52,1-.93,1a1.13,1.13,0,0,1-.78-.61A3.32,3.32,0,0,1,164.45,63.34Zm-.52-.88a3.22,3.22,0,0,0,2.6-1.91c0-.3-.1-.64-.84-.64l-.08-.11,0,.09a2.74,2.74,0,0,1-1.12.41,8.25,8.25,0,0,0-.67,2.16Zm7.21-2.31a.13.13,0,0,1-.08,0A5.87,5.87,0,0,0,170,61.81a15.37,15.37,0,0,0,.94-1.32Zm-1.7-.43a2.73,2.73,0,0,0-1,1.19A5.85,5.85,0,0,1,169.44,59.72Zm-3.78-1.92a3.23,3.23,0,0,1-.45,1.3c.61-.28,1.33-.82,1.33-1.34,0-.11,0-.18-.2-.18a2,2,0,0,0-.68.18Z"/><path class="cls-27" d="M175.86,59.47c-.1.15-2.39,3.64-1.67,1.57.36-.95,1.59-3,1.59-3.76a.78.78,0,0,0-.6-.84c-.17,0-.46,0-.41.09a.34.34,0,0,1,.12.29A29.88,29.88,0,0,1,173.47,60c-.65.94-1.84,2.57-1.29,1,.36-.95,1.59-3,1.59-3.76a.78.78,0,0,0-.6-.84c-.17,0-.46,0-.41.09a.34.34,0,0,1,.12.29,21.14,21.14,0,0,1-1.2,2.72c-.55.76-1.32,2.06-1.75,2.49l-.07.06c-.09.07-.08-.05,0-.19s.91-1.83,1.23-1.83-.42-1.06-.88-.7a2.16,2.16,0,0,0-1.21-.62c-.47,0-1.4,1.16-1.75,2.24a1.44,1.44,0,0,0-1.28-1.4c.69-.48,1.27-1.15,1.27-1.67,0-.67-.63-.92-1.35-.92s-1.55.59-2.24.59a1.4,1.4,0,0,1-.4-.13s-.08,0-.08.36c0,1,1.28.39,1.28.39h0c-.21.44-.48,1-.76,1.51-.07,0-.12-.06-.12.05a.27.27,0,0,0,0,.12,10.35,10.35,0,0,0-1,2.3,1.39,1.39,0,0,0,.86.73h.13a1.09,1.09,0,0,0,.83.32,3.2,3.2,0,0,0,2.66-1.74,2,2,0,0,0,0,.24c0,.3.51.67.71.67.66,0,.88-1.58,1.86-2.33a7.68,7.68,0,0,0-.63,1.68.68.68,0,0,0,.77.65h.07a11.6,11.6,0,0,0,1.35-1.82,4.07,4.07,0,0,0-.37,1.09c0,.33.73.74,1,.74s.67-.58,1.18-1.43a2.28,2.28,0,0,0-.2.69c0,.33.72.74,1,.74.48,0,1-1.21,2-2.75C176.08,59.4,175.94,59.36,175.86,59.47ZM165.55,57.8v-.11c.55-.23,1.1-.36,1.1.07,0,.71-1.1,1.35-1.67,1.55A3.93,3.93,0,0,0,165.55,57.8Zm-1.62,4.77-.17,0a6.68,6.68,0,0,1,.77-2.36,2.68,2.68,0,0,0,1.08-.39h.08c.64,0,.94.25.94.75A3.28,3.28,0,0,1,163.93,62.57Zm4.13-1c.84-2.24,1.88-2.07,1.88-2.07s.05,0,0,.05C168.93,59.92,168.06,62,168.06,61.54Z"/><path class="cls-28" d="M172.14,61.15a.49.49,0,0,1,0-.11c.36-.95,1.59-3,1.59-3.76a.85.85,0,0,0-.05-.24,35.87,35.87,0,0,1-1.54,3.47C172,61.06,172,61.21,172.14,61.15Z"/><path class="cls-28" d="M166.22,59.37a1.35,1.35,0,0,0-.53-.1h-.08a2.68,2.68,0,0,1-1.08.39,6.68,6.68,0,0,0-.77,2.36h.08a8,8,0,0,1,.69-1.84,2.68,2.68,0,0,0,1.08-.39h.08c.49,0,.77.15.89.43a.58.58,0,0,0,0-.21c0-.05,0-.09,0-.14a2.13,2.13,0,0,0-.67-.29Z"/><path class="cls-28" d="M170.92,60.14l.18-.27a1.22,1.22,0,0,0-.18-.26,6.92,6.92,0,0,0-1.09,1.76c-.05.14-.06.26,0,.19l.07-.06c.07-.07.15-.18.24-.29A5,5,0,0,1,170.92,60.14Z"/><path class="cls-28" d="M174.16,61.14a.54.54,0,0,1,0-.1c.36-.95,1.59-3,1.59-3.76a1.5,1.5,0,0,0,0-.24c-.21.92-1.23,2.61-1.55,3.47C174,61.06,174,61.21,174.16,61.14Z"/><path class="cls-28" d="M174.85,56.47c-.06,0-.1,0-.08.06l0,0Z"/><path class="cls-28" d="M172.83,56.47c-.05,0-.09,0-.07.06l0,0Z"/><path class="cls-28" d="M171,60.51a14.39,14.39,0,0,1-1.1,1.52l-.07.06c-.09.07-.08-.05,0-.19v0h-.05a.73.73,0,0,1-.71-.4,1.29,1.29,0,0,0-.06.28.68.68,0,0,0,.77.65h.07a8,8,0,0,0,1-1.26A2.35,2.35,0,0,1,171,60.51Z"/><path class="cls-28" d="M175.86,59.47c-.05.08-.82,1.24-1.34,1.85-.23.35-.43.56-.63.56a1.54,1.54,0,0,1-1-.55,1.69,1.69,0,0,0-.07.34c0,.33.72.74,1,.74.48,0,1-1.21,2-2.75C176.08,59.4,175.94,59.36,175.86,59.47Z"/><path class="cls-28" d="M172.86,61.14a1.45,1.45,0,0,1,.08-.37,6.21,6.21,0,0,1-.45.58c-.22.32-.42.53-.61.53a1.54,1.54,0,0,1-1-.55,1.3,1.3,0,0,0-.08.34c0,.33.73.74,1,.74s.59-.46,1-1.15A.27.27,0,0,1,172.86,61.14Z"/><path class="cls-28" d="M169.55,59.77a3.89,3.89,0,0,0-.63.65c-.42.71-.67,1.46-1.13,1.46-.2,0-.71-.37-.71-.67a2,2,0,0,1,0-.24,3.2,3.2,0,0,1-2.66,1.74,1.19,1.19,0,0,1-.59-.15h-.1s0,0,0-.06-.11-.06-.15-.1h-.13a1.49,1.49,0,0,1-.78-.56,1.32,1.32,0,0,0-.08.36,1.39,1.39,0,0,0,.86.73h.13a1.09,1.09,0,0,0,.83.32,3.2,3.2,0,0,0,2.66-1.74,2,2,0,0,0,0,.24c0,.3.51.67.71.67.55,0,.8-1.1,1.44-1.9C169.33,60.24,169.46,60,169.55,59.77Z"/><path class="cls-28" d="M164.14,58.31c.11-.22.21-.44.31-.63h0s-1,.47-1.24-.18a.81.81,0,0,0,0,.32C163.14,58.5,163.76,58.42,164.14,58.31Z"/><path class="cls-4" d="M184.5,94.1c1.19,1.88,3.53,5.26,3.59,5.52a6.2,6.2,0,0,1-2.51,3.89l.72.74c1.4,1.5,3.74-4.25,2.74-5A65.75,65.75,0,0,1,184.5,94.1Z"/><path class="cls-4" d="M155.86,106c0-2.91.26-5.55.58-9.06a22.15,22.15,0,0,0,.09-2.34,60.69,60.69,0,0,1-1.34,6.28,48.46,48.46,0,0,0-.73,6.26,13.62,13.62,0,0,1-4.11-.34,1.34,1.34,0,0,1-.06.12c-.64,1.05,2,1.74,2.87,1.77C156.33,108.74,155.86,108.39,155.86,106Z"/><path class="cls-3" d="M12,90.56c-.59,2.43-5.3,8-6.6,13.25s-5.2,8.55-5.2,10.06c0,.65,2.07,1.84,3.85,1.4s2.09-5,3-6.84,4.89-8.12,6-10.07S17,92.19,17,92.19Z"/><path class="cls-3" d="M32.09,87.31c.65,1.09,3.91,5.14,3.36,7.15-.47,1.71-2.06,10.88-1.68,11.42a16.37,16.37,0,0,0,2.76,3c.65.32,1.84.43,1.74,1.4s-1.19,2.06-3.09,1.84-5.25-4.87-5.68-5.19-.5-1.43.54-2.48c1.39-1.4.43-10.54.86-11.95s-2.7-3.35-2.7-3.35Z"/><path class="cls-9" d="M14.13,79.41S9.38,91.87,9.81,92.84s5.41,2.78,6.81,1.8S22.9,85,22.9,85s5.68,9.21,6.22,9.43,6.87-1.63,7.52-2.28-7.55-16.58-7.66-17S14.13,79.41,14.13,79.41Z"/><path class="cls-22" d="M23.84,52.6c-1.92.43-2.16.54-3.56.95A7.44,7.44,0,0,0,17.73,55c-2.45-.14-5.05.87-7.51,2.17l-1.3.66.54,5.23a16.45,16.45,0,0,1,3.21-.32c1,.4,1.13,14.31,1.46,16.63.07.5,5.95,2.44,9.92.42s5.76-2,6.34-2.67S28,61.56,28.25,59.54c.26-1.81,1.35-3.34,3.39-5.77l-3-3.5A22.66,22.66,0,0,1,23.84,52.6Z"/><path class="cls-3" d="M37.87,47.7c2-1.88,3.34-4,4-4.53A20.77,20.77,0,0,0,44.46,41c1.43-2.29,1.46-2.8.48-5.36-.62-1.63-2.14,3.71-3.06,3.49-.16,0,.27-2.42.14-2.43-.38,0-.36,0-.47.13-.36.36-.71,3.63-1.43,4.57s-7,4.87-8,6.4a15.69,15.69,0,0,1-3.43,2.49l3,3.5.74-.88C34.91,49.93,35.92,49.57,37.87,47.7Z"/><path class="cls-3" d="M4.53,59.88S3.69,57.58,3,55s0-4.62.65-5.2.44-3.17-.07-4S.08,47.6,0,48.11a5.7,5.7,0,0,0,.58,2.61c.36.51-.17,11.62.48,12.77.43.77,5.1.08,8.39-.39l-.54-5.23C6.76,58.94,4.53,59.88,4.53,59.88Z"/><g class="cls-35"><g class="cls-31"><polygon class="cls-9" points="15.67 42.8 15.73 42.87 27.18 32.71 27.12 32.64 15.67 42.8"/></g><g class="cls-31"><polygon class="cls-9" points="15.07 42.13 15.13 42.2 26.58 32.03 26.52 31.96 15.07 42.13"/></g><g class="cls-31"><rect class="cls-9" x="12.58" y="36.32" width="15.31" height="0.18" transform="translate(-19.07 22.61) rotate(-41.59)"/></g><g class="cls-31"><rect class="cls-9" x="11.98" y="35.69" width="15.31" height="0.09" transform="translate(-18.78 22.08) rotate(-41.65)"/></g><g class="cls-31"><polygon class="cls-9" points="13.28 40.11 13.34 40.17 24.79 30.01 24.73 29.94 13.28 40.11"/></g><g class="cls-31"><rect class="cls-9" x="10.78" y="34.29" width="15.31" height="0.18" transform="translate(-18.18 20.9) rotate(-41.59)"/></g><g class="cls-31"><rect class="cls-9" x="10.18" y="33.67" width="15.31" height="0.09" transform="translate(-17.91 20.41) rotate(-41.7)"/></g><g class="cls-31"><polygon class="cls-9" points="11.48 38.08 11.54 38.15 22.99 27.99 22.93 27.92 11.48 38.08"/></g><g class="cls-31"><rect class="cls-9" x="8.99" y="32.27" width="15.31" height="0.18" transform="translate(-17.28 19.19) rotate(-41.57)"/></g><g class="cls-31"><polygon class="cls-9" points="10.29 36.74 10.35 36.8 21.8 26.64 21.74 26.57 10.29 36.74"/></g><g class="cls-31"><rect class="cls-9" x="7.79" y="30.97" width="15.31" height="0.09" transform="translate(-16.71 18.1) rotate(-41.65)"/></g><g class="cls-31"><polygon class="cls-9" points="8.49 34.72 8.55 34.78 20 24.62 19.94 24.55 8.49 34.72"/></g><g class="cls-31"><polygon class="cls-9" points="8.91 32.55 19.07 43.99 19.14 43.94 8.98 32.49 8.91 32.55"/></g><g class="cls-31"><rect class="cls-9" x="14.61" y="29.99" width="0.18" height="15.31" transform="translate(-21.28 19.25) rotate(-41.6)"/></g><g class="cls-31"><polygon class="cls-9" points="10.26 31.35 20.42 42.8 20.49 42.74 10.33 31.29 10.26 31.35"/></g><g class="cls-31"><polygon class="cls-9" points="10.93 30.75 21.09 42.2 21.16 42.14 11 30.69 10.93 30.75"/></g><g class="cls-31"><rect class="cls-9" x="16.63" y="28.19" width="0.18" height="15.31" transform="translate(-19.58 20.14) rotate(-41.6)"/></g><g class="cls-31"><polygon class="cls-9" points="12.28 29.55 22.44 41 22.51 40.94 12.35 29.5 12.28 29.55"/></g><g class="cls-31"><polygon class="cls-9" points="12.96 28.96 23.12 40.41 23.18 40.35 13.02 28.9 12.96 28.96"/></g><g class="cls-31"><rect class="cls-9" x="18.65" y="26.4" width="0.18" height="15.31" transform="translate(-17.88 21.03) rotate(-41.59)"/></g><g class="cls-31"><polygon class="cls-9" points="14.3 27.76 24.46 39.21 24.53 39.15 14.37 27.7 14.3 27.76"/></g><g class="cls-31"><polygon class="cls-9" points="14.98 27.16 25.14 38.61 25.21 38.55 15.04 27.1 14.98 27.16"/></g><g class="cls-31"><polygon class="cls-9" points="15.62 26.59 25.78 38.04 25.91 37.92 15.75 26.47 15.62 26.59"/></g><g class="cls-31"><polygon class="cls-9" points="16.32 25.96 26.49 37.41 26.55 37.35 16.39 25.91 16.32 25.96"/></g><g class="cls-31"><polygon class="cls-9" points="17 25.37 27.16 36.81 27.23 36.76 17.07 25.31 17 25.37"/></g><g class="cls-31"><rect class="cls-9" x="22.7" y="22.81" width="0.18" height="15.31" transform="translate(-14.48 22.81) rotate(-41.59)"/></g></g><path class="cls-25" d="M14.47,29.92c3.06-2.72,7.32-3,9.49-.5s1.45,6.65-1.62,9.37-7.32,2.94-9.49.49S11.4,32.64,14.47,29.92Zm.3.33c-2.88,2.56-3.59,6.47-1.58,8.73s6,2,8.86-.53,3.58-6.47,1.58-8.73S17.64,27.7,14.77,30.25Z"/><path class="cls-25" d="M9.81,41.92l.3.34c1.93-1.71,5.34-1.44,5.38-1.44l0-.45C15.38,40.36,11.89,40.08,9.81,41.92Z"/><path class="cls-25" d="M9.57,41.65l.3.34c2.08-1.84,2.21-5.35,2.21-5.49l-.45,0S11.5,39.94,9.57,41.65Z"/><rect class="cls-4" x="4.57" y="39.36" width="1.64" height="13.1" rx="0.32" transform="translate(-25.34 80.44) rotate(-131.65)"/><rect class="cls-19" x="1.17" y="48.54" width="1.64" height="0.77" transform="translate(-33.29 82.88) rotate(-131.58)"/><rect class="cls-19" x="1.98" y="48.01" width="1.64" height="0.38" transform="translate(-31.39 82.3) rotate(-131.6)"/><g class="cls-17"><path class="cls-4" d="M9.84,41.11.72,49.19a.32.32,0,0,0,0,.45l.66.75a.28.28,0,0,0,.12.08l-.21.19a.32.32,0,0,1-.45,0l-.66-.75a.32.32,0,0,1,0-.45L9.5,41.16A.33.33,0,0,1,9.84,41.11Z"/></g><path class="cls-15" d="M198.54,64.45c-.45,1.2-2.07,2.5-.93,8.7a35.29,35.29,0,0,1,.66,4.42,23.71,23.71,0,0,0-3.8,1.83c-1.37.92-3.87,2.52-5.63,2.33-1.43-.15-1.65.7-2.11.84-.94.29-.94.7-.28,1.69a2,2,0,0,0,2.3,1A14.11,14.11,0,0,1,191,83.82c1.1-.4,10.09-2.61,10.55-4.19.41-1.43.74-9.42.74-9.42l-1.42-5.09Z"/><path class="cls-36" d="M198.54,64.45c-.45,1.2-2.07,2.5-.93,8.7a35.29,35.29,0,0,1,.66,4.42,23.71,23.71,0,0,0-3.8,1.83c-1.37.92-3.87,2.52-5.63,2.33-1.43-.15-1.65.7-2.11.84-.94.29-.94.7-.28,1.69a2,2,0,0,0,2.3,1A14.11,14.11,0,0,1,191,83.82c1.1-.4,10.09-2.61,10.55-4.19.41-1.43.74-9.42.74-9.42l-1.42-5.09Z"/><path class="cls-37" d="M192.31,80.72h0a6.65,6.65,0,0,1-3.47,1c-1.43-.15-1.65.7-2.11.84-.94.29-.94.7-.28,1.69a2,2,0,0,0,2.3,1A14.11,14.11,0,0,1,191,83.82c.32-.11,1.3-.38,2.54-.74C193.6,80.9,192.31,80.72,192.31,80.72Z"/><path class="cls-38" d="M192.31,80.72h0a6.65,6.65,0,0,1-3.47,1c-1.43-.15-1.65.7-2.11.84-.94.29-.94.7-.28,1.69a2,2,0,0,0,2.3,1A14.11,14.11,0,0,1,191,83.82c.32-.11,1.3-.38,2.54-.74C193.6,80.9,192.31,80.72,192.31,80.72Z"/><g class="cls-39"><g class="cls-31"><polygon class="cls-9" points="174.69 79.69 174.64 79.77 171.5 67.12 171.56 67.05 174.69 79.69"/></g><g class="cls-31"><polygon class="cls-9" points="175.24 78.98 175.18 79.05 172.05 66.4 172.1 66.33 175.24 78.98"/></g><g class="cls-31"><polygon class="cls-9" points="175.81 78.22 175.7 78.36 172.56 65.72 163.6 68.98 175.81 78.22"/></g><g class="cls-31"><polygon class="cls-9" points="176.33 77.54 176.27 77.61 164.06 68.37 164.12 68.3 176.33 77.54"/></g><g class="cls-31"><polygon class="cls-9" points="176.87 76.82 176.81 76.89 164.61 67.66 164.66 67.58 176.87 76.82"/></g><g class="cls-31"><rect class="cls-9" x="171.19" y="63.86" width="0.18" height="15.31" transform="translate(10.82 164.81) rotate(-52.84)"/></g><g class="cls-31"><polygon class="cls-9" points="177.96 75.38 177.9 75.45 165.69 66.22 165.75 66.15 177.96 75.38"/></g><g class="cls-31"><polygon class="cls-9" points="178.5 74.66 178.45 74.73 166.24 65.5 166.29 65.43 178.5 74.66"/></g><g class="cls-31"><rect class="cls-9" x="172.82" y="61.71" width="0.18" height="15.31" transform="translate(13.21 165.31) rotate(-52.86)"/></g><g class="cls-31"><polygon class="cls-9" points="179.59 73.23 179.53 73.3 167.32 64.06 167.38 63.99 179.59 73.23"/></g><g class="cls-31"><polygon class="cls-9" points="180.13 72.51 180.08 72.58 167.87 63.34 167.92 63.27 180.13 72.51"/></g><g class="cls-31"><polygon class="cls-9" points="181.22 71.07 181.16 71.14 168.96 61.91 169.01 61.83 181.22 71.07"/></g><g class="cls-31"><polygon class="cls-9" points="180.63 68.94 171.4 81.15 171.32 81.09 180.56 68.89 180.63 68.94"/></g><g class="cls-31"><polygon class="cls-9" points="179.95 68.42 170.71 80.63 170.57 80.52 179.81 68.31 179.95 68.42"/></g><g class="cls-31"><polygon class="cls-9" points="179.2 67.85 169.96 80.06 169.89 80.01 179.12 67.8 179.2 67.85"/></g><g class="cls-31"><polygon class="cls-9" points="178.48 67.31 169.24 79.52 169.17 79.46 178.41 67.25 178.48 67.31"/></g><g class="cls-31"><polygon class="cls-9" points="177.79 66.79 168.56 79 168.41 78.89 177.65 66.68 177.79 66.79"/></g><g class="cls-31"><polygon class="cls-9" points="177.04 66.22 167.8 78.43 167.73 78.38 176.97 66.17 177.04 66.22"/></g><g class="cls-31"><polygon class="cls-9" points="176.32 65.68 167.09 77.89 167.01 77.83 176.25 65.62 176.32 65.68"/></g><g class="cls-31"><polygon class="cls-9" points="175.64 65.16 166.4 77.37 166.26 77.26 175.49 65.05 175.64 65.16"/></g><g class="cls-31"><polygon class="cls-9" points="174.88 64.59 165.65 76.8 165.58 76.75 174.81 64.54 174.88 64.59"/></g><g class="cls-31"><polygon class="cls-9" points="174.16 64.05 164.93 76.26 164.86 76.2 174.09 63.99 174.16 64.05"/></g><g class="cls-31"><polygon class="cls-9" points="173.48 63.53 164.25 75.74 164.1 75.63 173.34 63.42 173.48 63.53"/></g><g class="cls-31"><polygon class="cls-9" points="172.73 62.96 172.56 71.76 172.49 71.71 172.66 62.91 172.73 62.96"/></g><g class="cls-31"><polygon class="cls-9" points="172.01 62.42 171.84 71.22 171.77 71.16 171.94 62.36 172.01 62.42"/></g><g class="cls-31"><polygon class="cls-9" points="171.33 61.9 171.16 70.7 171.02 70.59 171.18 61.79 171.33 61.9"/></g></g><path class="cls-25" d="M177.23,76c-2,2.6-6.23,2.72-9.5.24s-4.32-6.6-2.35-9.21,6.24-2.72,9.51-.25S179.21,73.36,177.23,76Zm-11.49-8.7c-1.82,2.41-.81,6.26,2.26,8.59s7.05,2.25,8.87-.17.81-6.26-2.26-8.58S167.57,64.86,165.74,67.27Z"/><path class="cls-25" d="M180.47,78.36l-.28.35c-2.05-1.55-5.43-1-5.47-1l-.07-.45C174.8,77.24,178.26,76.68,180.47,78.36Z"/><path class="cls-25" d="M180.68,78.07l-.27.36c-2.21-1.68-2.62-5.16-2.63-5.3l.45,0S178.63,76.51,180.68,78.07Z"/><rect class="cls-4" x="184.37" y="75.44" width="1.64" height="13.1" rx="0.32" transform="matrix(0.6, -0.8, 0.8, 0.6, 8.07, 180.2)"/><rect class="cls-19" x="188" y="84.34" width="1.64" height="0.77" transform="matrix(0.6, -0.8, 0.8, 0.6, 7.33, 184.19)"/><rect class="cls-19" x="187.13" y="83.88" width="1.64" height="0.38" transform="matrix(0.6, -0.8, 0.8, 0.6, 7.53, 183.28)"/><g class="cls-17"><path class="cls-4" d="M180.38,77.55l9.72,7.35a.31.31,0,0,1,.06.44l-.61.8a.24.24,0,0,1-.11.09l.23.17a.31.31,0,0,0,.44-.06l.61-.8a.33.33,0,0,0-.06-.45l-9.94-7.52A.32.32,0,0,0,180.38,77.55Z"/></g><path class="cls-4" d="M212.64,84.64c-.89,2-5.33,5.47-6.16,6.62s1.49,3.45,1.58,8.53c.09,6,1.65,12.12,1.39,10.35l-2.53-1.47s-4.77-14.4-5.75-16-1.89-2.62.52-5.31,9.61-7.73,9.61-7.73S213.52,82.6,212.64,84.64Z"/><path class="cls-21" d="M200.42,111.82a1.17,1.17,0,0,1,.85-1.85c1.14-.07,4.25-1,4.13-2.67s.88-.85,1.93-.56,1.72-.2,2.13,1a20,20,0,0,1,.55,4.12C210,112,201.11,112.37,200.42,111.82Z"/><path class="cls-9" d="M210.91,77.76c1.45.67,4.35,3.52,2.53,6.94-.93,1.76-3.75,2.76-5.39,4.33-3.38,3.24-7.28,4.8-8,5.5s1.41,1.62,2,6.67a53.5,53.5,0,0,0,2.2,10.1h-2.7s-5.68-13.82-6.46-15.49c-1.41-3,.12-4.11,2.52-6.45,2.59-2.51,9.63-8.64,9.63-8.64Z"/><path class="cls-8" d="M194.9,114a1.28,1.28,0,0,1,.93-2c1.24-.07,4.77-1.1,4.64-2.9s1-.94,2.11-.61,1.87-.23,2.32,1.05a21.53,21.53,0,0,1,.6,4.48C205.5,114.22,195.65,114.59,194.9,114Z"/><path class="cls-37" d="M192.73,61.21c1.21.52,2,2.39,2.1,2.7s2.94-2.54,2.81-2.7a2.22,2.22,0,0,1-.33-1.81c.19-1-3-.79-3-.79Z"/><path class="cls-38" d="M192.73,61.21c1.21.52,2,2.39,2.1,2.7s2.94-2.54,2.81-2.7a2.22,2.22,0,0,1-.33-1.81c.19-1-3-.79-3-.79Z"/><path class="cls-15" d="M197.64,61.21c5.05,1.09,6,3.6,8.38,7.64a73.5,73.5,0,0,0,5.69,8.28c.74.89.46,5.68-8.22,6.73a8.47,8.47,0,0,0-1.55-3.2c-2.94-4.49-4.3-11.81-4.3-11.81l-2.81-4.94Z"/><path class="cls-15" d="M194.89,63.43c-.28,1.25-1.7,2.76.3,8.75a34.42,34.42,0,0,1,1.27,4.28,24.12,24.12,0,0,0-3.52,2.34c-1.22,1.1-3.47,3-5.24,3.1-1.44,0-1.54.92-2,1.12-.9.42-.84.82,0,1.72a2,2,0,0,0,2.41.69,13.56,13.56,0,0,1,2.05-1.77c1-.55,9.63-4,9.86-5.62s-.58-9.43-.58-9.43l-2.12-4.85Z"/><path class="cls-37" d="M196,51a4.43,4.43,0,0,0-5.52,2.49c-1.11,2.45-.32,2-.9,2.66s-.89,2.24.34,4.57,6.07.34,6.46-.42a.73.73,0,0,0,1-.17c.49-.54,1.18-1.77,0-1.81a1,1,0,0,0,1.37-.57A4.8,4.8,0,0,0,196,51Z"/><path class="cls-37" d="M196,51a4.43,4.43,0,0,0-5.52,2.49c-1.11,2.45-.32,2-.9,2.66s-.89,2.24.34,4.57,5.71.35,6.1-.4c0,0,.86.35,1.35-.19s1.18-1.77,0-1.81a1,1,0,0,0,1.37-.57A4.8,4.8,0,0,0,196,51Z"/><path class="cls-40" d="M197.83,56.82l-1.3,1c.18.35,0,.9-.13,1.73a3,3,0,0,1-.46,1.26c-1.42.91-.38,1.8-.38,1.8s-.5,0-.57.6a.91.91,0,0,0,.46.91.57.57,0,0,0-.15.8c.31.5,1.4.28,1.4.28a1.87,1.87,0,0,0,.87-1.3c.45-.52,0-1.27,0-1.27a.54.54,0,0,0-.1-.86c1.36-.75.61-1.64.61-1.64,1.5-1.13,1-2.15.13-3A3.28,3.28,0,0,1,197.83,56.82Z"/><path class="cls-40" d="M194.9,53.16a3.53,3.53,0,0,0-.17,2.23c.33,2,1.63,3.39,1.76,4a.64.64,0,0,1,0,.31l1.63.37a13.74,13.74,0,0,1,1.53-3.17c.55-.93.7-3.28-.31-4.37s-1.69-1-1.69-1-.26-1.21-2.44-1.78a2.66,2.66,0,0,0-3.08,1A5.19,5.19,0,0,0,189,53.43a3.37,3.37,0,0,0,.09,3.79s.07-.32.11-.43a4,4,0,0,1,.22-.49C189.86,53.06,193.91,54.49,194.9,53.16Z"/><path class="cls-40" d="M196.48,65.85c-.21.67.33,1,.87,1.07s1.21.18,1.25.62a2.68,2.68,0,0,0-.3-1.69,1.09,1.09,0,0,1,.44.31s-.14-1.32-1.24-1.28Z"/><path class="cls-37" d="M189.11,58.33a7,7,0,0,0,.81,2.34c1.23,2.33,5.71.35,6.1-.4a.49.49,0,0,0,.84-.06c.15-.19.15-.65.33-.85s.32-.87,0-1-.53,0-1.06.38C196.45,58.72,189.81,58.2,189.11,58.33Z"/><path class="cls-22" d="M195.93,65.27a2.33,2.33,0,0,0,1.51-.88s.28,0,.33.36-1.07,1-1.29,1.1S195.53,65.78,195.93,65.27Z"/><path class="cls-37" d="M191,80.41h0a6.76,6.76,0,0,1-3.29,1.49c-1.44,0-1.54.92-2,1.12-.9.42-.84.82,0,1.72a2,2,0,0,0,2.41.69,13.56,13.56,0,0,1,2.05-1.77c.3-.16,1.23-.56,2.41-1.09C192.3,80.41,191,80.41,191,80.41Z"/><path class="cls-16" d="M206.07,81.72c-1.28-1.28-6.64-13.11-6.64-13.11l.63,8.39a22.9,22.9,0,0,0,1.88,3.66,8.47,8.47,0,0,1,1.55,3.2c8.68-1,9-5.84,8.22-6.73C210.47,79.64,206.07,81.72,206.07,81.72Z"/><path class="cls-3" d="M17.55,53.27c.2,1,.13,1.84.2,2.1s2.94,3.71,5,3.09c1.08-.32,0-3.31,0-3.31Z"/><g class="cls-17"><path class="cls-3" d="M17.66,54.05a3.64,3.64,0,0,1,0,.45.08.08,0,0,0,0,0v.13c0,.09,0,.18,0,.26a4.43,4.43,0,0,0,5.39,1.52,13,13,0,0,0-.36-1.3l-4.65-1.68Z"/></g><path class="cls-3" d="M22.28,46.49c.46.84,1.34.87,1.32,2.52,0,.26.38.67.45.83.33.72.84,4.31-.45,5.28A5.34,5.34,0,0,1,17.31,54c-.93-1.13-2-2.15-2-3,0-1.16,1.4-2.14,1.4-2.14Z"/><path class="cls-18" d="M16.94,53.58c-.42-1-1-1.11-.83-1.63s1.28-.21,1.94.72a3.34,3.34,0,0,0,.44-2.18c-.31-.86,1.82-1.5,2.73-1.83s2.45-.76,1.54-2.38a4.62,4.62,0,0,0-5.68-1.7,5,5,0,0,0-3.07,4c-.17.78,1.13,3.51,2.22,4.54a6.43,6.43,0,0,1,1.44,1.63,1.9,1.9,0,0,0-.22-.85C17.35,53.77,17,53.68,16.94,53.58Z"/><path class="cls-22" d="M29.62,49.66a43.4,43.4,0,0,1,3.61,6s-5.11,1.45-5,3.91-2.14-7.88-2.14-7.88Z"/><path class="cls-22" d="M7.87,58.38c.14-.07,1,5.46,1,5.46l4.1-.29,2.45-5.17-5.25-1.17Z"/><path class="cls-18" d="M18.37,51.89a.37.37,0,0,0-.3.43.36.36,0,0,0,.43.29.37.37,0,0,0,.3-.43A.36.36,0,0,0,18.37,51.89Z"/><path class="cls-18" d="M18.56,51.17a.36.36,0,0,0-.29.43.37.37,0,0,0,.43.3.36.36,0,0,0,.29-.43A.37.37,0,0,0,18.56,51.17Z"/><path class="cls-18" d="M21.07,48.06a.37.37,0,0,0-.3.43.05.05,0,0,0,0,0,.59.59,0,0,0-.45-.1.6.6,0,0,0-.47.48.55.55,0,0,0-.42-.28.58.58,0,0,0-.56.26.75.75,0,0,0-.51-.1A.73.73,0,0,0,18,50.06a.59.59,0,0,0-.17.52.58.58,0,0,0,.68.48.6.6,0,0,0,.48-.69.61.61,0,0,0-.11-.23.73.73,0,0,0,.29-.38l.1,0a.59.59,0,0,0,.65-.48A.59.59,0,0,0,21,48.91a.51.51,0,0,0-.07-.17.42.42,0,0,0,.24,0,.38.38,0,0,0,.3-.43A.37.37,0,0,0,21.07,48.06Z"/><path class="cls-18" d="M23.34,47a.36.36,0,0,0-.13-.53.18.18,0,0,0,0-.1c0-.05,0-.08-.05-.13a.35.35,0,0,0,.27-.35.39.39,0,0,0-.38-.39.37.37,0,0,0-.24.1.57.57,0,0,0,.17-.49.6.6,0,0,0-.64-.48.19.19,0,0,0,0-.08.39.39,0,0,0-.4-.39.36.36,0,0,0-.2.06.52.52,0,0,0-.5-.38.58.58,0,0,0-.18,0s0,0,0-.06a.45.45,0,0,0-.83-.23.45.45,0,0,0-.54.1h-.21a.57.57,0,0,0-.42.36.73.73,0,0,0-1.41.07.65.65,0,0,0-.31,0,.45.45,0,0,0-.12.06s0,0,0,0a.35.35,0,0,0-.7,0,.54.54,0,0,0-.25-.06.6.6,0,0,0-.37.14.37.37,0,0,0-.4-.24.38.38,0,0,0-.3.4h-.07a.35.35,0,0,0-.29.42.35.35,0,0,0,.19.26.75.75,0,0,0,0,.16H15a.59.59,0,0,0-.35.22.57.57,0,0,0-.23-.08.59.59,0,0,0-.16,1.17A.59.59,0,0,0,14,47l0,.09h-.15a.57.57,0,0,0-.33,1,.57.57,0,0,0-.15.49.64.64,0,0,0,.13.26.6.6,0,0,0-.41.48.58.58,0,0,0,.45.64.61.61,0,0,0-.15.3.6.6,0,0,0,.05.3.36.36,0,0,0-.39.32.36.36,0,0,0,.29.4.15.15,0,0,0,0,.07.37.37,0,0,0,.32.41.33.33,0,0,0,.3-.11.55.55,0,0,0,.14.09s0,.07,0,.11a.59.59,0,0,0,.51.66.57.57,0,0,0,.32-.05.42.42,0,0,0,.18.11.45.45,0,0,0,0,.11.57.57,0,0,0,.31.59h0a.59.59,0,0,0,.51.66.65.65,0,0,0,.34-.07.38.38,0,0,0,.38.17.37.37,0,0,0,.3-.43.37.37,0,0,0-.37-.3.59.59,0,0,0-.31-.48h0a.59.59,0,0,0-.51-.66.49.49,0,0,0-.17,0,.36.36,0,0,0-.31-.32.58.58,0,0,0-.33-.45.52.52,0,0,0,.4-.3.69.69,0,0,0,.6.35.7.7,0,1,0-.67-.86.46.46,0,0,0-.64-.15s0,0,0,0a.58.58,0,0,0-.26-.56A.58.58,0,0,0,15,49.3a.57.57,0,0,0-.2-.51.81.81,0,0,0,.26-.47.74.74,0,0,0-.31-.68.58.58,0,0,0,.53-.5.59.59,0,0,0-.13-.45l0-.08a.35.35,0,0,0,.21-.39.57.57,0,0,0,.33-.46.48.48,0,0,0,.12,0,.57.57,0,0,0,.47-.59.57.57,0,0,0,.26,0,.58.58,0,0,0,.46-.42.58.58,0,0,0,1.1.11.77.77,0,0,0,.52.1.72.72,0,0,0,.56-.5.58.58,0,0,0,1,.06.37.37,0,0,0,.3.13.49.49,0,0,0,.3.2.48.48,0,0,0,0,.12.37.37,0,0,0,.43.3.36.36,0,0,0,.29-.28.38.38,0,0,0,.37.28h0a.56.56,0,0,0,.25.38.45.45,0,0,0,0,.23.39.39,0,0,0,.38.3.35.35,0,0,0,.18.16.27.27,0,0,0,.1.21.32.32,0,0,0-.05.25.46.46,0,0,0,.05.14.59.59,0,0,0-.27.61.51.51,0,0,0,.07.17.61.61,0,0,0-.44-.09.58.58,0,0,0-.47.68.59.59,0,0,0,.68.48.6.6,0,0,0,.48-.69.51.51,0,0,0-.07-.17.56.56,0,0,0,.44.09.58.58,0,0,0,.47-.68A.57.57,0,0,0,23.34,47Zm-7.61-2.36,0,0v0Zm1.2-.19h0l.05,0a.43.43,0,0,0,0,.07Zm5.84,1.25Z"/><path class="cls-9" d="M4,115.27c1.64-.4,2-4.29,2.76-6.35h0c-1.17,1.08-3.26-.59-3-1.06h0c-1.61,3-3.59,4.91-3.59,6C.15,114.52,2.22,115.71,4,115.27Z"/><path class="cls-9" d="M30,104.46c-1,1.05-1,2.15-.54,2.48s3.79,5,5.68,5.19,3-.86,3.09-1.84-1.09-1.08-1.74-1.4a16.37,16.37,0,0,1-2.76-3C30.47,105.63,30,104.46,30,104.46Z"/><circle class="cls-22" cx="42.04" cy="26.28" r="2.41"/><g class="cls-41"><path class="cls-22" d="M42.78,25.37c-1-.68-1.12-1-1.24-1.43v0l-.24.08h0c.13.49.23.84,1.34,1.58S44,26.75,44,27.7a1.9,1.9,0,0,0,.23-.39C44.13,26.52,43.76,26,42.78,25.37Z"/><path class="cls-22" d="M41.82,28.67a2.3,2.3,0,0,1-.58-2c0-.83,0-1.69-.8-2.21l-.18.18c.73.45.73,1.22.73,2a3,3,0,0,0,.41,1.9A2,2,0,0,0,41.82,28.67Z"/></g><path class="cls-9" d="M161.45,100a18,18,0,0,1-.29,3.32,12.69,12.69,0,0,1-.9,3.48c-.56,1-.08,2.4,1.16,2.21s2.26-1.87,2.8-2.77a34.84,34.84,0,0,0,1.58-4.14c.17-.47.82-2.4.6-2.93s-2.63-1.07-3.46-1.27S161.45,100,161.45,100Z"/><path class="cls-42" d="M166.4,99.21a.85.85,0,0,0-.41-.33,11,11,0,0,1-.64,2.54,34.58,34.58,0,0,1-1.57,4.14c-.55.9-1.56,2.59-2.8,2.78a1.15,1.15,0,0,1-.9-.22,1.12,1.12,0,0,0,1.34.93c1.25-.18,2.26-1.87,2.8-2.77a34.84,34.84,0,0,0,1.58-4.14C166,101.67,166.62,99.74,166.4,99.21Z"/><path class="cls-9" d="M129.9,108.41A18.25,18.25,0,0,1,127,110a12.33,12.33,0,0,1-3.39,1.21c-1.17.12-2,1.28-1.18,2.21s2.82.81,3.86.76a34.65,34.65,0,0,0,4.31-1c.49-.12,2.45-.66,2.77-1.15s-.17-2.8-.47-3.6S129.9,108.41,129.9,108.41Z"/><path class="cls-42" d="M133.37,110.93c-.32.57-2.35,1.2-2.86,1.34a32.71,32.71,0,0,1-4.45,1.19c-1.07.06-3.08.19-4-.86a1.15,1.15,0,0,0,.33.84c.85.92,2.82.81,3.86.76a34.65,34.65,0,0,0,4.31-1c.49-.12,2.45-.66,2.77-1.15a2.43,2.43,0,0,0,0-1.24A.57.57,0,0,1,133.37,110.93Z"/><path class="cls-3" d="M163,98.34a75,75,0,0,1-6.73-4.17c-2.47-1.56-6.26-1.94-7.05-2.38S143.16,79.34,143,79.15s-9.42,1.78-9.42,1.78c.74,1.18,9.74,11.64,10.78,12.7s1.15,2,2.93,2.35,14.5,4.82,14.87,4.94S163.81,98.7,163,98.34Z"/><path class="cls-22" d="M133.56,80.93s7.4,13.1,7.77,13,5.43-2.67,6.42-4.63L143,79.15Z"/><path class="cls-24" d="M133.56,80.93s7.4,13.1,7.77,13,5.43-2.67,6.42-4.63L143,79.15Z"/><path class="cls-27" d="M142.9,82.57c.13.27,3,6.05,4,7.76l.34-.36c-.82-1.44-2.84-5.42-3.93-7.62Z"/><path class="cls-27" d="M142.51,83.93c.12.24,2.43,4.86,3.64,7.07l.37-.31c-1-1.76-2.62-5-3.58-7Z"/><path class="cls-3" d="M146,77.27c.69,1.18,1.34,2.9-.39,4.54A56.07,56.07,0,0,1,135.1,90.9a23.26,23.26,0,0,1-.6,7.86,68.93,68.93,0,0,0-1.61,9.67c0,.56-2.38.47-3,0,0,0,.43-14.25.24-16.47-.28-3.45-.28-3.45,2.19-5.58a73.88,73.88,0,0,0,6.15-6.56Z"/><path class="cls-22" d="M130.91,87.12a14.51,14.51,0,0,0,6.65,4.56s3.72-5,5.11-6.09,6.4-4.33,3.33-8.32l-8.41,2Z"/><path class="cls-3" d="M119.24,67.54c.14.45.46,1.68.85,3,.51-.43,1-.87,1.55-1.29a13.11,13.11,0,0,1-.62-1.16,3.78,3.78,0,0,1-.32-1.9c.27-1.09.52-.63.44-1.74s-.24-2.33-.59-2.21-.2,1.29-.2,1.29-.43-1.92-1.08-1.93-1.4,1.26-1.62,2.11a4.79,4.79,0,0,0,.52,2.44C118.33,66.64,118.94,66.59,119.24,67.54Z"/><path class="cls-3" d="M158.4,69.46c-1.41-1.23-2-.91-3.11-2.52s-5.12-6.79-6-7-7.42.57-9.49.43a8.58,8.58,0,0,0-4.53,1.08,2.24,2.24,0,0,1-1.47.25c-2.51.51-3.4.14-5.82,2.84a67.24,67.24,0,0,0-5.21,7.07s.36-.38-1.29-2.76c-.6.31-1.11.11-1.7.44a17.55,17.55,0,0,0,1.7,4.85c.67,1.36,1.1.93,2.27,0s5.73-5.35,5.73-5.35a20.29,20.29,0,0,0,1.95,6.57c1.64,3.21,1.2,5,1.44,5.23a6.66,6.66,0,0,0,4.79.28c2.59-.72,5.91-.94,7.2-1.37A6.45,6.45,0,0,0,147.23,78c.18-.18-1.88-3.7-3.35-5.37s-3.08-7.64-3.33-8.07c0,0,6.52-.82,7.39-1.06a9.12,9.12,0,0,0,2.47,2.37c1.77,1.24,3.4,2,3.89,2.65s0,2.35.83,3.4.53,0,1.63,1.1c.44.43,1.29.19,2.22-.72S159.8,70.7,158.4,69.46Z"/><path class="cls-5" d="M132.89,108.43a75.57,75.57,0,0,1,1.17-7.82h0a9,9,0,0,1-3.95-.59h0c-.09,4.19-.21,8.39-.21,8.39C130.51,108.9,132.88,109,132.89,108.43Z"/><path class="cls-26" d="M134.06,100.61h-.63c-.61,3.15-1,6.77-1,7.2s-1.56.48-2.48.21c0,.25,0,.4,0,.4.61.49,3,.58,3,0a75.57,75.57,0,0,1,1.17-7.82Z"/><path class="cls-5" d="M153.88,98.09h0c3.9,1.31,8.05,2.76,8.26,2.83.37.13,1.67-2.22.87-2.58a75,75,0,0,1-6.73-4.17S155.78,97.68,153.88,98.09Z"/><path class="cls-26" d="M163,98.34a75,75,0,0,1-6.73-4.17s0,.15-.07.37a61.79,61.79,0,0,0,6.16,3.8c.67.3-.12,2-.62,2.45l.39.13C162.51,101.05,163.81,98.7,163,98.34Z"/><path class="cls-43" d="M143.88,72.58c-1-1.13-2.06-4.26-2.72-6.28,0,0-.24-.87,0-1s4.53-1,4.53-1a30.52,30.52,0,0,0-1.1-4.35h0c-1.68.12-4,.52-4.87.46a8.58,8.58,0,0,0-4.53,1.08,2.24,2.24,0,0,1-1.47.25c-2.51.51-3.74.14-6.16,2.84a39.47,39.47,0,0,0-3.45,4.08h0s.22,1.74,2.68,3.4c0,0,2.12-2.49,2.26-2.08h0a43.89,43.89,0,0,0,2.3,5.43c1.64,3.21,1.2,5,1.44,5.23a6.66,6.66,0,0,0,4.79.28c2.59-.72,5.91-.94,7.2-1.37A6.45,6.45,0,0,0,147.23,78C147.41,77.77,145.35,74.25,143.88,72.58Z"/><path class="cls-3" d="M135.92,57.61a7.47,7.47,0,0,0,.31,3.69s-2.87,2.49-4.39,2.23c0,0-.07,0,0-.57s.12-1.84-.32-2.2,3.62-3.53,3.62-3.53Z"/><path class="cls-7" d="M135.83,58.71v0a7.3,7.3,0,0,1,.08-1.08l-.79-.38s-4.06,3.16-3.62,3.53a1.81,1.81,0,0,1,.36,1.29h0S134.28,62.2,135.83,58.71Z"/><path class="cls-44" d="M128.58,53.28c-.31.41-1.63.69-1.57,1.46,0,0-.34-.13-.39-.34a8.83,8.83,0,0,1,0-1.58,8.13,8.13,0,0,1,1.18-2,8.6,8.6,0,0,1,2.78-2,4.54,4.54,0,0,1,4,0,1,1,0,0,0,0-.76.93.93,0,0,1,.29.78s.33-.83.86-.95a1.29,1.29,0,0,0-.45,1.11,1.11,1.11,0,0,1,.87-.15s-.64.1-.54.35a4.58,4.58,0,0,1,1.77,2.58,7.61,7.61,0,0,1-.77,5.63,1.86,1.86,0,0,1-1.47.92s-4.15-4.44-4.22-4.49S128.58,53.28,128.58,53.28Z"/><path class="cls-3" d="M134,56.44c.29-.54.86-1,1.33-.68a1.1,1.1,0,0,1,.38,1.37c-.35,1.2-1,1.55-1.42,1.52A1.85,1.85,0,0,1,133.6,60a12.8,12.8,0,0,1-3.23,2,1,1,0,0,1-1.12-.79c-.07-.44-.3-.28-.54-.54s0-.41,0-.41-.44,0-.39-.21.14-.64,0-.7-.73-.1-.68-.45.46-1.25.35-1.68-.65-.72-.77-.93a6.15,6.15,0,0,1-.18-2s.69-1.89,3.37-1A6,6,0,0,1,134,56.44Z"/><path class="cls-44" d="M127,54.74c0-.55,1.4-.82,1.57-1.46,0,0-.29.41.93.71s1.18.85,1.18.85a1.08,1.08,0,0,0-.42-1.12,3.22,3.22,0,0,1,1.34,1.11c.44.73,2.06.68,2.39,1.61,0,0,.19-2.92-1.06-4a6.15,6.15,0,0,0-4.61-1.08c-1.07.24-1.63,2.27-1.63,2.27Z"/><g class="cls-17"><path class="cls-45" d="M120.35,63.49a3.35,3.35,0,0,1-.13.62,3.68,3.68,0,0,1-.65,1.23,1,1,0,0,1-.33.26.37.37,0,0,1-.44-.13,6.42,6.42,0,0,1-.23-.62,1.93,1.93,0,0,0-.18-.4c-.06-.1-.13-.1-.13-.09s.07,0,.15.07a1.36,1.36,0,0,1,.27.37c.1.15.17.4.28.54s.28,0,.44-.15a6.19,6.19,0,0,0,.69-1.14C120.26,63.72,120.35,63.49,120.35,63.49Z"/></g><path class="cls-22" d="M132.66,73.47a7.06,7.06,0,0,0,1.55-2.21,1.46,1.46,0,0,1-.57.29,2.07,2.07,0,0,1-2.57-1.37,2.55,2.55,0,0,1,1.92-3,2.4,2.4,0,0,1,3,1.68,3.36,3.36,0,0,1,.11,1.17,6.36,6.36,0,0,1-2.06,4.11Zm1.2-3.27a.81.81,0,0,0,.56-1,.89.89,0,0,0-1.15-.47.77.77,0,0,0-.61.89A1,1,0,0,0,133.86,70.2Z"/><path class="cls-43" d="M135.44,90.82A31,31,0,0,1,142,83.69c3.18-2.3,3.21-3.62,3.24-5.14,0-.33,0-.67.06-1l-.27,0-.21,0c0,.34-.05.67-.06,1,0,1.46-.06,2.61-3,4.77A31.46,31.46,0,0,0,135,90.59Z"/><path class="cls-43" d="M140.94,85.63a13.16,13.16,0,0,1,1.49-1.2c1.68-1.23,3.76-2.75,3.54-5.83l-.48,0c.2,2.81-1.68,4.19-3.34,5.4a11.42,11.42,0,0,0-1.55,1.26,72.56,72.56,0,0,0-4.69,5.75l.45.2C137.3,89.93,139.9,86.7,140.94,85.63Z"/><path class="cls-22" d="M144.77,64.46l1-.18a30.52,30.52,0,0,0-1.1-4.35h0c-.37,0-.77.06-1.18.11C143.87,61.33,144.4,63,144.77,64.46Z"/><path class="cls-27" d="M147.23,78c.18-.18-1.88-3.7-3.35-5.37-1-1.13-2.06-4.26-2.72-6.28,0,0,.45,3.69,1.17,4.77s3.67,6.2,2.72,6.43a33.08,33.08,0,0,0-5.81,2,10,10,0,0,1-6.51.61c0,.26,0,.42.1.46a6.66,6.66,0,0,0,4.79.28c2.59-.72,5.91-.94,7.2-1.37A6.45,6.45,0,0,0,147.23,78Z"/><path class="cls-27" d="M128.66,66.3a17.31,17.31,0,0,1-1.3,3.61,5.3,5.3,0,0,1-1.62,1.25,8,8,0,0,0,1.09.88s1.94-2.29,2.23-2.11C128.48,68.18,128.8,67.51,128.66,66.3Z"/><path class="cls-22" d="M126.83,72l.53-.61A12.72,12.72,0,0,1,124.64,68c-.16.22-.33.44-.49.67h0S124.37,70.38,126.83,72Z"/><path class="cls-24" d="M126.88,72l.09-.11v0l.16-.18,0-.05.13-.14,0-.06c-.29-.27-.54-.53-.78-.79a8.44,8.44,0,0,1-.84.52h0c.13.13.28.25.43.38a6,6,0,0,0,.66.5l0,0Z"/><path class="cls-3" d="M103.56,63c2.42,2.12,3.13,2.68,4.19,2.06s3.48-3.72,3.72-4c.35-.51.14-1.66.14-2.14s1.44-1.92.86-1.95a4.12,4.12,0,0,0-2.31,1c-.46.52-.31,1.15-.24,2,0,.28-2.65,2-2.65,2a16.75,16.75,0,0,0-3.5-2.55C101.11,58.16,103.56,63,103.56,63Z"/><path class="cls-7" d="M107.08,64.56a2.51,2.51,0,0,1-1.68-.63l-.69.1c1.53,1.28,2.17,1.58,3,1.07a20,20,0,0,0,3.32-3.54S107.6,64.51,107.08,64.56Z"/><path class="cls-9" d="M107.16,103.39a2.56,2.56,0,0,0,2.25,2.9c1,.2,1.74-.47,3.17.35a5,5,0,0,0,5,0c1.58-1,.79-1.62-.9-2.16a42,42,0,0,1-5.63-2.25c-1.55-.82-1.5-1-2.19-.67C107.4,102.28,107.43,101.5,107.16,103.39Z"/><path class="cls-3" d="M101.27,76.22c.44-.07,10.38,6.12,11.46,7.52s-.39,2.93-1,8.76-.79,9.68-1,10.41-2.24.75-2.59,0-.38-3.45-.73-6.3c-.49-4.07-1.38-3.15,1.1-9.59l-9.14-4Z"/><path class="cls-9" d="M79.6,93a3.33,3.33,0,0,0-3.11,0c-.9.57-.95,1.55-2.55,1.92a4.73,4.73,0,0,0-3.21,3.67c-.48,1.82.53,1.72,2.13,1A40,40,0,0,1,78,97a4.07,4.07,0,0,0,2.87-2C81.51,93.48,79.6,93,79.6,93Z"/><path class="cls-46" d="M96,80.84a37.55,37.55,0,0,0,8.51,5.87s1.28-2,3.91-6.93a52.77,52.77,0,0,1-4.61-3.07c-.54-.58-.54-3.8-.54-3.8l-7,4.1Z"/><path class="cls-3" d="M99.53,81.07c.18.41-1.31,10.81-2.41,12.2s-4.8.78-10.61,1.56S79.77,96,79,96s-1.08-1.63-.56-2.32,1.91-.93,4.6-1.91c4-1.46,2.73-2.37,9.58-1.51l.22-10.43Z"/><path class="cls-46" d="M101.88,74.45A99.34,99.34,0,0,0,99,87.77c-.07,1.39-7.12,0-7.84-.39,0,0,1.1-3.55.62-5s-2.27-6.61-.08-7.89Z"/><path class="cls-3" d="M88.21,57c-1.57.67-6.34,3.13-7.12,3.19s-1.93-.06-5.31,1.69-4.38,3-5.64,3-4.61,1.77-4.77,2.81c-.06.42.55.08,1.27,0a15,15,0,0,0,2.9-1c.75-.07-1.22,1.69-.73,1.69s1.08-.54,2.13-1.26.89-1.42,4.12-2.07a14.48,14.48,0,0,0,6.13-2.34c.64-.16,8-1.29,8-1.29Z"/><path class="cls-15" d="M96.56,54c-.51,1.63-2.27.49-5.23,1.34a40.53,40.53,0,0,0-7.63,3.4c-.24.24.83,4.48,1.23,4.64s5.52-1.44,5.92-1,1.2,4.48,1,7.12S89.33,75,90.13,75.27s7.28,1.52,10,.64a24.39,24.39,0,0,1,3.44-1c.32-.08.24-10.47,0-11.91s.8-6-3.36-6.72S96.56,54,96.56,54Z"/><path class="cls-46" d="M100.53,59a2.25,2.25,0,0,0,.79-2.36,4.61,4.61,0,0,0-1.12-.35C96.05,55.61,96.56,54,96.56,54a1.27,1.27,0,0,1-1.29.94c-.21.42-.14,1,.94,2C97.85,58.59,99.85,59.43,100.53,59Z"/><path class="cls-3" d="M96.06,52.47c.56,1.27-.4,2.32,0,3.14s3.17,2.93,4.16,2.5.46-.81.8-3S96.06,52.47,96.06,52.47Z"/><path class="cls-7" d="M96.06,52.47A2,2,0,0,1,96.17,54c1,1.38,3,3.69,4.7,2.87a14.85,14.85,0,0,1,.14-1.77C101.35,52.87,96.06,52.47,96.06,52.47Z"/><path class="cls-3" d="M100.15,43.29a4.79,4.79,0,0,1,4.06,5.13c-.15,2.89-.66,2-.45,3s-.26,2.59-2.59,4.21-5.65-2.49-5.65-3.4c0,0-1-.1-1.2-.86s-.26-2.28.91-1.72a1.11,1.11,0,0,1-1-1.22A5.18,5.18,0,0,1,100.15,43.29Z"/><path class="cls-8" d="M95.55,51.16a2.52,2.52,0,0,0,1.24.89,19.72,19.72,0,0,0,.5-3.85A6,6,0,0,0,100,49a5.42,5.42,0,0,1-.76-1.19,12.92,12.92,0,0,0,3.16,1.15,3.12,3.12,0,0,0,2.71-.76c-.17-.23-1-.84-.86-1.51.28-1.1-.9-2.59-1.45-2.84-.84-.38-1.7-.45-2.43-.87s-2.69-.67-3.49.51a2.81,2.81,0,0,0-2.16,1c-.81,1.07-1,3.35-1,4.83,0,2.4,1.08,3.47,2.25,3.83Z"/><path class="cls-3" d="M95.55,51.16A2.5,2.5,0,0,0,95.22,50c-.29-.29-.85-.45-.83.25s-.06,2.19,1.16,2.3a11.85,11.85,0,0,0,1,1.48s-.44-1.57-.51-1.66S95.55,51.16,95.55,51.16Z"/><path class="cls-15" d="M101.69,56.85c1.34.56,4.67,3.82,4.67,3.82s-.57,3.56-1.73,4.19l-3.75-1.38Z"/><path class="cls-46" d="M105.59,59.93a8.77,8.77,0,0,1-1.57,4.7h0l.61.23c1.16-.63,1.73-4.19,1.73-4.19S106.05,60.36,105.59,59.93Z"/><path class="cls-16" d="M103.62,64.49s0-3.66-.89-5.36a10.69,10.69,0,0,1,1.49,3c.26,1.24.49,1.38.49,1.38L104,64.63Z"/><path class="cls-47" d="M104.71,63.49h0a7.22,7.22,0,0,1-.69,1.14l.61.23a2.16,2.16,0,0,0,.77-.93C105,63.66,104.71,63.49,104.71,63.49Z"/><path class="cls-46" d="M99.08,63.58a2.38,2.38,0,0,1,.59,0,1.86,1.86,0,0,1,1.82,2,2.12,2.12,0,0,1-2.26,2,2.43,2.43,0,0,1-2-1.25l1.18-.69a.82.82,0,0,0,.74.49.8.8,0,0,0,.88-.66c0-.35-.29-.6-.78-.63a.82.82,0,0,0-.77.3l-1-.52.15-3,3.64.17-.06,1.33L99.08,63Z"/><path class="cls-46" d="M84.47,58.27a6.4,6.4,0,0,0-.77.45c-.24.24.83,4.48,1.23,4.64a3.53,3.53,0,0,0,1-.14A34.25,34.25,0,0,1,84.47,58.27Z"/><path class="cls-16" d="M103.68,74.27c-1.43.19-4,.55-5.19.83-1.72.4-6.11-.65-6.11-.65a30.9,30.9,0,0,0,0-8.82c-.72-4.52-1.68-4.2-1.75-4.81s-4.21,1.06-6.15,1.63c.18.5.34.87.45.91.4.16,5.52-1.44,5.92-1s1.2,4.48,1,7.12S89.33,75,90.13,75.27s7.28,1.52,10,.64a24.39,24.39,0,0,1,3.44-1S103.65,74.69,103.68,74.27Z"/><path class="cls-48" d="M103.16,114.18c0,.59,2.52,1.07,5.63,1.07s5.63-.48,5.63-1.07-2.52-1.08-5.63-1.08S103.16,113.58,103.16,114.18Z"/><path class="cls-5" d="M98.82,108.89a5.47,5.47,0,1,1,5.47,5.5A5.48,5.48,0,0,1,98.82,108.89Z"/><g class="cls-41"><path class="cls-49" d="M108.76,106.62v-.89a5.52,5.52,0,0,1,.89,2.08l-.85-1.1-1.54-.14v-.09Z"/><path class="cls-49" d="M98.88,108.12l.69-.17h0l.3,2.79h0l-.25,1.06a5.58,5.58,0,0,0,2.15,2l.14,0,1.24-.8-.86-2h0l1.51-2.31.08,0h2.43l1,2.52v.05L106.06,113h0l-2.82-.05v.09l2.83,0h0l.37.81h.1a5.55,5.55,0,0,0,2.45-2.17V111l0,0,.71-1.42a2.45,2.45,0,0,0,0-.27l-.81,1.65,0,0-1.45.21v0l-1.06-2.52v0l.82-2.08L105.09,105v0l-.23-1.22h-.09L105,105V105l-2,1.19H103l-2.19,0-.11-1.47A5.47,5.47,0,0,0,98.88,108.12Zm.77-.22,1-1.51.09,0,2.17,0h0l.84,2.31h0L102.28,111l0,0-2.13-.25-.16-.06-.29-2.76Z"/><path class="cls-49" d="M104.29,103.39a5.5,5.5,0,0,1,.91.08l-.38.32-.86-.39Z"/></g><path class="cls-50" d="M103.53,113.08a5,5,0,0,0,1.62-9.62,5.5,5.5,0,1,1-6.26,6.29A4.92,4.92,0,0,0,103.53,113.08Z"/><path class="cls-15" d="M91.64,85.47c-.07.35-.15.67-.22,1a13,13,0,0,0,5.26,1.11,12.57,12.57,0,0,0,2.37-.23c0-.27.08-.6.15-1A12.31,12.31,0,0,1,91.64,85.47Z"/><path class="cls-15" d="M103.07,86l4.27-6.84-.81-.51-4.3,6.87Z"/><g class="cls-17"><path class="cls-46" d="M99.92,79.55a.89.89,0,0,0,0-.29C99.85,79.16,99.86,79.29,99.92,79.55Z"/><path class="cls-46" d="M99.55,83.75a37.83,37.83,0,0,0,4.92,3s.25-.4.76-1.26l.17-.68-4-2.08c-.69-.36-1.27-2.36-1.44-3.14C99.94,80.57,99.55,83.74,99.55,83.75Z"/></g><path class="cls-3" d="M50.35,89.31a4.12,4.12,0,0,0,.35,1.91c.23.37,1.08,1.23,2.37,2.74s1.81,2.54,3.12,3.27,7.12,3.26,7.06,3.61a1,1,0,0,1-.35.56s.93.49.65.93-3-1.15-3-1.15c-.21-.1-.76-.35-.25.08a17.16,17.16,0,0,1,2.08,1.86c-.09.1-.3.63-.86.19s-1.83-1.56-2.25-1.5.18,1.24.45,1.68,0,.57-.09.61-.63-.74-1.14-1.49a3.82,3.82,0,0,0-1.23-1.38,4,4,0,0,1-1.39-1.09,22.67,22.67,0,0,0-3.36-2.79c-1.22-.87-3.74-2.18-5-4.46-1.08-2-4.14-7.43-4.14-7.43l5.29,2.23Z"/><path class="cls-7" d="M46.67,88.75s-1-.43-1.83-.79c1,1.7,2.15,3.83,2.74,4.93,1.22,2.28,3.74,3.59,5,4.46.37.27.8.58,1.22.91-1.18-1.27-3.37-3-4.38-4S47.64,90.79,46.67,88.75Z"/><path class="cls-19" d="M42.45,83.8c.62-1.63,3.69-2.66,6-2.19s2.24,3.53,2.18,4.5.1,3.39.1,3.39a6.47,6.47,0,0,1-5.06.22C45.29,89.58,42.21,84.42,42.45,83.8Z"/><path class="cls-51" d="M48.46,81.61c-2.32-.47-5.39.56-6,2.19-.24.62,2.84,5.78,3.23,5.92a4.57,4.57,0,0,0,1.69.38,25.24,25.24,0,0,1-3.13-6.29C44.09,83.05,46.64,81.52,48.46,81.61Z"/><path class="cls-52" d="M47.24,103.21c.07.43-3.87,7.68-5.52,6.1s-.41-4.44-.41-4.44,3.92-2.11,4.14-2.16A10.68,10.68,0,0,1,47.24,103.21Z"/><path class="cls-53" d="M84.78,96.29c-.45,2.22.92,9.31,1.12,9.78a4.22,4.22,0,0,0,2.48,2.62c1.89.85,2.8,1.57,5.54,4.64s3.06,2.79,4.36,3,2.36,1.18,2.22,2.16-.78,1.63-.52,2.87.46,3.29-1.24,3.54-3,0-2.94-.8,1.3-1,1.3-1-.19-2.81-1.75-3.92-11.74-7.55-12.59-8.6-4.41-10.19-4.41-10.19l3.82-3.48Z"/><path class="cls-3" d="M100.51,118.21v0Z"/><path class="cls-54" d="M98.55,116.18c-.59-.57-1.15-.62-1.14-.14h0a20.08,20.08,0,0,1-1.79,3.3h0A6.39,6.39,0,0,1,97.1,123s-1.2.32-1.3,1,1.24,1,2.94.8,1.5-2.3,1.24-3.54.78-2.64.78-3.75S99.27,116.87,98.55,116.18Z"/><path class="cls-22" d="M91.44,117.16a22.81,22.81,0,0,0,3.26-3.41c0-.21-1.7-1.91-3.62-3.72-1.45-1.38-3.61-1.66-4.49-3.21s-1.81-11.61-1.81-11.61l-6.43,5.12s2.76,8.31,4.31,10.19,5.43,4.21,6.3,5A17.14,17.14,0,0,0,91.44,117.16Z"/><path class="cls-24" d="M91.44,117.16a22.81,22.81,0,0,0,3.26-3.41c0-.21-1.7-1.91-3.62-3.72-1.45-1.38-3.61-1.66-4.49-3.21s-1.81-11.61-1.81-11.61l-6.43,5.12s2.76,8.31,4.31,10.19,5.43,4.21,6.3,5A17.14,17.14,0,0,0,91.44,117.16Z"/><path class="cls-24" d="M85.9,107.59a12.58,12.58,0,0,1-2.23,1.54,8.69,8.69,0,0,0,2.86-.63c1.15-.56,6.63,4.7,6.63,5A9.8,9.8,0,0,1,91,116.89l.45.27a22.81,22.81,0,0,0,3.26-3.41c0-.21-1.7-1.91-3.62-3.72-1.45-1.38-3.61-1.66-4.49-3.21s-1.81-11.61-1.81-11.61L83.16,96.5C84.38,99.63,86.22,107.15,85.9,107.59Z"/><path class="cls-53" d="M85.9,94.63c-.14,1.2-2.36,2.84-5.36,4.5s-3.92,4-3.85,4.33,2.35,3.66,2.67,5.16.79,6.09,1.51,7.62,1.63,2.44,1.89,3.35a1.39,1.39,0,0,1-1.47,2,14.13,14.13,0,0,0-4.15.91c-.39.2-3.33.85-4.44-.52S73,120.2,74.18,120s4.2-1.32,3.75-2.83a50.35,50.35,0,0,0-4.25-8.62c-1.89-3.07-3.5-5.33-3.19-6.33.14-.45,2.79-7.78,4.46-10.25S85.9,94.63,85.9,94.63Z"/><path class="cls-22" d="M75.07,113.46c1,.73,5.3,0,5.5-.16a20,20,0,0,0-1.47-5.81,24.68,24.68,0,0,1-2.16-4c.12-.1,5.78-5.21,7.13-6.28s2.27-2.48,1.71-3S74.54,92,74.54,92s-3.59,8.79-4.09,9.75-.07,2.06.81,3.4a59.76,59.76,0,0,1,3.35,6.71A8,8,0,0,1,75.07,113.46Z"/><path class="cls-54" d="M82.76,119.59a3,3,0,0,0-.17-.44h0s-.17-.55-.52-1.44-.57-.84-.67-.9-.16.13-.29.2a6.37,6.37,0,0,1-2.61.45l-.54-.1c.17,1.39-2.65,2.45-3.78,2.64s-2.59.57-1.48,1.94,4,.72,4.44.52a15.59,15.59,0,0,1,4.13-.7A1.55,1.55,0,0,0,82.76,119.59Z"/><path class="cls-24" d="M75.49,103.88s3.55,5.55,3.83,8.23a8.7,8.7,0,0,1-4.33,1c.06.25.08.38.08.38,1,.73,5.3,0,5.5-.16a20,20,0,0,0-1.47-5.81,24.68,24.68,0,0,1-2.16-4Z"/><path class="cls-55" d="M96.74,119a1.76,1.76,0,0,1-.67.84h0a7.15,7.15,0,0,1,1,3.18C99.14,122.69,96.74,119,96.74,119Z"/><path class="cls-56" d="M97.41,116h0a14.26,14.26,0,0,1-1.5,2.83l.83.15a26.55,26.55,0,0,0,1.75-2.89C97.92,115.62,97.4,115.58,97.41,116Z"/><path class="cls-54" d="M96.07,119.86c-.92-.56-2.26-1-1.46-1.81a.91.91,0,0,1,1.41.13,4.39,4.39,0,0,1,.77.89C96.79,119.17,96.28,120,96.07,119.86Z"/><path class="cls-57" d="M100.43,116.9c.34-.07.66.25.52.78a20.53,20.53,0,0,0-.84,3c.07.39.68,2.48,0,3.39s-1.39,1-2.62,1.05-1.73-.14-1.58-.6a14.27,14.27,0,0,0,2.4,0c.73-.13,1.41-.52,1.39-1s-.08-2-.11-3.09A18.53,18.53,0,0,1,100.43,116.9Z"/><path class="cls-57" d="M72.7,121.94s-.29.69.94,1.1,4.64-1,5.82-1.11,1.88.32,2.8-.16,1.09-1.28.59-1.77c0,0-.74,1.16-1.57,1.22a11.2,11.2,0,0,0-3.71.34C75.77,122.1,74,122.6,72.7,121.94Z"/><path class="cls-55" d="M75.54,120.45c1.27-.1,2.91-1.1,3.14-2.41l-1,.21A6.7,6.7,0,0,1,74.18,120S74.26,120.56,75.54,120.45Z"/><path class="cls-56" d="M81.4,116.81c-.1,0-.16.13-.29.2a6.37,6.37,0,0,1-2.61.45l-.39-.07.57.65c.81.07,2.6.13,3.27-.58C81.68,116.87,81.49,116.86,81.4,116.81Z"/><path class="cls-54" d="M77.64,118.25c-.33-.49-1.57-1.66-.7-2s1.69,1.18,1.79,1.62S77.64,118.25,77.64,118.25Z"/><path class="cls-53" d="M84.39,88.06c-1.3-2-3.39-7-3.2-8.62s-2.84-8-2.84-8L74,70.62c-3,.92-4.72,1.44-5.55,2.15s-5.62,4.38-6.21,4.84-2.61.76-3.59,1.35a10.63,10.63,0,0,1-4,1.37l.68,1.9a24.18,24.18,0,0,0,4.7-.16,10.44,10.44,0,0,0,3.25-1.25c1.29-.81,6-2.75,6-2.75s3.35,9.58,3.47,12.82c0,0,7.05,3.45,8.48,3.74a13.88,13.88,0,0,0,4.71,0l.32-.24S85.7,90,84.39,88.06Z"/><path class="cls-5" d="M81.19,79.44c.2-1.63-2.84-8-2.84-8L74,70.62c-3,.92-4.8.84-5.63,1.56-.55.47-2.94,2.47-4.5,3.9h0a17.25,17.25,0,0,0,2.39,4l3.13-1.18s2.16,9.13,2.28,12.36c0,0,8.08,3,9.51,3.34a13.88,13.88,0,0,0,4.71,0l.32-.24S85.7,90,84.39,88.06,81,81.07,81.19,79.44Z"/><path class="cls-58" d="M84.8,81.5c-.93-.32-1.35,0-1.57.35s-.9,1.22-.9,1.22l-1.9-3.55,3.1.56Z"/><path class="cls-55" d="M85.9,94.63l.32-.24S85.7,90,84.39,88.06s-3.39-7-3.2-8.62a2.43,2.43,0,0,0,0-.73l-.71-.79-1.21.5a39.31,39.31,0,0,0,2.11,5.13c.47,1,1.75,5.49,2.42,6.52A7.85,7.85,0,0,1,84.57,93c-1.81.89-8.87-1.41-11.87-2.22a.38.38,0,0,1,0,.1s7.05,3.45,8.48,3.74A13.88,13.88,0,0,0,85.9,94.63Z"/><path class="cls-53" d="M73.14,72.57c0,1.12-.44,2.15.79,3.13s3.74-.1,4.93-3.13S73.14,72.57,73.14,72.57Z"/><path class="cls-22" d="M73.74,84.63l-.57-4-.93.14L72,79.17l1.43-.2c.27,0,.67,0,1,0l.78,5.47Z"/><path class="cls-22" d="M78.7,79.7c-.13.46-.3.9-.52,1.49a14.52,14.52,0,0,0-.79,2.94l-1.54.22a19.48,19.48,0,0,1,1.3-4.41l-1.89.27-.21-1.46,3.48-.5Z"/><path class="cls-53" d="M55.35,80.27a4.46,4.46,0,0,1-1.32,0c-1.27-.17-6.5-1.41-6.63-1.15a.81.81,0,0,0,0,.56s-.88-.14-.92.3,2.61.73,2.61.73c.19,0,.69.15.13.19a14,14,0,0,0-2.36.2c0,.11-.12.58.48.56s2-.12,2.29.13-.75.75-1.16.91-.29.39-.24.47a5.87,5.87,0,0,0,1.53-.44,3.31,3.31,0,0,1,1.54-.31,3.42,3.42,0,0,0,1.49,0,13,13,0,0,1,2.59-.19Z"/><path class="cls-43" d="M79.87,91.31a7,7,0,1,1-7-7A7,7,0,0,1,79.87,91.31Z"/><path class="cls-28" d="M76.11,95.34A4.73,4.73,0,0,0,79,94.61c.06-.12.12-.24.17-.36l-.09-.07c-.46.68-2,1-4,.86a6.45,6.45,0,0,1,2.23-2.65,4.43,4.43,0,0,0,1.86-4l-.12-.26H79a4.4,4.4,0,0,1-1.76,4.09A6.48,6.48,0,0,0,74.86,95c-.39,0-.81-.11-1.24-.19C76.46,88.2,75.3,85.25,75,84.66l-.17,0-.1.07c.68,1.07,1.06,4.41-1.36,10.1-.4-.08-.81-.18-1.22-.3a4.84,4.84,0,0,0-.55-4c-1.31-2.1-1.92-3.6-1.33-5.55l-.11,0A.61.61,0,0,0,70,85c-.57,2,0,3.52,1.38,5.63a4.67,4.67,0,0,1,.51,3.81l-.86-.27a6.94,6.94,0,0,1-4.73-4.79l-.11,0c0,.09,0,.18-.07.26a6.08,6.08,0,0,0,.79,1.7,7.77,7.77,0,0,0,4,3c.29.1.57.17.84.25a1.86,1.86,0,0,1-.19.34c-.73,1-2.16,1.16-4.13.58l0,.12.13.15a7.31,7.31,0,0,0,1.87.3,2.73,2.73,0,0,0,2.35-1,2.44,2.44,0,0,0,.24-.41c.42.12.83.22,1.22.3-.43,1-.94,2-1.55,3.17l.26,0c.61-1.13,1.12-2.18,1.54-3.15.44.08.86.15,1.27.19A4.06,4.06,0,0,0,75,98l.22-.08h0A3.76,3.76,0,0,1,75,95.28,10,10,0,0,0,76.11,95.34Z"/><path class="cls-59" d="M79.87,91.31a7,7,0,0,0-3.23-5.88,7,7,0,0,1,1,5.79h0a0,0,0,0,1,0,0A7.12,7.12,0,0,1,72,96.36a8.3,8.3,0,0,1-1,.09h0a7.09,7.09,0,0,1-3.58-.87,7,7,0,0,0,12.47-4.27Z"/><path class="cls-53" d="M78.86,72.57c2,.67,2.76.58,4.47,4.06s3,6.78,2.89,7.48-1.76,1.73-2,1.82S83,85.64,83,86.28s0,2.69-.09,2.81-.52.4-.62,0a13.84,13.84,0,0,1,0-1.91,12.88,12.88,0,0,1-.44,1.38c-.12.19-.49,1.2-.71,1.19a.65.65,0,0,1-.42-.9,15.66,15.66,0,0,0,.84-2.4c-.08-.07-2,2-2.34,1.94s-.6-.31-.53-.54,1.69-1.77,1.52-2.09-.44-.41-1.25.08-1.23.78-1.49.56-.2-.54.49-1l.9-.62a1.57,1.57,0,0,1-1.13.16c-.58-.18-1.2-.5-1.24-.82s.14-.46.31-.44a4.31,4.31,0,0,0,1.08.25c.47,0,1.82-.12,2.17-.17a4.73,4.73,0,0,0,2.34-.69s-1-1.86-1.37-2.4-2.28-4-2.28-4Z"/><path class="cls-5" d="M83.38,76.33c-1.72-3.48-2.54-3.09-4.52-3.76l-.76,3.68s2.63,5.34,2.74,5.52a10.53,10.53,0,0,0,4-2.31C84.45,78.56,83.86,77.31,83.38,76.33Z"/><path class="cls-60" d="M82.33,83.07c.87-.73,1.39-1.55,2.47-1.57,0,0-.22-.39-2.19.29l-.55-.85-.7.35Z"/><path class="cls-22" d="M84.41,78.49c-1.07,1.14-3.45,1.86-4.18,2.07l.61,1.21a10.53,10.53,0,0,0,4-2.31C84.72,79.17,84.57,78.83,84.41,78.49Z"/><path class="cls-60" d="M73.12,73.13a2.36,2.36,0,0,0,2.3,1.94,2.7,2.7,0,0,0,2.32-.58,6.88,6.88,0,0,0,.82-1.27c.3-.65-3.38-2.6-3.38-2.6Z"/><path class="cls-53" d="M77.93,60.36C76,60,73,60.82,72.41,64.7c-.12.78-.1,2.09-.25,2.7-.44,1.67-.77,3,.16,4.47,1.16,1.84,1.5,2.58,2.72,2.62a7.38,7.38,0,0,0,4.43-2.06A8.67,8.67,0,0,0,80.21,71s.15.21.72-.2,1.67-2.57.58-2.6c0,0,.92-3.65.39-4.62A5.58,5.58,0,0,0,77.93,60.36Z"/><path d="M82.67,64.23A1.28,1.28,0,0,0,81.79,63l.44-.18c-.51-.2-.62-1.07-1.19-1.57A1.22,1.22,0,0,0,79.83,61a.88.88,0,0,0,.52-.58c-.68.38-1.14-.48-2.07-.8a1,1,0,0,0-1.24.58,2.25,2.25,0,0,0-2.07.47,3.67,3.67,0,0,1-2.1.51c0,.37.61.67.61.67-1,.33-1.33,1.93-1.38,2.61a2.79,2.79,0,0,1-1,1.49c3.29-.06,4.29-1.77,4.29-1.77-.1.77,1.62,1.21,2.09,1.38a2,2,0,0,1,.81.72,1.87,1.87,0,0,0,.05-1,4.74,4.74,0,0,0,1,.87,2.87,2.87,0,0,1,.84.84h0c.08.87.11,2,.11,2,.59-.9,1.23-.86,1.23-.86A20.61,20.61,0,0,0,82.67,64.23Z"/><path class="cls-60" d="M65.52,79.12c-.77.42-2.63,1.13-4.06,2s-4.86,1.1-4.87,1.1A17.59,17.59,0,0,0,60,82.07a10.3,10.3,0,0,0,3.24-1.25A28.08,28.08,0,0,1,66,79.49Z"/><polygon class="cls-55" points="65.52 79.12 69.24 78.07 69.4 78.93 66.27 80.11 65.52 79.12"/><path class="cls-22" d="M63.88,76.08a17.25,17.25,0,0,0,2.39,4l1.1-.42a35.85,35.85,0,0,1-2.89-4.16Z"/><path class="cls-24" d="M66.66,78.79l-1.14.33.75,1,1.1-.42C67.13,79.41,66.89,79.1,66.66,78.79Z"/><path class="cls-3" d="M30.45,94.63c-2,1.38-5.31,15.05-5.82,15.34s-.87-.37-3.27,0-3.92,3.27-4.65,3.19-1.82-1.08-2.83,0-.88,2.25-2,3S9,119.2,10.17,121s1.88,1.28,2.39.91,2.33-3.6,4.8-5.13,5.31-1.75,7.2-2.11,1.89.66,5.09-2,6-7.13,6.9-7.85,5.82,2.1,7.2,3.12,1.35,1.09.68,1.89-1.33,4.21-1.26,7.05-.56,3.61-1,4.36A10.49,10.49,0,0,0,41,123.49c-.22.8,0,2,2,1.89s3.49-.42,4.58,0,4.07.37,4.29,0,.47-.67-1-1c-2.39-.47-5.21-2.53-5-3.11s3-10.25,3.66-11.78,1.06-2.85-2.36-6.11c-3.58-3.4-5.49-5.63-5.49-5.63Z"/><path class="cls-7" d="M24.29,110a5.21,5.21,0,0,0,1.4,4.56c1,0,1.55.08,4-1.94l-5-2.69A.64.64,0,0,1,24.29,110Z"/><path class="cls-7" d="M42.16,101l-3.07,4.33a29.76,29.76,0,0,1,4.66,2.63c-.58-1.63,2.44-4,3.27-4.57l-.47-.46Z"/><path class="cls-19" d="M47.24,103.21c-2.54.07-5.52,4.36-5.52,6.1,0,0-5.2-3.19-5.93-2.4-6.79,7.35-8.24,7.68-8.24,7.68s-3-3-3.2-4.76c-.15-1.46-.93-.85.16-1.87s2.09-4.32,2.09-6,1.6-6.32,3.85-7.34S41.6,97.79,41.6,97.79Z"/><path class="cls-5" d="M45.67,79.2c-.08.31-1.14-.37-1.24-.26-.33.39-.86,0-2.14.63a26.72,26.72,0,0,0-7.66,6.79c-2.74,3.53-6,9-6,9a7.48,7.48,0,0,0,4.31,3.73c3.2,1.11,4.92.16,5.7.14,2.52-.06,2.66-1,3-1.41s2.63-3.07,3.74-4.12A51.23,51.23,0,0,0,50,87a7.07,7.07,0,0,0,.13-4.77c-.39-.46-1.5-1.19-2-1.89A8.4,8.4,0,0,0,45.67,79.2Z"/><path class="cls-19" d="M43.83,91.57l-2.27-1.42.61-1.05a3.85,3.85,0,0,0,2.62-1c.18-.28.16-.57,0-.69s-.53,0-.79.35l-.56-.61c.61-.9,1.47-1.22,2.13-.8s.68,1.24.14,2.1-1.4,1-2.12,1.48l.88.55Z"/><path class="cls-19" d="M46.58,89.11a1.16,1.16,0,0,1,.34.14c.57.36.6,1.25.07,2.09s-1.5,1.28-2.13.88a1.46,1.46,0,0,1-.49-1.54l1-.18a.5.5,0,0,0,.18.59.58.58,0,0,0,.77-.25.49.49,0,0,0-.13-.72.46.46,0,0,0-.55,0l-.28-.68,1.45-2.28,1.89,1.19-.64,1-1.15-.73Z"/><path class="cls-3" d="M49.45,86.16a4.18,4.18,0,0,0,1.31,1.44c.39.2,1.57.48,3.46,1.09s2.88,1.2,4.38,1.13,7.77-1,7.9-.65a1,1,0,0,1,0,.66s1-.07,1,.45-3.13.59-3.13.59c-.23,0-.83.1-.17.2a17,17,0,0,1,2.75.48c0,.13.07.69-.63.61s-2.38-.36-2.71-.09.81,1,1.27,1.2.3.48.24.57a6.36,6.36,0,0,1-1.74-.68,3.91,3.91,0,0,0-1.79-.52,4,4,0,0,1-1.74-.19,22.08,22.08,0,0,0-4.33-.6c-1.5-.1-4.33.11-6.56-1.18-2-1.14-7.44-4.13-7.44-4.13l5.67-.9Z"/><path class="cls-3" d="M54.23,72c0,.77.06,1.31,0,1.58s-.92,1.27-.81,1.66,1,1.66.58,2-.64.19-.75.38.07.78,0,1-.38.31-.35.45-.06.42-.46.51-.13,1.08-.61,1.47-.81.66-2,.16-1.84-1.28-2-1.21a33.06,33.06,0,0,1-3.41-1.41,5.3,5.3,0,0,0-.68-1.61c-.42-.52-.4-4.91-.4-4.91l8.78-2.42,2,1.33Z"/><path class="cls-61" d="M44.2,77.7c-1-1.32-2.37-2.11-2.57-3.83s.07-3.44.43-3.79c0,0-.53-.75-.45-1.06,0,0,.3.56.76.47a2.7,2.7,0,0,1,1.3-1.83A6,6,0,0,1,49,66.94c2,.74,5.12,2.55,5.45,3.72s0,1.38-.17,1.32-.77-1.51-1.47-1.18a6.59,6.59,0,0,1-2.31.08c-.43,0-.79.11-1.2.9s-1.89,2.86-1.83,3.38a1.56,1.56,0,0,1-.86-1.3c0-.44-2.23-.18-1.63,1.7.5,1.59.09,2.37,0,2.36A2.06,2.06,0,0,1,44.2,77.7Z"/><path class="cls-3" d="M46.5,73.52a.89.89,0,0,0-1.22-.69,1.25,1.25,0,0,0-.89,1.43,2.57,2.57,0,0,0,.54,1.63c.42.53.47.85,1,.76a.81.81,0,0,0,.68-.58Z"/><path class="cls-3" d="M49.17,80.79c-.4-.26-.76.18-.49.77.32.75,1.15,2-.27,1.37S44.11,80,43.93,79.4c-.09-.27.5-.3.54-.85.06-.79,1.74-.19,1.74-.19Z"/><path class="cls-52" d="M50.89,123.46a18.32,18.32,0,0,1-3-.77s-1.64-1-1.74-1.31-.29-.33-.29-.33c-.74.36-3.56-.08-3.79-.15s-.59.09-.58.63a5,5,0,0,1-.37,1.55,2.49,2.49,0,0,0-.14.41c-.22.8,0,2.25,1.93,2.25s3.41-.29,4.54,0a10.32,10.32,0,0,0,4.1-.08,1,1,0,0,0,.29-.19C52.4,124.93,51.6,123.65,50.89,123.46Z"/><path class="cls-52" d="M17.74,116.58a20.56,20.56,0,0,1-1.3-2.11,1.53,1.53,0,0,1,.64-1.45c-.17-.26-.35,0-.88-.26s-1.77-1-2.93,1.28l0,0-.05.09-.09.19a.61.61,0,0,0,0,.12,3.21,3.21,0,0,1-1.21,1.65c-1.16.73-2.83,3.06-1.67,4.88s1.88,1.28,2.39.91A51,51,0,0,1,16,117.85h0c.62-.52.85-.7.92-.75h0s.78.07.86-.25A.47.47,0,0,0,17.74,116.58Z"/><path class="cls-7" d="M46,87.63s-1,.14-2,.29c1.7.94,3.84,2.12,4.93,2.75,2.23,1.29,5.06,1.08,6.56,1.18.46,0,1,.07,1.51.13-1.67-.46-4.43-.77-5.84-1.12S47.94,88.85,46,87.63Z"/><path class="cls-19" d="M39.84,85.64c-.33-1.71,1.74-4.21,4-5s3.76,1.83,4.22,2.68,1.87,2.83,1.87,2.83A6.49,6.49,0,0,1,45.7,89C45.3,89.06,40,86.29,39.84,85.64Z"/><path class="cls-51" d="M43.8,80.61c-2.22.82-4.29,3.32-4,5,.12.65,5.46,3.42,5.86,3.34a4.64,4.64,0,0,0,1.64-.58,25.23,25.23,0,0,1-6-3.69C40.84,84.14,42.2,81.5,43.8,80.61Z"/><path class="cls-55" d="M40.21,97.5c-1,0-8,2-11.09-3l-.53.86a7.48,7.48,0,0,0,4.31,3.73c3.2,1.11,4.92.16,5.7.14,2.52-.06,2.66-1,3-1.41s2.63-3.07,3.74-4.12a10.31,10.31,0,0,0,1.07-1.29h0C45.34,93.67,41.18,97.5,40.21,97.5Z"/><path class="cls-51" d="M35.45,103.59A11.17,11.17,0,0,1,35,102c-.16,3.52-6.21,10.55-6.86,10.88s-2.92-3.74-3.66-4.87c-1.09,1-.31.41-.16,1.87.19,1.77,3.2,4.76,3.2,4.76s1.35-.32,7.46-6.84h0l.78-.84a.42.42,0,0,1,.16-.09h0c1.19-.28,5.71,2.5,5.71,2.5a4,4,0,0,1,.45-1.54h0C40.45,107.61,37,106.4,35.45,103.59Z"/><path class="cls-52" d="M44.85,121.19c0-.73-.11-1.88,1.19-2s.12,2.14.12,2.14Z"/><path class="cls-52" d="M16.58,116.07s1.6-1.83,2.19-1,.35,1.45-1.41,1.76S16.58,116.07,16.58,116.07Z"/><path class="cls-62" d="M11.84,116.14c-1.16.73-2.83,3.06-1.67,4.88s1.88,1.28,2.39.91C11.14,122.11,9.11,118.53,11.84,116.14Z"/><path class="cls-62" d="M51.85,125.47c.29-.28.2-.77,0-1.19,0,1.11-3.41,1.5-5.16.91s-4.23.52-5.61-.5a1.79,1.79,0,0,0,1.88,1c2.1,0,3.41-.29,4.54,0a10.32,10.32,0,0,0,4.1-.08A1,1,0,0,0,51.85,125.47Z"/><path class="cls-7" d="M46,77.17a2.41,2.41,0,0,0,0,2.12c.55,1.15,2.88,2.78,2.88,2.78-.09-.18-.18-.35-.24-.51-.27-.59.09-1,.49-.77h0a6.35,6.35,0,0,0,.74.38C46,79.19,46,77.8,46,77.17Z"/></g></g></g></svg>