<svg xmlns="http://www.w3.org/2000/svg" viewBox="0 0 456.68 443.27"><defs><style>.cls-1{fill:#4e69ff;}.cls-2,.cls-3{fill:#9fbfff;}.cls-2,.cls-6{opacity:0.47;}.cls-4{fill:#1b1b25;}.cls-13,.cls-5{opacity:0.18;}.cls-7{opacity:0.22;}.cls-8{opacity:0.31;}.cls-9{opacity:0.61;}.cls-10,.cls-13,.cls-14,.cls-16,.cls-19,.cls-22{fill:#fff;}.cls-11{opacity:0.36;}.cls-12{fill:#292930;}.cls-14{opacity:0.1;}.cls-15{fill:#2f56f7;}.cls-16{opacity:0.93;}.cls-17{fill:#101011;}.cls-18{fill:#282830;}.cls-19{opacity:0.89;}.cls-20{opacity:0.41;}.cls-21{opacity:0.81;}.cls-22{opacity:0.44;}</style></defs><title>social_1</title><g id="Layer_2" data-name="Layer 2"><g id="BACKGROUND"><circle class="cls-1" cx="440.61" cy="381.92" r="3.5"/><circle class="cls-2" cx="422.36" cy="425.22" r="3.5"/><circle class="cls-3" cx="7.4" cy="61.84" r="2.72"/><path class="cls-1" d="M217,27.1a4.85,4.85,0,1,1-4.85-4.85A4.85,4.85,0,0,1,217,27.1Z"/><path class="cls-1" d="M12,98.78A4.58,4.58,0,1,1,7.4,94.21,4.58,4.58,0,0,1,12,98.78Z"/><circle class="cls-4" cx="42.33" cy="55.95" r="1.72"/><path class="cls-3" d="M409.57,47.92a2.72,2.72,0,1,1,3.77-.76A2.72,2.72,0,0,1,409.57,47.92Z"/><path class="cls-1" d="M375.73,23.72a4.57,4.57,0,1,1,6.34-1.28A4.58,4.58,0,0,1,375.73,23.72Z"/><path class="cls-4" d="M402.35,102.58a1.72,1.72,0,1,1,2.38-.48A1.71,1.71,0,0,1,402.35,102.58Z"/><g class="cls-5"><path class="cls-3" d="M410.59,386.16c19.45-23.32,32.91-55.62,32.52-86.36-.41-31.89-11.89-61.43-6.41-94.14C439.83,187,447.1,169,448.18,150,453.3,60.56,311.23-17.07,253.55,66.6c-4,5.74-7.23,12.09-12.45,16.71a28.43,28.43,0,0,1-24.27,6.45c-13.7-2.85-25.19-13.59-38.48-18.26A129.19,129.19,0,0,0,141,64.4,144.79,144.79,0,0,0,67.81,81.28C23.2,104.9-5.77,151.46,1,202.62,5,232.9,21.7,260,40.68,283.91c36.3,45.75,82.16,83.62,132.88,112.57,41,23.4,86.78,41.4,134,39.85A139.67,139.67,0,0,0,410.59,386.16Z"/></g><g class="cls-6"><path class="cls-3" d="M441.37,296.49c5.12-27.82,1.26-60.2-13.12-85-14.91-25.69-37.74-44.42-48.26-73.47-6-16.61-8.35-34.55-16.13-50.41-36.77-74.95-187.58-73-196.12,21.32-.58,6.47-.34,13.12-2.46,19.26a26.54,26.54,0,0,1-16.75,16.34c-12.42,3.95-26.67.49-39.59,2.78a120.47,120.47,0,0,0-33.58,11.33A134.82,134.82,0,0,0,23.7,205.84c-25.4,39.57-27.61,90.61,1.26,129C42,357.64,68,372,94.37,382.71,144.76,403.24,199.3,413,253.71,413.29c44,.25,89.37-6.1,126.94-28.93A130.18,130.18,0,0,0,441.37,296.49Z"/></g><g class="cls-7"><path class="cls-3" d="M8.24,409.44C6.46,425.9,20.62,440.92,39.86,443s49.65-8.13,51.43-24.58S63,397.82,47,388.05C24.73,374.42,10,393,8.24,409.44Z"/></g><g class="cls-6"><path class="cls-3" d="M391.42,281c3.36-18.25.83-39.49-8.6-55.73-9.79-16.86-24.76-29.14-31.66-48.2-4-10.9-5.48-22.66-10.58-33.07-24.12-49.16-123-47.86-128.65,14-.39,4.24-.23,8.6-1.62,12.63a17.41,17.41,0,0,1-11,10.72c-8.15,2.59-17.5.32-26,1.82a79,79,0,0,0-22,7.44,88.34,88.34,0,0,0-33.89,30.94c-16.66,26-18.11,59.44.83,84.65,11.2,14.92,28.25,24.33,45.53,31.37,33,13.46,68.83,19.86,104.52,20.06,28.84.16,58.62-4,83.27-19A85.4,85.4,0,0,0,391.42,281Z"/></g><g class="cls-8"><path class="cls-3" d="M423.43,129a6.29,6.29,0,1,1-4.4-7.73A6.29,6.29,0,0,1,423.43,129Z"/></g><g class="cls-8"><circle class="cls-3" cx="163.03" cy="22.25" r="22.25" transform="translate(71.54 159.01) rotate(-63.99)"/></g><g class="cls-8"><path class="cls-3" d="M456.58,217.41a6.91,6.91,0,1,1-5.62-8A6.91,6.91,0,0,1,456.58,217.41Z"/></g><g class="cls-8"><path class="cls-3" d="M442.37,23.44a6.91,6.91,0,1,1-5.62-8A6.92,6.92,0,0,1,442.37,23.44Z"/></g><g class="cls-8"><path class="cls-3" d="M36.53,159.21a4.11,4.11,0,1,1-3.34-4.76A4.13,4.13,0,0,1,36.53,159.21Z"/></g></g><g id="OBJECTS"><g class="cls-9"><path class="cls-10" d="M317.89,264.9l13.5-3.52a5.21,5.21,0,0,1,6.36,3.72l2.73,10.44a46.37,46.37,0,0,1,11.41,1.58l5.46-9.31a5.21,5.21,0,0,1,7.13-1.86l12,7.05a5.22,5.22,0,0,1,1.86,7.13l-5.45,9.32a45.65,45.65,0,0,1,6.95,9.18l10.44-2.73a5.22,5.22,0,0,1,6.36,3.73l3.53,13.5a5.23,5.23,0,0,1-3.73,6.36L386,322.22a45.57,45.57,0,0,1-1.58,11.41l9.31,5.45a5.23,5.23,0,0,1,1.87,7.14l-7.06,12a5.21,5.21,0,0,1-7.13,1.87l-9.31-5.46a45.89,45.89,0,0,1-9.18,7l2.72,10.44a5.21,5.21,0,0,1-3.73,6.36l-13.5,3.52a5.21,5.21,0,0,1-6.36-3.72l-2.72-10.44A45.44,45.44,0,0,1,328,366.2l-5.46,9.31a5.21,5.21,0,0,1-7.13,1.86l-12-7.05a5.21,5.21,0,0,1-1.86-7.13l5.45-9.31a46,46,0,0,1-7-9.19l-10.43,2.73a5.22,5.22,0,0,1-6.36-3.73l-3.53-13.5a5.22,5.22,0,0,1,3.73-6.36l10.43-2.72a46,46,0,0,1,1.59-11.42l-9.32-5.45a5.23,5.23,0,0,1-1.86-7.14l7.05-12a5.22,5.22,0,0,1,7.14-1.87l9.31,5.46a45.7,45.7,0,0,1,9.18-7l-2.72-10.44A5.21,5.21,0,0,1,317.89,264.9Zm35.12,15-.89-.26a43.42,43.42,0,0,0-12.55-1.74h-.92l-3.19-12.22a2.86,2.86,0,0,0-3.47-2l-13.5,3.53a2.84,2.84,0,0,0-2,3.46l3.19,12.22-.81.45a43.39,43.39,0,0,0-10.1,7.65l-.64.65-10.9-6.38a2.84,2.84,0,0,0-3.89,1l-7.05,12a2.85,2.85,0,0,0,1,3.89l10.9,6.39-.26.89A43.65,43.65,0,0,0,296.17,322v.93L284,326.13a2.84,2.84,0,0,0-2,3.46l3.53,13.5a2.84,2.84,0,0,0,3.47,2l12.21-3.19.45.81a43.25,43.25,0,0,0,7.65,10.1l.66.65-6.39,10.9a2.84,2.84,0,0,0,1,3.88l12,7.06a2.85,2.85,0,0,0,3.89-1l6.38-10.9.89.26a43.4,43.4,0,0,0,12.54,1.74h.93l3.19,12.22a2.85,2.85,0,0,0,3.47,2l13.5-3.53a2.85,2.85,0,0,0,2-3.46l-3.19-12.22L361,360a43.68,43.68,0,0,0,10.09-7.65l.65-.66,10.9,6.38a2.85,2.85,0,0,0,3.89-1l7-12a2.84,2.84,0,0,0-1-3.89l-10.89-6.39.25-.88a43.08,43.08,0,0,0,1.74-12.55v-.92l12.22-3.19a2.84,2.84,0,0,0,2-3.47l-3.52-13.5a2.84,2.84,0,0,0-3.47-2l-12.22,3.19-.44-.81a43.46,43.46,0,0,0-7.65-10.1l-.66-.65,6.38-10.89a2.84,2.84,0,0,0-1-3.89l-12-7.06a2.85,2.85,0,0,0-3.89,1Zm-21.42,9.85A33,33,0,1,1,308,330,33,33,0,0,1,331.59,289.76Zm16.07,61.51a30.6,30.6,0,1,0-37.35-21.88A30.63,30.63,0,0,0,347.66,351.27Z"/><path class="cls-10" d="M56.91,163l13.5-3.53a5.22,5.22,0,0,1,6.36,3.73l2.73,10.43a46,46,0,0,1,11.41,1.59L96.36,166a5.22,5.22,0,0,1,7.14-1.87l12,7a5.23,5.23,0,0,1,1.87,7.14l-5.46,9.31a45.61,45.61,0,0,1,7,9.18L129.34,194a5.21,5.21,0,0,1,6.36,3.72l3.52,13.5a5.21,5.21,0,0,1-3.72,6.36l-10.44,2.73a45.44,45.44,0,0,1-1.58,11.41l9.31,5.46a5.21,5.21,0,0,1,1.86,7.13l-7.05,12a5.21,5.21,0,0,1-7.13,1.86l-9.31-5.45a46,46,0,0,1-9.19,6.95l2.73,10.44a5.22,5.22,0,0,1-3.73,6.36l-13.5,3.53a5.23,5.23,0,0,1-6.36-3.73l-2.73-10.44A45.5,45.5,0,0,1,67,264.33l-5.45,9.31a5.23,5.23,0,0,1-7.14,1.87l-12-7.06a5.21,5.21,0,0,1-1.87-7.13L45.94,252a46,46,0,0,1-7-9.18l-10.44,2.72a5.21,5.21,0,0,1-6.36-3.72l-3.52-13.5A5.22,5.22,0,0,1,22.38,222l10.44-2.72a45.44,45.44,0,0,1,1.58-11.41l-9.31-5.46a5.21,5.21,0,0,1-1.86-7.13l7.05-12a5.23,5.23,0,0,1,7.14-1.86l9.31,5.45a45.7,45.7,0,0,1,9.18-7L53.18,169.4A5.22,5.22,0,0,1,56.91,163ZM92,178l-.88-.26a43.41,43.41,0,0,0-12.55-1.73h-.92l-3.19-12.21a2.84,2.84,0,0,0-3.47-2l-13.5,3.52a2.84,2.84,0,0,0-2,3.47L58.67,181l-.81.45a43.46,43.46,0,0,0-10.1,7.65l-.65.66-10.89-6.39a2.85,2.85,0,0,0-3.89,1l-7.06,12a2.85,2.85,0,0,0,1,3.89l10.9,6.38-.26.89a43.42,43.42,0,0,0-1.74,12.55v.92L23,224.26a2.86,2.86,0,0,0-2,3.47l3.53,13.5a2.85,2.85,0,0,0,3.46,2l12.22-3.19.44.81A43.68,43.68,0,0,0,48.25,251l.66.65-6.38,10.9a2.85,2.85,0,0,0,1,3.89l12,7a2.84,2.84,0,0,0,3.89-1l6.39-10.89.88.26a43.41,43.41,0,0,0,12.55,1.73h.93l3.18,12.21a2.84,2.84,0,0,0,3.47,2l13.5-3.52a2.84,2.84,0,0,0,2-3.47l-3.19-12.22.81-.44a43.46,43.46,0,0,0,10.1-7.65l.65-.66,10.9,6.38a2.83,2.83,0,0,0,3.88-1l7.06-12a2.85,2.85,0,0,0-1-3.89l-10.9-6.38L121,232a43.42,43.42,0,0,0,1.74-12.55v-.92l12.22-3.19a2.86,2.86,0,0,0,2-3.47l-3.53-13.5a2.85,2.85,0,0,0-3.46-2l-12.22,3.19-.44-.81a43.68,43.68,0,0,0-7.65-10.09L109,188l6.38-10.9a2.84,2.84,0,0,0-1-3.89l-12-7.05a2.85,2.85,0,0,0-3.89,1Zm-21.41,9.85A33,33,0,1,1,47,228.13,33,33,0,0,1,70.61,187.89ZM86.67,249.4a30.6,30.6,0,1,0-37.34-21.87A30.63,30.63,0,0,0,86.67,249.4Z"/><path class="cls-10" d="M328.27,227.13l6.46,1.59a25.07,25.07,0,0,0,1.12,7.3l-5.69,3.45a2.28,2.28,0,0,0-.77,3.14l4.1,6.78a2.28,2.28,0,0,0,3.14.77l5.69-3.44a25.48,25.48,0,0,0,6,4.38l-1.59,6.45a2.29,2.29,0,0,0,1.68,2.77l7.69,1.89a2.29,2.29,0,0,0,2.77-1.68l1.59-6.45a25.07,25.07,0,0,0,7.3-1.12l3.45,5.69a2.28,2.28,0,0,0,3.14.77l6.78-4.1a2.29,2.29,0,0,0,.77-3.15l-3.44-5.68a25.48,25.48,0,0,0,4.38-6l6.45,1.59a2.29,2.29,0,0,0,2.77-1.68l1.89-7.7a2.28,2.28,0,0,0-1.68-2.76l-6.45-1.59a25.19,25.19,0,0,0-1.12-7.31l5.69-3.44a2.29,2.29,0,0,0,.77-3.14l-4.1-6.78a2.29,2.29,0,0,0-3.15-.77l-5.68,3.44a25.48,25.48,0,0,0-6-4.38l1.59-6.45a2.29,2.29,0,0,0-1.68-2.77l-7.7-1.89a2.29,2.29,0,0,0-2.76,1.67L360.09,203a25.19,25.19,0,0,0-7.31,1.12l-3.44-5.69a2.28,2.28,0,0,0-3.14-.77l-6.78,4.1a2.28,2.28,0,0,0-.77,3.14l3.44,5.69a25.48,25.48,0,0,0-4.38,6L331.26,215a2.29,2.29,0,0,0-2.77,1.68l-1.89,7.69A2.29,2.29,0,0,0,328.27,227.13ZM364.56,211a18.06,18.06,0,1,1-21.84,13.23A18.05,18.05,0,0,1,364.56,211Z"/><g class="cls-11"><path class="cls-1" d="M406.81,295a2,2,0,0,1-.54-.07l-5.93-1.45a2.26,2.26,0,0,1-1.65-2.74l1.13-4.59a20,20,0,0,1-4.08-3l-4.05,2.45a2.26,2.26,0,0,1-3.1-.76l-3.16-5.22a2.26,2.26,0,0,1,.76-3.1l4.05-2.45a19.81,19.81,0,0,1-.77-5l-4.59-1.12a2.26,2.26,0,0,1-1.66-2.74l1.46-5.92a2.25,2.25,0,0,1,2.73-1.66l4.6,1.13a20.29,20.29,0,0,1,3-4.08l-2.45-4a2.28,2.28,0,0,1-.26-1.71,2.26,2.26,0,0,1,1-1.4l5.21-3.16a2.27,2.27,0,0,1,3.11.77l2.45,4a20.18,20.18,0,0,1,5-.76l1.13-4.6a2.25,2.25,0,0,1,2.73-1.65l5.93,1.45a2.26,2.26,0,0,1,1.65,2.74l-1.13,4.59a20,20,0,0,1,4.08,3l4-2.45a2.26,2.26,0,0,1,3.1.76l3.16,5.22a2.26,2.26,0,0,1-.76,3.1L429,263a19.73,19.73,0,0,1,.77,5l4.59,1.13a2.26,2.26,0,0,1,1.66,2.74l-1.46,5.92a2.25,2.25,0,0,1-2.73,1.66l-4.6-1.13a19.91,19.91,0,0,1-3,4.08l2.45,4a2.28,2.28,0,0,1,.26,1.71,2.22,2.22,0,0,1-1,1.4l-5.21,3.16a2.27,2.27,0,0,1-3.11-.77l-2.45-4a20.18,20.18,0,0,1-5,.76l-1.13,4.6A2.26,2.26,0,0,1,406.81,295Zm-10.93-13.11.28.28a19.14,19.14,0,0,0,4.47,3.28l.34.18L399.66,291a1.27,1.27,0,0,0,.92,1.53l5.93,1.45A1.27,1.27,0,0,0,408,293l1.31-5.35h.39a18.87,18.87,0,0,0,5.48-.84l.38-.11,2.85,4.71a1.26,1.26,0,0,0,1.73.42l5.22-3.16a1.25,1.25,0,0,0,.42-1.73L423,282.24l.27-.28a18.92,18.92,0,0,0,3.29-4.46l.18-.35,5.35,1.32a1.26,1.26,0,0,0,1.52-.93l1.46-5.92a1.26,1.26,0,0,0-.15-.95,1.24,1.24,0,0,0-.78-.58l-5.34-1.31v-.39a19.57,19.57,0,0,0-.84-5.48l-.12-.37,4.71-2.85a1.27,1.27,0,0,0,.43-1.73l-3.16-5.22a1.27,1.27,0,0,0-1.73-.43l-4.71,2.86-.28-.28a18.94,18.94,0,0,0-4.47-3.28l-.34-.19,1.31-5.34a1.27,1.27,0,0,0-.92-1.53l-5.92-1.45a1.29,1.29,0,0,0-1,.14,1.25,1.25,0,0,0-.57.78l-1.31,5.35h-.39a18.87,18.87,0,0,0-5.48.84l-.37.12-2.86-4.72a1.26,1.26,0,0,0-1.73-.42l-5.22,3.16a1.27,1.27,0,0,0-.57.77,1.25,1.25,0,0,0,.15,1l2.85,4.71-.27.28a18.92,18.92,0,0,0-3.29,4.46l-.18.35-5.34-1.32a1.25,1.25,0,0,0-1,.15,1.23,1.23,0,0,0-.57.78l-1.46,5.92a1.26,1.26,0,0,0,.93,1.52l5.34,1.32v.39a19.26,19.26,0,0,0,.83,5.48l.12.37-4.71,2.85a1.27,1.27,0,0,0-.43,1.73l3.16,5.22a1.27,1.27,0,0,0,1.73.43Zm13.73,1.05a13.94,13.94,0,0,1-3.43-.42,14.4,14.4,0,1,1,6.87-28h0a14.4,14.4,0,0,1-3.44,28.38Zm0-27.8a13.4,13.4,0,1,0,3.22.39h0A13.63,13.63,0,0,0,409.59,255.11Z"/></g></g><path class="cls-12" d="M281.8,346l-108,46.55a17.76,17.76,0,0,1-23.35-9.28L51.18,153a17.77,17.77,0,0,1,9.29-23.35l108-46.56a17.77,17.77,0,0,1,23.35,9.29l99.26,230.26A17.78,17.78,0,0,1,281.8,346Z"/><path class="cls-10" d="M268.38,337.75l-92,39.65A17.76,17.76,0,0,1,153,368.11L62.31,157.65a17.79,17.79,0,0,1,9.29-23.36l92-39.65a17.77,17.77,0,0,1,23.35,9.29l90.72,210.46A17.77,17.77,0,0,1,268.38,337.75Z"/><path class="cls-3" d="M265.8,331.76l-92,39.65c-9,3.89-19.29.14-23-8.38L65.14,164.21c-3.67-8.51.67-18.56,9.68-22.45l92-39.65c9-3.89,19.29-.13,23,8.38l85.7,198.82C279.14,317.83,274.81,327.88,265.8,331.76Z"/><path class="cls-12" d="M151.74,114.74,97.12,138.29a6.9,6.9,0,0,1-9.05-3.6L85,127.88l67.23-29.4,3.13,7.22A6.87,6.87,0,0,1,151.74,114.74Z"/><path class="cls-10" d="M102.78,131a3.57,3.57,0,1,1,3.27-5h0a3.58,3.58,0,0,1-1.86,4.69A3.53,3.53,0,0,1,102.78,131Zm0-6.13a2.41,2.41,0,0,0-1,.21,2.56,2.56,0,0,0-1.35,3.37,2.57,2.57,0,1,0,4.72-2h0A2.58,2.58,0,0,0,102.77,124.82Z"/><path class="cls-10" d="M113.51,125.38a2.79,2.79,0,0,1-2.57-1.69,2.74,2.74,0,0,1,0-2.14A2.81,2.81,0,0,1,112.4,120l26.14-11.27a2.79,2.79,0,0,1,2.14,0,2.73,2.73,0,0,1,1.54,1.48,2.8,2.8,0,0,1-1.46,3.68l-26.15,11.27A2.68,2.68,0,0,1,113.51,125.38Zm26.14-15.87a1.78,1.78,0,0,0-.71.15l-26.15,11.27a1.8,1.8,0,0,0,1.43,3.3L140.36,113a1.8,1.8,0,0,0-.05-3.32A1.89,1.89,0,0,0,139.65,109.51Z"/><polygon class="cls-13" points="192.23 116.2 93.02 228.88 104.94 256.54 201.38 137.42 192.23 116.2"/><polygon class="cls-14" points="208.23 153.81 116.95 284.9 128.88 312.56 217.76 175.93 208.23 153.81"/><ellipse class="cls-15" cx="238.12" cy="81.67" rx="45.56" ry="45.03" transform="translate(89.46 284.83) rotate(-72.74)"/><ellipse class="cls-1" cx="235.76" cy="76.21" rx="45.56" ry="45.03" transform="translate(92.99 278.72) rotate(-72.73)"/><ellipse class="cls-16" cx="235.76" cy="76.21" rx="35.02" ry="34.61" transform="translate(93.01 278.73) rotate(-72.74)"/><path class="cls-3" d="M236.5,73.81h0a1.68,1.68,0,0,1-1.1-2.1l6.06-19.5a1.68,1.68,0,0,1,2.1-1.11h0a1.68,1.68,0,0,1,1.11,2.1l-6.06,19.51A1.69,1.69,0,0,1,236.5,73.81Z"/><path class="cls-3" d="M235.68,76.79h0a1.67,1.67,0,0,1,2.1-1.1l15,4.67a1.68,1.68,0,0,1,1.11,2.1h0a1.69,1.69,0,0,1-2.11,1.11l-15-4.68A1.67,1.67,0,0,1,235.68,76.79Z"/><path class="cls-4" d="M240.57,77.71a5,5,0,1,1-3.3-6.36A5.07,5.07,0,0,1,240.57,77.71Z"/><path class="cls-17" d="M298,311.21l-84.78-29.39A15,15,0,0,1,204,262.74L274.51,59.31a15,15,0,0,1,19.07-9.25l84.78,29.4a15,15,0,0,1,9.25,19.07L317.07,302A15,15,0,0,1,298,311.21Z"/><path class="cls-18" d="M296.59,307.24l-79.81-27.67a14.37,14.37,0,0,1-8.53-18.45L277.13,62.47a14.38,14.38,0,0,1,18.13-9.2l79.8,27.67a14.39,14.39,0,0,1,8.54,18.45L314.71,298A14.37,14.37,0,0,1,296.59,307.24Z"/><rect class="cls-10" x="202.2" y="128.59" width="186.85" height="105.59" transform="translate(27.4 401.27) rotate(-70.88)"/><path class="cls-19" d="M332.7,76a1.7,1.7,0,0,1-.59-.1,1.77,1.77,0,0,1-1-.91,1.81,1.81,0,1,1,3.33-.2A1.81,1.81,0,0,1,332.7,76Zm0-2.6a.72.72,0,0,0-.35.08.75.75,0,0,0-.41.46.81.81,0,0,0,0,.61.84.84,0,0,0,.46.41.79.79,0,0,0,.62,0,.81.81,0,0,0,.41-.46h0a.81.81,0,0,0-.5-1A.82.82,0,0,0,332.7,73.4Z"/><path class="cls-19" d="M340,85a1.31,1.31,0,0,1-.44-.07h0l-18.88-6.55a1.38,1.38,0,0,1-.85-1.74,1.37,1.37,0,0,1,1.75-.85l18.88,6.55a1.38,1.38,0,0,1,.79.69A1.37,1.37,0,0,1,340,85Zm-.12-1a.36.36,0,0,0,.47-.23.39.39,0,0,0,0-.28.41.41,0,0,0-.22-.19l-18.88-6.55a.38.38,0,0,0-.28,0,.37.37,0,0,0,0,.68L339.88,84Z"/><g class="cls-20"><g class="cls-21"><rect class="cls-3" x="209.51" y="133.54" width="174.69" height="94.43" transform="matrix(0.33, -0.94, 0.94, 0.33, 28.83, 402.01)"/></g></g><path class="cls-10" d="M270.31,290.44a4.15,4.15,0,0,1-1.34-.23l-20-6.92a4.09,4.09,0,0,1-2.53-5.2l.12-.35a4.1,4.1,0,0,1,2.08-2.34,4,4,0,0,1,3.13-.18l19.95,6.92a4.09,4.09,0,0,1,2.52,5.2l-.12.35a4.06,4.06,0,0,1-2.08,2.34A4.11,4.11,0,0,1,270.31,290.44Zm-22.87-12a3.09,3.09,0,0,0,1.9,3.93l20,6.92a3.09,3.09,0,0,0,3.93-1.91l.12-.35a3.09,3.09,0,0,0-1.91-3.93l-19.95-6.92a3.09,3.09,0,0,0-3.93,1.91Z"/><polygon class="cls-13" points="270.68 92.18 356.22 167.8 346.1 196.96 263.21 112.23 270.68 92.18"/><polygon class="cls-13" points="257.82 128.99 343.36 204.61 333.25 233.78 255.22 135.98 257.82 128.99"/><path class="cls-15" d="M120.43,89.09l-26,2.44a10.14,10.14,0,0,1-11-9.13L81.24,58.7a10.12,10.12,0,0,1,9.09-11l26-2.45a10.12,10.12,0,0,1,11,9.13l2.23,23.7A10.13,10.13,0,0,1,120.43,89.09Z"/><rect class="cls-1" x="85.66" y="46.21" width="42.68" height="40.49" rx="9.3" transform="translate(-5.75 10.31) rotate(-5.37)"/><path class="cls-10" d="M99,78.38l-.18,0-.26-.11,0-.29a9.75,9.75,0,0,1,4-9,7.35,7.35,0,1,1,9.33-1.08,9.74,9.74,0,0,1,6,7.9l0,.28-.24.18C117.28,76.48,100.93,78.38,99,78.38Zm7.58-22a6.23,6.23,0,0,0-.74,0,6.35,6.35,0,0,0-2.1,12l.82.41-.79.46a8.76,8.76,0,0,0-4.3,8.08c2.49-.19,14.9-1.62,17.35-2a8.77,8.77,0,0,0-6-6.89l-.88-.27.71-.59A6.34,6.34,0,0,0,112.88,62a6.34,6.34,0,0,0-6.3-5.62Z"/><path class="cls-10" d="M287.05,353.89l-57.23-18a2.51,2.51,0,0,0-3.15,1.64l-1.93,6.15-1,3-9.33,29.6-.81,2.57-.12.39a2.51,2.51,0,0,0,1.64,3.15l57.23,18a2.51,2.51,0,0,0,3.15-1.64l.15-.49.73-2.31,10.09-32,1-3,1.22-3.88A2.5,2.5,0,0,0,287.05,353.89Z"/><path class="cls-1" d="M245,363.5l5.23,5.28a1.33,1.33,0,0,0,1.2.35l33-7.62,2.48-.57a1.24,1.24,0,0,1,.54,0l1.22-3.88a2.5,2.5,0,0,0-1.64-3.15l-57.23-18a2.51,2.51,0,0,0-3.15,1.64l-1.93,6.15,1.27,1.24Z"/><polygon class="cls-1" points="223.79 346.65 214.46 376.26 242.41 364.92 223.79 346.65"/><polygon class="cls-1" points="276.43 395.96 286.52 363.92 259.93 370.05 276.43 395.96"/><path class="cls-1" d="M274.18,397.67,257,370.72l-5,1.16a4.17,4.17,0,0,1-2.11-.1,4.12,4.12,0,0,1-1.68-1L244.54,367a1.12,1.12,0,0,1-.28.16l-29.19,11.85a1.42,1.42,0,0,1-.95,0,1.66,1.66,0,0,1-.47-.26l-.12.39a2.51,2.51,0,0,0,1.64,3.15l57.23,18a2.51,2.51,0,0,0,3.15-1.64l.15-.49a1.4,1.4,0,0,1-.76,0A1.36,1.36,0,0,1,274.18,397.67Z"/><rect class="cls-15" x="209.75" y="161.14" width="42.68" height="40.49" rx="9.3" transform="translate(-52.92 106.29) rotate(-23.32)"/><rect class="cls-1" x="208.79" y="158.62" width="42.68" height="40.49" rx="9.3" transform="translate(-52 105.7) rotate(-23.32)"/><path class="cls-10" d="M230.14,187.16a8.32,8.32,0,1,1,3.27-.68A8.31,8.31,0,0,1,230.14,187.16Zm0-15.6a7.3,7.3,0,1,0,6.7,4.41h0a7.33,7.33,0,0,0-6.7-4.41Z"/><rect class="cls-15" x="335.57" y="132.64" width="57.98" height="61.11" rx="13.32" transform="translate(170.07 512.06) rotate(-84.98)"/><rect class="cls-1" x="339.68" y="129.13" width="57.98" height="61.11" rx="13.32" transform="translate(177.31 512.97) rotate(-84.98)"/><path class="cls-10" d="M367.93,175.85l-.64,0h0a6.82,6.82,0,0,1-6.14-6.11l-.06-.6,13.55,1.27-.17.59A6.83,6.83,0,0,1,367.93,175.85Zm-5.69-5.63a5.84,5.84,0,0,0,5.15,4.61h0a5.85,5.85,0,0,0,5.92-3.57Z"/><path class="cls-10" d="M377.87,171.66l-.61,0-19-1.79A6.46,6.46,0,0,1,358,157l.58-6.16a11.06,11.06,0,1,1,22,2.07l-.58,6.17a6.45,6.45,0,0,1-2.11,12.55Zm-8.33-29.82a10.07,10.07,0,0,0-10,9.12l-.66,7-.42,0a5.46,5.46,0,0,0-.07,10.87l19,1.79a5.47,5.47,0,0,0,5.95-4.92,5.44,5.44,0,0,0-4-5.77l-.4-.11.66-7a10.08,10.08,0,0,0-9.08-11C370.17,141.85,369.85,141.84,369.54,141.84Z"/><rect class="cls-15" x="24.29" y="249.19" width="156.1" height="75.13" rx="11.06" transform="translate(-106.64 65.33) rotate(-23.7)"/><rect class="cls-1" x="27.24" y="248.57" width="151.47" height="67.77" rx="7.61" transform="translate(-104.85 65.22) rotate(-23.7)"/><rect class="cls-22" x="46.3" y="277.67" width="40.22" height="40.22" transform="translate(-114.1 51.81) rotate(-23.7)"/><path class="cls-10" d="M92.86,274.68a1,1,0,0,1-.92-.6,1,1,0,0,1,.52-1.31l54.94-24.12a1,1,0,1,1,.8,1.83L93.26,274.6A1,1,0,0,1,92.86,274.68Z"/><path class="cls-10" d="M105.1,302.57a1,1,0,0,1-.91-.6,1,1,0,0,1,.51-1.31l54.94-24.13a1,1,0,0,1,.81,1.84l-54.94,24.12A1.19,1.19,0,0,1,105.1,302.57Z"/><path class="cls-10" d="M99,288.63a1,1,0,0,1-.91-.6,1,1,0,0,1,.51-1.32l29-12.73a1,1,0,1,1,.81,1.83l-29,12.73A.93.93,0,0,1,99,288.63Z"/><path class="cls-10" d="M134.68,273a1,1,0,0,1-.4-1.91l19.24-8.45a1,1,0,1,1,.8,1.83l-19.24,8.45A1,1,0,0,1,134.68,273Z"/><path class="cls-15" d="M389.52,312.2c.44,10.41-11.06,33.09-16.78,42.4a4.9,4.9,0,0,1-8.19,0c-6.76-8.59-21.9-30.06-22.34-40.47a23.68,23.68,0,1,1,47.31-2Z"/><path class="cls-1" d="M392.07,310.93c.43,10.41-13.61,34.36-19.33,43.67a3.07,3.07,0,0,1-5.08.21c-6.48-8.8-22.47-31.5-22.9-41.9a23.68,23.68,0,1,1,47.31-2Z"/><path class="cls-10" d="M382.43,310.93a14,14,0,1,1-14.62-13.44A14.06,14.06,0,0,1,382.43,310.93Z"/></g></g></svg>